%TF.GenerationSoftware,KiCad,Pcbnew,9.0.6*%
%TF.CreationDate,2026-02-12T21:56:09-05:00*%
%TF.ProjectId,EKG_AQUISITION_MSP430,454b475f-4151-4554-9953-4954494f4e5f,rev?*%
%TF.SameCoordinates,Original*%
%TF.FileFunction,Copper,L1,Top*%
%TF.FilePolarity,Positive*%
%FSLAX46Y46*%
G04 Gerber Fmt 4.6, Leading zero omitted, Abs format (unit mm)*
G04 Created by KiCad (PCBNEW 9.0.6) date 2026-02-12 21:56:09*
%MOMM*%
%LPD*%
G01*
G04 APERTURE LIST*
G04 Aperture macros list*
%AMRoundRect*
0 Rectangle with rounded corners*
0 $1 Rounding radius*
0 $2 $3 $4 $5 $6 $7 $8 $9 X,Y pos of 4 corners*
0 Add a 4 corners polygon primitive as box body*
4,1,4,$2,$3,$4,$5,$6,$7,$8,$9,$2,$3,0*
0 Add four circle primitives for the rounded corners*
1,1,$1+$1,$2,$3*
1,1,$1+$1,$4,$5*
1,1,$1+$1,$6,$7*
1,1,$1+$1,$8,$9*
0 Add four rect primitives between the rounded corners*
20,1,$1+$1,$2,$3,$4,$5,0*
20,1,$1+$1,$4,$5,$6,$7,0*
20,1,$1+$1,$6,$7,$8,$9,0*
20,1,$1+$1,$8,$9,$2,$3,0*%
G04 Aperture macros list end*
%TA.AperFunction,SMDPad,CuDef*%
%ADD10RoundRect,0.100000X0.100000X0.575000X-0.100000X0.575000X-0.100000X-0.575000X0.100000X-0.575000X0*%
%TD*%
%TA.AperFunction,HeatsinkPad*%
%ADD11O,1.000000X1.900000*%
%TD*%
%TA.AperFunction,SMDPad,CuDef*%
%ADD12R,0.875000X1.900000*%
%TD*%
%TA.AperFunction,HeatsinkPad*%
%ADD13O,1.050000X1.250000*%
%TD*%
%TA.AperFunction,SMDPad,CuDef*%
%ADD14RoundRect,0.250000X1.200000X0.700000X-1.200000X0.700000X-1.200000X-0.700000X1.200000X-0.700000X0*%
%TD*%
%TA.AperFunction,SMDPad,CuDef*%
%ADD15RoundRect,0.225000X-0.250000X0.225000X-0.250000X-0.225000X0.250000X-0.225000X0.250000X0.225000X0*%
%TD*%
%TA.AperFunction,SMDPad,CuDef*%
%ADD16RoundRect,0.225000X-0.225000X-0.250000X0.225000X-0.250000X0.225000X0.250000X-0.225000X0.250000X0*%
%TD*%
%TA.AperFunction,SMDPad,CuDef*%
%ADD17RoundRect,0.200000X0.275000X-0.200000X0.275000X0.200000X-0.275000X0.200000X-0.275000X-0.200000X0*%
%TD*%
%TA.AperFunction,SMDPad,CuDef*%
%ADD18RoundRect,0.250000X-0.475000X0.250000X-0.475000X-0.250000X0.475000X-0.250000X0.475000X0.250000X0*%
%TD*%
%TA.AperFunction,SMDPad,CuDef*%
%ADD19RoundRect,0.243750X-0.243750X-0.456250X0.243750X-0.456250X0.243750X0.456250X-0.243750X0.456250X0*%
%TD*%
%TA.AperFunction,SMDPad,CuDef*%
%ADD20RoundRect,0.250000X0.250000X0.475000X-0.250000X0.475000X-0.250000X-0.475000X0.250000X-0.475000X0*%
%TD*%
%TA.AperFunction,SMDPad,CuDef*%
%ADD21RoundRect,0.250000X-0.250000X-0.475000X0.250000X-0.475000X0.250000X0.475000X-0.250000X0.475000X0*%
%TD*%
%TA.AperFunction,SMDPad,CuDef*%
%ADD22RoundRect,0.200000X-0.275000X0.200000X-0.275000X-0.200000X0.275000X-0.200000X0.275000X0.200000X0*%
%TD*%
%TA.AperFunction,SMDPad,CuDef*%
%ADD23R,1.524000X0.228600*%
%TD*%
%TA.AperFunction,SMDPad,CuDef*%
%ADD24R,0.228600X1.524000*%
%TD*%
%TA.AperFunction,SMDPad,CuDef*%
%ADD25RoundRect,0.200000X-0.200000X-0.275000X0.200000X-0.275000X0.200000X0.275000X-0.200000X0.275000X0*%
%TD*%
%TA.AperFunction,SMDPad,CuDef*%
%ADD26R,0.279400X1.676400*%
%TD*%
%TA.AperFunction,SMDPad,CuDef*%
%ADD27R,1.676400X0.279400*%
%TD*%
%TA.AperFunction,SMDPad,CuDef*%
%ADD28RoundRect,0.200000X0.200000X0.275000X-0.200000X0.275000X-0.200000X-0.275000X0.200000X-0.275000X0*%
%TD*%
%TA.AperFunction,ComponentPad*%
%ADD29R,1.700000X1.700000*%
%TD*%
%TA.AperFunction,ComponentPad*%
%ADD30C,1.700000*%
%TD*%
%TA.AperFunction,SMDPad,CuDef*%
%ADD31RoundRect,0.225000X0.250000X-0.225000X0.250000X0.225000X-0.250000X0.225000X-0.250000X-0.225000X0*%
%TD*%
%TA.AperFunction,SMDPad,CuDef*%
%ADD32RoundRect,0.250000X-0.450000X-0.350000X0.450000X-0.350000X0.450000X0.350000X-0.450000X0.350000X0*%
%TD*%
%TA.AperFunction,SMDPad,CuDef*%
%ADD33R,3.000000X0.900000*%
%TD*%
%TA.AperFunction,ComponentPad*%
%ADD34C,1.980000*%
%TD*%
%TA.AperFunction,SMDPad,CuDef*%
%ADD35RoundRect,0.150000X-0.587500X-0.150000X0.587500X-0.150000X0.587500X0.150000X-0.587500X0.150000X0*%
%TD*%
%TA.AperFunction,SMDPad,CuDef*%
%ADD36RoundRect,0.062500X-0.375000X-0.062500X0.375000X-0.062500X0.375000X0.062500X-0.375000X0.062500X0*%
%TD*%
%TA.AperFunction,SMDPad,CuDef*%
%ADD37RoundRect,0.062500X-0.062500X-0.375000X0.062500X-0.375000X0.062500X0.375000X-0.062500X0.375000X0*%
%TD*%
%TA.AperFunction,HeatsinkPad*%
%ADD38R,1.600000X1.600000*%
%TD*%
%TA.AperFunction,SMDPad,CuDef*%
%ADD39RoundRect,0.062500X-0.350000X-0.062500X0.350000X-0.062500X0.350000X0.062500X-0.350000X0.062500X0*%
%TD*%
%TA.AperFunction,HeatsinkPad*%
%ADD40R,1.200000X2.000000*%
%TD*%
%TA.AperFunction,SMDPad,CuDef*%
%ADD41RoundRect,0.225000X0.225000X0.250000X-0.225000X0.250000X-0.225000X-0.250000X0.225000X-0.250000X0*%
%TD*%
%TA.AperFunction,ComponentPad*%
%ADD42C,4.000000*%
%TD*%
%TA.AperFunction,ComponentPad*%
%ADD43R,1.600000X1.600000*%
%TD*%
%TA.AperFunction,ComponentPad*%
%ADD44C,1.600000*%
%TD*%
%TA.AperFunction,ComponentPad*%
%ADD45C,1.200000*%
%TD*%
%TA.AperFunction,ComponentPad*%
%ADD46RoundRect,0.180000X0.420000X-0.720000X0.420000X0.720000X-0.420000X0.720000X-0.420000X-0.720000X0*%
%TD*%
%TA.AperFunction,ViaPad*%
%ADD47C,0.600000*%
%TD*%
%TA.AperFunction,Conductor*%
%ADD48C,0.200000*%
%TD*%
%TA.AperFunction,Conductor*%
%ADD49C,0.400000*%
%TD*%
%TA.AperFunction,Conductor*%
%ADD50C,0.300000*%
%TD*%
G04 APERTURE END LIST*
D10*
%TO.P,J1,1,VBUS*%
%TO.N,Net-(J1-VBUS)*%
X166950000Y-66275000D03*
%TO.P,J1,2,D-*%
%TO.N,unconnected-(J1-D--Pad2)*%
X167600000Y-66275000D03*
%TO.P,J1,3,D+*%
%TO.N,unconnected-(J1-D+-Pad3)*%
X168250000Y-66275000D03*
%TO.P,J1,4,ID*%
%TO.N,unconnected-(J1-ID-Pad4)*%
X168900000Y-66275000D03*
%TO.P,J1,5,GND*%
%TO.N,GND*%
X169550000Y-66275000D03*
D11*
%TO.P,J1,6,Shield*%
%TO.N,Net-(J1-Shield)*%
X172425000Y-63600000D03*
D12*
X171987500Y-63600000D03*
D13*
X170475000Y-66600000D03*
D14*
X168250000Y-63600000D03*
D13*
X166025000Y-66600000D03*
D12*
X164512500Y-63600000D03*
D11*
X164075000Y-63600000D03*
%TD*%
D15*
%TO.P,C28,1*%
%TO.N,GND*%
X134960850Y-83060000D03*
%TO.P,C28,2*%
%TO.N,+3V3*%
X134960850Y-84610000D03*
%TD*%
D16*
%TO.P,C19,1*%
%TO.N,GND*%
X143910849Y-76310000D03*
%TO.P,C19,2*%
%TO.N,VSYS*%
X145460849Y-76310000D03*
%TD*%
D17*
%TO.P,R15,1*%
%TO.N,Net-(U4-ISET)*%
X163460849Y-86335000D03*
%TO.P,R15,2*%
%TO.N,GND*%
X163460849Y-84685000D03*
%TD*%
D18*
%TO.P,C9,1*%
%TO.N,Net-(U3-VREFP)*%
X97098350Y-94335000D03*
%TO.P,C9,2*%
%TO.N,GNDA*%
X97098350Y-96235000D03*
%TD*%
D19*
%TO.P,D5,1,K*%
%TO.N,Net-(D5-K)*%
X164985849Y-94000000D03*
%TO.P,D5,2,A*%
%TO.N,Net-(D5-A)*%
X166860849Y-94000000D03*
%TD*%
D20*
%TO.P,C24,1*%
%TO.N,GND*%
X169360849Y-90835000D03*
%TO.P,C24,2*%
%TO.N,VSYS*%
X167460849Y-90835000D03*
%TD*%
D16*
%TO.P,C1,1*%
%TO.N,/LF_IN*%
X90500000Y-86000000D03*
%TO.P,C1,2*%
%TO.N,GNDA*%
X92050000Y-86000000D03*
%TD*%
%TO.P,C4,1*%
%TO.N,/RLD*%
X100950000Y-83500000D03*
%TO.P,C4,2*%
%TO.N,GNDA*%
X102500000Y-83500000D03*
%TD*%
D21*
%TO.P,C20,1*%
%TO.N,GND*%
X152060849Y-73835000D03*
%TO.P,C20,2*%
%TO.N,+3V3*%
X153960849Y-73835000D03*
%TD*%
%TO.P,C21,1*%
%TO.N,GND*%
X143510849Y-74310000D03*
%TO.P,C21,2*%
%TO.N,VSYS*%
X145410849Y-74310000D03*
%TD*%
D16*
%TO.P,C15,1*%
%TO.N,+3V3*%
X137185849Y-95835000D03*
%TO.P,C15,2*%
%TO.N,GND*%
X138735849Y-95835000D03*
%TD*%
D21*
%TO.P,C27,1*%
%TO.N,GND*%
X122960849Y-81835000D03*
%TO.P,C27,2*%
%TO.N,+3V3*%
X124860849Y-81835000D03*
%TD*%
D16*
%TO.P,C12,1*%
%TO.N,GND*%
X123685849Y-83835000D03*
%TO.P,C12,2*%
%TO.N,+3V3*%
X125235849Y-83835000D03*
%TD*%
%TO.P,C26,1*%
%TO.N,GND*%
X159300000Y-63335000D03*
%TO.P,C26,2*%
%TO.N,Net-(J1-Shield)*%
X160850000Y-63335000D03*
%TD*%
D22*
%TO.P,R14,1*%
%TO.N,Net-(U1-P4.3{slash}PM_UCB1CLK{slash}PM_UCA1STE)*%
X125960849Y-103010000D03*
%TO.P,R14,2*%
%TO.N,MCU_SCLK*%
X125960849Y-104660000D03*
%TD*%
%TO.P,R13,1*%
%TO.N,+3V3*%
X138460850Y-85675000D03*
%TO.P,R13,2*%
%TO.N,/MCU/SBWDTIO*%
X138460850Y-87325000D03*
%TD*%
D23*
%TO.P,U3,1,PGA1N*%
%TO.N,unconnected-(U3-PGA1N-Pad1)*%
X97799150Y-87335001D03*
%TO.P,U3,2,PGA1P*%
%TO.N,unconnected-(U3-PGA1P-Pad2)*%
X97799150Y-87835000D03*
%TO.P,U3,3,IN1N*%
%TO.N,/RF_IN*%
X97799150Y-88334999D03*
%TO.P,U3,4,IN1P*%
%TO.N,/LF_IN*%
X97799150Y-88835000D03*
%TO.P,U3,5,IN2N*%
%TO.N,/RF_IN*%
X97799150Y-89335000D03*
%TO.P,U3,6,IN2P*%
%TO.N,/HB_IN*%
X97799150Y-89835001D03*
%TO.P,U3,7,PGA2N*%
%TO.N,unconnected-(U3-PGA2N-Pad7)*%
X97799150Y-90335000D03*
%TO.P,U3,8,PGA2P*%
%TO.N,unconnected-(U3-PGA2P-Pad8)*%
X97799150Y-90834999D03*
D24*
%TO.P,U3,9,VREFP*%
%TO.N,Net-(U3-VREFP)*%
X99198751Y-92234600D03*
%TO.P,U3,10,VREFN*%
%TO.N,GNDA*%
X99698750Y-92234600D03*
%TO.P,U3,11,VCAP1*%
%TO.N,Net-(U3-VCAP1)*%
X100198749Y-92234600D03*
%TO.P,U3,12,AVDD*%
%TO.N,+3V3*%
X100698750Y-92234600D03*
%TO.P,U3,13,AVSS*%
%TO.N,GNDA*%
X101198750Y-92234600D03*
%TO.P,U3,14,CLKSEL*%
%TO.N,Net-(R11-Pad1)*%
X101698751Y-92234600D03*
%TO.P,U3,15,\u002APWDN/\u002ARESET*%
%TO.N,MCU_RESET_N*%
X102198750Y-92234600D03*
%TO.P,U3,16,START*%
%TO.N,MCU_START*%
X102698749Y-92234600D03*
D23*
%TO.P,U3,17,CLKSEL*%
%TO.N,unconnected-(U3-CLKSEL-Pad17)*%
X104098350Y-90834999D03*
%TO.P,U3,18,\u002ACS*%
%TO.N,MCU_CS*%
X104098350Y-90335000D03*
%TO.P,U3,19,DIN*%
%TO.N,MCU_MOSI*%
X104098350Y-89835001D03*
%TO.P,U3,20,SCLK*%
%TO.N,MCU_SCLK*%
X104098350Y-89335000D03*
%TO.P,U3,21,DOUT*%
%TO.N,MCU_MISO*%
X104098350Y-88835000D03*
%TO.P,U3,22,\u002ADRDY*%
%TO.N,MCU_DRDY*%
X104098350Y-88334999D03*
%TO.P,U3,23,DVDD*%
%TO.N,+3V3*%
X104098350Y-87835000D03*
%TO.P,U3,24,DGND*%
%TO.N,GND*%
X104098350Y-87335001D03*
D24*
%TO.P,U3,25,GPIO2/RCLK2*%
%TO.N,unconnected-(U3-GPIO2{slash}RCLK2-Pad25)*%
X102698749Y-85935400D03*
%TO.P,U3,26,GPIO1/RCLK1*%
%TO.N,unconnected-(U3-GPIO1{slash}RCLK1-Pad26)*%
X102198750Y-85935400D03*
%TO.P,U3,27,VCAP2*%
%TO.N,unconnected-(U3-VCAP2-Pad27)*%
X101698751Y-85935400D03*
%TO.P,U3,28,RLDINV*%
%TO.N,unconnected-(U3-RLDINV-Pad28)*%
X101198750Y-85935400D03*
%TO.P,U3,29,RLDIN/RLDREF*%
%TO.N,/RLD*%
X100698750Y-85935400D03*
%TO.P,U3,30,RLDOUT*%
%TO.N,unconnected-(U3-RLDOUT-Pad30)*%
X100198749Y-85935400D03*
%TO.P,U3,31,RESP_MODP/IN3P*%
%TO.N,unconnected-(U3-RESP_MODP{slash}IN3P-Pad31)*%
X99698750Y-85935400D03*
%TO.P,U3,32,RESP_MODN/IN3N*%
%TO.N,unconnected-(U3-RESP_MODN{slash}IN3N-Pad32)*%
X99198751Y-85935400D03*
%TD*%
D25*
%TO.P,R22,1*%
%TO.N,Net-(D5-A)*%
X168485849Y-94000000D03*
%TO.P,R22,2*%
%TO.N,VSYS*%
X170135849Y-94000000D03*
%TD*%
D26*
%TO.P,U1,1,P6.4/CB4/A4*%
%TO.N,unconnected-(U1-P6.4{slash}CB4{slash}A4-Pad1)*%
X132960850Y-86835000D03*
%TO.P,U1,2,P6.5/CB5/A5*%
%TO.N,unconnected-(U1-P6.5{slash}CB5{slash}A5-Pad2)*%
X132460848Y-86835000D03*
%TO.P,U1,3,P6.6/CB6/A6*%
%TO.N,unconnected-(U1-P6.6{slash}CB6{slash}A6-Pad3)*%
X131960849Y-86835000D03*
%TO.P,U1,4,P6.7/CB7/A7*%
%TO.N,unconnected-(U1-P6.7{slash}CB7{slash}A7-Pad4)*%
X131460850Y-86835000D03*
%TO.P,U1,5,P7.0/CB8/A12*%
%TO.N,unconnected-(U1-P7.0{slash}CB8{slash}A12-Pad5)*%
X130960849Y-86835000D03*
%TO.P,U1,6,P7.1/CB9/A13*%
%TO.N,unconnected-(U1-P7.1{slash}CB9{slash}A13-Pad6)*%
X130460850Y-86835000D03*
%TO.P,U1,7,P7.2/CB10/A14*%
%TO.N,unconnected-(U1-P7.2{slash}CB10{slash}A14-Pad7)*%
X129960848Y-86835000D03*
%TO.P,U1,8,P7.3/CB11/A15*%
%TO.N,unconnected-(U1-P7.3{slash}CB11{slash}A15-Pad8)*%
X129460849Y-86835000D03*
%TO.P,U1,9,P5.0/A8/VREF+/VeREF+*%
%TO.N,unconnected-(U1-P5.0{slash}A8{slash}VREF+{slash}VeREF+-Pad9)*%
X128960850Y-86835000D03*
%TO.P,U1,10,P5.1/A9/VREF-/VeREF-*%
%TO.N,unconnected-(U1-P5.1{slash}A9{slash}VREF-{slash}VeREF--Pad10)*%
X128460849Y-86835000D03*
%TO.P,U1,11,AVCC1*%
%TO.N,+3V3*%
X127960849Y-86835000D03*
%TO.P,U1,12,P5.4/XIN*%
%TO.N,Net-(U1-P5.4{slash}XIN)*%
X127460851Y-86835000D03*
%TO.P,U1,13,P5.5/XOUT*%
%TO.N,Net-(U1-P5.5{slash}XOUT)*%
X126960849Y-86835000D03*
%TO.P,U1,14,AVSS1*%
%TO.N,GND*%
X126460850Y-86835000D03*
%TO.P,U1,15,P8.0*%
%TO.N,unconnected-(U1-P8.0-Pad15)*%
X125960848Y-86835000D03*
%TO.P,U1,16,P8.1*%
%TO.N,unconnected-(U1-P8.1-Pad16)*%
X125460849Y-86835000D03*
%TO.P,U1,17,P8.2*%
%TO.N,unconnected-(U1-P8.2-Pad17)*%
X124960850Y-86835000D03*
%TO.P,U1,18,DVCC1*%
%TO.N,+3V3*%
X124460849Y-86835000D03*
%TO.P,U1,19,DVSS1*%
%TO.N,GND*%
X123960850Y-86835000D03*
%TO.P,U1,20,VCORE*%
%TO.N,+3V3*%
X123460848Y-86835000D03*
D27*
%TO.P,U1,21,P1.0/TA0CLK/ACLK*%
%TO.N,unconnected-(U1-P1.0{slash}TA0CLK{slash}ACLK-Pad21)*%
X121594149Y-88701699D03*
%TO.P,U1,22,P1.1/TA0.0*%
%TO.N,unconnected-(U1-P1.1{slash}TA0.0-Pad22)*%
X121594149Y-89201701D03*
%TO.P,U1,23,P1.2/TA0.1*%
%TO.N,unconnected-(U1-P1.2{slash}TA0.1-Pad23)*%
X121594149Y-89701700D03*
%TO.P,U1,24,P1.3/TA0.2*%
%TO.N,unconnected-(U1-P1.3{slash}TA0.2-Pad24)*%
X121594149Y-90201699D03*
%TO.P,U1,25,P1.4/TA0.3*%
%TO.N,unconnected-(U1-P1.4{slash}TA0.3-Pad25)*%
X121594149Y-90701700D03*
%TO.P,U1,26,P1.5/TA0.4*%
%TO.N,unconnected-(U1-P1.5{slash}TA0.4-Pad26)*%
X121594149Y-91201699D03*
%TO.P,U1,27,P1.6/TA1CLK/CBOUT*%
%TO.N,unconnected-(U1-P1.6{slash}TA1CLK{slash}CBOUT-Pad27)*%
X121594149Y-91701701D03*
%TO.P,U1,28,P1.7/TA1.0*%
%TO.N,unconnected-(U1-P1.7{slash}TA1.0-Pad28)*%
X121594149Y-92201700D03*
%TO.P,U1,29,P2.0/TA1.1*%
%TO.N,MCU_CS*%
X121594149Y-92701699D03*
%TO.P,U1,30,P2.1/TA1.2*%
%TO.N,MCU_DRDY*%
X121594149Y-93201700D03*
%TO.P,U1,31,P2.2/TA2CLK/SMCLK*%
%TO.N,MCU_START*%
X121594149Y-93701700D03*
%TO.P,U1,32,P2.3/TA2.0*%
%TO.N,MCU_RESET_N*%
X121594149Y-94201701D03*
%TO.P,U1,33,P2.4/TA2.1*%
%TO.N,unconnected-(U1-P2.4{slash}TA2.1-Pad33)*%
X121594149Y-94701700D03*
%TO.P,U1,34,P2.5/TA2.2*%
%TO.N,unconnected-(U1-P2.5{slash}TA2.2-Pad34)*%
X121594149Y-95201699D03*
%TO.P,U1,35,P2.6/RTCCLK/DMAE0*%
%TO.N,unconnected-(U1-P2.6{slash}RTCCLK{slash}DMAE0-Pad35)*%
X121594149Y-95701701D03*
%TO.P,U1,36,P2.7/UCB0STE/UCA0CLK*%
%TO.N,unconnected-(U1-P2.7{slash}UCB0STE{slash}UCA0CLK-Pad36)*%
X121594149Y-96201700D03*
%TO.P,U1,37,P3.0/UCB0SIMO/UCB0SDA*%
%TO.N,unconnected-(U1-P3.0{slash}UCB0SIMO{slash}UCB0SDA-Pad37)*%
X121594149Y-96701701D03*
%TO.P,U1,38,P3.1/UCB0SOMI/UCB0SCL*%
%TO.N,unconnected-(U1-P3.1{slash}UCB0SOMI{slash}UCB0SCL-Pad38)*%
X121594149Y-97201700D03*
%TO.P,U1,39,P3.2/UCB0CLK/UCA0STE*%
%TO.N,unconnected-(U1-P3.2{slash}UCB0CLK{slash}UCA0STE-Pad39)*%
X121594149Y-97701699D03*
%TO.P,U1,40,P3.3/UCA0TXD/UCA0SIMO*%
%TO.N,unconnected-(U1-P3.3{slash}UCA0TXD{slash}UCA0SIMO-Pad40)*%
X121594149Y-98201701D03*
D26*
%TO.P,U1,41,P3.4/UCA0RXD/UCA0SOMI*%
%TO.N,unconnected-(U1-P3.4{slash}UCA0RXD{slash}UCA0SOMI-Pad41)*%
X123460848Y-100068400D03*
%TO.P,U1,42,P3.5/TB0.5*%
%TO.N,unconnected-(U1-P3.5{slash}TB0.5-Pad42)*%
X123960850Y-100068400D03*
%TO.P,U1,43,P3.6/TB0.6*%
%TO.N,unconnected-(U1-P3.6{slash}TB0.6-Pad43)*%
X124460849Y-100068400D03*
%TO.P,U1,44,P3.7/TB0OUTH/SVMOUT*%
%TO.N,unconnected-(U1-P3.7{slash}TB0OUTH{slash}SVMOUT-Pad44)*%
X124960848Y-100068400D03*
%TO.P,U1,45,P4.0/PM_UCB1STE/PM_UCA1CLK*%
%TO.N,unconnected-(U1-P4.0{slash}PM_UCB1STE{slash}PM_UCA1CLK-Pad45)*%
X125460849Y-100068400D03*
%TO.P,U1,46,P4.1/PM_UCB1SIMO/PM_UCB1SDA*%
%TO.N,MCU_MOSI*%
X125960848Y-100068400D03*
%TO.P,U1,47,P4.2/PM_UCB1SOMI/PM_UCB1SCL*%
%TO.N,MCU_MISO*%
X126460850Y-100068400D03*
%TO.P,U1,48,P4.3/PM_UCB1CLK/PM_UCA1STE*%
%TO.N,Net-(U1-P4.3{slash}PM_UCB1CLK{slash}PM_UCA1STE)*%
X126960849Y-100068400D03*
%TO.P,U1,49,DVSS2*%
%TO.N,GND*%
X127460848Y-100068400D03*
%TO.P,U1,50,DVCC2*%
X127960849Y-100068400D03*
%TO.P,U1,51,P4.4/PM_UCA1TXD/PM_UCA1SIMO*%
%TO.N,/MCU/MCU_TX*%
X128460849Y-100068400D03*
%TO.P,U1,52,P4.5/PM_UCA1RXD/PM_UCA1SOMI*%
%TO.N,/MCU/MCU_RX*%
X128960850Y-100068400D03*
%TO.P,U1,53,P4.6/PM_NONE*%
%TO.N,unconnected-(U1-P4.6{slash}PM_NONE-Pad53)*%
X129460849Y-100068400D03*
%TO.P,U1,54,P4.7/PM_NONE*%
%TO.N,unconnected-(U1-P4.7{slash}PM_NONE-Pad54)*%
X129960848Y-100068400D03*
%TO.P,U1,55,P5.6/TB0.0*%
%TO.N,unconnected-(U1-P5.6{slash}TB0.0-Pad55)*%
X130460850Y-100068400D03*
%TO.P,U1,56,P5.7/TB0.1*%
%TO.N,unconnected-(U1-P5.7{slash}TB0.1-Pad56)*%
X130960849Y-100068400D03*
%TO.P,U1,57,P7.4/TB0.2*%
%TO.N,unconnected-(U1-P7.4{slash}TB0.2-Pad57)*%
X131460850Y-100068400D03*
%TO.P,U1,58,P7.5/TB0.3*%
%TO.N,unconnected-(U1-P7.5{slash}TB0.3-Pad58)*%
X131960849Y-100068400D03*
%TO.P,U1,59,P7.6/TB0.4*%
%TO.N,unconnected-(U1-P7.6{slash}TB0.4-Pad59)*%
X132460848Y-100068400D03*
%TO.P,U1,60,P7.7/TB0CLK/MCLK*%
%TO.N,unconnected-(U1-P7.7{slash}TB0CLK{slash}MCLK-Pad60)*%
X132960850Y-100068400D03*
D27*
%TO.P,U1,61,VSSU*%
%TO.N,GND*%
X134827549Y-98201701D03*
%TO.P,U1,62,PU.0/DP*%
%TO.N,unconnected-(U1-PU.0{slash}DP-Pad62)*%
X134827549Y-97701699D03*
%TO.P,U1,63,PUR*%
%TO.N,unconnected-(U1-PUR-Pad63)*%
X134827549Y-97201700D03*
%TO.P,U1,64,PU.1/DM*%
%TO.N,unconnected-(U1-PU.1{slash}DM-Pad64)*%
X134827549Y-96701701D03*
%TO.P,U1,65,VBUS*%
%TO.N,unconnected-(U1-VBUS-Pad65)*%
X134827549Y-96201700D03*
%TO.P,U1,66,VUSB*%
%TO.N,+3V3*%
X134827549Y-95701701D03*
%TO.P,U1,67,V18*%
%TO.N,unconnected-(U1-V18-Pad67)*%
X134827549Y-95201699D03*
%TO.P,U1,68,AVSS2*%
%TO.N,GND*%
X134827549Y-94701700D03*
%TO.P,U1,69,P5.2/XT2IN*%
%TO.N,unconnected-(U1-P5.2{slash}XT2IN-Pad69)*%
X134827549Y-94201701D03*
%TO.P,U1,70,P5.3/XT2OUT*%
%TO.N,unconnected-(U1-P5.3{slash}XT2OUT-Pad70)*%
X134827549Y-93701700D03*
%TO.P,U1,71,TEST/SBWTCK*%
%TO.N,/MCU/SBWTCK*%
X134827549Y-93201700D03*
%TO.P,U1,72,PJ.0/TDO*%
%TO.N,unconnected-(U1-PJ.0{slash}TDO-Pad72)*%
X134827549Y-92701699D03*
%TO.P,U1,73,PJ.1/TDI/TCLK*%
%TO.N,unconnected-(U1-PJ.1{slash}TDI{slash}TCLK-Pad73)*%
X134827549Y-92201700D03*
%TO.P,U1,74,PJ.2/TMS*%
%TO.N,unconnected-(U1-PJ.2{slash}TMS-Pad74)*%
X134827549Y-91701701D03*
%TO.P,U1,75,PJ.3/TCK*%
%TO.N,unconnected-(U1-PJ.3{slash}TCK-Pad75)*%
X134827549Y-91201699D03*
%TO.P,U1,76,\u002ARST/NMI/SBWTDIO*%
%TO.N,/MCU/SBWDTIO*%
X134827549Y-90701700D03*
%TO.P,U1,77,P6.0/CB0/A0*%
%TO.N,unconnected-(U1-P6.0{slash}CB0{slash}A0-Pad77)*%
X134827549Y-90201699D03*
%TO.P,U1,78,P6.1/CB1/A1*%
%TO.N,unconnected-(U1-P6.1{slash}CB1{slash}A1-Pad78)*%
X134827549Y-89701700D03*
%TO.P,U1,79,P6.2/CB2/A2*%
%TO.N,unconnected-(U1-P6.2{slash}CB2{slash}A2-Pad79)*%
X134827549Y-89201701D03*
%TO.P,U1,80,P6.3/CB3/A3*%
%TO.N,unconnected-(U1-P6.3{slash}CB3{slash}A3-Pad80)*%
X134827549Y-88701699D03*
%TD*%
D16*
%TO.P,C3,1*%
%TO.N,/HB_IN*%
X91225000Y-93500000D03*
%TO.P,C3,2*%
%TO.N,GNDA*%
X92775000Y-93500000D03*
%TD*%
D28*
%TO.P,R4,1*%
%TO.N,/RLD*%
X90325000Y-82500000D03*
%TO.P,R4,2*%
%TO.N,/LF_IN*%
X88675000Y-82500000D03*
%TD*%
D29*
%TO.P,J4,1,Pin_1*%
%TO.N,GND*%
X143750000Y-101790000D03*
D30*
%TO.P,J4,2,Pin_2*%
%TO.N,unconnected-(J4-Pin_2-Pad2)*%
X143750000Y-99250000D03*
%TO.P,J4,3,Pin_3*%
%TO.N,unconnected-(J4-Pin_3-Pad3)*%
X143750000Y-96710000D03*
%TO.P,J4,4,Pin_4*%
%TO.N,/MCU/MCU_TX*%
X143750000Y-94170000D03*
%TO.P,J4,5,Pin_5*%
%TO.N,/MCU/MCU_RX*%
X143750000Y-91630000D03*
%TO.P,J4,6,Pin_6*%
%TO.N,unconnected-(J4-Pin_6-Pad6)*%
X143750000Y-89090000D03*
%TD*%
D22*
%TO.P,R10,1*%
%TO.N,MCU_START*%
X110098350Y-94510000D03*
%TO.P,R10,2*%
%TO.N,GND*%
X110098350Y-96160000D03*
%TD*%
D25*
%TO.P,R6,1*%
%TO.N,/HB_IN*%
X95500000Y-82500000D03*
%TO.P,R6,2*%
%TO.N,/RLD*%
X97150000Y-82500000D03*
%TD*%
D29*
%TO.P,J2,1,Pin_1*%
%TO.N,+3V3*%
X151685850Y-90880000D03*
D30*
%TO.P,J2,2,Pin_2*%
%TO.N,unconnected-(J2-Pin_2-Pad2)*%
X154225850Y-90880000D03*
%TO.P,J2,3,Pin_3*%
%TO.N,GND*%
X151685850Y-93420000D03*
%TO.P,J2,4,Pin_4*%
%TO.N,/MCU/SBWTCK*%
X154225850Y-93420000D03*
%TO.P,J2,5,Pin_5*%
%TO.N,GND*%
X151685850Y-95960000D03*
%TO.P,J2,6,Pin_6*%
%TO.N,unconnected-(J2-Pin_6-Pad6)*%
X154225850Y-95960000D03*
%TO.P,J2,7,Pin_7*%
%TO.N,unconnected-(J2-Pin_7-Pad7)*%
X151685850Y-98500000D03*
%TO.P,J2,8,Pin_8*%
%TO.N,unconnected-(J2-Pin_8-Pad8)*%
X154225850Y-98500000D03*
%TO.P,J2,9,Pin_9*%
%TO.N,/MCU/SBWDTIO*%
X151685850Y-101040000D03*
%TO.P,J2,10,Pin_10*%
%TO.N,unconnected-(J2-Pin_10-Pad10)*%
X154225850Y-101040000D03*
%TD*%
D31*
%TO.P,C14,1*%
%TO.N,+3V3*%
X121460849Y-84335000D03*
%TO.P,C14,2*%
%TO.N,GND*%
X121460849Y-82785000D03*
%TD*%
D32*
%TO.P,Y1,1,1*%
%TO.N,Net-(U1-P5.5{slash}XOUT)*%
X127360849Y-83635000D03*
%TO.P,Y1,2,2*%
%TO.N,Net-(U1-P5.4{slash}XIN)*%
X129560849Y-83635000D03*
%TO.P,Y1,3*%
%TO.N,N/C*%
X129560849Y-81935000D03*
%TO.P,Y1,4*%
X127360849Y-81935000D03*
%TD*%
D25*
%TO.P,R2,1*%
%TO.N,/RF*%
X87000000Y-89500000D03*
%TO.P,R2,2*%
%TO.N,/RF_IN*%
X88650000Y-89500000D03*
%TD*%
D21*
%TO.P,C22,1*%
%TO.N,GND*%
X156060849Y-73835000D03*
%TO.P,C22,2*%
%TO.N,+3V3*%
X157960849Y-73835000D03*
%TD*%
D22*
%TO.P,R9,1*%
%TO.N,MCU_RESET_N*%
X106098350Y-98335000D03*
%TO.P,R9,2*%
%TO.N,+3V3*%
X106098350Y-99985000D03*
%TD*%
D33*
%TO.P,L1,1*%
%TO.N,Net-(U2-L2)*%
X144250000Y-70450000D03*
%TO.P,L1,2*%
%TO.N,Net-(U2-L1)*%
X144250000Y-72550000D03*
%TD*%
D15*
%TO.P,C10,1*%
%TO.N,Net-(U3-VCAP1)*%
X99273350Y-96675000D03*
%TO.P,C10,2*%
%TO.N,GND*%
X99273350Y-98225000D03*
%TD*%
D16*
%TO.P,C6,1*%
%TO.N,+3V3*%
X101323350Y-97835000D03*
%TO.P,C6,2*%
%TO.N,GNDA*%
X102873350Y-97835000D03*
%TD*%
D19*
%TO.P,D4,1,K*%
%TO.N,Net-(D4-K)*%
X164910849Y-96500000D03*
%TO.P,D4,2,A*%
%TO.N,Net-(D4-A)*%
X166785849Y-96500000D03*
%TD*%
D34*
%TO.P,BT1,N*%
%TO.N,GND*%
X87455000Y-117500000D03*
%TO.P,BT1,P*%
%TO.N,Net-(BT1-PadP)*%
X159675000Y-117500000D03*
%TD*%
D15*
%TO.P,C11,1*%
%TO.N,GND*%
X132960849Y-83060000D03*
%TO.P,C11,2*%
%TO.N,+3V3*%
X132960849Y-84610000D03*
%TD*%
D35*
%TO.P,D2,1,A*%
%TO.N,GNDA*%
X83562500Y-92550000D03*
%TO.P,D2,2,K*%
%TO.N,+3V3*%
X83562500Y-94450000D03*
%TO.P,D2,3,COM*%
%TO.N,/HB*%
X85437500Y-93500000D03*
%TD*%
D28*
%TO.P,R12,1*%
%TO.N,GND*%
X151785849Y-78335000D03*
%TO.P,R12,2*%
%TO.N,Net-(U2-EN)*%
X150135849Y-78335000D03*
%TD*%
%TO.P,R3,1*%
%TO.N,/LF_IN*%
X88500000Y-86000000D03*
%TO.P,R3,2*%
%TO.N,/LF*%
X86850000Y-86000000D03*
%TD*%
%TO.P,R17,1*%
%TO.N,GND*%
X169110849Y-88335000D03*
%TO.P,R17,2*%
%TO.N,Net-(U4-ILIM)*%
X167460849Y-88335000D03*
%TD*%
D21*
%TO.P,C5,1*%
%TO.N,+3V3*%
X101148350Y-95835000D03*
%TO.P,C5,2*%
%TO.N,GNDA*%
X103048350Y-95835000D03*
%TD*%
D36*
%TO.P,U4,1,TS*%
%TO.N,Net-(U4-TS)*%
X163023349Y-88585000D03*
%TO.P,U4,2,BAT*%
%TO.N,Net-(BT1-PadP)*%
X163023349Y-89085000D03*
%TO.P,U4,3,BAT*%
X163023349Y-89585000D03*
%TO.P,U4,4,~{CE}*%
%TO.N,GND*%
X163023349Y-90085000D03*
D37*
%TO.P,U4,5,EN2*%
X163710849Y-90772500D03*
%TO.P,U4,6,EN1*%
%TO.N,VSYS*%
X164210849Y-90772500D03*
%TO.P,U4,7,~{PGOOD}*%
%TO.N,Net-(D4-K)*%
X164710849Y-90772500D03*
%TO.P,U4,8,VSS*%
%TO.N,GND*%
X165210849Y-90772500D03*
D36*
%TO.P,U4,9,~{CHG}*%
%TO.N,Net-(D5-K)*%
X165898349Y-90085000D03*
%TO.P,U4,10,OUT*%
%TO.N,VSYS*%
X165898349Y-89585000D03*
%TO.P,U4,11,OUT*%
X165898349Y-89085000D03*
%TO.P,U4,12,ILIM*%
%TO.N,Net-(U4-ILIM)*%
X165898349Y-88585000D03*
D37*
%TO.P,U4,13,IN*%
%TO.N,Net-(J1-VBUS)*%
X165210849Y-87897500D03*
%TO.P,U4,14,TMR*%
%TO.N,Net-(U4-TMR)*%
X164710849Y-87897500D03*
%TO.P,U4,15,ITERM*%
%TO.N,unconnected-(U4-ITERM-Pad15)*%
X164210849Y-87897500D03*
%TO.P,U4,16,ISET*%
%TO.N,Net-(U4-ISET)*%
X163710849Y-87897500D03*
D38*
%TO.P,U4,17,VSS*%
%TO.N,GND*%
X164460849Y-89335000D03*
%TD*%
D39*
%TO.P,U2,1,VOUT*%
%TO.N,+3V3*%
X147535849Y-71835000D03*
%TO.P,U2,2,L2*%
%TO.N,Net-(U2-L2)*%
X147535849Y-72335000D03*
%TO.P,U2,3,PGND*%
%TO.N,GND*%
X147535849Y-72835000D03*
%TO.P,U2,4,L1*%
%TO.N,Net-(U2-L1)*%
X147535849Y-73335000D03*
%TO.P,U2,5,VIN*%
%TO.N,VSYS*%
X147535849Y-73835000D03*
%TO.P,U2,6,EN*%
%TO.N,Net-(U2-EN)*%
X149960849Y-73835000D03*
%TO.P,U2,7,PS/SYNC*%
%TO.N,VSYS*%
X149960849Y-73335000D03*
%TO.P,U2,8,VINA*%
X149960849Y-72835000D03*
%TO.P,U2,9,GND*%
%TO.N,GND*%
X149960849Y-72335000D03*
%TO.P,U2,10,FB*%
%TO.N,+3V3*%
X149960849Y-71835000D03*
D40*
%TO.P,U2,11,PGND*%
%TO.N,GND*%
X148748349Y-72835000D03*
%TD*%
D25*
%TO.P,R5,1*%
%TO.N,/RF_IN*%
X92000000Y-82500000D03*
%TO.P,R5,2*%
%TO.N,/RLD*%
X93650000Y-82500000D03*
%TD*%
D31*
%TO.P,C7,1*%
%TO.N,+3V3*%
X106098350Y-86885000D03*
%TO.P,C7,2*%
%TO.N,GND*%
X106098350Y-85335000D03*
%TD*%
%TO.P,C8,1*%
%TO.N,GNDA*%
X95098350Y-96885000D03*
%TO.P,C8,2*%
%TO.N,Net-(U3-VREFP)*%
X95098350Y-95335000D03*
%TD*%
D35*
%TO.P,D1,1,A*%
%TO.N,GNDA*%
X83000000Y-84500000D03*
%TO.P,D1,2,K*%
%TO.N,+3V3*%
X83000000Y-86400000D03*
%TO.P,D1,3,COM*%
%TO.N,/LF*%
X84875000Y-85450000D03*
%TD*%
D17*
%TO.P,R18,1*%
%TO.N,Net-(U4-TMR)*%
X164960849Y-86485000D03*
%TO.P,R18,2*%
%TO.N,GND*%
X164960849Y-84835000D03*
%TD*%
D41*
%TO.P,C2,1*%
%TO.N,GNDA*%
X92050000Y-89500000D03*
%TO.P,C2,2*%
%TO.N,/RF_IN*%
X90500000Y-89500000D03*
%TD*%
D15*
%TO.P,C17,1*%
%TO.N,GND*%
X127460849Y-74750000D03*
%TO.P,C17,2*%
%TO.N,Net-(U1-P5.4{slash}XIN)*%
X127460849Y-76300000D03*
%TD*%
D25*
%TO.P,R11,1*%
%TO.N,Net-(R11-Pad1)*%
X104598350Y-93335000D03*
%TO.P,R11,2*%
%TO.N,+3V3*%
X106248350Y-93335000D03*
%TD*%
D35*
%TO.P,D3,1,A*%
%TO.N,GNDA*%
X83000000Y-88500000D03*
%TO.P,D3,2,K*%
%TO.N,+3V3*%
X83000000Y-90400000D03*
%TO.P,D3,3,COM*%
%TO.N,/RF*%
X84875000Y-89450000D03*
%TD*%
D16*
%TO.P,C25,1*%
%TO.N,Net-(J1-VBUS)*%
X170460849Y-85835000D03*
%TO.P,C25,2*%
%TO.N,GND*%
X172010849Y-85835000D03*
%TD*%
D15*
%TO.P,C18,1*%
%TO.N,GND*%
X129460849Y-76785000D03*
%TO.P,C18,2*%
%TO.N,Net-(U1-P5.5{slash}XOUT)*%
X129460849Y-78335000D03*
%TD*%
D42*
%TO.P,J6,0*%
%TO.N,N/C*%
X73500000Y-75500000D03*
X73500000Y-100500000D03*
D43*
%TO.P,J6,1,1*%
%TO.N,/HB*%
X76340000Y-93540000D03*
D44*
%TO.P,J6,2,2*%
%TO.N,/RF*%
X76340000Y-90770000D03*
%TO.P,J6,3,3*%
%TO.N,/LF*%
X76340000Y-88000000D03*
%TO.P,J6,4,4*%
%TO.N,unconnected-(J6-Pad4)*%
X76340000Y-85230000D03*
%TO.P,J6,5,5*%
%TO.N,GND*%
X76340000Y-82460000D03*
%TO.P,J6,6,6*%
%TO.N,unconnected-(J6-Pad6)*%
X73500000Y-92155000D03*
%TO.P,J6,7,7*%
%TO.N,unconnected-(J6-Pad7)*%
X73500000Y-89385000D03*
%TO.P,J6,8,8*%
%TO.N,unconnected-(J6-Pad8)*%
X73500000Y-86615000D03*
%TO.P,J6,9,9*%
%TO.N,unconnected-(J6-Pad9)*%
X73500000Y-83845000D03*
%TD*%
D25*
%TO.P,R1,1*%
%TO.N,/HB*%
X87500000Y-93500000D03*
%TO.P,R1,2*%
%TO.N,/HB_IN*%
X89150000Y-93500000D03*
%TD*%
%TO.P,R21,1*%
%TO.N,Net-(D4-A)*%
X168460849Y-96500000D03*
%TO.P,R21,2*%
%TO.N,VSYS*%
X170110849Y-96500000D03*
%TD*%
D31*
%TO.P,C16,1*%
%TO.N,GND*%
X139960849Y-90435000D03*
%TO.P,C16,2*%
%TO.N,/MCU/SBWDTIO*%
X139960849Y-88885000D03*
%TD*%
D28*
%TO.P,R16,1*%
%TO.N,Net-(U4-TS)*%
X161460849Y-88335000D03*
%TO.P,R16,2*%
%TO.N,GND*%
X159810849Y-88335000D03*
%TD*%
D31*
%TO.P,C13,1*%
%TO.N,+3V3*%
X128960849Y-104385000D03*
%TO.P,C13,2*%
%TO.N,GND*%
X128960849Y-102835000D03*
%TD*%
D41*
%TO.P,C23,1*%
%TO.N,GND*%
X162235850Y-99000000D03*
%TO.P,C23,2*%
%TO.N,Net-(BT1-PadP)*%
X160685850Y-99000000D03*
%TD*%
D45*
%TO.P,U5,1*%
%TO.N,VSYS*%
X144485849Y-81500000D03*
%TO.P,U5,2*%
%TO.N,Net-(U2-EN)*%
X146485849Y-81500000D03*
%TO.P,U5,3*%
%TO.N,GND*%
X148485849Y-81500000D03*
D46*
%TO.P,U5,4*%
X142335849Y-81500000D03*
%TO.P,U5,5*%
X150635849Y-81500000D03*
%TD*%
D47*
%TO.N,GND*%
X170000000Y-68750000D03*
X173460849Y-85835000D03*
X163460849Y-83335000D03*
X126000000Y-74000000D03*
X159960849Y-86835000D03*
X107460850Y-85000000D03*
X131635849Y-84000000D03*
X170460849Y-88335000D03*
X137460849Y-99335000D03*
X139960849Y-96835000D03*
X170960849Y-90835000D03*
X130460849Y-102835000D03*
X122960849Y-79500000D03*
X163960850Y-99000000D03*
X136460850Y-82835000D03*
X155960849Y-75335000D03*
X119960849Y-82835000D03*
X139960849Y-91835000D03*
X137094149Y-94701700D03*
X141960849Y-74335000D03*
X131460849Y-76835000D03*
X127460849Y-103500000D03*
X164960849Y-83335000D03*
X98598350Y-99335000D03*
X151960849Y-71835000D03*
X153635849Y-78335000D03*
X126360849Y-85335000D03*
X157750000Y-63750000D03*
X161960850Y-91000000D03*
X107773350Y-96500000D03*
%TO.N,/LF_IN*%
X93799735Y-88124000D03*
X96100000Y-88693235D03*
%TO.N,/RF_IN*%
X89500000Y-85000000D03*
X89500000Y-87500000D03*
%TO.N,/HB_IN*%
X94000000Y-86500000D03*
X93500000Y-89500000D03*
%TO.N,+3V3*%
X104598350Y-100835000D03*
X138135849Y-97500000D03*
X157960849Y-75335000D03*
X136350850Y-84610000D03*
X107598350Y-94835000D03*
X81500000Y-87500000D03*
X131775000Y-106000000D03*
X100960850Y-99500000D03*
X138460850Y-84000000D03*
X153635849Y-76000000D03*
X82450000Y-95550000D03*
X107598350Y-86835000D03*
X81500000Y-91500000D03*
X119960849Y-84835000D03*
X124960849Y-80335000D03*
%TO.N,Net-(U1-P5.5{slash}XOUT)*%
X127860849Y-80285000D03*
X129060849Y-80285000D03*
%TO.N,VSYS*%
X159135849Y-92335000D03*
X162161849Y-92266340D03*
X150573349Y-75335000D03*
X149373349Y-75335000D03*
X166292806Y-92343043D03*
%TO.N,MCU_RESET_N*%
X104598350Y-95335000D03*
X103101972Y-93735000D03*
%TO.N,MCU_SCLK*%
X109203865Y-89894485D03*
X109098350Y-97935000D03*
%TO.N,MCU_DRDY*%
X113598350Y-92000000D03*
X114500000Y-93301699D03*
%TO.N,MCU_MOSI*%
X112598350Y-92101699D03*
X112772615Y-96509265D03*
%TO.N,MCU_MISO*%
X111822615Y-97459265D03*
X111598350Y-90900000D03*
%TO.N,GNDA*%
X102873350Y-99400000D03*
X91500000Y-90500000D03*
X81750000Y-92750000D03*
X93050000Y-85000000D03*
X103500000Y-82000000D03*
X93598350Y-97335000D03*
X92775000Y-94975000D03*
X85500000Y-88000000D03*
X83087500Y-82500000D03*
%TO.N,/MCU/SBWTCK*%
X140967074Y-93532926D03*
%TD*%
D48*
%TO.N,GND*%
X158165000Y-63335000D02*
X157750000Y-63750000D01*
X159300000Y-63335000D02*
X158165000Y-63335000D01*
D49*
X169550000Y-68300000D02*
X170000000Y-68750000D01*
X169550000Y-66275000D02*
X169550000Y-68300000D01*
D50*
%TO.N,Net-(J1-VBUS)*%
X166950000Y-69860000D02*
X166950000Y-66275000D01*
X170250000Y-86045849D02*
X170250000Y-73160000D01*
X170250000Y-73160000D02*
X166950000Y-69860000D01*
X166108349Y-87000000D02*
X169295849Y-87000000D01*
X169295849Y-87000000D02*
X170250000Y-86045849D01*
X165210849Y-87897500D02*
X166108349Y-87000000D01*
D48*
%TO.N,GND*%
X128960849Y-102835000D02*
X128361849Y-102236000D01*
X151785849Y-78335000D02*
X153635849Y-78335000D01*
X159810849Y-87485000D02*
X159960849Y-87335000D01*
X107773350Y-96500000D02*
X108433350Y-96500000D01*
X159960849Y-87335000D02*
X159960849Y-86835000D01*
X149973349Y-72335000D02*
X151660849Y-72335000D01*
X163710849Y-90772500D02*
X163710849Y-90085000D01*
X120010849Y-82785000D02*
X119960849Y-82835000D01*
X139735849Y-96835000D02*
X138735849Y-95835000D01*
X132960849Y-83060000D02*
X134460849Y-83060000D01*
X108433350Y-96500000D02*
X108773350Y-96160000D01*
X121460849Y-82785000D02*
X120010849Y-82785000D01*
X123960850Y-84110001D02*
X123685849Y-83835000D01*
X99273350Y-98400000D02*
X99263350Y-98400000D01*
X131635849Y-84000000D02*
X132300849Y-83335000D01*
X123135849Y-80660000D02*
X123135849Y-81835000D01*
X164960849Y-84835000D02*
X164960849Y-83335000D01*
X132685849Y-83335000D02*
X132960849Y-83060000D01*
X169360849Y-90835000D02*
X170960849Y-90835000D01*
X147548349Y-72835000D02*
X148760849Y-72835000D01*
X122960849Y-80485000D02*
X123135849Y-80660000D01*
X98598350Y-99335000D02*
X98598350Y-99075000D01*
X127460848Y-100068400D02*
X127460848Y-103499999D01*
X131410849Y-76785000D02*
X131460849Y-76835000D01*
X139960849Y-91835000D02*
X139960849Y-90435000D01*
X149973349Y-72335000D02*
X149260849Y-72335000D01*
X143510849Y-75910000D02*
X143910849Y-76310000D01*
X163710849Y-90085000D02*
X164460849Y-89335000D01*
X98598350Y-99075000D02*
X99273350Y-98400000D01*
X165159849Y-90721500D02*
X165159849Y-90034000D01*
X162875850Y-90085000D02*
X163023349Y-90085000D01*
X127460848Y-103499999D02*
X127460849Y-103500000D01*
X169110849Y-90585000D02*
X169360849Y-90835000D01*
X139960849Y-96835000D02*
X139735849Y-96835000D01*
X143510849Y-74310000D02*
X141985849Y-74310000D01*
X136460850Y-82835000D02*
X135460849Y-82835000D01*
X132300849Y-83335000D02*
X132685849Y-83335000D01*
X137094149Y-94701700D02*
X134827549Y-94701700D01*
X168860849Y-88335000D02*
X170460849Y-88335000D01*
X107125850Y-85335000D02*
X106098350Y-85335000D01*
X128960849Y-102835000D02*
X130460849Y-102835000D01*
X127460849Y-74750000D02*
X126750000Y-74750000D01*
X135235849Y-83060000D02*
X134460849Y-83060000D01*
X165210849Y-90772500D02*
X165159849Y-90721500D01*
X163460849Y-84685000D02*
X163460849Y-83335000D01*
X107460850Y-85000000D02*
X107125850Y-85335000D01*
X137460849Y-99335000D02*
X136327550Y-98201701D01*
X128361849Y-102236000D02*
X128294749Y-102236000D01*
X165159849Y-90034000D02*
X164460849Y-89335000D01*
X126460850Y-85435001D02*
X126460850Y-86835000D01*
X163710849Y-90085000D02*
X163023349Y-90085000D01*
X136327550Y-98201701D02*
X134827549Y-98201701D01*
X123685849Y-82385000D02*
X123685849Y-83835000D01*
X156060849Y-73835000D02*
X156060849Y-75235000D01*
X151960849Y-71835000D02*
X152060849Y-71935000D01*
X128294749Y-102236000D02*
X127960849Y-101902100D01*
X161960850Y-91000000D02*
X162875850Y-90085000D01*
X172010849Y-85835000D02*
X173460849Y-85835000D01*
X162410850Y-99000000D02*
X163960850Y-99000000D01*
X123960850Y-86835000D02*
X123960850Y-84110001D01*
X129460849Y-76785000D02*
X131410849Y-76785000D01*
X108773350Y-96160000D02*
X110098350Y-96160000D01*
X126360849Y-85335000D02*
X126460850Y-85435001D01*
X126750000Y-74750000D02*
X126000000Y-74000000D01*
X104098350Y-87335001D02*
X106098350Y-85335001D01*
X135460849Y-82835000D02*
X135235849Y-83060000D01*
X127960849Y-101902100D02*
X127960849Y-100068400D01*
X151960849Y-72035000D02*
X151960849Y-71835000D01*
X123960849Y-86834999D02*
X123960850Y-86835000D01*
X141985849Y-74310000D02*
X141960849Y-74335000D01*
X106098350Y-85335001D02*
X106098350Y-85335000D01*
X123135849Y-81835000D02*
X123685849Y-82385000D01*
X143510849Y-74310000D02*
X143510849Y-75910000D01*
X152060849Y-71935000D02*
X152060849Y-73835000D01*
X122960849Y-79500000D02*
X122960849Y-80485000D01*
X151660849Y-72335000D02*
X151960849Y-72035000D01*
X152060849Y-73835000D02*
X151960849Y-73835000D01*
X159810849Y-88335000D02*
X159810849Y-87485000D01*
X156060849Y-75235000D02*
X155960849Y-75335000D01*
%TO.N,/LF_IN*%
X90500000Y-86000000D02*
X88500000Y-86000000D01*
X88500000Y-86000000D02*
X88500000Y-82675000D01*
X96100000Y-88693235D02*
X96241765Y-88835000D01*
X88500000Y-82675000D02*
X88675000Y-82500000D01*
X92624000Y-88124000D02*
X93799735Y-88124000D01*
X96241765Y-88835000D02*
X97799150Y-88835000D01*
X90500000Y-86000000D02*
X92624000Y-88124000D01*
%TO.N,/RF_IN*%
X89500000Y-87500000D02*
X88650000Y-88350000D01*
X88650000Y-89500000D02*
X89150000Y-89000000D01*
X94276000Y-88724000D02*
X95000000Y-88000000D01*
X96820849Y-88334999D02*
X96492925Y-88007075D01*
X94835000Y-89335000D02*
X97799150Y-89335000D01*
X94224000Y-88724000D02*
X94276000Y-88724000D01*
X94224000Y-88724000D02*
X94835000Y-89335000D01*
X89500000Y-85000000D02*
X92000000Y-82500000D01*
X90000000Y-89000000D02*
X90500000Y-89500000D01*
X91276000Y-88724000D02*
X94224000Y-88724000D01*
X97799150Y-88334999D02*
X96820849Y-88334999D01*
X88650000Y-88350000D02*
X88650000Y-89500000D01*
X89150000Y-89000000D02*
X90000000Y-89000000D01*
X95485850Y-88000000D02*
X95000000Y-88000000D01*
X95492925Y-88007075D02*
X95485850Y-88000000D01*
X90500000Y-89500000D02*
X91276000Y-88724000D01*
X96492925Y-88007075D02*
X95492925Y-88007075D01*
%TO.N,/HB_IN*%
X91225000Y-93500000D02*
X91225000Y-92700057D01*
X96664999Y-89835001D02*
X97799150Y-89835001D01*
X95500000Y-85000000D02*
X95500000Y-82500000D01*
X94000000Y-86500000D02*
X95500000Y-85000000D01*
X89150000Y-93500000D02*
X89500000Y-93500000D01*
X89500000Y-93500000D02*
X93500000Y-89500000D01*
X93748057Y-90177000D02*
X94000000Y-90177000D01*
X89150000Y-93500000D02*
X91225000Y-93500000D01*
X91225000Y-92700057D02*
X93748057Y-90177000D01*
X96323000Y-90177000D02*
X96664999Y-89835001D01*
X94000000Y-90177000D02*
X96323000Y-90177000D01*
D50*
%TO.N,+3V3*%
X127960849Y-86835000D02*
X127970149Y-86825700D01*
X124460849Y-84610000D02*
X125235849Y-83835000D01*
X153960849Y-71825000D02*
X157460849Y-71825000D01*
X106098350Y-86885000D02*
X105148350Y-87835000D01*
X101323350Y-96010000D02*
X101323350Y-99137500D01*
X132134849Y-85436000D02*
X132960849Y-84610000D01*
X105448350Y-99985000D02*
X104598350Y-100835000D01*
X121970849Y-84335000D02*
X121460849Y-84335000D01*
X124460849Y-86835000D02*
X124460849Y-84610000D01*
D48*
X137052550Y-95701701D02*
X137185849Y-95835000D01*
D50*
X152635849Y-70500000D02*
X153960849Y-71825000D01*
X137185849Y-95935849D02*
X137750000Y-96500000D01*
D48*
X100960850Y-99312500D02*
X100960850Y-99500000D01*
X129010849Y-104335000D02*
X128960849Y-104385000D01*
D50*
X107598350Y-86835000D02*
X106148350Y-86835000D01*
X137185849Y-95835000D02*
X137185849Y-95935849D01*
X137745849Y-97110000D02*
X138135849Y-97500000D01*
X101323350Y-99137500D02*
X100960850Y-99500000D01*
X100698750Y-92234600D02*
X100698750Y-95385400D01*
X150135849Y-71660000D02*
X149960849Y-71835000D01*
X128179949Y-85436000D02*
X132134849Y-85436000D01*
X150135849Y-70500000D02*
X152635849Y-70500000D01*
X153960849Y-71825000D02*
X153960849Y-73835000D01*
X137750000Y-96500000D02*
X137745849Y-96504151D01*
X82550000Y-86450000D02*
X81450000Y-87550000D01*
X157960849Y-72325000D02*
X157960849Y-73835000D01*
X100698750Y-95385400D02*
X101323350Y-96010000D01*
X121460849Y-84335000D02*
X120460849Y-84335000D01*
X120460849Y-84335000D02*
X119960849Y-84835000D01*
X157960849Y-73835000D02*
X157960849Y-75335000D01*
X123460848Y-86835000D02*
X123460848Y-85824999D01*
X127960849Y-85655100D02*
X128179949Y-85436000D01*
X150135849Y-70500000D02*
X150135849Y-71660000D01*
X134827549Y-95701701D02*
X137052550Y-95701701D01*
X131775000Y-106000000D02*
X130160000Y-104385000D01*
X147548349Y-71587500D02*
X148635849Y-70500000D01*
X153960849Y-75675000D02*
X153635849Y-76000000D01*
X157460849Y-71825000D02*
X157960849Y-72325000D01*
X82675000Y-90400000D02*
X81575000Y-91500000D01*
X153960849Y-73835000D02*
X153960849Y-75675000D01*
X125235849Y-82385000D02*
X124960849Y-82110000D01*
X136350850Y-84610000D02*
X132960849Y-84610000D01*
X123460848Y-85824999D02*
X121970849Y-84335000D01*
X124960849Y-82110000D02*
X124960849Y-80335000D01*
X127960849Y-86835000D02*
X127960849Y-85655100D01*
X83000000Y-90400000D02*
X82675000Y-90400000D01*
X106098350Y-99985000D02*
X105448350Y-99985000D01*
X137745849Y-96504151D02*
X137745849Y-97110000D01*
X105148350Y-87835000D02*
X104098350Y-87835000D01*
X138460850Y-85675000D02*
X138460850Y-84000000D01*
X125235849Y-83835000D02*
X125235849Y-82385000D01*
X81575000Y-91500000D02*
X81500000Y-91500000D01*
X147548349Y-71835000D02*
X147548349Y-71587500D01*
X107598350Y-94835000D02*
X106248350Y-93485000D01*
X130160000Y-104385000D02*
X128960849Y-104385000D01*
X148635849Y-70500000D02*
X150135849Y-70500000D01*
D48*
X106248350Y-93485000D02*
X106248350Y-93335000D01*
D50*
X83550000Y-94450000D02*
X82450000Y-95550000D01*
D48*
%TO.N,Net-(U3-VREFP)*%
X95098350Y-95335000D02*
X96098351Y-95335000D01*
X96098351Y-95335000D02*
X99198751Y-92234600D01*
%TO.N,Net-(U3-VCAP1)*%
X99098350Y-96325000D02*
X99273350Y-96500000D01*
X99098350Y-95244149D02*
X99098350Y-96325000D01*
X100198749Y-92234600D02*
X100198749Y-94143750D01*
X100198749Y-94143750D02*
X99098350Y-95244149D01*
%TO.N,Net-(U1-P5.4{slash}XIN)*%
X127460851Y-85121158D02*
X127460851Y-86835000D01*
X127747009Y-84835000D02*
X127460851Y-85121158D01*
X128500000Y-77250000D02*
X127500000Y-76250000D01*
X128360849Y-84835000D02*
X127747009Y-84835000D01*
X128460849Y-77335000D02*
X128460849Y-82535000D01*
X129560849Y-83635000D02*
X128360849Y-84835000D01*
X128460849Y-82535000D02*
X129560849Y-83635000D01*
%TO.N,Net-(U1-P5.5{slash}XOUT)*%
X129460849Y-79885000D02*
X129060849Y-80285000D01*
X127860849Y-80285000D02*
X126960849Y-80285000D01*
X125960849Y-81285000D02*
X125960849Y-82785000D01*
X129460849Y-78335000D02*
X129460849Y-79885000D01*
X126510849Y-82785000D02*
X127360849Y-83635000D01*
X126960849Y-84035000D02*
X126960849Y-86835000D01*
X125960849Y-82785000D02*
X126510849Y-82785000D01*
X126960849Y-80285000D02*
X125960849Y-81285000D01*
X127360849Y-83635000D02*
X126960849Y-84035000D01*
%TO.N,VSYS*%
X166292806Y-92343043D02*
X166292806Y-92003043D01*
X170135849Y-94000000D02*
X170135849Y-93510000D01*
X147548349Y-74922500D02*
X147960849Y-75335000D01*
X150460849Y-75335000D02*
X150573349Y-75335000D01*
X167460849Y-90694202D02*
X167460849Y-90835000D01*
X147960849Y-75335000D02*
X149373349Y-75335000D01*
X165898349Y-89085000D02*
X165898349Y-89585000D01*
X145885849Y-73835000D02*
X145410849Y-74310000D01*
X166292806Y-92003043D02*
X167460849Y-90835000D01*
D50*
X164000000Y-92000000D02*
X164210849Y-91789151D01*
D48*
X170110849Y-96500000D02*
X170110849Y-94025000D01*
D50*
X145460849Y-76310000D02*
X145460849Y-77335000D01*
X145460849Y-76310000D02*
X145460849Y-74360000D01*
D48*
X150686849Y-75109000D02*
X150460849Y-75335000D01*
X147548349Y-73847500D02*
X147548349Y-74922500D01*
X150960849Y-73346202D02*
X150960849Y-72835000D01*
D50*
X145470849Y-85335000D02*
X155009379Y-85335000D01*
D48*
X165898349Y-89585000D02*
X166351647Y-89585000D01*
D50*
X162161849Y-92266340D02*
X163170307Y-92266340D01*
D48*
X170110849Y-94025000D02*
X170135849Y-94000000D01*
D50*
X158135849Y-91500000D02*
X157135849Y-90500000D01*
X144730849Y-78065000D02*
X144730849Y-84595000D01*
D48*
X150686849Y-73620202D02*
X150960849Y-73346202D01*
D50*
X158970849Y-92335000D02*
X158135849Y-91500000D01*
X157135849Y-87358530D02*
X155112319Y-85335000D01*
X145460849Y-77335000D02*
X144730849Y-78065000D01*
D48*
X150686849Y-73620202D02*
X150686849Y-75109000D01*
X150960849Y-72835000D02*
X149973349Y-72835000D01*
X149973349Y-73335000D02*
X150401647Y-73335000D01*
X166351647Y-89585000D02*
X167460849Y-90694202D01*
X150401647Y-73335000D02*
X150686849Y-73620202D01*
X159135849Y-92335000D02*
X158970849Y-92335000D01*
X145460849Y-74360000D02*
X145410849Y-74310000D01*
D50*
X163170307Y-92266340D02*
X163436647Y-92000000D01*
X144730849Y-84595000D02*
X145470849Y-85335000D01*
X164210849Y-91789151D02*
X164210849Y-90772500D01*
X147535849Y-73835000D02*
X145885849Y-73835000D01*
X163436647Y-92000000D02*
X164000000Y-92000000D01*
D48*
X155112319Y-85335000D02*
X154960849Y-85335000D01*
X147535849Y-73835000D02*
X147548349Y-73847500D01*
D50*
X157135849Y-90500000D02*
X157135849Y-87358530D01*
D48*
X170135849Y-93510000D02*
X167460849Y-90835000D01*
%TO.N,/LF*%
X76340000Y-87660000D02*
X76340000Y-88000000D01*
X76340000Y-88000000D02*
X78890000Y-85450000D01*
X85425000Y-86000000D02*
X84875000Y-85450000D01*
X86850000Y-86000000D02*
X85425000Y-86000000D01*
X78890000Y-85450000D02*
X84875000Y-85450000D01*
%TO.N,/HB*%
X76340000Y-93540000D02*
X76380000Y-93500000D01*
X85437500Y-93500000D02*
X87500000Y-93500000D01*
X76380000Y-93500000D02*
X85437500Y-93500000D01*
%TO.N,/RF*%
X76340000Y-90770000D02*
X77660000Y-89450000D01*
X86950000Y-89450000D02*
X87000000Y-89500000D01*
X77660000Y-89450000D02*
X84875000Y-89450000D01*
X84875000Y-89450000D02*
X86950000Y-89450000D01*
%TO.N,/MCU/MCU_RX*%
X140201849Y-101434000D02*
X140960849Y-100675000D01*
X140960849Y-94419151D02*
X143750000Y-91630000D01*
X128960850Y-100068400D02*
X128960850Y-101148301D01*
X128960850Y-101148301D02*
X129246549Y-101434000D01*
X129246549Y-101434000D02*
X140201849Y-101434000D01*
X140960849Y-100675000D02*
X140960849Y-94419151D01*
%TO.N,/MCU/MCU_TX*%
X128460849Y-100068400D02*
X128460849Y-101325000D01*
X140367949Y-101835000D02*
X141361849Y-100841100D01*
X141361849Y-96558151D02*
X143750000Y-94170000D01*
X141361849Y-100841100D02*
X141361849Y-96558151D01*
X128970849Y-101835000D02*
X140367949Y-101835000D01*
X128460849Y-101325000D02*
X128970849Y-101835000D01*
%TO.N,MCU_RESET_N*%
X119960849Y-94335000D02*
X120094148Y-94201701D01*
X106598350Y-97335000D02*
X110960849Y-97335000D01*
X102582550Y-93735000D02*
X102698350Y-93735000D01*
X110960849Y-97335000D02*
X113960849Y-94335000D01*
X104598350Y-95335000D02*
X106598350Y-97335000D01*
X102230400Y-93382850D02*
X102582550Y-93735000D01*
X113960849Y-94335000D02*
X119960849Y-94335000D01*
X102230400Y-92266250D02*
X102230400Y-93382850D01*
X106598350Y-97335000D02*
X106598350Y-97835000D01*
X102198750Y-92234600D02*
X102230400Y-92266250D01*
X106598350Y-97835000D02*
X106098350Y-98335000D01*
X120094148Y-94201701D02*
X121594149Y-94201701D01*
X102698350Y-93735000D02*
X103101972Y-93735000D01*
%TO.N,MCU_START*%
X110674350Y-93934000D02*
X119794749Y-93934000D01*
X110098350Y-94510000D02*
X107423350Y-91835000D01*
X119794749Y-93934000D02*
X120027049Y-93701700D01*
X103823460Y-92109890D02*
X102823459Y-92109890D01*
X107423350Y-91835000D02*
X104098350Y-91835000D01*
X104098350Y-91835000D02*
X103823460Y-92109890D01*
X110098350Y-94510000D02*
X110674350Y-93934000D01*
X102823459Y-92109890D02*
X102698749Y-92234600D01*
X120027049Y-93701700D02*
X121594149Y-93701700D01*
%TO.N,MCU_CS*%
X107608350Y-90335000D02*
X104098350Y-90335000D01*
X109975049Y-92701699D02*
X107608350Y-90335000D01*
X121594149Y-92701699D02*
X109975049Y-92701699D01*
%TO.N,Net-(U1-P4.3{slash}PM_UCB1CLK{slash}PM_UCA1STE)*%
X126960849Y-100068400D02*
X126960849Y-102835000D01*
X126960849Y-102835000D02*
X126785849Y-103010000D01*
X126785849Y-103010000D02*
X125960849Y-103010000D01*
%TO.N,MCU_SCLK*%
X109203865Y-89609917D02*
X109013649Y-89419701D01*
X109098350Y-98637500D02*
X114960850Y-104500000D01*
X114960850Y-104500000D02*
X125800849Y-104500000D01*
X104183051Y-89419701D02*
X104098350Y-89335000D01*
X109013649Y-89419701D02*
X104183051Y-89419701D01*
X125800849Y-104500000D02*
X125960849Y-104660000D01*
X109098350Y-97935000D02*
X109098350Y-98637500D01*
X109203865Y-89894485D02*
X109203865Y-89609917D01*
%TO.N,MCU_DRDY*%
X114500000Y-93301699D02*
X114599999Y-93201700D01*
X114599999Y-93201700D02*
X121594149Y-93201700D01*
X113199350Y-87835000D02*
X106438350Y-87835000D01*
X105938350Y-88334999D02*
X104098350Y-88334999D01*
X106438350Y-87835000D02*
X105940350Y-88333000D01*
X113598350Y-88234000D02*
X113199350Y-87835000D01*
X113598350Y-92000000D02*
X113598350Y-88234000D01*
%TO.N,MCU_MOSI*%
X111996651Y-91500000D02*
X109960850Y-91500000D01*
X125960848Y-101442901D02*
X125960848Y-100068400D01*
X112598350Y-92101699D02*
X111996651Y-91500000D01*
X112598350Y-96683530D02*
X112598350Y-97637500D01*
X116795850Y-101835000D02*
X125568749Y-101835000D01*
X108295851Y-89835001D02*
X106531249Y-89835001D01*
X125568749Y-101835000D02*
X125960848Y-101442901D01*
X112598350Y-97637500D02*
X116795850Y-101835000D01*
X112772615Y-96509265D02*
X112598350Y-96683530D01*
X106531249Y-89835001D02*
X104098350Y-89835001D01*
X109960850Y-91500000D02*
X108295851Y-89835001D01*
%TO.N,MCU_MISO*%
X111598350Y-89058000D02*
X111040350Y-88500000D01*
X111960850Y-99000000D02*
X115196850Y-102236000D01*
X104183050Y-88919700D02*
X104098350Y-88835000D01*
X126460850Y-101509999D02*
X126460850Y-100068400D01*
X106433350Y-88500000D02*
X106013650Y-88919700D01*
X111040350Y-88500000D02*
X106433350Y-88500000D01*
X111598350Y-90900000D02*
X111598350Y-89058000D01*
X111960850Y-97597500D02*
X111960850Y-99000000D01*
X115196850Y-102236000D02*
X125734849Y-102236000D01*
X106013650Y-88919700D02*
X104183050Y-88919700D01*
X111822615Y-97459265D02*
X111960850Y-97597500D01*
X125734849Y-102236000D02*
X126460850Y-101509999D01*
%TO.N,Net-(J1-Shield)*%
X161015000Y-63500000D02*
X160850000Y-63335000D01*
X162575000Y-63500000D02*
X161015000Y-63500000D01*
X163750000Y-63500000D02*
X162575000Y-63500000D01*
D50*
%TO.N,Net-(U2-L1)*%
X145612009Y-73000000D02*
X145162009Y-72550000D01*
X146500000Y-73000000D02*
X145612009Y-73000000D01*
X146835000Y-73335000D02*
X147535849Y-73335000D01*
X146500000Y-73000000D02*
X146835000Y-73335000D01*
%TO.N,Net-(U2-L2)*%
X147535849Y-72335000D02*
X146998546Y-72335000D01*
X146998546Y-72335000D02*
X145113546Y-70450000D01*
X145113546Y-70450000D02*
X144250000Y-70450000D01*
D48*
%TO.N,Net-(U4-ISET)*%
X163710849Y-87897500D02*
X163710849Y-86585000D01*
X163710849Y-86585000D02*
X163460849Y-86335000D01*
%TO.N,Net-(U4-TS)*%
X163023349Y-88585000D02*
X161710849Y-88585000D01*
X161710849Y-88585000D02*
X161460849Y-88335000D01*
%TO.N,Net-(U4-ILIM)*%
X167210849Y-88585000D02*
X167460849Y-88335000D01*
X165898349Y-88585000D02*
X167210849Y-88585000D01*
%TO.N,Net-(U4-TMR)*%
X164960849Y-86485000D02*
X164710849Y-86735000D01*
X164710849Y-86735000D02*
X164710849Y-87897500D01*
%TO.N,Net-(D4-K)*%
X164135849Y-96500000D02*
X165060849Y-96500000D01*
X163635849Y-93364151D02*
X163635849Y-96000000D01*
X164710849Y-92289151D02*
X163635849Y-93364151D01*
X164710849Y-90772500D02*
X164710849Y-92289151D01*
X163635849Y-96000000D02*
X164135849Y-96500000D01*
%TO.N,Net-(D4-A)*%
X166635849Y-96500000D02*
X168460849Y-96500000D01*
%TO.N,Net-(D5-K)*%
X165135849Y-92033982D02*
X165135849Y-94000000D01*
X165738337Y-91708982D02*
X165898349Y-91548970D01*
X165460849Y-91708982D02*
X165738337Y-91708982D01*
X165898349Y-91548970D02*
X165898349Y-90085000D01*
X165460849Y-91708982D02*
X165135849Y-92033982D01*
%TO.N,Net-(D5-A)*%
X166710849Y-94000000D02*
X168485849Y-94000000D01*
%TO.N,GNDA*%
X102500000Y-83000000D02*
X103500000Y-82000000D01*
X92050000Y-89950000D02*
X91500000Y-90500000D01*
X92050000Y-89500000D02*
X92050000Y-89950000D01*
X97598350Y-96235000D02*
X96248350Y-96235000D01*
X99698750Y-94076649D02*
X97540399Y-96235000D01*
X93050000Y-85000000D02*
X92050000Y-86000000D01*
X92775000Y-94975000D02*
X92775000Y-93500000D01*
X82862500Y-92750000D02*
X83062500Y-92550000D01*
X102873350Y-97835000D02*
X102873350Y-99400000D01*
X102773350Y-99500000D02*
X102873350Y-99400000D01*
X103048350Y-97660000D02*
X102873350Y-97835000D01*
X83212500Y-82625000D02*
X83087500Y-82500000D01*
X85000000Y-88500000D02*
X85500000Y-88000000D01*
X101198750Y-92234600D02*
X101198750Y-93985400D01*
X83000000Y-84500000D02*
X83212500Y-84287500D01*
X96248350Y-96235000D02*
X95598350Y-96885000D01*
X103048350Y-95835000D02*
X103048350Y-97660000D01*
X99698750Y-92234600D02*
X99698750Y-94076649D01*
X97540399Y-96235000D02*
X97098350Y-96235000D01*
X102500000Y-83500000D02*
X102500000Y-83000000D01*
X83000000Y-88500000D02*
X85000000Y-88500000D01*
X95598350Y-96885000D02*
X95098350Y-96885000D01*
X95098350Y-96885000D02*
X94048350Y-96885000D01*
X92750000Y-95000000D02*
X92775000Y-94975000D01*
X81750000Y-92750000D02*
X82862500Y-92750000D01*
X94048350Y-96885000D02*
X93598350Y-97335000D01*
X83062500Y-92550000D02*
X83562500Y-92550000D01*
X101198750Y-93985400D02*
X103048350Y-95835000D01*
X83212500Y-84287500D02*
X83212500Y-82625000D01*
%TO.N,Net-(R11-Pad1)*%
X102165450Y-94335000D02*
X101698751Y-93868301D01*
X104273350Y-93335000D02*
X104273350Y-94160000D01*
X101698751Y-93868301D02*
X101698751Y-92234600D01*
X104273350Y-94160000D02*
X104098350Y-94335000D01*
X104098350Y-94335000D02*
X102165450Y-94335000D01*
D49*
%TO.N,Net-(BT1-PadP)*%
X163325000Y-101814150D02*
X163325000Y-113850000D01*
X160510850Y-99000000D02*
X160510850Y-90450000D01*
X163325000Y-113850000D02*
X159675000Y-117500000D01*
X163023349Y-89559000D02*
X163023349Y-89111000D01*
X160510850Y-99000000D02*
X163325000Y-101814150D01*
X160510850Y-90450000D02*
X161401850Y-89559000D01*
X161401850Y-89559000D02*
X163023349Y-89559000D01*
D48*
%TO.N,Net-(U2-EN)*%
X150135849Y-78335000D02*
X146800849Y-78335000D01*
X146485849Y-78650000D02*
X146485849Y-81500000D01*
X149973349Y-78335000D02*
X149973349Y-73835000D01*
X146800849Y-78335000D02*
X146485849Y-78650000D01*
%TO.N,/MCU/SBWDTIO*%
X137094149Y-90701700D02*
X134827549Y-90701700D01*
X138960849Y-88835000D02*
X139910849Y-88835000D01*
X147460850Y-99165001D02*
X147460850Y-88000000D01*
X138878349Y-88917499D02*
X137094149Y-90701700D01*
X139960849Y-88500001D02*
X139960849Y-88885000D01*
X139910849Y-88835000D02*
X139960849Y-88885000D01*
X138460850Y-87325000D02*
X138460850Y-88500000D01*
X138960849Y-88835000D02*
X138878349Y-88917499D01*
X151685850Y-101040000D02*
X149335849Y-101040000D01*
X147460850Y-88000000D02*
X145960850Y-86500000D01*
X145960850Y-86500000D02*
X141960850Y-86500000D01*
X149335849Y-101040000D02*
X147460850Y-99165001D01*
X138460850Y-88500000D02*
X138878349Y-88917499D01*
X141960850Y-86500000D02*
X139960849Y-88500001D01*
%TO.N,/MCU/SBWTCK*%
X140635848Y-93201700D02*
X134827549Y-93201700D01*
X140967074Y-93532926D02*
X140635848Y-93201700D01*
%TO.N,/RLD*%
X94426000Y-81724000D02*
X96374000Y-81724000D01*
X99950000Y-82500000D02*
X100950000Y-83500000D01*
X91101000Y-81724000D02*
X92874000Y-81724000D01*
X93650000Y-82500000D02*
X94426000Y-81724000D01*
X100950000Y-83500000D02*
X100698750Y-83751250D01*
X96374000Y-81724000D02*
X97150000Y-82500000D01*
X97150000Y-82500000D02*
X99950000Y-82500000D01*
X90325000Y-82500000D02*
X91101000Y-81724000D01*
X92874000Y-81724000D02*
X93650000Y-82500000D01*
X100698750Y-83751250D02*
X100698750Y-85935400D01*
%TD*%
%TA.AperFunction,Conductor*%
%TO.N,Net-(J1-Shield)*%
G36*
X173235648Y-62514852D02*
G01*
X173250000Y-62549500D01*
X173250000Y-67701000D01*
X173235648Y-67735648D01*
X173201000Y-67750000D01*
X170049500Y-67750000D01*
X170014852Y-67735648D01*
X170000500Y-67701000D01*
X170000500Y-65666738D01*
X169997606Y-65646884D01*
X169990573Y-65598607D01*
X169939198Y-65493517D01*
X169856483Y-65410802D01*
X169803938Y-65385114D01*
X169751396Y-65359428D01*
X169751394Y-65359427D01*
X169683262Y-65349500D01*
X169683260Y-65349500D01*
X169416740Y-65349500D01*
X169416738Y-65349500D01*
X169348605Y-65359427D01*
X169348603Y-65359428D01*
X169246521Y-65409333D01*
X169209090Y-65411657D01*
X169203479Y-65409333D01*
X169101396Y-65359428D01*
X169101394Y-65359427D01*
X169033262Y-65349500D01*
X169033260Y-65349500D01*
X168766740Y-65349500D01*
X168766738Y-65349500D01*
X168698605Y-65359427D01*
X168698603Y-65359428D01*
X168596521Y-65409333D01*
X168559090Y-65411657D01*
X168553479Y-65409333D01*
X168451396Y-65359428D01*
X168451394Y-65359427D01*
X168383262Y-65349500D01*
X168383260Y-65349500D01*
X168116740Y-65349500D01*
X168116738Y-65349500D01*
X168048605Y-65359427D01*
X168048603Y-65359428D01*
X167946521Y-65409333D01*
X167909090Y-65411657D01*
X167903479Y-65409333D01*
X167801396Y-65359428D01*
X167801394Y-65359427D01*
X167733262Y-65349500D01*
X167733260Y-65349500D01*
X167466740Y-65349500D01*
X167466738Y-65349500D01*
X167398605Y-65359427D01*
X167398603Y-65359428D01*
X167296521Y-65409333D01*
X167259090Y-65411657D01*
X167253479Y-65409333D01*
X167151396Y-65359428D01*
X167151394Y-65359427D01*
X167083262Y-65349500D01*
X167083260Y-65349500D01*
X166816740Y-65349500D01*
X166816738Y-65349500D01*
X166748605Y-65359427D01*
X166748603Y-65359428D01*
X166643519Y-65410801D01*
X166643515Y-65410803D01*
X166560803Y-65493515D01*
X166560801Y-65493519D01*
X166509428Y-65598603D01*
X166509427Y-65598605D01*
X166499500Y-65666738D01*
X166499500Y-66883261D01*
X166509427Y-66951392D01*
X166509428Y-66951396D01*
X166544521Y-67023180D01*
X166549500Y-67044700D01*
X166549500Y-67701000D01*
X166535148Y-67735648D01*
X166500500Y-67750000D01*
X163299000Y-67750000D01*
X163264352Y-67735648D01*
X163250000Y-67701000D01*
X163250000Y-62549500D01*
X163264352Y-62514852D01*
X163299000Y-62500500D01*
X173201000Y-62500500D01*
X173235648Y-62514852D01*
G37*
%TD.AperFunction*%
%TD*%
M02*
