%TF.GenerationSoftware,KiCad,Pcbnew,9.0.6*%
%TF.CreationDate,2026-02-12T21:56:09-05:00*%
%TF.ProjectId,EKG_AQUISITION_MSP430,454b475f-4151-4554-9953-4954494f4e5f,rev?*%
%TF.SameCoordinates,Original*%
%TF.FileFunction,Soldermask,Top*%
%TF.FilePolarity,Negative*%
%FSLAX46Y46*%
G04 Gerber Fmt 4.6, Leading zero omitted, Abs format (unit mm)*
G04 Created by KiCad (PCBNEW 9.0.6) date 2026-02-12 21:56:09*
%MOMM*%
%LPD*%
G01*
G04 APERTURE LIST*
G04 Aperture macros list*
%AMRoundRect*
0 Rectangle with rounded corners*
0 $1 Rounding radius*
0 $2 $3 $4 $5 $6 $7 $8 $9 X,Y pos of 4 corners*
0 Add a 4 corners polygon primitive as box body*
4,1,4,$2,$3,$4,$5,$6,$7,$8,$9,$2,$3,0*
0 Add four circle primitives for the rounded corners*
1,1,$1+$1,$2,$3*
1,1,$1+$1,$4,$5*
1,1,$1+$1,$6,$7*
1,1,$1+$1,$8,$9*
0 Add four rect primitives between the rounded corners*
20,1,$1+$1,$2,$3,$4,$5,0*
20,1,$1+$1,$4,$5,$6,$7,0*
20,1,$1+$1,$6,$7,$8,$9,0*
20,1,$1+$1,$8,$9,$2,$3,0*%
G04 Aperture macros list end*
%ADD10RoundRect,0.100000X0.100000X0.575000X-0.100000X0.575000X-0.100000X-0.575000X0.100000X-0.575000X0*%
%ADD11O,1.000000X1.900000*%
%ADD12R,0.875000X1.900000*%
%ADD13O,1.050000X1.250000*%
%ADD14RoundRect,0.250000X1.200000X0.700000X-1.200000X0.700000X-1.200000X-0.700000X1.200000X-0.700000X0*%
%ADD15C,3.200000*%
%ADD16RoundRect,0.225000X-0.250000X0.225000X-0.250000X-0.225000X0.250000X-0.225000X0.250000X0.225000X0*%
%ADD17RoundRect,0.225000X-0.225000X-0.250000X0.225000X-0.250000X0.225000X0.250000X-0.225000X0.250000X0*%
%ADD18RoundRect,0.200000X0.275000X-0.200000X0.275000X0.200000X-0.275000X0.200000X-0.275000X-0.200000X0*%
%ADD19RoundRect,0.250000X-0.475000X0.250000X-0.475000X-0.250000X0.475000X-0.250000X0.475000X0.250000X0*%
%ADD20RoundRect,0.243750X-0.243750X-0.456250X0.243750X-0.456250X0.243750X0.456250X-0.243750X0.456250X0*%
%ADD21RoundRect,0.250000X0.250000X0.475000X-0.250000X0.475000X-0.250000X-0.475000X0.250000X-0.475000X0*%
%ADD22RoundRect,0.250000X-0.250000X-0.475000X0.250000X-0.475000X0.250000X0.475000X-0.250000X0.475000X0*%
%ADD23RoundRect,0.200000X-0.275000X0.200000X-0.275000X-0.200000X0.275000X-0.200000X0.275000X0.200000X0*%
%ADD24R,1.524000X0.228600*%
%ADD25R,0.228600X1.524000*%
%ADD26RoundRect,0.200000X-0.200000X-0.275000X0.200000X-0.275000X0.200000X0.275000X-0.200000X0.275000X0*%
%ADD27R,0.279400X1.676400*%
%ADD28R,1.676400X0.279400*%
%ADD29RoundRect,0.200000X0.200000X0.275000X-0.200000X0.275000X-0.200000X-0.275000X0.200000X-0.275000X0*%
%ADD30R,1.700000X1.700000*%
%ADD31C,1.700000*%
%ADD32RoundRect,0.225000X0.250000X-0.225000X0.250000X0.225000X-0.250000X0.225000X-0.250000X-0.225000X0*%
%ADD33RoundRect,0.250000X-0.450000X-0.350000X0.450000X-0.350000X0.450000X0.350000X-0.450000X0.350000X0*%
%ADD34RoundRect,0.102000X-1.500000X0.450000X-1.500000X-0.450000X1.500000X-0.450000X1.500000X0.450000X0*%
%ADD35C,3.550000*%
%ADD36C,2.390000*%
%ADD37C,2.184000*%
%ADD38RoundRect,0.150000X-0.587500X-0.150000X0.587500X-0.150000X0.587500X0.150000X-0.587500X0.150000X0*%
%ADD39RoundRect,0.062500X-0.375000X-0.062500X0.375000X-0.062500X0.375000X0.062500X-0.375000X0.062500X0*%
%ADD40RoundRect,0.062500X-0.062500X-0.375000X0.062500X-0.375000X0.062500X0.375000X-0.062500X0.375000X0*%
%ADD41R,1.600000X1.600000*%
%ADD42RoundRect,0.062500X-0.350000X-0.062500X0.350000X-0.062500X0.350000X0.062500X-0.350000X0.062500X0*%
%ADD43R,1.200000X2.000000*%
%ADD44RoundRect,0.225000X0.225000X0.250000X-0.225000X0.250000X-0.225000X-0.250000X0.225000X-0.250000X0*%
%ADD45C,4.000000*%
%ADD46C,1.600000*%
%ADD47C,1.200000*%
%ADD48RoundRect,0.180000X0.420000X-0.720000X0.420000X0.720000X-0.420000X0.720000X-0.420000X-0.720000X0*%
G04 APERTURE END LIST*
D10*
%TO.C,J1*%
X166950000Y-66275000D03*
X167600000Y-66275000D03*
X168250000Y-66275000D03*
X168900000Y-66275000D03*
X169550000Y-66275000D03*
D11*
X172425000Y-63600000D03*
D12*
X171987500Y-63600000D03*
D13*
X170475000Y-66600000D03*
D14*
X168250000Y-63600000D03*
D13*
X166025000Y-66600000D03*
D12*
X164512500Y-63600000D03*
D11*
X164075000Y-63600000D03*
%TD*%
D15*
%TO.C,H2*%
X177750000Y-126000000D03*
%TD*%
D16*
%TO.C,C28*%
X134960850Y-83060000D03*
X134960850Y-84610000D03*
%TD*%
D17*
%TO.C,C19*%
X143910849Y-76310000D03*
X145460849Y-76310000D03*
%TD*%
D18*
%TO.C,R15*%
X163460849Y-86335000D03*
X163460849Y-84685000D03*
%TD*%
D19*
%TO.C,C9*%
X97098350Y-94335000D03*
X97098350Y-96235000D03*
%TD*%
D20*
%TO.C,D5*%
X164985849Y-94000000D03*
X166860849Y-94000000D03*
%TD*%
D21*
%TO.C,C24*%
X169360849Y-90835000D03*
X167460849Y-90835000D03*
%TD*%
D17*
%TO.C,C1*%
X90500000Y-86000000D03*
X92050000Y-86000000D03*
%TD*%
%TO.C,C4*%
X100950000Y-83500000D03*
X102500000Y-83500000D03*
%TD*%
D22*
%TO.C,C20*%
X152060849Y-73835000D03*
X153960849Y-73835000D03*
%TD*%
%TO.C,C21*%
X143510849Y-74310000D03*
X145410849Y-74310000D03*
%TD*%
D17*
%TO.C,C15*%
X137185849Y-95835000D03*
X138735849Y-95835000D03*
%TD*%
D22*
%TO.C,C27*%
X122960849Y-81835000D03*
X124860849Y-81835000D03*
%TD*%
D17*
%TO.C,C12*%
X123685849Y-83835000D03*
X125235849Y-83835000D03*
%TD*%
%TO.C,C26*%
X159300000Y-63335000D03*
X160850000Y-63335000D03*
%TD*%
D23*
%TO.C,R14*%
X125960849Y-103010000D03*
X125960849Y-104660000D03*
%TD*%
%TO.C,R13*%
X138460850Y-85675000D03*
X138460850Y-87325000D03*
%TD*%
D24*
%TO.C,U3*%
X97799150Y-87335001D03*
X97799150Y-87835000D03*
X97799150Y-88334999D03*
X97799150Y-88835000D03*
X97799150Y-89335000D03*
X97799150Y-89835001D03*
X97799150Y-90335000D03*
X97799150Y-90834999D03*
D25*
X99198751Y-92234600D03*
X99698750Y-92234600D03*
X100198749Y-92234600D03*
X100698750Y-92234600D03*
X101198750Y-92234600D03*
X101698751Y-92234600D03*
X102198750Y-92234600D03*
X102698749Y-92234600D03*
D24*
X104098350Y-90834999D03*
X104098350Y-90335000D03*
X104098350Y-89835001D03*
X104098350Y-89335000D03*
X104098350Y-88835000D03*
X104098350Y-88334999D03*
X104098350Y-87835000D03*
X104098350Y-87335001D03*
D25*
X102698749Y-85935400D03*
X102198750Y-85935400D03*
X101698751Y-85935400D03*
X101198750Y-85935400D03*
X100698750Y-85935400D03*
X100198749Y-85935400D03*
X99698750Y-85935400D03*
X99198751Y-85935400D03*
%TD*%
D26*
%TO.C,R22*%
X168485849Y-94000000D03*
X170135849Y-94000000D03*
%TD*%
D27*
%TO.C,U1*%
X132960850Y-86835000D03*
X132460848Y-86835000D03*
X131960849Y-86835000D03*
X131460850Y-86835000D03*
X130960849Y-86835000D03*
X130460850Y-86835000D03*
X129960848Y-86835000D03*
X129460849Y-86835000D03*
X128960850Y-86835000D03*
X128460849Y-86835000D03*
X127960849Y-86835000D03*
X127460851Y-86835000D03*
X126960849Y-86835000D03*
X126460850Y-86835000D03*
X125960848Y-86835000D03*
X125460849Y-86835000D03*
X124960850Y-86835000D03*
X124460849Y-86835000D03*
X123960850Y-86835000D03*
X123460848Y-86835000D03*
D28*
X121594149Y-88701699D03*
X121594149Y-89201701D03*
X121594149Y-89701700D03*
X121594149Y-90201699D03*
X121594149Y-90701700D03*
X121594149Y-91201699D03*
X121594149Y-91701701D03*
X121594149Y-92201700D03*
X121594149Y-92701699D03*
X121594149Y-93201700D03*
X121594149Y-93701700D03*
X121594149Y-94201701D03*
X121594149Y-94701700D03*
X121594149Y-95201699D03*
X121594149Y-95701701D03*
X121594149Y-96201700D03*
X121594149Y-96701701D03*
X121594149Y-97201700D03*
X121594149Y-97701699D03*
X121594149Y-98201701D03*
D27*
X123460848Y-100068400D03*
X123960850Y-100068400D03*
X124460849Y-100068400D03*
X124960848Y-100068400D03*
X125460849Y-100068400D03*
X125960848Y-100068400D03*
X126460850Y-100068400D03*
X126960849Y-100068400D03*
X127460848Y-100068400D03*
X127960849Y-100068400D03*
X128460849Y-100068400D03*
X128960850Y-100068400D03*
X129460849Y-100068400D03*
X129960848Y-100068400D03*
X130460850Y-100068400D03*
X130960849Y-100068400D03*
X131460850Y-100068400D03*
X131960849Y-100068400D03*
X132460848Y-100068400D03*
X132960850Y-100068400D03*
D28*
X134827549Y-98201701D03*
X134827549Y-97701699D03*
X134827549Y-97201700D03*
X134827549Y-96701701D03*
X134827549Y-96201700D03*
X134827549Y-95701701D03*
X134827549Y-95201699D03*
X134827549Y-94701700D03*
X134827549Y-94201701D03*
X134827549Y-93701700D03*
X134827549Y-93201700D03*
X134827549Y-92701699D03*
X134827549Y-92201700D03*
X134827549Y-91701701D03*
X134827549Y-91201699D03*
X134827549Y-90701700D03*
X134827549Y-90201699D03*
X134827549Y-89701700D03*
X134827549Y-89201701D03*
X134827549Y-88701699D03*
%TD*%
D17*
%TO.C,C3*%
X91225000Y-93500000D03*
X92775000Y-93500000D03*
%TD*%
D29*
%TO.C,R4*%
X90325000Y-82500000D03*
X88675000Y-82500000D03*
%TD*%
D30*
%TO.C,J4*%
X143750000Y-101790000D03*
D31*
X143750000Y-99250000D03*
X143750000Y-96710000D03*
X143750000Y-94170000D03*
X143750000Y-91630000D03*
X143750000Y-89090000D03*
%TD*%
D23*
%TO.C,R10*%
X110098350Y-94510000D03*
X110098350Y-96160000D03*
%TD*%
D26*
%TO.C,R6*%
X95500000Y-82500000D03*
X97150000Y-82500000D03*
%TD*%
D30*
%TO.C,J2*%
X151685850Y-90880000D03*
D31*
X154225850Y-90880000D03*
X151685850Y-93420000D03*
X154225850Y-93420000D03*
X151685850Y-95960000D03*
X154225850Y-95960000D03*
X151685850Y-98500000D03*
X154225850Y-98500000D03*
X151685850Y-101040000D03*
X154225850Y-101040000D03*
%TD*%
D32*
%TO.C,C14*%
X121460849Y-84335000D03*
X121460849Y-82785000D03*
%TD*%
D33*
%TO.C,Y1*%
X127360849Y-83635000D03*
X129560849Y-83635000D03*
X129560849Y-81935000D03*
X127360849Y-81935000D03*
%TD*%
D26*
%TO.C,R2*%
X87000000Y-89500000D03*
X88650000Y-89500000D03*
%TD*%
D22*
%TO.C,C22*%
X156060849Y-73835000D03*
X157960849Y-73835000D03*
%TD*%
D23*
%TO.C,R9*%
X106098350Y-98335000D03*
X106098350Y-99985000D03*
%TD*%
D34*
%TO.C,L1*%
X144250000Y-70450000D03*
X144250000Y-72550000D03*
%TD*%
D15*
%TO.C,H3*%
X177750000Y-66250000D03*
%TD*%
D16*
%TO.C,C10*%
X99273350Y-96675000D03*
X99273350Y-98225000D03*
%TD*%
D17*
%TO.C,C6*%
X101323350Y-97835000D03*
X102873350Y-97835000D03*
%TD*%
D20*
%TO.C,D4*%
X164910849Y-96500000D03*
X166785849Y-96500000D03*
%TD*%
D35*
%TO.C,BT1*%
X96275000Y-125500000D03*
X151475000Y-109500000D03*
D36*
X159675000Y-125500000D03*
D37*
X87455000Y-117500000D03*
X159675000Y-117500000D03*
%TD*%
D16*
%TO.C,C11*%
X132960849Y-83060000D03*
X132960849Y-84610000D03*
%TD*%
D38*
%TO.C,D2*%
X83562500Y-92550000D03*
X83562500Y-94450000D03*
X85437500Y-93500000D03*
%TD*%
D29*
%TO.C,R12*%
X151785849Y-78335000D03*
X150135849Y-78335000D03*
%TD*%
%TO.C,R3*%
X88500000Y-86000000D03*
X86850000Y-86000000D03*
%TD*%
%TO.C,R17*%
X169110849Y-88335000D03*
X167460849Y-88335000D03*
%TD*%
D22*
%TO.C,C5*%
X101148350Y-95835000D03*
X103048350Y-95835000D03*
%TD*%
D39*
%TO.C,U4*%
X163023349Y-88585000D03*
X163023349Y-89085000D03*
X163023349Y-89585000D03*
X163023349Y-90085000D03*
D40*
X163710849Y-90772500D03*
X164210849Y-90772500D03*
X164710849Y-90772500D03*
X165210849Y-90772500D03*
D39*
X165898349Y-90085000D03*
X165898349Y-89585000D03*
X165898349Y-89085000D03*
X165898349Y-88585000D03*
D40*
X165210849Y-87897500D03*
X164710849Y-87897500D03*
X164210849Y-87897500D03*
X163710849Y-87897500D03*
D41*
X164460849Y-89335000D03*
%TD*%
D42*
%TO.C,U2*%
X147535849Y-71835000D03*
X147535849Y-72335000D03*
X147535849Y-72835000D03*
X147535849Y-73335000D03*
X147535849Y-73835000D03*
X149960849Y-73835000D03*
X149960849Y-73335000D03*
X149960849Y-72835000D03*
X149960849Y-72335000D03*
X149960849Y-71835000D03*
D43*
X148748349Y-72835000D03*
%TD*%
D26*
%TO.C,R5*%
X92000000Y-82500000D03*
X93650000Y-82500000D03*
%TD*%
D32*
%TO.C,C7*%
X106098350Y-86885000D03*
X106098350Y-85335000D03*
%TD*%
%TO.C,C8*%
X95098350Y-96885000D03*
X95098350Y-95335000D03*
%TD*%
D15*
%TO.C,H4*%
X72500000Y-66250000D03*
%TD*%
D38*
%TO.C,D1*%
X83000000Y-84500000D03*
X83000000Y-86400000D03*
X84875000Y-85450000D03*
%TD*%
D18*
%TO.C,R18*%
X164960849Y-86485000D03*
X164960849Y-84835000D03*
%TD*%
D44*
%TO.C,C2*%
X92050000Y-89500000D03*
X90500000Y-89500000D03*
%TD*%
D16*
%TO.C,C17*%
X127460849Y-74750000D03*
X127460849Y-76300000D03*
%TD*%
D26*
%TO.C,R11*%
X104598350Y-93335000D03*
X106248350Y-93335000D03*
%TD*%
D38*
%TO.C,D3*%
X83000000Y-88500000D03*
X83000000Y-90400000D03*
X84875000Y-89450000D03*
%TD*%
D17*
%TO.C,C25*%
X170460849Y-85835000D03*
X172010849Y-85835000D03*
%TD*%
D16*
%TO.C,C18*%
X129460849Y-76785000D03*
X129460849Y-78335000D03*
%TD*%
D45*
%TO.C,J6*%
X73500000Y-75500000D03*
X73500000Y-100500000D03*
D41*
X76340000Y-93540000D03*
D46*
X76340000Y-90770000D03*
X76340000Y-88000000D03*
X76340000Y-85230000D03*
X76340000Y-82460000D03*
X73500000Y-92155000D03*
X73500000Y-89385000D03*
X73500000Y-86615000D03*
X73500000Y-83845000D03*
%TD*%
D26*
%TO.C,R1*%
X87500000Y-93500000D03*
X89150000Y-93500000D03*
%TD*%
%TO.C,R21*%
X168460849Y-96500000D03*
X170110849Y-96500000D03*
%TD*%
D32*
%TO.C,C16*%
X139960849Y-90435000D03*
X139960849Y-88885000D03*
%TD*%
D29*
%TO.C,R16*%
X161460849Y-88335000D03*
X159810849Y-88335000D03*
%TD*%
D32*
%TO.C,C13*%
X128960849Y-104385000D03*
X128960849Y-102835000D03*
%TD*%
D44*
%TO.C,C23*%
X162235850Y-99000000D03*
X160685850Y-99000000D03*
%TD*%
D15*
%TO.C,H1*%
X72500000Y-126000000D03*
%TD*%
D47*
%TO.C,U5*%
X144485849Y-81500000D03*
X146485849Y-81500000D03*
X148485849Y-81500000D03*
D48*
X142335849Y-81500000D03*
X150635849Y-81500000D03*
%TD*%
M02*
