%TF.GenerationSoftware,KiCad,Pcbnew,9.0.6*%
%TF.CreationDate,2026-02-12T21:56:09-05:00*%
%TF.ProjectId,EKG_AQUISITION_MSP430,454b475f-4151-4554-9953-4954494f4e5f,rev?*%
%TF.SameCoordinates,Original*%
%TF.FileFunction,Copper,L3,Inr*%
%TF.FilePolarity,Positive*%
%FSLAX46Y46*%
G04 Gerber Fmt 4.6, Leading zero omitted, Abs format (unit mm)*
G04 Created by KiCad (PCBNEW 9.0.6) date 2026-02-12 21:56:09*
%MOMM*%
%LPD*%
G01*
G04 APERTURE LIST*
G04 Aperture macros list*
%AMRoundRect*
0 Rectangle with rounded corners*
0 $1 Rounding radius*
0 $2 $3 $4 $5 $6 $7 $8 $9 X,Y pos of 4 corners*
0 Add a 4 corners polygon primitive as box body*
4,1,4,$2,$3,$4,$5,$6,$7,$8,$9,$2,$3,0*
0 Add four circle primitives for the rounded corners*
1,1,$1+$1,$2,$3*
1,1,$1+$1,$4,$5*
1,1,$1+$1,$6,$7*
1,1,$1+$1,$8,$9*
0 Add four rect primitives between the rounded corners*
20,1,$1+$1,$2,$3,$4,$5,0*
20,1,$1+$1,$4,$5,$6,$7,0*
20,1,$1+$1,$6,$7,$8,$9,0*
20,1,$1+$1,$8,$9,$2,$3,0*%
G04 Aperture macros list end*
%TA.AperFunction,HeatsinkPad*%
%ADD10O,1.000000X1.900000*%
%TD*%
%TA.AperFunction,HeatsinkPad*%
%ADD11O,1.050000X1.250000*%
%TD*%
%TA.AperFunction,ComponentPad*%
%ADD12R,1.700000X1.700000*%
%TD*%
%TA.AperFunction,ComponentPad*%
%ADD13C,1.700000*%
%TD*%
%TA.AperFunction,ComponentPad*%
%ADD14C,1.980000*%
%TD*%
%TA.AperFunction,ComponentPad*%
%ADD15C,4.000000*%
%TD*%
%TA.AperFunction,ComponentPad*%
%ADD16R,1.600000X1.600000*%
%TD*%
%TA.AperFunction,ComponentPad*%
%ADD17C,1.600000*%
%TD*%
%TA.AperFunction,ComponentPad*%
%ADD18C,1.200000*%
%TD*%
%TA.AperFunction,ComponentPad*%
%ADD19RoundRect,0.180000X0.420000X-0.720000X0.420000X0.720000X-0.420000X0.720000X-0.420000X-0.720000X0*%
%TD*%
%TA.AperFunction,ViaPad*%
%ADD20C,0.600000*%
%TD*%
G04 APERTURE END LIST*
D10*
%TO.N,Net-(J1-Shield)*%
%TO.C,J1*%
X172425000Y-63600000D03*
D11*
X170475000Y-66600000D03*
X166025000Y-66600000D03*
D10*
X164075000Y-63600000D03*
%TD*%
D12*
%TO.N,GND*%
%TO.C,J4*%
X143750000Y-101790000D03*
D13*
%TO.N,unconnected-(J4-Pin_2-Pad2)*%
X143750000Y-99250000D03*
%TO.N,unconnected-(J4-Pin_3-Pad3)*%
X143750000Y-96710000D03*
%TO.N,/MCU/MCU_TX*%
X143750000Y-94170000D03*
%TO.N,/MCU/MCU_RX*%
X143750000Y-91630000D03*
%TO.N,unconnected-(J4-Pin_6-Pad6)*%
X143750000Y-89090000D03*
%TD*%
D12*
%TO.N,+3V3*%
%TO.C,J2*%
X151685850Y-90880000D03*
D13*
%TO.N,unconnected-(J2-Pin_2-Pad2)*%
X154225850Y-90880000D03*
%TO.N,GND*%
X151685850Y-93420000D03*
%TO.N,/MCU/SBWTCK*%
X154225850Y-93420000D03*
%TO.N,GND*%
X151685850Y-95960000D03*
%TO.N,unconnected-(J2-Pin_6-Pad6)*%
X154225850Y-95960000D03*
%TO.N,unconnected-(J2-Pin_7-Pad7)*%
X151685850Y-98500000D03*
%TO.N,unconnected-(J2-Pin_8-Pad8)*%
X154225850Y-98500000D03*
%TO.N,/MCU/SBWDTIO*%
X151685850Y-101040000D03*
%TO.N,unconnected-(J2-Pin_10-Pad10)*%
X154225850Y-101040000D03*
%TD*%
D14*
%TO.N,GND*%
%TO.C,BT1*%
X87455000Y-117500000D03*
%TO.N,Net-(BT1-PadP)*%
X159675000Y-117500000D03*
%TD*%
D15*
%TO.N,N/C*%
%TO.C,J6*%
X73500000Y-75500000D03*
X73500000Y-100500000D03*
D16*
%TO.N,/HB*%
X76340000Y-93540000D03*
D17*
%TO.N,/RF*%
X76340000Y-90770000D03*
%TO.N,/LF*%
X76340000Y-88000000D03*
%TO.N,unconnected-(J6-Pad4)*%
X76340000Y-85230000D03*
%TO.N,GND*%
X76340000Y-82460000D03*
%TO.N,unconnected-(J6-Pad6)*%
X73500000Y-92155000D03*
%TO.N,unconnected-(J6-Pad7)*%
X73500000Y-89385000D03*
%TO.N,unconnected-(J6-Pad8)*%
X73500000Y-86615000D03*
%TO.N,unconnected-(J6-Pad9)*%
X73500000Y-83845000D03*
%TD*%
D18*
%TO.N,VSYS*%
%TO.C,U5*%
X144485849Y-81500000D03*
%TO.N,Net-(U2-EN)*%
X146485849Y-81500000D03*
%TO.N,GND*%
X148485849Y-81500000D03*
D19*
X142335849Y-81500000D03*
X150635849Y-81500000D03*
%TD*%
D20*
%TO.N,GND*%
X170000000Y-68750000D03*
X173460849Y-85835000D03*
X163460849Y-83335000D03*
X126000000Y-74000000D03*
X159960849Y-86835000D03*
X107460850Y-85000000D03*
X131635849Y-84000000D03*
X170460849Y-88335000D03*
X137460849Y-99335000D03*
X139960849Y-96835000D03*
X170960849Y-90835000D03*
X130460849Y-102835000D03*
X122960849Y-79500000D03*
X163960850Y-99000000D03*
X136460850Y-82835000D03*
X155960849Y-75335000D03*
X119960849Y-82835000D03*
X139960849Y-91835000D03*
X137094149Y-94701700D03*
X141960849Y-74335000D03*
X131460849Y-76835000D03*
X127460849Y-103500000D03*
X164960849Y-83335000D03*
X98598350Y-99335000D03*
X151960849Y-71835000D03*
X153635849Y-78335000D03*
X126360849Y-85335000D03*
X157750000Y-63750000D03*
X161960850Y-91000000D03*
X107773350Y-96500000D03*
%TO.N,/LF_IN*%
X93799735Y-88124000D03*
X96100000Y-88693235D03*
%TO.N,/RF_IN*%
X89500000Y-85000000D03*
X89500000Y-87500000D03*
%TO.N,/HB_IN*%
X94000000Y-86500000D03*
X93500000Y-89500000D03*
%TO.N,+3V3*%
X104598350Y-100835000D03*
X138135849Y-97500000D03*
X157960849Y-75335000D03*
X136350850Y-84610000D03*
X107598350Y-94835000D03*
X81500000Y-87500000D03*
X131775000Y-106000000D03*
X100960850Y-99500000D03*
X138460850Y-84000000D03*
X153635849Y-76000000D03*
X82450000Y-95550000D03*
X107598350Y-86835000D03*
X81500000Y-91500000D03*
X119960849Y-84835000D03*
X124960849Y-80335000D03*
%TO.N,Net-(U1-P5.5{slash}XOUT)*%
X127860849Y-80285000D03*
X129060849Y-80285000D03*
%TO.N,VSYS*%
X159135849Y-92335000D03*
X162161849Y-92266340D03*
X150573349Y-75335000D03*
X149373349Y-75335000D03*
X166292806Y-92343043D03*
%TO.N,MCU_RESET_N*%
X104598350Y-95335000D03*
X103101972Y-93735000D03*
%TO.N,MCU_SCLK*%
X109203865Y-89894485D03*
X109098350Y-97935000D03*
%TO.N,MCU_DRDY*%
X113598350Y-92000000D03*
X114500000Y-93301699D03*
%TO.N,MCU_MOSI*%
X112598350Y-92101699D03*
X112772615Y-96509265D03*
%TO.N,MCU_MISO*%
X111822615Y-97459265D03*
X111598350Y-90900000D03*
%TO.N,GNDA*%
X102873350Y-99400000D03*
X91500000Y-90500000D03*
X81750000Y-92750000D03*
X93050000Y-85000000D03*
X103500000Y-82000000D03*
X93598350Y-97335000D03*
X92775000Y-94975000D03*
X85500000Y-88000000D03*
X83087500Y-82500000D03*
%TO.N,/MCU/SBWTCK*%
X140967074Y-93532926D03*
%TD*%
%TA.AperFunction,Conductor*%
%TO.N,GND*%
G36*
X163142558Y-62520185D02*
G01*
X163188313Y-62572989D01*
X163198257Y-62642147D01*
X163190080Y-62671952D01*
X163112950Y-62858160D01*
X163112947Y-62858170D01*
X163074500Y-63051456D01*
X163074500Y-63051459D01*
X163074500Y-64148541D01*
X163074500Y-64148543D01*
X163074499Y-64148543D01*
X163112947Y-64341829D01*
X163112950Y-64341839D01*
X163188364Y-64523907D01*
X163188371Y-64523920D01*
X163297860Y-64687781D01*
X163297863Y-64687785D01*
X163437214Y-64827136D01*
X163437218Y-64827139D01*
X163601079Y-64936628D01*
X163601092Y-64936635D01*
X163783160Y-65012049D01*
X163783165Y-65012051D01*
X163783169Y-65012051D01*
X163783170Y-65012052D01*
X163976456Y-65050500D01*
X163976459Y-65050500D01*
X164173543Y-65050500D01*
X164303582Y-65024632D01*
X164366835Y-65012051D01*
X164548914Y-64936632D01*
X164712782Y-64827139D01*
X164852139Y-64687782D01*
X164961632Y-64523914D01*
X165037051Y-64341835D01*
X165075500Y-64148541D01*
X165075500Y-63051459D01*
X165075500Y-63051456D01*
X165037052Y-62858170D01*
X165037051Y-62858169D01*
X165037051Y-62858165D01*
X164961632Y-62676086D01*
X164959920Y-62671952D01*
X164952451Y-62602483D01*
X164983726Y-62540004D01*
X165043815Y-62504352D01*
X165074481Y-62500500D01*
X171425519Y-62500500D01*
X171492558Y-62520185D01*
X171538313Y-62572989D01*
X171548257Y-62642147D01*
X171540080Y-62671952D01*
X171462950Y-62858160D01*
X171462947Y-62858170D01*
X171424500Y-63051456D01*
X171424500Y-63051459D01*
X171424500Y-64148541D01*
X171424500Y-64148543D01*
X171424499Y-64148543D01*
X171462947Y-64341829D01*
X171462950Y-64341839D01*
X171538364Y-64523907D01*
X171538371Y-64523920D01*
X171647860Y-64687781D01*
X171647863Y-64687785D01*
X171787214Y-64827136D01*
X171787218Y-64827139D01*
X171951079Y-64936628D01*
X171951092Y-64936635D01*
X172133160Y-65012049D01*
X172133165Y-65012051D01*
X172133169Y-65012051D01*
X172133170Y-65012052D01*
X172326456Y-65050500D01*
X172326459Y-65050500D01*
X172523543Y-65050500D01*
X172653582Y-65024632D01*
X172716835Y-65012051D01*
X172898914Y-64936632D01*
X173062782Y-64827139D01*
X173202139Y-64687782D01*
X173311632Y-64523914D01*
X173387051Y-64341835D01*
X173425500Y-64148541D01*
X173425500Y-63051459D01*
X173425500Y-63051456D01*
X173387052Y-62858170D01*
X173387051Y-62858169D01*
X173387051Y-62858165D01*
X173311632Y-62676086D01*
X173309920Y-62671952D01*
X173302451Y-62602483D01*
X173333726Y-62540004D01*
X173393815Y-62504352D01*
X173424481Y-62500500D01*
X181125500Y-62500500D01*
X181192539Y-62520185D01*
X181238294Y-62572989D01*
X181249500Y-62624500D01*
X181249500Y-129375500D01*
X181229815Y-129442539D01*
X181177011Y-129488294D01*
X181125500Y-129499500D01*
X69124500Y-129499500D01*
X69057461Y-129479815D01*
X69011706Y-129427011D01*
X69000500Y-129375500D01*
X69000500Y-125878711D01*
X70649500Y-125878711D01*
X70649500Y-126121288D01*
X70681161Y-126361785D01*
X70743947Y-126596104D01*
X70836773Y-126820205D01*
X70836777Y-126820214D01*
X70847969Y-126839599D01*
X70958064Y-127030289D01*
X70958066Y-127030292D01*
X70958067Y-127030293D01*
X71105733Y-127222736D01*
X71105739Y-127222743D01*
X71277256Y-127394260D01*
X71277262Y-127394265D01*
X71469711Y-127541936D01*
X71679788Y-127663224D01*
X71903900Y-127756054D01*
X72138211Y-127818838D01*
X72318586Y-127842584D01*
X72378711Y-127850500D01*
X72378712Y-127850500D01*
X72621289Y-127850500D01*
X72669388Y-127844167D01*
X72861789Y-127818838D01*
X73096100Y-127756054D01*
X73320212Y-127663224D01*
X73530289Y-127541936D01*
X73722738Y-127394265D01*
X73894265Y-127222738D01*
X74041936Y-127030289D01*
X74163224Y-126820212D01*
X74256054Y-126596100D01*
X74318838Y-126361789D01*
X74350500Y-126121288D01*
X74350500Y-125878712D01*
X74318838Y-125638211D01*
X74256054Y-125403900D01*
X74240872Y-125367248D01*
X94249500Y-125367248D01*
X94249500Y-125632751D01*
X94249501Y-125632767D01*
X94284156Y-125896001D01*
X94352879Y-126152478D01*
X94454481Y-126397768D01*
X94454489Y-126397785D01*
X94587240Y-126627714D01*
X94587251Y-126627730D01*
X94748879Y-126838368D01*
X94748885Y-126838375D01*
X94936624Y-127026114D01*
X94936631Y-127026120D01*
X95086633Y-127141221D01*
X95147278Y-127187755D01*
X95147285Y-127187759D01*
X95377214Y-127320510D01*
X95377219Y-127320512D01*
X95377222Y-127320514D01*
X95377226Y-127320515D01*
X95377231Y-127320518D01*
X95622522Y-127422120D01*
X95622520Y-127422120D01*
X95622526Y-127422121D01*
X95622527Y-127422122D01*
X95878997Y-127490843D01*
X96142242Y-127525500D01*
X96142249Y-127525500D01*
X96407751Y-127525500D01*
X96407758Y-127525500D01*
X96671003Y-127490843D01*
X96927473Y-127422122D01*
X97172778Y-127320514D01*
X97402722Y-127187755D01*
X97613370Y-127026119D01*
X97801119Y-126838370D01*
X97962755Y-126627722D01*
X98095514Y-126397778D01*
X98197122Y-126152473D01*
X98265843Y-125896003D01*
X98300500Y-125632758D01*
X98300500Y-125386231D01*
X158229500Y-125386231D01*
X158229500Y-125613768D01*
X158265093Y-125838490D01*
X158335400Y-126054876D01*
X158335401Y-126054879D01*
X158385131Y-126152478D01*
X158438697Y-126257607D01*
X158572434Y-126441680D01*
X158733320Y-126602566D01*
X158917393Y-126736303D01*
X159016825Y-126786966D01*
X159120120Y-126839598D01*
X159120123Y-126839599D01*
X159228316Y-126874752D01*
X159336511Y-126909907D01*
X159440591Y-126926391D01*
X159561232Y-126945500D01*
X159561237Y-126945500D01*
X159788768Y-126945500D01*
X159897710Y-126928244D01*
X160013489Y-126909907D01*
X160229879Y-126839598D01*
X160432607Y-126736303D01*
X160616680Y-126602566D01*
X160777566Y-126441680D01*
X160911303Y-126257607D01*
X161014598Y-126054879D01*
X161071838Y-125878711D01*
X175899500Y-125878711D01*
X175899500Y-126121288D01*
X175931161Y-126361785D01*
X175993947Y-126596104D01*
X176086773Y-126820205D01*
X176086777Y-126820214D01*
X176097969Y-126839599D01*
X176208064Y-127030289D01*
X176208066Y-127030292D01*
X176208067Y-127030293D01*
X176355733Y-127222736D01*
X176355739Y-127222743D01*
X176527256Y-127394260D01*
X176527262Y-127394265D01*
X176719711Y-127541936D01*
X176929788Y-127663224D01*
X177153900Y-127756054D01*
X177388211Y-127818838D01*
X177568586Y-127842584D01*
X177628711Y-127850500D01*
X177628712Y-127850500D01*
X177871289Y-127850500D01*
X177919388Y-127844167D01*
X178111789Y-127818838D01*
X178346100Y-127756054D01*
X178570212Y-127663224D01*
X178780289Y-127541936D01*
X178972738Y-127394265D01*
X179144265Y-127222738D01*
X179291936Y-127030289D01*
X179413224Y-126820212D01*
X179506054Y-126596100D01*
X179568838Y-126361789D01*
X179600500Y-126121288D01*
X179600500Y-125878712D01*
X179568838Y-125638211D01*
X179506054Y-125403900D01*
X179413224Y-125179788D01*
X179291936Y-124969711D01*
X179144265Y-124777262D01*
X179144260Y-124777256D01*
X178972741Y-124605737D01*
X178972736Y-124605733D01*
X178780293Y-124458067D01*
X178780292Y-124458066D01*
X178780289Y-124458064D01*
X178570212Y-124336776D01*
X178570205Y-124336773D01*
X178346104Y-124243947D01*
X178111785Y-124181161D01*
X177871289Y-124149500D01*
X177871288Y-124149500D01*
X177628712Y-124149500D01*
X177628711Y-124149500D01*
X177388214Y-124181161D01*
X177153895Y-124243947D01*
X176929794Y-124336773D01*
X176929785Y-124336777D01*
X176719706Y-124458067D01*
X176527263Y-124605733D01*
X176527259Y-124605737D01*
X176355739Y-124777256D01*
X176355733Y-124777263D01*
X176208067Y-124969706D01*
X176086777Y-125179785D01*
X176086773Y-125179794D01*
X175993947Y-125403895D01*
X175931161Y-125638214D01*
X175899500Y-125878711D01*
X161071838Y-125878711D01*
X161084907Y-125838489D01*
X161090839Y-125801034D01*
X161120500Y-125613768D01*
X161120500Y-125386231D01*
X161099793Y-125255499D01*
X161084907Y-125161511D01*
X161014598Y-124945121D01*
X161014598Y-124945120D01*
X160929070Y-124777263D01*
X160911303Y-124742393D01*
X160777566Y-124558320D01*
X160616680Y-124397434D01*
X160432607Y-124263697D01*
X160229879Y-124160401D01*
X160229876Y-124160400D01*
X160013490Y-124090093D01*
X159788768Y-124054500D01*
X159788763Y-124054500D01*
X159561237Y-124054500D01*
X159561232Y-124054500D01*
X159336509Y-124090093D01*
X159120123Y-124160400D01*
X159120120Y-124160401D01*
X158917392Y-124263697D01*
X158816813Y-124336773D01*
X158733320Y-124397434D01*
X158733318Y-124397436D01*
X158733317Y-124397436D01*
X158572436Y-124558317D01*
X158572436Y-124558318D01*
X158572434Y-124558320D01*
X158514998Y-124637372D01*
X158438697Y-124742392D01*
X158335401Y-124945120D01*
X158335400Y-124945123D01*
X158265093Y-125161509D01*
X158229500Y-125386231D01*
X98300500Y-125386231D01*
X98300500Y-125367242D01*
X98265843Y-125103997D01*
X98197122Y-124847527D01*
X98168017Y-124777262D01*
X98095518Y-124602231D01*
X98095510Y-124602214D01*
X97962759Y-124372285D01*
X97962755Y-124372278D01*
X97864282Y-124243946D01*
X97801120Y-124161631D01*
X97801114Y-124161624D01*
X97613375Y-123973885D01*
X97613368Y-123973879D01*
X97402730Y-123812251D01*
X97402728Y-123812249D01*
X97402722Y-123812245D01*
X97402717Y-123812242D01*
X97402714Y-123812240D01*
X97172785Y-123679489D01*
X97172768Y-123679481D01*
X96927477Y-123577879D01*
X96927479Y-123577879D01*
X96671001Y-123509156D01*
X96407767Y-123474501D01*
X96407764Y-123474500D01*
X96407758Y-123474500D01*
X96142242Y-123474500D01*
X96142236Y-123474500D01*
X96142232Y-123474501D01*
X95878998Y-123509156D01*
X95622521Y-123577879D01*
X95377231Y-123679481D01*
X95377214Y-123679489D01*
X95147285Y-123812240D01*
X95147269Y-123812251D01*
X94936631Y-123973879D01*
X94936624Y-123973885D01*
X94748885Y-124161624D01*
X94748879Y-124161631D01*
X94587251Y-124372269D01*
X94587240Y-124372285D01*
X94454489Y-124602214D01*
X94454481Y-124602231D01*
X94352879Y-124847521D01*
X94284156Y-125103998D01*
X94249501Y-125367232D01*
X94249500Y-125367248D01*
X74240872Y-125367248D01*
X74163224Y-125179788D01*
X74041936Y-124969711D01*
X73894265Y-124777262D01*
X73894260Y-124777256D01*
X73722741Y-124605737D01*
X73722736Y-124605733D01*
X73530293Y-124458067D01*
X73530292Y-124458066D01*
X73530289Y-124458064D01*
X73320212Y-124336776D01*
X73320205Y-124336773D01*
X73096104Y-124243947D01*
X72861785Y-124181161D01*
X72621289Y-124149500D01*
X72621288Y-124149500D01*
X72378712Y-124149500D01*
X72378711Y-124149500D01*
X72138214Y-124181161D01*
X71903895Y-124243947D01*
X71679794Y-124336773D01*
X71679785Y-124336777D01*
X71469706Y-124458067D01*
X71277263Y-124605733D01*
X71277259Y-124605737D01*
X71105739Y-124777256D01*
X71105733Y-124777263D01*
X70958067Y-124969706D01*
X70836777Y-125179785D01*
X70836773Y-125179794D01*
X70743947Y-125403895D01*
X70681161Y-125638214D01*
X70649500Y-125878711D01*
X69000500Y-125878711D01*
X69000500Y-117382695D01*
X158184500Y-117382695D01*
X158184500Y-117617304D01*
X158221201Y-117849027D01*
X158293697Y-118072150D01*
X158400212Y-118281195D01*
X158538104Y-118470989D01*
X158538108Y-118470994D01*
X158704005Y-118636891D01*
X158704010Y-118636895D01*
X158869558Y-118757171D01*
X158893808Y-118774790D01*
X159102847Y-118881301D01*
X159102849Y-118881302D01*
X159214410Y-118917550D01*
X159325974Y-118953799D01*
X159557695Y-118990500D01*
X159557696Y-118990500D01*
X159792304Y-118990500D01*
X159792305Y-118990500D01*
X160024026Y-118953799D01*
X160247153Y-118881301D01*
X160456192Y-118774790D01*
X160645996Y-118636890D01*
X160811890Y-118470996D01*
X160949790Y-118281192D01*
X161056301Y-118072153D01*
X161128799Y-117849026D01*
X161165500Y-117617305D01*
X161165500Y-117382695D01*
X161128799Y-117150974D01*
X161056301Y-116927847D01*
X160949790Y-116718808D01*
X160932171Y-116694558D01*
X160811895Y-116529010D01*
X160811891Y-116529005D01*
X160645994Y-116363108D01*
X160645989Y-116363104D01*
X160456195Y-116225212D01*
X160456194Y-116225211D01*
X160456192Y-116225210D01*
X160351672Y-116171954D01*
X160247150Y-116118697D01*
X160024027Y-116046201D01*
X159908165Y-116027850D01*
X159792305Y-116009500D01*
X159557695Y-116009500D01*
X159480454Y-116021733D01*
X159325972Y-116046201D01*
X159102849Y-116118697D01*
X158893804Y-116225212D01*
X158704010Y-116363104D01*
X158704005Y-116363108D01*
X158538108Y-116529005D01*
X158538104Y-116529010D01*
X158400212Y-116718804D01*
X158293697Y-116927849D01*
X158221201Y-117150972D01*
X158184500Y-117382695D01*
X69000500Y-117382695D01*
X69000500Y-109367248D01*
X149449500Y-109367248D01*
X149449500Y-109632751D01*
X149449501Y-109632767D01*
X149484156Y-109896001D01*
X149552879Y-110152478D01*
X149654481Y-110397768D01*
X149654489Y-110397785D01*
X149787240Y-110627714D01*
X149787251Y-110627730D01*
X149948879Y-110838368D01*
X149948885Y-110838375D01*
X150136624Y-111026114D01*
X150136630Y-111026119D01*
X150347278Y-111187755D01*
X150347285Y-111187759D01*
X150577214Y-111320510D01*
X150577219Y-111320512D01*
X150577222Y-111320514D01*
X150577226Y-111320515D01*
X150577231Y-111320518D01*
X150822522Y-111422120D01*
X150822520Y-111422120D01*
X150822526Y-111422121D01*
X150822527Y-111422122D01*
X151078997Y-111490843D01*
X151342242Y-111525500D01*
X151342249Y-111525500D01*
X151607751Y-111525500D01*
X151607758Y-111525500D01*
X151871003Y-111490843D01*
X152127473Y-111422122D01*
X152372778Y-111320514D01*
X152602722Y-111187755D01*
X152813370Y-111026119D01*
X153001119Y-110838370D01*
X153162755Y-110627722D01*
X153295514Y-110397778D01*
X153397122Y-110152473D01*
X153465843Y-109896003D01*
X153500500Y-109632758D01*
X153500500Y-109367242D01*
X153465843Y-109103997D01*
X153397122Y-108847527D01*
X153295514Y-108602222D01*
X153295512Y-108602219D01*
X153295510Y-108602214D01*
X153162759Y-108372285D01*
X153162755Y-108372278D01*
X153001119Y-108161630D01*
X153001114Y-108161624D01*
X152813375Y-107973885D01*
X152813368Y-107973879D01*
X152602730Y-107812251D01*
X152602728Y-107812249D01*
X152602722Y-107812245D01*
X152602717Y-107812242D01*
X152602714Y-107812240D01*
X152372785Y-107679489D01*
X152372768Y-107679481D01*
X152127477Y-107577879D01*
X152127479Y-107577879D01*
X151871001Y-107509156D01*
X151607767Y-107474501D01*
X151607764Y-107474500D01*
X151607758Y-107474500D01*
X151342242Y-107474500D01*
X151342236Y-107474500D01*
X151342232Y-107474501D01*
X151078998Y-107509156D01*
X150822521Y-107577879D01*
X150577231Y-107679481D01*
X150577214Y-107679489D01*
X150347285Y-107812240D01*
X150347269Y-107812251D01*
X150136631Y-107973879D01*
X150136624Y-107973885D01*
X149948885Y-108161624D01*
X149948879Y-108161631D01*
X149787251Y-108372269D01*
X149787240Y-108372285D01*
X149654489Y-108602214D01*
X149654481Y-108602231D01*
X149552879Y-108847521D01*
X149484156Y-109103998D01*
X149449501Y-109367232D01*
X149449500Y-109367248D01*
X69000500Y-109367248D01*
X69000500Y-105921153D01*
X130974500Y-105921153D01*
X130974500Y-106078846D01*
X131005261Y-106233489D01*
X131005264Y-106233501D01*
X131065602Y-106379172D01*
X131065609Y-106379185D01*
X131153210Y-106510288D01*
X131153213Y-106510292D01*
X131264707Y-106621786D01*
X131264711Y-106621789D01*
X131395814Y-106709390D01*
X131395827Y-106709397D01*
X131541498Y-106769735D01*
X131541503Y-106769737D01*
X131696153Y-106800499D01*
X131696156Y-106800500D01*
X131696158Y-106800500D01*
X131853844Y-106800500D01*
X131853845Y-106800499D01*
X132008497Y-106769737D01*
X132154179Y-106709394D01*
X132285289Y-106621789D01*
X132396789Y-106510289D01*
X132484394Y-106379179D01*
X132544737Y-106233497D01*
X132575500Y-106078842D01*
X132575500Y-105921158D01*
X132575500Y-105921155D01*
X132575499Y-105921153D01*
X132544738Y-105766510D01*
X132544737Y-105766503D01*
X132544735Y-105766498D01*
X132484397Y-105620827D01*
X132484390Y-105620814D01*
X132396789Y-105489711D01*
X132396786Y-105489707D01*
X132285292Y-105378213D01*
X132285288Y-105378210D01*
X132154185Y-105290609D01*
X132154172Y-105290602D01*
X132008501Y-105230264D01*
X132008489Y-105230261D01*
X131853845Y-105199500D01*
X131853842Y-105199500D01*
X131696158Y-105199500D01*
X131696155Y-105199500D01*
X131541510Y-105230261D01*
X131541498Y-105230264D01*
X131395827Y-105290602D01*
X131395814Y-105290609D01*
X131264711Y-105378210D01*
X131264707Y-105378213D01*
X131153213Y-105489707D01*
X131153210Y-105489711D01*
X131065609Y-105620814D01*
X131065602Y-105620827D01*
X131005264Y-105766498D01*
X131005261Y-105766510D01*
X130974500Y-105921153D01*
X69000500Y-105921153D01*
X69000500Y-100359568D01*
X70999500Y-100359568D01*
X70999500Y-100640431D01*
X71030942Y-100919494D01*
X71030945Y-100919512D01*
X71093439Y-101193317D01*
X71093443Y-101193329D01*
X71186200Y-101458411D01*
X71308053Y-101711442D01*
X71308055Y-101711445D01*
X71457477Y-101949248D01*
X71632584Y-102168825D01*
X71831175Y-102367416D01*
X72050752Y-102542523D01*
X72288555Y-102691945D01*
X72541592Y-102813801D01*
X72740680Y-102883465D01*
X72806670Y-102906556D01*
X72806682Y-102906560D01*
X73080491Y-102969055D01*
X73080497Y-102969055D01*
X73080505Y-102969057D01*
X73266547Y-102990018D01*
X73359569Y-103000499D01*
X73359572Y-103000500D01*
X73359575Y-103000500D01*
X73640428Y-103000500D01*
X73640429Y-103000499D01*
X73783055Y-102984429D01*
X73919494Y-102969057D01*
X73919499Y-102969056D01*
X73919509Y-102969055D01*
X74193318Y-102906560D01*
X74458408Y-102813801D01*
X74711445Y-102691945D01*
X74949248Y-102542523D01*
X75168825Y-102367416D01*
X75367416Y-102168825D01*
X75542523Y-101949248D01*
X75691945Y-101711445D01*
X75813801Y-101458408D01*
X75906560Y-101193318D01*
X75969055Y-100919509D01*
X75969694Y-100913844D01*
X75987461Y-100756153D01*
X103797850Y-100756153D01*
X103797850Y-100913846D01*
X103828611Y-101068489D01*
X103828614Y-101068501D01*
X103888952Y-101214172D01*
X103888959Y-101214185D01*
X103976560Y-101345288D01*
X103976563Y-101345292D01*
X104088057Y-101456786D01*
X104088061Y-101456789D01*
X104219164Y-101544390D01*
X104219177Y-101544397D01*
X104364848Y-101604735D01*
X104364853Y-101604737D01*
X104519503Y-101635499D01*
X104519506Y-101635500D01*
X104519508Y-101635500D01*
X104677194Y-101635500D01*
X104677195Y-101635499D01*
X104831847Y-101604737D01*
X104977529Y-101544394D01*
X105108639Y-101456789D01*
X105220139Y-101345289D01*
X105307744Y-101214179D01*
X105368087Y-101068497D01*
X105398850Y-100913842D01*
X105398850Y-100756158D01*
X105398850Y-100756155D01*
X105398849Y-100756153D01*
X105375830Y-100640429D01*
X105368087Y-100601503D01*
X105367672Y-100600500D01*
X105307747Y-100455827D01*
X105307740Y-100455814D01*
X105220139Y-100324711D01*
X105220136Y-100324707D01*
X105108642Y-100213213D01*
X105108638Y-100213210D01*
X104977535Y-100125609D01*
X104977522Y-100125602D01*
X104831851Y-100065264D01*
X104831839Y-100065261D01*
X104677195Y-100034500D01*
X104677192Y-100034500D01*
X104519508Y-100034500D01*
X104519505Y-100034500D01*
X104364860Y-100065261D01*
X104364848Y-100065264D01*
X104219177Y-100125602D01*
X104219164Y-100125609D01*
X104088061Y-100213210D01*
X104088057Y-100213213D01*
X103976563Y-100324707D01*
X103976560Y-100324711D01*
X103888959Y-100455814D01*
X103888952Y-100455827D01*
X103828614Y-100601498D01*
X103828611Y-100601510D01*
X103797850Y-100756153D01*
X75987461Y-100756153D01*
X75989711Y-100736183D01*
X75989711Y-100736182D01*
X76000499Y-100640431D01*
X76000500Y-100640425D01*
X76000500Y-100359575D01*
X75979111Y-100169737D01*
X75969057Y-100080505D01*
X75969054Y-100080487D01*
X75965579Y-100065264D01*
X75906560Y-99806682D01*
X75893724Y-99770000D01*
X75880949Y-99733489D01*
X75813801Y-99541592D01*
X75755801Y-99421153D01*
X100160350Y-99421153D01*
X100160350Y-99578846D01*
X100191111Y-99733489D01*
X100191114Y-99733501D01*
X100251452Y-99879172D01*
X100251459Y-99879185D01*
X100339060Y-100010288D01*
X100339063Y-100010292D01*
X100450557Y-100121786D01*
X100450561Y-100121789D01*
X100581664Y-100209390D01*
X100581677Y-100209397D01*
X100727348Y-100269735D01*
X100727353Y-100269737D01*
X100882003Y-100300499D01*
X100882006Y-100300500D01*
X100882008Y-100300500D01*
X101039694Y-100300500D01*
X101039695Y-100300499D01*
X101194347Y-100269737D01*
X101340029Y-100209394D01*
X101471139Y-100121789D01*
X101582639Y-100010289D01*
X101670244Y-99879179D01*
X101730587Y-99733497D01*
X101761350Y-99578842D01*
X101761350Y-99421158D01*
X101761350Y-99421155D01*
X101745059Y-99339258D01*
X101745059Y-99339257D01*
X101741458Y-99321153D01*
X102072850Y-99321153D01*
X102072850Y-99478846D01*
X102103611Y-99633489D01*
X102103614Y-99633501D01*
X102163952Y-99779172D01*
X102163959Y-99779185D01*
X102251560Y-99910288D01*
X102251563Y-99910292D01*
X102363057Y-100021786D01*
X102363061Y-100021789D01*
X102494164Y-100109390D01*
X102494177Y-100109397D01*
X102616860Y-100160213D01*
X102639853Y-100169737D01*
X102794503Y-100200499D01*
X102794506Y-100200500D01*
X102794508Y-100200500D01*
X102952194Y-100200500D01*
X102952195Y-100200499D01*
X103106847Y-100169737D01*
X103252529Y-100109394D01*
X103383639Y-100021789D01*
X103495139Y-99910289D01*
X103582744Y-99779179D01*
X103643087Y-99633497D01*
X103673850Y-99478842D01*
X103673850Y-99321158D01*
X103673850Y-99321155D01*
X103673849Y-99321153D01*
X103662977Y-99266498D01*
X103643087Y-99166503D01*
X103624162Y-99120814D01*
X103582747Y-99020827D01*
X103582740Y-99020814D01*
X103495139Y-98889711D01*
X103495136Y-98889707D01*
X103383642Y-98778213D01*
X103383638Y-98778210D01*
X103252535Y-98690609D01*
X103252522Y-98690602D01*
X103106851Y-98630264D01*
X103106839Y-98630261D01*
X102952195Y-98599500D01*
X102952192Y-98599500D01*
X102794508Y-98599500D01*
X102794505Y-98599500D01*
X102639860Y-98630261D01*
X102639848Y-98630264D01*
X102494177Y-98690602D01*
X102494164Y-98690609D01*
X102363061Y-98778210D01*
X102363057Y-98778213D01*
X102251563Y-98889707D01*
X102251560Y-98889711D01*
X102163959Y-99020814D01*
X102163952Y-99020827D01*
X102103614Y-99166498D01*
X102103611Y-99166510D01*
X102072850Y-99321153D01*
X101741458Y-99321153D01*
X101730588Y-99266510D01*
X101730587Y-99266503D01*
X101683987Y-99153999D01*
X101670247Y-99120827D01*
X101670240Y-99120814D01*
X101582639Y-98989711D01*
X101582636Y-98989707D01*
X101471142Y-98878213D01*
X101471138Y-98878210D01*
X101340035Y-98790609D01*
X101340022Y-98790602D01*
X101194351Y-98730264D01*
X101194339Y-98730261D01*
X101039695Y-98699500D01*
X101039692Y-98699500D01*
X100882008Y-98699500D01*
X100882005Y-98699500D01*
X100727360Y-98730261D01*
X100727348Y-98730264D01*
X100581677Y-98790602D01*
X100581664Y-98790609D01*
X100450561Y-98878210D01*
X100450557Y-98878213D01*
X100339063Y-98989707D01*
X100339060Y-98989711D01*
X100251459Y-99120814D01*
X100251452Y-99120827D01*
X100191114Y-99266498D01*
X100191111Y-99266510D01*
X100160350Y-99421153D01*
X75755801Y-99421153D01*
X75691948Y-99288560D01*
X75678089Y-99266503D01*
X75542523Y-99050752D01*
X75367416Y-98831175D01*
X75168825Y-98632584D01*
X74949248Y-98457477D01*
X74711445Y-98308055D01*
X74711442Y-98308053D01*
X74458411Y-98186200D01*
X74193329Y-98093443D01*
X74193317Y-98093439D01*
X73919512Y-98030945D01*
X73919494Y-98030942D01*
X73640431Y-97999500D01*
X73640425Y-97999500D01*
X73359575Y-97999500D01*
X73359568Y-97999500D01*
X73080505Y-98030942D01*
X73080487Y-98030945D01*
X72806682Y-98093439D01*
X72806670Y-98093443D01*
X72541588Y-98186200D01*
X72288557Y-98308053D01*
X72050753Y-98457476D01*
X71831175Y-98632583D01*
X71632583Y-98831175D01*
X71457476Y-99050753D01*
X71308053Y-99288557D01*
X71186200Y-99541588D01*
X71093443Y-99806670D01*
X71093439Y-99806682D01*
X71030945Y-100080487D01*
X71030942Y-100080505D01*
X70999500Y-100359568D01*
X69000500Y-100359568D01*
X69000500Y-97256153D01*
X92797850Y-97256153D01*
X92797850Y-97413846D01*
X92828611Y-97568489D01*
X92828614Y-97568501D01*
X92888952Y-97714172D01*
X92888959Y-97714185D01*
X92976560Y-97845288D01*
X92976563Y-97845292D01*
X93088057Y-97956786D01*
X93088061Y-97956789D01*
X93219164Y-98044390D01*
X93219177Y-98044397D01*
X93341222Y-98094949D01*
X93364853Y-98104737D01*
X93519503Y-98135499D01*
X93519506Y-98135500D01*
X93519508Y-98135500D01*
X93677194Y-98135500D01*
X93677195Y-98135499D01*
X93831847Y-98104737D01*
X93944516Y-98058067D01*
X93977522Y-98044397D01*
X93977522Y-98044396D01*
X93977529Y-98044394D01*
X94108639Y-97956789D01*
X94209275Y-97856153D01*
X108297850Y-97856153D01*
X108297850Y-98013846D01*
X108328611Y-98168489D01*
X108328614Y-98168501D01*
X108388952Y-98314172D01*
X108388959Y-98314185D01*
X108476560Y-98445288D01*
X108476563Y-98445292D01*
X108588057Y-98556786D01*
X108588061Y-98556789D01*
X108719164Y-98644390D01*
X108719177Y-98644397D01*
X108864848Y-98704735D01*
X108864853Y-98704737D01*
X108993170Y-98730261D01*
X109019503Y-98735499D01*
X109019506Y-98735500D01*
X109019508Y-98735500D01*
X109177194Y-98735500D01*
X109177195Y-98735499D01*
X109331847Y-98704737D01*
X109477529Y-98644394D01*
X109608639Y-98556789D01*
X109720139Y-98445289D01*
X109807744Y-98314179D01*
X109810282Y-98308053D01*
X109851147Y-98209394D01*
X109868087Y-98168497D01*
X109898850Y-98013842D01*
X109898850Y-97856158D01*
X109898850Y-97856155D01*
X109898849Y-97856153D01*
X109895325Y-97838437D01*
X109868087Y-97701503D01*
X109834414Y-97620208D01*
X109807747Y-97555827D01*
X109807740Y-97555814D01*
X109732508Y-97443222D01*
X109720139Y-97424711D01*
X109720136Y-97424707D01*
X109675847Y-97380418D01*
X111022115Y-97380418D01*
X111022115Y-97538111D01*
X111052876Y-97692754D01*
X111052879Y-97692766D01*
X111113217Y-97838437D01*
X111113224Y-97838450D01*
X111200825Y-97969553D01*
X111200828Y-97969557D01*
X111312322Y-98081051D01*
X111312326Y-98081054D01*
X111443429Y-98168655D01*
X111443442Y-98168662D01*
X111567134Y-98219896D01*
X111589118Y-98229002D01*
X111743768Y-98259764D01*
X111743771Y-98259765D01*
X111743773Y-98259765D01*
X111901459Y-98259765D01*
X111901460Y-98259764D01*
X112056112Y-98229002D01*
X112201794Y-98168659D01*
X112332904Y-98081054D01*
X112444404Y-97969554D01*
X112532009Y-97838444D01*
X112592352Y-97692762D01*
X112623115Y-97538107D01*
X112623115Y-97433765D01*
X112624094Y-97430429D01*
X112623297Y-97427044D01*
X112625380Y-97421153D01*
X137335349Y-97421153D01*
X137335349Y-97578846D01*
X137366110Y-97733489D01*
X137366113Y-97733501D01*
X137426451Y-97879172D01*
X137426458Y-97879185D01*
X137514059Y-98010288D01*
X137514062Y-98010292D01*
X137625556Y-98121786D01*
X137625560Y-98121789D01*
X137756663Y-98209390D01*
X137756676Y-98209397D01*
X137878275Y-98259764D01*
X137902352Y-98269737D01*
X138057002Y-98300499D01*
X138057005Y-98300500D01*
X138057007Y-98300500D01*
X138214693Y-98300500D01*
X138214694Y-98300499D01*
X138369346Y-98269737D01*
X138515028Y-98209394D01*
X138646138Y-98121789D01*
X138757638Y-98010289D01*
X138845243Y-97879179D01*
X138849652Y-97868536D01*
X138905584Y-97733501D01*
X138905586Y-97733497D01*
X138936349Y-97578842D01*
X138936349Y-97421158D01*
X138936349Y-97421155D01*
X138936348Y-97421153D01*
X138925069Y-97364450D01*
X138905586Y-97266503D01*
X138898105Y-97248443D01*
X138845246Y-97120827D01*
X138845239Y-97120814D01*
X138757638Y-96989711D01*
X138757635Y-96989707D01*
X138646141Y-96878213D01*
X138646137Y-96878210D01*
X138515034Y-96790609D01*
X138515021Y-96790602D01*
X138369350Y-96730264D01*
X138369338Y-96730261D01*
X138214694Y-96699500D01*
X138214691Y-96699500D01*
X138057007Y-96699500D01*
X138057004Y-96699500D01*
X137902359Y-96730261D01*
X137902347Y-96730264D01*
X137756676Y-96790602D01*
X137756663Y-96790609D01*
X137625560Y-96878210D01*
X137625556Y-96878213D01*
X137514062Y-96989707D01*
X137514059Y-96989711D01*
X137426458Y-97120814D01*
X137426451Y-97120827D01*
X137366113Y-97266498D01*
X137366110Y-97266510D01*
X137335349Y-97421153D01*
X112625380Y-97421153D01*
X112633870Y-97397137D01*
X112642800Y-97366726D01*
X112645426Y-97364450D01*
X112646586Y-97361170D01*
X112671653Y-97341724D01*
X112695604Y-97320971D01*
X112699855Y-97319846D01*
X112701793Y-97318344D01*
X112714977Y-97315848D01*
X112736146Y-97310251D01*
X112741619Y-97309765D01*
X112851457Y-97309765D01*
X113006112Y-97279002D01*
X113151794Y-97218659D01*
X113282904Y-97131054D01*
X113394404Y-97019554D01*
X113482009Y-96888444D01*
X113542352Y-96742762D01*
X113573115Y-96588107D01*
X113573115Y-96430423D01*
X113573115Y-96430420D01*
X113573114Y-96430418D01*
X113551098Y-96319737D01*
X113542352Y-96275768D01*
X113484252Y-96135500D01*
X113482012Y-96130092D01*
X113482005Y-96130079D01*
X113394404Y-95998976D01*
X113394401Y-95998972D01*
X113282907Y-95887478D01*
X113282903Y-95887475D01*
X113151800Y-95799874D01*
X113151787Y-95799867D01*
X113006116Y-95739529D01*
X113006104Y-95739526D01*
X112851460Y-95708765D01*
X112851457Y-95708765D01*
X112693773Y-95708765D01*
X112693770Y-95708765D01*
X112539125Y-95739526D01*
X112539113Y-95739529D01*
X112393442Y-95799867D01*
X112393429Y-95799874D01*
X112262326Y-95887475D01*
X112262322Y-95887478D01*
X112150828Y-95998972D01*
X112150825Y-95998976D01*
X112063224Y-96130079D01*
X112063217Y-96130092D01*
X112002879Y-96275763D01*
X112002876Y-96275775D01*
X111972115Y-96430418D01*
X111972115Y-96534765D01*
X111952430Y-96601804D01*
X111899626Y-96647559D01*
X111848115Y-96658765D01*
X111743770Y-96658765D01*
X111589125Y-96689526D01*
X111589113Y-96689529D01*
X111443442Y-96749867D01*
X111443429Y-96749874D01*
X111312326Y-96837475D01*
X111312322Y-96837478D01*
X111200828Y-96948972D01*
X111200825Y-96948976D01*
X111113224Y-97080079D01*
X111113217Y-97080092D01*
X111052879Y-97225763D01*
X111052876Y-97225775D01*
X111022115Y-97380418D01*
X109675847Y-97380418D01*
X109608642Y-97313213D01*
X109608638Y-97313210D01*
X109477535Y-97225609D01*
X109477522Y-97225602D01*
X109331851Y-97165264D01*
X109331839Y-97165261D01*
X109177195Y-97134500D01*
X109177192Y-97134500D01*
X109019508Y-97134500D01*
X109019505Y-97134500D01*
X108864860Y-97165261D01*
X108864848Y-97165264D01*
X108719177Y-97225602D01*
X108719164Y-97225609D01*
X108588061Y-97313210D01*
X108588057Y-97313213D01*
X108476563Y-97424707D01*
X108476560Y-97424711D01*
X108388959Y-97555814D01*
X108388952Y-97555827D01*
X108328614Y-97701498D01*
X108328611Y-97701510D01*
X108297850Y-97856153D01*
X94209275Y-97856153D01*
X94220139Y-97845289D01*
X94290422Y-97740104D01*
X94307740Y-97714185D01*
X94307740Y-97714184D01*
X94307744Y-97714179D01*
X94316614Y-97692766D01*
X94368085Y-97568501D01*
X94368087Y-97568497D01*
X94398850Y-97413842D01*
X94398850Y-97256158D01*
X94398850Y-97256155D01*
X94398849Y-97256153D01*
X94392591Y-97224692D01*
X94368087Y-97101503D01*
X94334143Y-97019554D01*
X94307747Y-96955827D01*
X94307740Y-96955814D01*
X94220139Y-96824711D01*
X94220136Y-96824707D01*
X94108642Y-96713213D01*
X94108638Y-96713210D01*
X93977535Y-96625609D01*
X93977522Y-96625602D01*
X93831851Y-96565264D01*
X93831839Y-96565261D01*
X93677195Y-96534500D01*
X93677192Y-96534500D01*
X93519508Y-96534500D01*
X93519505Y-96534500D01*
X93364860Y-96565261D01*
X93364848Y-96565264D01*
X93219177Y-96625602D01*
X93219164Y-96625609D01*
X93088061Y-96713210D01*
X93088057Y-96713213D01*
X92976563Y-96824707D01*
X92976560Y-96824711D01*
X92888959Y-96955814D01*
X92888952Y-96955827D01*
X92828614Y-97101498D01*
X92828611Y-97101510D01*
X92797850Y-97256153D01*
X69000500Y-97256153D01*
X69000500Y-95471153D01*
X81649500Y-95471153D01*
X81649500Y-95628846D01*
X81680261Y-95783489D01*
X81680264Y-95783501D01*
X81740602Y-95929172D01*
X81740609Y-95929185D01*
X81828210Y-96060288D01*
X81828213Y-96060292D01*
X81939707Y-96171786D01*
X81939711Y-96171789D01*
X82070814Y-96259390D01*
X82070827Y-96259397D01*
X82216498Y-96319735D01*
X82216503Y-96319737D01*
X82371153Y-96350499D01*
X82371156Y-96350500D01*
X82371158Y-96350500D01*
X82528844Y-96350500D01*
X82528845Y-96350499D01*
X82683497Y-96319737D01*
X82829179Y-96259394D01*
X82960289Y-96171789D01*
X83071789Y-96060289D01*
X83159394Y-95929179D01*
X83219737Y-95783497D01*
X83250500Y-95628842D01*
X83250500Y-95471158D01*
X83250500Y-95471155D01*
X83250499Y-95471153D01*
X83244618Y-95441588D01*
X83219737Y-95316503D01*
X83219735Y-95316498D01*
X83159397Y-95170827D01*
X83159390Y-95170814D01*
X83071789Y-95039711D01*
X83071786Y-95039707D01*
X82960292Y-94928213D01*
X82960288Y-94928210D01*
X82912312Y-94896153D01*
X91974500Y-94896153D01*
X91974500Y-95053846D01*
X92005261Y-95208489D01*
X92005264Y-95208501D01*
X92065602Y-95354172D01*
X92065609Y-95354185D01*
X92153210Y-95485288D01*
X92153213Y-95485292D01*
X92264707Y-95596786D01*
X92264711Y-95596789D01*
X92395814Y-95684390D01*
X92395827Y-95684397D01*
X92541498Y-95744735D01*
X92541503Y-95744737D01*
X92696153Y-95775499D01*
X92696156Y-95775500D01*
X92696158Y-95775500D01*
X92853844Y-95775500D01*
X92853845Y-95775499D01*
X93008497Y-95744737D01*
X93154179Y-95684394D01*
X93285289Y-95596789D01*
X93396789Y-95485289D01*
X93484394Y-95354179D01*
X93524997Y-95256153D01*
X103797850Y-95256153D01*
X103797850Y-95413846D01*
X103828611Y-95568489D01*
X103828614Y-95568501D01*
X103888952Y-95714172D01*
X103888959Y-95714185D01*
X103976560Y-95845288D01*
X103976563Y-95845292D01*
X104088057Y-95956786D01*
X104088061Y-95956789D01*
X104219164Y-96044390D01*
X104219177Y-96044397D01*
X104364848Y-96104735D01*
X104364853Y-96104737D01*
X104519503Y-96135499D01*
X104519506Y-96135500D01*
X104519508Y-96135500D01*
X104677194Y-96135500D01*
X104677195Y-96135499D01*
X104831847Y-96104737D01*
X104977529Y-96044394D01*
X105108639Y-95956789D01*
X105220139Y-95845289D01*
X105307744Y-95714179D01*
X105368087Y-95568497D01*
X105398850Y-95413842D01*
X105398850Y-95256158D01*
X105398850Y-95256155D01*
X105398849Y-95256153D01*
X105389370Y-95208500D01*
X105368087Y-95101503D01*
X105368085Y-95101498D01*
X105307747Y-94955827D01*
X105307740Y-94955814D01*
X105220140Y-94824712D01*
X105220134Y-94824705D01*
X105151582Y-94756153D01*
X106797850Y-94756153D01*
X106797850Y-94913846D01*
X106828611Y-95068489D01*
X106828614Y-95068501D01*
X106888952Y-95214172D01*
X106888957Y-95214181D01*
X106976560Y-95345288D01*
X106976563Y-95345292D01*
X107088057Y-95456786D01*
X107088061Y-95456789D01*
X107219164Y-95544390D01*
X107219177Y-95544397D01*
X107364848Y-95604735D01*
X107364853Y-95604737D01*
X107519503Y-95635499D01*
X107519506Y-95635500D01*
X107519508Y-95635500D01*
X107677194Y-95635500D01*
X107677195Y-95635499D01*
X107831847Y-95604737D01*
X107952047Y-95554949D01*
X107977522Y-95544397D01*
X107977522Y-95544396D01*
X107977529Y-95544394D01*
X108108639Y-95456789D01*
X108220139Y-95345289D01*
X108278409Y-95258080D01*
X108307743Y-95214181D01*
X108307747Y-95214172D01*
X108325706Y-95170814D01*
X108368087Y-95068497D01*
X108398850Y-94913842D01*
X108398850Y-94756158D01*
X108398850Y-94756155D01*
X108398849Y-94756153D01*
X108384634Y-94684692D01*
X108368087Y-94601503D01*
X108365736Y-94595827D01*
X108307747Y-94455827D01*
X108307740Y-94455814D01*
X108220139Y-94324711D01*
X108220136Y-94324707D01*
X108108642Y-94213213D01*
X108108638Y-94213210D01*
X107977535Y-94125609D01*
X107977522Y-94125602D01*
X107831851Y-94065264D01*
X107831839Y-94065261D01*
X107677195Y-94034500D01*
X107677192Y-94034500D01*
X107519508Y-94034500D01*
X107519505Y-94034500D01*
X107364860Y-94065261D01*
X107364848Y-94065264D01*
X107219177Y-94125602D01*
X107219164Y-94125609D01*
X107088061Y-94213210D01*
X107088057Y-94213213D01*
X106976563Y-94324707D01*
X106976560Y-94324711D01*
X106888959Y-94455814D01*
X106888952Y-94455827D01*
X106828614Y-94601498D01*
X106828611Y-94601510D01*
X106797850Y-94756153D01*
X105151582Y-94756153D01*
X105108642Y-94713213D01*
X105108638Y-94713210D01*
X104977535Y-94625609D01*
X104977522Y-94625602D01*
X104831851Y-94565264D01*
X104831839Y-94565261D01*
X104677195Y-94534500D01*
X104677192Y-94534500D01*
X104519508Y-94534500D01*
X104519505Y-94534500D01*
X104364860Y-94565261D01*
X104364848Y-94565264D01*
X104219177Y-94625602D01*
X104219164Y-94625609D01*
X104088061Y-94713210D01*
X104088057Y-94713213D01*
X103976563Y-94824707D01*
X103976560Y-94824711D01*
X103888959Y-94955814D01*
X103888952Y-94955827D01*
X103828614Y-95101498D01*
X103828611Y-95101510D01*
X103797850Y-95256153D01*
X93524997Y-95256153D01*
X93544737Y-95208497D01*
X93575500Y-95053842D01*
X93575500Y-94896158D01*
X93575500Y-94896155D01*
X93575499Y-94896153D01*
X93571852Y-94877820D01*
X93544737Y-94741503D01*
X93522746Y-94688412D01*
X93484397Y-94595827D01*
X93484390Y-94595814D01*
X93396789Y-94464711D01*
X93396786Y-94464707D01*
X93285292Y-94353213D01*
X93285288Y-94353210D01*
X93154185Y-94265609D01*
X93154172Y-94265602D01*
X93008501Y-94205264D01*
X93008489Y-94205261D01*
X92853845Y-94174500D01*
X92853842Y-94174500D01*
X92696158Y-94174500D01*
X92696155Y-94174500D01*
X92541510Y-94205261D01*
X92541498Y-94205264D01*
X92395827Y-94265602D01*
X92395814Y-94265609D01*
X92264711Y-94353210D01*
X92264707Y-94353213D01*
X92153213Y-94464707D01*
X92153210Y-94464711D01*
X92065609Y-94595814D01*
X92065602Y-94595827D01*
X92005264Y-94741498D01*
X92005261Y-94741510D01*
X91974500Y-94896153D01*
X82912312Y-94896153D01*
X82829185Y-94840609D01*
X82829172Y-94840602D01*
X82683501Y-94780264D01*
X82683489Y-94780261D01*
X82528845Y-94749500D01*
X82528842Y-94749500D01*
X82371158Y-94749500D01*
X82371155Y-94749500D01*
X82216510Y-94780261D01*
X82216498Y-94780264D01*
X82070827Y-94840602D01*
X82070814Y-94840609D01*
X81939711Y-94928210D01*
X81939707Y-94928213D01*
X81828213Y-95039707D01*
X81828210Y-95039711D01*
X81740609Y-95170814D01*
X81740602Y-95170827D01*
X81680264Y-95316498D01*
X81680261Y-95316510D01*
X81649500Y-95471153D01*
X69000500Y-95471153D01*
X69000500Y-83742648D01*
X72199500Y-83742648D01*
X72199500Y-83947351D01*
X72231522Y-84149534D01*
X72294781Y-84344223D01*
X72387715Y-84526613D01*
X72508028Y-84692213D01*
X72652786Y-84836971D01*
X72807749Y-84949556D01*
X72818390Y-84957287D01*
X72926341Y-85012291D01*
X73000776Y-85050218D01*
X73000778Y-85050218D01*
X73000781Y-85050220D01*
X73057032Y-85068497D01*
X73191131Y-85112069D01*
X73248806Y-85151507D01*
X73276004Y-85215866D01*
X73264089Y-85284712D01*
X73216845Y-85336188D01*
X73191131Y-85347931D01*
X73000776Y-85409781D01*
X72818386Y-85502715D01*
X72652786Y-85623028D01*
X72508028Y-85767786D01*
X72387715Y-85933386D01*
X72294781Y-86115776D01*
X72231522Y-86310465D01*
X72199500Y-86512648D01*
X72199500Y-86717351D01*
X72231522Y-86919534D01*
X72294781Y-87114223D01*
X72345712Y-87214179D01*
X72384655Y-87290609D01*
X72387715Y-87296613D01*
X72508028Y-87462213D01*
X72652786Y-87606971D01*
X72807749Y-87719556D01*
X72818390Y-87727287D01*
X72907622Y-87772753D01*
X73000776Y-87820218D01*
X73000778Y-87820218D01*
X73000781Y-87820220D01*
X73056866Y-87838443D01*
X73191131Y-87882069D01*
X73248806Y-87921507D01*
X73276004Y-87985866D01*
X73264089Y-88054712D01*
X73216845Y-88106188D01*
X73191131Y-88117931D01*
X73000776Y-88179781D01*
X72818386Y-88272715D01*
X72652786Y-88393028D01*
X72508028Y-88537786D01*
X72387715Y-88703386D01*
X72294781Y-88885776D01*
X72231522Y-89080465D01*
X72199500Y-89282648D01*
X72199500Y-89487351D01*
X72231522Y-89689534D01*
X72294781Y-89884223D01*
X72387715Y-90066613D01*
X72508028Y-90232213D01*
X72652786Y-90376971D01*
X72781501Y-90470486D01*
X72818390Y-90497287D01*
X72934607Y-90556503D01*
X73000776Y-90590218D01*
X73000778Y-90590218D01*
X73000781Y-90590220D01*
X73079956Y-90615945D01*
X73191131Y-90652069D01*
X73248806Y-90691507D01*
X73276004Y-90755866D01*
X73264089Y-90824712D01*
X73216845Y-90876188D01*
X73191131Y-90887931D01*
X73000776Y-90949781D01*
X72818386Y-91042715D01*
X72652786Y-91163028D01*
X72508028Y-91307786D01*
X72387715Y-91473386D01*
X72294781Y-91655776D01*
X72231522Y-91850465D01*
X72199500Y-92052648D01*
X72199500Y-92257351D01*
X72231522Y-92459534D01*
X72294781Y-92654223D01*
X72353639Y-92769736D01*
X72383609Y-92828556D01*
X72387715Y-92836613D01*
X72508028Y-93002213D01*
X72652786Y-93146971D01*
X72807749Y-93259556D01*
X72818390Y-93267287D01*
X72909506Y-93313713D01*
X73000776Y-93360218D01*
X73000778Y-93360218D01*
X73000781Y-93360220D01*
X73036387Y-93371789D01*
X73195465Y-93423477D01*
X73296557Y-93439488D01*
X73397648Y-93455500D01*
X73397649Y-93455500D01*
X73602351Y-93455500D01*
X73602352Y-93455500D01*
X73804534Y-93423477D01*
X73999219Y-93360220D01*
X74181610Y-93267287D01*
X74274590Y-93199732D01*
X74347213Y-93146971D01*
X74347215Y-93146968D01*
X74347219Y-93146966D01*
X74491966Y-93002219D01*
X74491968Y-93002215D01*
X74491971Y-93002213D01*
X74570088Y-92894692D01*
X74612287Y-92836610D01*
X74705220Y-92654219D01*
X74768477Y-92459534D01*
X74800500Y-92257352D01*
X74800500Y-92052648D01*
X74798420Y-92039514D01*
X74768477Y-91850465D01*
X74709755Y-91669738D01*
X74705220Y-91655781D01*
X74705218Y-91655778D01*
X74705218Y-91655776D01*
X74666020Y-91578846D01*
X74612287Y-91473390D01*
X74574339Y-91421158D01*
X74491971Y-91307786D01*
X74347213Y-91163028D01*
X74181613Y-91042715D01*
X74181612Y-91042714D01*
X74181610Y-91042713D01*
X74117980Y-91010292D01*
X73999223Y-90949781D01*
X73808868Y-90887931D01*
X73751193Y-90848493D01*
X73723995Y-90784134D01*
X73735910Y-90715288D01*
X73783154Y-90663812D01*
X73808868Y-90652069D01*
X73851508Y-90638213D01*
X73999219Y-90590220D01*
X74181610Y-90497287D01*
X74284530Y-90422512D01*
X74347213Y-90376971D01*
X74347215Y-90376968D01*
X74347219Y-90376966D01*
X74491966Y-90232219D01*
X74491968Y-90232215D01*
X74491971Y-90232213D01*
X74572197Y-90121789D01*
X74612287Y-90066610D01*
X74705220Y-89884219D01*
X74768477Y-89689534D01*
X74800500Y-89487352D01*
X74800500Y-89282648D01*
X74798924Y-89272695D01*
X74768477Y-89080465D01*
X74737040Y-88983713D01*
X74705220Y-88885781D01*
X74705218Y-88885778D01*
X74705218Y-88885776D01*
X74661767Y-88800500D01*
X74612287Y-88703390D01*
X74562082Y-88634288D01*
X74491971Y-88537786D01*
X74347213Y-88393028D01*
X74181613Y-88272715D01*
X74181612Y-88272714D01*
X74181610Y-88272713D01*
X74124653Y-88243691D01*
X73999223Y-88179781D01*
X73808868Y-88117931D01*
X73751193Y-88078493D01*
X73723995Y-88014134D01*
X73735910Y-87945288D01*
X73783154Y-87893812D01*
X73808868Y-87882069D01*
X73853358Y-87867613D01*
X73999219Y-87820220D01*
X74181610Y-87727287D01*
X74307945Y-87635500D01*
X74347213Y-87606971D01*
X74347215Y-87606968D01*
X74347219Y-87606966D01*
X74491966Y-87462219D01*
X74491968Y-87462215D01*
X74491971Y-87462213D01*
X74570400Y-87354263D01*
X74612287Y-87296610D01*
X74705220Y-87114219D01*
X74768477Y-86919534D01*
X74800500Y-86717352D01*
X74800500Y-86512648D01*
X74799892Y-86508812D01*
X74768477Y-86310465D01*
X74708411Y-86125602D01*
X74705220Y-86115781D01*
X74705218Y-86115778D01*
X74705218Y-86115776D01*
X74640984Y-85989711D01*
X74612287Y-85933390D01*
X74596463Y-85911610D01*
X74491971Y-85767786D01*
X74347213Y-85623028D01*
X74181613Y-85502715D01*
X74181612Y-85502714D01*
X74181610Y-85502713D01*
X74124653Y-85473691D01*
X73999223Y-85409781D01*
X73808868Y-85347931D01*
X73751193Y-85308493D01*
X73723995Y-85244134D01*
X73735910Y-85175288D01*
X73779633Y-85127648D01*
X75039500Y-85127648D01*
X75039500Y-85332351D01*
X75071522Y-85534534D01*
X75134781Y-85729223D01*
X75181258Y-85820437D01*
X75210696Y-85878213D01*
X75227715Y-85911613D01*
X75348028Y-86077213D01*
X75492786Y-86221971D01*
X75647749Y-86334556D01*
X75658390Y-86342287D01*
X75774607Y-86401503D01*
X75840776Y-86435218D01*
X75840778Y-86435218D01*
X75840781Y-86435220D01*
X75904203Y-86455827D01*
X76031131Y-86497069D01*
X76088806Y-86536507D01*
X76116004Y-86600866D01*
X76104089Y-86669712D01*
X76056845Y-86721188D01*
X76031131Y-86732931D01*
X75840776Y-86794781D01*
X75658386Y-86887715D01*
X75492786Y-87008028D01*
X75348028Y-87152786D01*
X75227715Y-87318386D01*
X75134781Y-87500776D01*
X75071522Y-87695465D01*
X75039500Y-87897648D01*
X75039500Y-88102351D01*
X75071522Y-88304534D01*
X75134781Y-88499223D01*
X75192863Y-88613214D01*
X75226837Y-88679891D01*
X75227715Y-88681613D01*
X75348028Y-88847213D01*
X75492786Y-88991971D01*
X75633199Y-89093985D01*
X75658390Y-89112287D01*
X75774607Y-89171503D01*
X75840776Y-89205218D01*
X75840778Y-89205218D01*
X75840781Y-89205220D01*
X75919956Y-89230945D01*
X76031131Y-89267069D01*
X76088806Y-89306507D01*
X76116004Y-89370866D01*
X76104089Y-89439712D01*
X76056845Y-89491188D01*
X76031131Y-89502931D01*
X75840776Y-89564781D01*
X75658386Y-89657715D01*
X75492786Y-89778028D01*
X75348028Y-89922786D01*
X75227715Y-90088386D01*
X75134781Y-90270776D01*
X75071522Y-90465465D01*
X75039500Y-90667648D01*
X75039500Y-90872351D01*
X75071522Y-91074534D01*
X75134781Y-91269223D01*
X75193706Y-91384868D01*
X75212195Y-91421155D01*
X75227715Y-91451613D01*
X75348028Y-91617213D01*
X75492786Y-91761971D01*
X75639013Y-91868209D01*
X75658390Y-91882287D01*
X75840781Y-91975220D01*
X75909567Y-91997570D01*
X75967241Y-92037006D01*
X75994440Y-92101365D01*
X75982526Y-92170211D01*
X75935282Y-92221687D01*
X75871248Y-92239500D01*
X75492130Y-92239500D01*
X75492123Y-92239501D01*
X75432516Y-92245908D01*
X75297671Y-92296202D01*
X75297664Y-92296206D01*
X75182455Y-92382452D01*
X75182452Y-92382455D01*
X75096206Y-92497664D01*
X75096202Y-92497671D01*
X75045908Y-92632517D01*
X75040813Y-92679912D01*
X75039501Y-92692123D01*
X75039500Y-92692135D01*
X75039500Y-94387870D01*
X75039501Y-94387876D01*
X75045908Y-94447483D01*
X75096202Y-94582328D01*
X75096206Y-94582335D01*
X75182452Y-94697544D01*
X75182455Y-94697547D01*
X75297664Y-94783793D01*
X75297671Y-94783797D01*
X75432517Y-94834091D01*
X75432516Y-94834091D01*
X75439444Y-94834835D01*
X75492127Y-94840500D01*
X77187872Y-94840499D01*
X77247483Y-94834091D01*
X77382331Y-94783796D01*
X77497546Y-94697546D01*
X77583796Y-94582331D01*
X77634091Y-94447483D01*
X77640500Y-94387873D01*
X77640500Y-93656153D01*
X102301472Y-93656153D01*
X102301472Y-93813846D01*
X102332233Y-93968489D01*
X102332236Y-93968501D01*
X102392574Y-94114172D01*
X102392581Y-94114185D01*
X102480182Y-94245288D01*
X102480185Y-94245292D01*
X102591679Y-94356786D01*
X102591683Y-94356789D01*
X102722786Y-94444390D01*
X102722799Y-94444397D01*
X102823826Y-94486243D01*
X102868475Y-94504737D01*
X103018103Y-94534500D01*
X103023125Y-94535499D01*
X103023128Y-94535500D01*
X103023130Y-94535500D01*
X103180816Y-94535500D01*
X103180817Y-94535499D01*
X103335469Y-94504737D01*
X103453564Y-94455821D01*
X103481144Y-94444397D01*
X103481144Y-94444396D01*
X103481151Y-94444394D01*
X103612261Y-94356789D01*
X103723761Y-94245289D01*
X103811366Y-94114179D01*
X103871709Y-93968497D01*
X103902472Y-93813842D01*
X103902472Y-93656158D01*
X103902472Y-93656155D01*
X103902471Y-93656153D01*
X103881455Y-93550499D01*
X103871709Y-93501503D01*
X103854267Y-93459394D01*
X103811369Y-93355827D01*
X103811362Y-93355814D01*
X103723761Y-93224711D01*
X103723758Y-93224707D01*
X103612264Y-93113213D01*
X103612260Y-93113210D01*
X103481157Y-93025609D01*
X103481144Y-93025602D01*
X103335473Y-92965264D01*
X103335461Y-92965261D01*
X103180817Y-92934500D01*
X103180814Y-92934500D01*
X103023130Y-92934500D01*
X103023127Y-92934500D01*
X102868482Y-92965261D01*
X102868470Y-92965264D01*
X102722799Y-93025602D01*
X102722786Y-93025609D01*
X102591683Y-93113210D01*
X102591679Y-93113213D01*
X102480185Y-93224707D01*
X102480182Y-93224711D01*
X102392581Y-93355814D01*
X102392574Y-93355827D01*
X102332236Y-93501498D01*
X102332233Y-93501510D01*
X102301472Y-93656153D01*
X77640500Y-93656153D01*
X77640499Y-92692128D01*
X77634091Y-92632517D01*
X77626435Y-92611991D01*
X77583797Y-92497671D01*
X77583793Y-92497664D01*
X77497547Y-92382455D01*
X77497544Y-92382452D01*
X77382335Y-92296206D01*
X77382328Y-92296202D01*
X77247482Y-92245908D01*
X77247483Y-92245908D01*
X77187883Y-92239501D01*
X77187881Y-92239500D01*
X77187873Y-92239500D01*
X77187865Y-92239500D01*
X76808753Y-92239500D01*
X76741714Y-92219815D01*
X76695959Y-92167011D01*
X76686015Y-92097853D01*
X76715040Y-92034297D01*
X76770434Y-91997569D01*
X76839219Y-91975220D01*
X77021610Y-91882287D01*
X77139592Y-91796569D01*
X77187213Y-91761971D01*
X77187215Y-91761968D01*
X77187219Y-91761966D01*
X77331966Y-91617219D01*
X77331968Y-91617215D01*
X77331971Y-91617213D01*
X77392064Y-91534500D01*
X77452287Y-91451610D01*
X77467806Y-91421153D01*
X80699500Y-91421153D01*
X80699500Y-91578846D01*
X80730261Y-91733489D01*
X80730264Y-91733501D01*
X80790602Y-91879172D01*
X80790609Y-91879185D01*
X80878210Y-92010288D01*
X80878213Y-92010292D01*
X80989708Y-92121787D01*
X80989711Y-92121789D01*
X81036832Y-92153274D01*
X81081636Y-92206885D01*
X81090344Y-92276210D01*
X81071044Y-92325266D01*
X81040608Y-92370816D01*
X81040602Y-92370827D01*
X80980264Y-92516498D01*
X80980261Y-92516510D01*
X80949500Y-92671153D01*
X80949500Y-92828846D01*
X80980261Y-92983489D01*
X80980264Y-92983501D01*
X81040602Y-93129172D01*
X81040609Y-93129185D01*
X81128210Y-93260288D01*
X81128213Y-93260292D01*
X81239707Y-93371786D01*
X81239711Y-93371789D01*
X81370814Y-93459390D01*
X81370827Y-93459397D01*
X81516498Y-93519735D01*
X81516503Y-93519737D01*
X81671153Y-93550499D01*
X81671156Y-93550500D01*
X81671158Y-93550500D01*
X81828844Y-93550500D01*
X81828845Y-93550499D01*
X81867574Y-93542795D01*
X81939696Y-93528450D01*
X81939701Y-93528449D01*
X81968589Y-93522702D01*
X81983497Y-93519737D01*
X82122443Y-93462184D01*
X82129172Y-93459397D01*
X82129172Y-93459396D01*
X82129179Y-93459394D01*
X82260289Y-93371789D01*
X82371789Y-93260289D01*
X82459394Y-93129179D01*
X82466188Y-93112778D01*
X82491183Y-93052433D01*
X82519737Y-92983497D01*
X82550500Y-92828842D01*
X82550500Y-92671158D01*
X82550500Y-92671155D01*
X82550499Y-92671153D01*
X82542814Y-92632517D01*
X82519737Y-92516503D01*
X82513398Y-92501199D01*
X82459397Y-92370827D01*
X82459390Y-92370814D01*
X82371789Y-92239711D01*
X82371786Y-92239707D01*
X82260292Y-92128213D01*
X82260284Y-92128207D01*
X82213168Y-92096725D01*
X82168362Y-92043113D01*
X82159655Y-91973788D01*
X82178957Y-91924731D01*
X82181344Y-91921158D01*
X82209394Y-91879179D01*
X82269737Y-91733497D01*
X82300500Y-91578842D01*
X82300500Y-91421158D01*
X82300500Y-91421155D01*
X82300499Y-91421153D01*
X82295976Y-91398414D01*
X82269737Y-91266503D01*
X82264859Y-91254727D01*
X82209397Y-91120827D01*
X82209390Y-91120814D01*
X82121789Y-90989711D01*
X82121786Y-90989707D01*
X82010292Y-90878213D01*
X82010288Y-90878210D01*
X81879185Y-90790609D01*
X81879172Y-90790602D01*
X81733501Y-90730264D01*
X81733489Y-90730261D01*
X81578845Y-90699500D01*
X81578842Y-90699500D01*
X81421158Y-90699500D01*
X81421155Y-90699500D01*
X81266510Y-90730261D01*
X81266498Y-90730264D01*
X81120827Y-90790602D01*
X81120814Y-90790609D01*
X80989711Y-90878210D01*
X80989707Y-90878213D01*
X80878213Y-90989707D01*
X80878210Y-90989711D01*
X80790609Y-91120814D01*
X80790602Y-91120827D01*
X80730264Y-91266498D01*
X80730261Y-91266510D01*
X80699500Y-91421153D01*
X77467806Y-91421153D01*
X77545220Y-91269219D01*
X77608477Y-91074534D01*
X77640500Y-90872352D01*
X77640500Y-90667648D01*
X77608477Y-90465466D01*
X77608476Y-90465462D01*
X77608476Y-90465461D01*
X77604552Y-90453384D01*
X77594079Y-90421153D01*
X90699500Y-90421153D01*
X90699500Y-90578846D01*
X90730261Y-90733489D01*
X90730264Y-90733501D01*
X90790602Y-90879172D01*
X90790609Y-90879185D01*
X90878210Y-91010288D01*
X90878213Y-91010292D01*
X90989707Y-91121786D01*
X90989711Y-91121789D01*
X91120814Y-91209390D01*
X91120827Y-91209397D01*
X91230265Y-91254727D01*
X91266503Y-91269737D01*
X91406539Y-91297592D01*
X91421153Y-91300499D01*
X91421156Y-91300500D01*
X91421158Y-91300500D01*
X91578844Y-91300500D01*
X91578845Y-91300499D01*
X91733497Y-91269737D01*
X91879179Y-91209394D01*
X92010289Y-91121789D01*
X92121789Y-91010289D01*
X92209394Y-90879179D01*
X92233429Y-90821153D01*
X110797850Y-90821153D01*
X110797850Y-90978846D01*
X110828611Y-91133489D01*
X110828614Y-91133501D01*
X110888952Y-91279172D01*
X110888959Y-91279185D01*
X110976560Y-91410288D01*
X110976563Y-91410292D01*
X111088057Y-91521786D01*
X111088061Y-91521789D01*
X111219164Y-91609390D01*
X111219177Y-91609397D01*
X111331160Y-91655781D01*
X111364853Y-91669737D01*
X111519503Y-91700499D01*
X111519506Y-91700500D01*
X111519508Y-91700500D01*
X111677192Y-91700500D01*
X111690378Y-91697877D01*
X111759969Y-91704103D01*
X111815147Y-91746965D01*
X111838393Y-91812854D01*
X111829940Y-91862241D01*
X111830381Y-91862375D01*
X111829318Y-91865877D01*
X111829138Y-91866932D01*
X111828616Y-91868191D01*
X111828611Y-91868209D01*
X111797850Y-92022852D01*
X111797850Y-92180545D01*
X111828611Y-92335188D01*
X111828614Y-92335200D01*
X111888952Y-92480871D01*
X111888959Y-92480884D01*
X111976560Y-92611987D01*
X111976563Y-92611991D01*
X112088057Y-92723485D01*
X112088061Y-92723488D01*
X112219164Y-92811089D01*
X112219177Y-92811096D01*
X112364848Y-92871434D01*
X112364853Y-92871436D01*
X112508453Y-92900000D01*
X112519503Y-92902198D01*
X112519506Y-92902199D01*
X112519508Y-92902199D01*
X112677194Y-92902199D01*
X112677195Y-92902198D01*
X112831847Y-92871436D01*
X112977529Y-92811093D01*
X113108639Y-92723488D01*
X113108641Y-92723485D01*
X113108849Y-92723347D01*
X113175526Y-92702469D01*
X113225191Y-92711887D01*
X113364853Y-92769737D01*
X113473790Y-92791406D01*
X113519503Y-92800499D01*
X113519506Y-92800500D01*
X113655569Y-92800500D01*
X113722608Y-92820185D01*
X113768363Y-92872989D01*
X113778307Y-92942147D01*
X113770130Y-92971952D01*
X113730264Y-93068197D01*
X113730261Y-93068209D01*
X113699500Y-93222852D01*
X113699500Y-93380545D01*
X113730261Y-93535188D01*
X113730264Y-93535200D01*
X113790602Y-93680871D01*
X113790609Y-93680884D01*
X113878210Y-93811987D01*
X113878213Y-93811991D01*
X113989707Y-93923485D01*
X113989711Y-93923488D01*
X114120814Y-94011089D01*
X114120827Y-94011096D01*
X114198378Y-94043218D01*
X114266503Y-94071436D01*
X114421153Y-94102198D01*
X114421156Y-94102199D01*
X114421158Y-94102199D01*
X114578844Y-94102199D01*
X114578845Y-94102198D01*
X114733497Y-94071436D01*
X114879179Y-94011093D01*
X115010289Y-93923488D01*
X115121789Y-93811988D01*
X115209394Y-93680878D01*
X115269737Y-93535196D01*
X115276440Y-93501498D01*
X115285873Y-93454079D01*
X140166574Y-93454079D01*
X140166574Y-93611772D01*
X140197335Y-93766415D01*
X140197338Y-93766427D01*
X140257676Y-93912098D01*
X140257683Y-93912111D01*
X140345284Y-94043214D01*
X140345287Y-94043218D01*
X140456781Y-94154712D01*
X140456785Y-94154715D01*
X140587888Y-94242316D01*
X140587901Y-94242323D01*
X140669899Y-94276287D01*
X140733577Y-94302663D01*
X140888227Y-94333425D01*
X140888230Y-94333426D01*
X140888232Y-94333426D01*
X141045918Y-94333426D01*
X141045919Y-94333425D01*
X141200571Y-94302663D01*
X141346253Y-94242320D01*
X141477363Y-94154715D01*
X141588863Y-94043215D01*
X141676468Y-93912105D01*
X141736811Y-93766423D01*
X141767574Y-93611768D01*
X141767574Y-93454084D01*
X141767574Y-93454081D01*
X141767573Y-93454079D01*
X141752946Y-93380545D01*
X141736811Y-93299429D01*
X141732992Y-93290208D01*
X141676471Y-93153753D01*
X141676464Y-93153740D01*
X141588863Y-93022637D01*
X141588860Y-93022633D01*
X141477366Y-92911139D01*
X141477362Y-92911136D01*
X141346259Y-92823535D01*
X141346246Y-92823528D01*
X141200575Y-92763190D01*
X141200563Y-92763187D01*
X141045919Y-92732426D01*
X141045916Y-92732426D01*
X140888232Y-92732426D01*
X140888229Y-92732426D01*
X140733584Y-92763187D01*
X140733572Y-92763190D01*
X140587901Y-92823528D01*
X140587888Y-92823535D01*
X140456785Y-92911136D01*
X140456781Y-92911139D01*
X140345287Y-93022633D01*
X140345284Y-93022637D01*
X140257683Y-93153740D01*
X140257676Y-93153753D01*
X140197338Y-93299424D01*
X140197335Y-93299436D01*
X140166574Y-93454079D01*
X115285873Y-93454079D01*
X115291896Y-93423800D01*
X115291896Y-93423799D01*
X115300499Y-93380545D01*
X115300500Y-93380543D01*
X115300500Y-93222854D01*
X115300499Y-93222852D01*
X115278690Y-93113211D01*
X115269737Y-93068202D01*
X115269173Y-93066840D01*
X115209397Y-92922526D01*
X115209390Y-92922513D01*
X115121789Y-92791410D01*
X115121786Y-92791406D01*
X115010292Y-92679912D01*
X115010288Y-92679909D01*
X114879185Y-92592308D01*
X114879172Y-92592301D01*
X114733501Y-92531963D01*
X114733489Y-92531960D01*
X114578845Y-92501199D01*
X114578842Y-92501199D01*
X114442781Y-92501199D01*
X114375742Y-92481514D01*
X114329987Y-92428710D01*
X114320043Y-92359552D01*
X114328220Y-92329747D01*
X114358206Y-92257351D01*
X114368087Y-92233497D01*
X114398850Y-92078842D01*
X114398850Y-91921158D01*
X114398850Y-91921155D01*
X114398849Y-91921153D01*
X114392089Y-91887167D01*
X114368087Y-91766503D01*
X114349345Y-91721256D01*
X114307747Y-91620827D01*
X114307740Y-91620814D01*
X114220139Y-91489711D01*
X114220136Y-91489707D01*
X114108642Y-91378213D01*
X114108638Y-91378210D01*
X113977535Y-91290609D01*
X113977522Y-91290602D01*
X113831851Y-91230264D01*
X113831839Y-91230261D01*
X113677195Y-91199500D01*
X113677192Y-91199500D01*
X113519508Y-91199500D01*
X113519505Y-91199500D01*
X113364860Y-91230261D01*
X113364848Y-91230264D01*
X113219177Y-91290602D01*
X113219164Y-91290609D01*
X113087850Y-91378351D01*
X113021172Y-91399229D01*
X112971507Y-91389810D01*
X112831851Y-91331963D01*
X112831839Y-91331960D01*
X112677195Y-91301199D01*
X112677192Y-91301199D01*
X112519508Y-91301199D01*
X112519503Y-91301199D01*
X112506315Y-91303822D01*
X112436723Y-91297592D01*
X112381548Y-91254727D01*
X112358305Y-91188836D01*
X112366761Y-91139458D01*
X112366319Y-91139324D01*
X112367389Y-91135796D01*
X112367568Y-91134748D01*
X112368087Y-91133497D01*
X112398850Y-90978842D01*
X112398850Y-90821158D01*
X112398850Y-90821155D01*
X112398849Y-90821153D01*
X112391485Y-90784134D01*
X112368087Y-90666503D01*
X112366972Y-90663812D01*
X112307747Y-90520827D01*
X112307740Y-90520814D01*
X112220139Y-90389711D01*
X112220136Y-90389707D01*
X112108642Y-90278213D01*
X112108638Y-90278210D01*
X111977535Y-90190609D01*
X111977522Y-90190602D01*
X111831851Y-90130264D01*
X111831839Y-90130261D01*
X111677195Y-90099500D01*
X111677192Y-90099500D01*
X111519508Y-90099500D01*
X111519505Y-90099500D01*
X111364860Y-90130261D01*
X111364848Y-90130264D01*
X111219177Y-90190602D01*
X111219164Y-90190609D01*
X111088061Y-90278210D01*
X111088057Y-90278213D01*
X110976563Y-90389707D01*
X110976560Y-90389711D01*
X110888959Y-90520814D01*
X110888952Y-90520827D01*
X110828614Y-90666498D01*
X110828611Y-90666510D01*
X110797850Y-90821153D01*
X92233429Y-90821153D01*
X92269737Y-90733497D01*
X92300500Y-90578842D01*
X92300500Y-90421158D01*
X92300500Y-90421155D01*
X92300499Y-90421153D01*
X92292003Y-90378443D01*
X92269737Y-90266503D01*
X92230667Y-90172179D01*
X92209397Y-90120827D01*
X92209390Y-90120814D01*
X92121789Y-89989711D01*
X92121786Y-89989707D01*
X92010292Y-89878213D01*
X92010288Y-89878210D01*
X91879185Y-89790609D01*
X91879172Y-89790602D01*
X91733501Y-89730264D01*
X91733489Y-89730261D01*
X91578845Y-89699500D01*
X91578842Y-89699500D01*
X91421158Y-89699500D01*
X91421155Y-89699500D01*
X91266510Y-89730261D01*
X91266498Y-89730264D01*
X91120827Y-89790602D01*
X91120814Y-89790609D01*
X90989711Y-89878210D01*
X90989707Y-89878213D01*
X90878213Y-89989707D01*
X90878210Y-89989711D01*
X90790609Y-90120814D01*
X90790602Y-90120827D01*
X90730264Y-90266498D01*
X90730261Y-90266510D01*
X90699500Y-90421153D01*
X77594079Y-90421153D01*
X77554876Y-90300499D01*
X77545220Y-90270781D01*
X77545218Y-90270778D01*
X77545218Y-90270776D01*
X77494982Y-90172184D01*
X77452287Y-90088390D01*
X77436463Y-90066610D01*
X77331971Y-89922786D01*
X77187213Y-89778028D01*
X77021613Y-89657715D01*
X77021612Y-89657714D01*
X77021610Y-89657713D01*
X76964164Y-89628443D01*
X76839223Y-89564781D01*
X76648868Y-89502931D01*
X76591193Y-89463493D01*
X76563995Y-89399134D01*
X76575910Y-89330288D01*
X76623154Y-89278812D01*
X76648868Y-89267069D01*
X76691508Y-89253213D01*
X76839219Y-89205220D01*
X77021610Y-89112287D01*
X77161317Y-89010785D01*
X77187213Y-88991971D01*
X77187215Y-88991968D01*
X77187219Y-88991966D01*
X77331966Y-88847219D01*
X77331968Y-88847215D01*
X77331971Y-88847213D01*
X77385339Y-88773757D01*
X77452287Y-88681610D01*
X77545220Y-88499219D01*
X77608477Y-88304534D01*
X77640500Y-88102352D01*
X77640500Y-87897648D01*
X77639368Y-87890498D01*
X77608477Y-87695465D01*
X77588993Y-87635500D01*
X77545220Y-87500781D01*
X77528526Y-87468018D01*
X77504647Y-87421153D01*
X80699500Y-87421153D01*
X80699500Y-87578846D01*
X80730261Y-87733489D01*
X80730264Y-87733501D01*
X80790602Y-87879172D01*
X80790609Y-87879185D01*
X80878210Y-88010288D01*
X80878213Y-88010292D01*
X80989707Y-88121786D01*
X80989711Y-88121789D01*
X81120814Y-88209390D01*
X81120827Y-88209397D01*
X81266498Y-88269735D01*
X81266503Y-88269737D01*
X81421153Y-88300499D01*
X81421156Y-88300500D01*
X81421158Y-88300500D01*
X81578844Y-88300500D01*
X81578845Y-88300499D01*
X81733497Y-88269737D01*
X81879179Y-88209394D01*
X82010289Y-88121789D01*
X82121789Y-88010289D01*
X82181348Y-87921153D01*
X84699500Y-87921153D01*
X84699500Y-88078846D01*
X84730261Y-88233489D01*
X84730264Y-88233501D01*
X84790602Y-88379172D01*
X84790609Y-88379185D01*
X84878210Y-88510288D01*
X84878213Y-88510292D01*
X84989707Y-88621786D01*
X84989711Y-88621789D01*
X85120814Y-88709390D01*
X85120827Y-88709397D01*
X85266498Y-88769735D01*
X85266503Y-88769737D01*
X85371418Y-88790606D01*
X85421153Y-88800499D01*
X85421156Y-88800500D01*
X85421158Y-88800500D01*
X85578844Y-88800500D01*
X85578845Y-88800499D01*
X85733497Y-88769737D01*
X85879179Y-88709394D01*
X86010289Y-88621789D01*
X86121789Y-88510289D01*
X86209394Y-88379179D01*
X86269737Y-88233497D01*
X86300500Y-88078842D01*
X86300500Y-87921158D01*
X86300500Y-87921155D01*
X86300499Y-87921153D01*
X86299375Y-87915500D01*
X86269737Y-87766503D01*
X86256062Y-87733489D01*
X86209397Y-87620827D01*
X86209390Y-87620814D01*
X86121790Y-87489712D01*
X86121784Y-87489705D01*
X86053232Y-87421153D01*
X88699500Y-87421153D01*
X88699500Y-87578846D01*
X88730261Y-87733489D01*
X88730264Y-87733501D01*
X88790602Y-87879172D01*
X88790609Y-87879185D01*
X88878210Y-88010288D01*
X88878213Y-88010292D01*
X88989707Y-88121786D01*
X88989711Y-88121789D01*
X89120814Y-88209390D01*
X89120827Y-88209397D01*
X89266498Y-88269735D01*
X89266503Y-88269737D01*
X89421153Y-88300499D01*
X89421156Y-88300500D01*
X89421158Y-88300500D01*
X89578844Y-88300500D01*
X89578845Y-88300499D01*
X89733497Y-88269737D01*
X89879179Y-88209394D01*
X90010289Y-88121789D01*
X90121789Y-88010289D01*
X90209394Y-87879179D01*
X90269737Y-87733497D01*
X90300500Y-87578842D01*
X90300500Y-87421158D01*
X90300500Y-87421155D01*
X90300499Y-87421153D01*
X90291049Y-87373644D01*
X90269737Y-87266503D01*
X90263048Y-87250355D01*
X90209397Y-87120827D01*
X90209390Y-87120814D01*
X90121789Y-86989711D01*
X90121786Y-86989707D01*
X90010292Y-86878213D01*
X90010288Y-86878210D01*
X89879185Y-86790609D01*
X89879172Y-86790602D01*
X89733501Y-86730264D01*
X89733489Y-86730261D01*
X89578845Y-86699500D01*
X89578842Y-86699500D01*
X89421158Y-86699500D01*
X89421155Y-86699500D01*
X89266510Y-86730261D01*
X89266498Y-86730264D01*
X89120827Y-86790602D01*
X89120814Y-86790609D01*
X88989711Y-86878210D01*
X88989707Y-86878213D01*
X88878213Y-86989707D01*
X88878210Y-86989711D01*
X88790609Y-87120814D01*
X88790602Y-87120827D01*
X88730264Y-87266498D01*
X88730261Y-87266510D01*
X88699500Y-87421153D01*
X86053232Y-87421153D01*
X86010292Y-87378213D01*
X86010288Y-87378210D01*
X85879185Y-87290609D01*
X85879172Y-87290602D01*
X85733501Y-87230264D01*
X85733489Y-87230261D01*
X85578845Y-87199500D01*
X85578842Y-87199500D01*
X85421158Y-87199500D01*
X85421155Y-87199500D01*
X85266510Y-87230261D01*
X85266498Y-87230264D01*
X85120827Y-87290602D01*
X85120814Y-87290609D01*
X84989711Y-87378210D01*
X84989707Y-87378213D01*
X84878213Y-87489707D01*
X84878210Y-87489711D01*
X84790609Y-87620814D01*
X84790602Y-87620827D01*
X84730264Y-87766498D01*
X84730261Y-87766510D01*
X84699500Y-87921153D01*
X82181348Y-87921153D01*
X82209394Y-87879179D01*
X82269737Y-87733497D01*
X82300500Y-87578842D01*
X82300500Y-87421158D01*
X82300500Y-87421155D01*
X82300499Y-87421153D01*
X82291049Y-87373644D01*
X82269737Y-87266503D01*
X82263048Y-87250355D01*
X82209397Y-87120827D01*
X82209390Y-87120814D01*
X82121789Y-86989711D01*
X82121786Y-86989707D01*
X82010292Y-86878213D01*
X82010288Y-86878210D01*
X81879185Y-86790609D01*
X81879172Y-86790602D01*
X81733501Y-86730264D01*
X81733489Y-86730261D01*
X81578845Y-86699500D01*
X81578842Y-86699500D01*
X81421158Y-86699500D01*
X81421155Y-86699500D01*
X81266510Y-86730261D01*
X81266498Y-86730264D01*
X81120827Y-86790602D01*
X81120814Y-86790609D01*
X80989711Y-86878210D01*
X80989707Y-86878213D01*
X80878213Y-86989707D01*
X80878210Y-86989711D01*
X80790609Y-87120814D01*
X80790602Y-87120827D01*
X80730264Y-87266498D01*
X80730261Y-87266510D01*
X80699500Y-87421153D01*
X77504647Y-87421153D01*
X77501313Y-87414609D01*
X77452287Y-87318390D01*
X77425888Y-87282054D01*
X77331971Y-87152786D01*
X77187213Y-87008028D01*
X77021613Y-86887715D01*
X77021612Y-86887714D01*
X77021610Y-86887713D01*
X76964653Y-86858691D01*
X76839223Y-86794781D01*
X76648868Y-86732931D01*
X76591193Y-86693493D01*
X76563995Y-86629134D01*
X76575910Y-86560288D01*
X76623154Y-86508812D01*
X76648868Y-86497069D01*
X76691508Y-86483213D01*
X76839219Y-86435220D01*
X77021610Y-86342287D01*
X77125919Y-86266503D01*
X77187213Y-86221971D01*
X77187215Y-86221968D01*
X77187219Y-86221966D01*
X77331966Y-86077219D01*
X77331968Y-86077215D01*
X77331971Y-86077213D01*
X77421254Y-85954323D01*
X77452287Y-85911610D01*
X77545220Y-85729219D01*
X77608477Y-85534534D01*
X77640500Y-85332352D01*
X77640500Y-85127648D01*
X77608477Y-84925466D01*
X77607076Y-84921153D01*
X88699500Y-84921153D01*
X88699500Y-85078846D01*
X88730261Y-85233489D01*
X88730264Y-85233501D01*
X88790602Y-85379172D01*
X88790609Y-85379185D01*
X88878210Y-85510288D01*
X88878213Y-85510292D01*
X88989707Y-85621786D01*
X88989711Y-85621789D01*
X89120814Y-85709390D01*
X89120827Y-85709397D01*
X89261781Y-85767781D01*
X89266503Y-85769737D01*
X89421153Y-85800499D01*
X89421156Y-85800500D01*
X89421158Y-85800500D01*
X89578844Y-85800500D01*
X89578845Y-85800499D01*
X89733497Y-85769737D01*
X89879179Y-85709394D01*
X90010289Y-85621789D01*
X90121789Y-85510289D01*
X90209394Y-85379179D01*
X90269737Y-85233497D01*
X90300500Y-85078842D01*
X90300500Y-84921158D01*
X90300500Y-84921155D01*
X90300499Y-84921153D01*
X92249500Y-84921153D01*
X92249500Y-85078846D01*
X92280261Y-85233489D01*
X92280264Y-85233501D01*
X92340602Y-85379172D01*
X92340609Y-85379185D01*
X92428210Y-85510288D01*
X92428213Y-85510292D01*
X92539707Y-85621786D01*
X92539711Y-85621789D01*
X92670814Y-85709390D01*
X92670827Y-85709397D01*
X92811781Y-85767781D01*
X92816503Y-85769737D01*
X92971153Y-85800499D01*
X92971156Y-85800500D01*
X92971158Y-85800500D01*
X93128844Y-85800500D01*
X93244098Y-85777574D01*
X93275402Y-85771347D01*
X93344994Y-85777574D01*
X93400171Y-85820437D01*
X93423416Y-85886326D01*
X93407348Y-85954323D01*
X93387279Y-85980642D01*
X93378210Y-85989710D01*
X93378210Y-85989711D01*
X93290609Y-86120814D01*
X93290602Y-86120827D01*
X93230264Y-86266498D01*
X93230261Y-86266510D01*
X93199500Y-86421153D01*
X93199500Y-86578846D01*
X93230261Y-86733489D01*
X93230264Y-86733501D01*
X93290602Y-86879172D01*
X93290609Y-86879185D01*
X93378210Y-87010288D01*
X93378213Y-87010292D01*
X93489708Y-87121787D01*
X93489711Y-87121789D01*
X93540882Y-87155980D01*
X93585688Y-87209593D01*
X93594395Y-87278917D01*
X93564241Y-87341945D01*
X93519445Y-87373644D01*
X93420559Y-87414604D01*
X93420549Y-87414609D01*
X93289446Y-87502210D01*
X93289442Y-87502213D01*
X93177948Y-87613707D01*
X93177945Y-87613711D01*
X93090344Y-87744814D01*
X93090337Y-87744827D01*
X93029999Y-87890498D01*
X93029996Y-87890510D01*
X92999235Y-88045153D01*
X92999235Y-88202846D01*
X93029996Y-88357489D01*
X93029999Y-88357501D01*
X93090337Y-88503172D01*
X93090344Y-88503185D01*
X93163864Y-88613214D01*
X93184742Y-88679891D01*
X93166258Y-88747271D01*
X93125056Y-88785979D01*
X93125886Y-88787221D01*
X92989711Y-88878210D01*
X92989707Y-88878213D01*
X92878213Y-88989707D01*
X92878210Y-88989711D01*
X92790609Y-89120814D01*
X92790602Y-89120827D01*
X92730264Y-89266498D01*
X92730261Y-89266510D01*
X92699500Y-89421153D01*
X92699500Y-89578846D01*
X92730261Y-89733489D01*
X92730264Y-89733501D01*
X92790602Y-89879172D01*
X92790609Y-89879185D01*
X92878210Y-90010288D01*
X92878213Y-90010292D01*
X92989707Y-90121786D01*
X92989711Y-90121789D01*
X93120814Y-90209390D01*
X93120827Y-90209397D01*
X93258683Y-90266498D01*
X93266503Y-90269737D01*
X93406031Y-90297491D01*
X93421153Y-90300499D01*
X93421156Y-90300500D01*
X93421158Y-90300500D01*
X93578844Y-90300500D01*
X93578845Y-90300499D01*
X93733497Y-90269737D01*
X93879179Y-90209394D01*
X94010289Y-90121789D01*
X94121789Y-90010289D01*
X94209394Y-89879179D01*
X94235713Y-89815640D01*
X94235714Y-89815638D01*
X108403365Y-89815638D01*
X108403365Y-89973331D01*
X108434126Y-90127974D01*
X108434129Y-90127986D01*
X108494467Y-90273657D01*
X108494474Y-90273670D01*
X108582075Y-90404773D01*
X108582078Y-90404777D01*
X108693572Y-90516271D01*
X108693576Y-90516274D01*
X108824679Y-90603875D01*
X108824692Y-90603882D01*
X108944427Y-90653477D01*
X108970368Y-90664222D01*
X109107538Y-90691507D01*
X109125018Y-90694984D01*
X109125021Y-90694985D01*
X109125023Y-90694985D01*
X109282709Y-90694985D01*
X109290431Y-90693449D01*
X109290431Y-90693448D01*
X109437362Y-90664222D01*
X109583044Y-90603879D01*
X109714154Y-90516274D01*
X109825654Y-90404774D01*
X109913259Y-90273664D01*
X109914887Y-90269735D01*
X109955295Y-90172179D01*
X109973602Y-90127982D01*
X110004365Y-89973327D01*
X110004365Y-89815643D01*
X110004365Y-89815640D01*
X110004364Y-89815638D01*
X109986325Y-89724951D01*
X109973602Y-89660988D01*
X109972246Y-89657715D01*
X109913262Y-89515312D01*
X109913255Y-89515299D01*
X109825654Y-89384196D01*
X109825651Y-89384192D01*
X109714157Y-89272698D01*
X109714153Y-89272695D01*
X109583050Y-89185094D01*
X109583037Y-89185087D01*
X109437366Y-89124749D01*
X109437354Y-89124746D01*
X109315252Y-89100458D01*
X109282710Y-89093985D01*
X109282707Y-89093985D01*
X109125023Y-89093985D01*
X109125020Y-89093985D01*
X108970375Y-89124746D01*
X108970363Y-89124749D01*
X108824692Y-89185087D01*
X108824679Y-89185094D01*
X108693576Y-89272695D01*
X108693572Y-89272698D01*
X108582078Y-89384192D01*
X108582075Y-89384196D01*
X108494474Y-89515299D01*
X108494467Y-89515312D01*
X108434129Y-89660983D01*
X108434126Y-89660995D01*
X108403365Y-89815638D01*
X94235714Y-89815638D01*
X94257890Y-89762099D01*
X94269735Y-89733501D01*
X94269737Y-89733497D01*
X94300500Y-89578842D01*
X94300500Y-89421158D01*
X94300500Y-89421155D01*
X94300499Y-89421153D01*
X94296814Y-89402629D01*
X94269737Y-89266503D01*
X94243652Y-89203527D01*
X94209397Y-89120827D01*
X94209395Y-89120823D01*
X94209394Y-89120821D01*
X94135869Y-89010784D01*
X94114992Y-88944108D01*
X94133476Y-88876728D01*
X94174682Y-88838026D01*
X94173849Y-88836779D01*
X94270681Y-88772077D01*
X94310024Y-88745789D01*
X94421524Y-88634289D01*
X94434822Y-88614388D01*
X95299500Y-88614388D01*
X95299500Y-88772081D01*
X95330261Y-88926724D01*
X95330264Y-88926736D01*
X95390602Y-89072407D01*
X95390609Y-89072420D01*
X95478210Y-89203523D01*
X95478213Y-89203527D01*
X95589707Y-89315021D01*
X95589711Y-89315024D01*
X95720814Y-89402625D01*
X95720827Y-89402632D01*
X95866498Y-89462970D01*
X95866503Y-89462972D01*
X96021153Y-89493734D01*
X96021156Y-89493735D01*
X96021158Y-89493735D01*
X96178844Y-89493735D01*
X96178845Y-89493734D01*
X96333497Y-89462972D01*
X96479179Y-89402629D01*
X96610289Y-89315024D01*
X96721789Y-89203524D01*
X96809394Y-89072414D01*
X96846135Y-88983713D01*
X142399500Y-88983713D01*
X142399500Y-89196286D01*
X142432181Y-89402629D01*
X142432754Y-89406243D01*
X142491226Y-89586202D01*
X142498444Y-89608414D01*
X142594951Y-89797820D01*
X142719890Y-89969786D01*
X142870213Y-90120109D01*
X143042182Y-90245050D01*
X143050946Y-90249516D01*
X143101742Y-90297491D01*
X143118536Y-90365312D01*
X143095998Y-90431447D01*
X143050946Y-90470484D01*
X143042182Y-90474949D01*
X142870213Y-90599890D01*
X142719890Y-90750213D01*
X142594951Y-90922179D01*
X142498444Y-91111585D01*
X142498443Y-91111587D01*
X142498443Y-91111588D01*
X142491327Y-91133489D01*
X142432753Y-91313760D01*
X142408666Y-91465840D01*
X142399500Y-91523713D01*
X142399500Y-91736287D01*
X142406087Y-91777873D01*
X142429346Y-91924731D01*
X142432754Y-91946243D01*
X142497234Y-92144692D01*
X142498444Y-92148414D01*
X142594951Y-92337820D01*
X142719890Y-92509786D01*
X142870213Y-92660109D01*
X143042182Y-92785050D01*
X143050946Y-92789516D01*
X143101742Y-92837491D01*
X143118536Y-92905312D01*
X143095998Y-92971447D01*
X143050946Y-93010484D01*
X143042182Y-93014949D01*
X142870213Y-93139890D01*
X142719890Y-93290213D01*
X142594951Y-93462179D01*
X142498444Y-93651585D01*
X142432753Y-93853760D01*
X142399500Y-94063713D01*
X142399500Y-94276286D01*
X142429343Y-94464711D01*
X142432754Y-94486243D01*
X142497234Y-94684692D01*
X142498444Y-94688414D01*
X142594951Y-94877820D01*
X142719890Y-95049786D01*
X142870213Y-95200109D01*
X143042182Y-95325050D01*
X143050946Y-95329516D01*
X143101742Y-95377491D01*
X143118536Y-95445312D01*
X143095998Y-95511447D01*
X143050946Y-95550484D01*
X143042182Y-95554949D01*
X142870213Y-95679890D01*
X142719890Y-95830213D01*
X142594951Y-96002179D01*
X142498444Y-96191585D01*
X142432753Y-96393760D01*
X142399500Y-96603713D01*
X142399500Y-96816286D01*
X142431694Y-97019554D01*
X142432754Y-97026243D01*
X142497586Y-97225775D01*
X142498444Y-97228414D01*
X142594951Y-97417820D01*
X142719890Y-97589786D01*
X142870213Y-97740109D01*
X143042182Y-97865050D01*
X143050946Y-97869516D01*
X143101742Y-97917491D01*
X143118536Y-97985312D01*
X143095998Y-98051447D01*
X143050946Y-98090484D01*
X143042182Y-98094949D01*
X142870213Y-98219890D01*
X142719890Y-98370213D01*
X142594951Y-98542179D01*
X142498444Y-98731585D01*
X142432753Y-98933760D01*
X142399500Y-99143713D01*
X142399500Y-99356286D01*
X142428849Y-99541592D01*
X142432754Y-99566243D01*
X142497234Y-99764692D01*
X142498444Y-99768414D01*
X142594951Y-99957820D01*
X142719890Y-100129786D01*
X142870213Y-100280109D01*
X143042179Y-100405048D01*
X143042181Y-100405049D01*
X143042184Y-100405051D01*
X143231588Y-100501557D01*
X143433757Y-100567246D01*
X143643713Y-100600500D01*
X143643714Y-100600500D01*
X143856286Y-100600500D01*
X143856287Y-100600500D01*
X144066243Y-100567246D01*
X144268412Y-100501557D01*
X144457816Y-100405051D01*
X144520413Y-100359572D01*
X144629786Y-100280109D01*
X144629788Y-100280106D01*
X144629792Y-100280104D01*
X144780104Y-100129792D01*
X144780106Y-100129788D01*
X144780109Y-100129786D01*
X144905048Y-99957820D01*
X144905047Y-99957820D01*
X144905051Y-99957816D01*
X145001557Y-99768412D01*
X145067246Y-99566243D01*
X145100500Y-99356287D01*
X145100500Y-99143713D01*
X145067246Y-98933757D01*
X145001557Y-98731588D01*
X144905051Y-98542184D01*
X144905049Y-98542181D01*
X144905048Y-98542179D01*
X144780109Y-98370213D01*
X144629786Y-98219890D01*
X144457820Y-98094951D01*
X144454852Y-98093439D01*
X144449054Y-98090485D01*
X144398259Y-98042512D01*
X144381463Y-97974692D01*
X144403999Y-97908556D01*
X144449054Y-97869515D01*
X144457816Y-97865051D01*
X144558110Y-97792184D01*
X144629786Y-97740109D01*
X144629788Y-97740106D01*
X144629792Y-97740104D01*
X144780104Y-97589792D01*
X144780106Y-97589788D01*
X144780109Y-97589786D01*
X144895887Y-97430429D01*
X144905051Y-97417816D01*
X145001557Y-97228412D01*
X145067246Y-97026243D01*
X145100500Y-96816287D01*
X145100500Y-96603713D01*
X145067246Y-96393757D01*
X145001557Y-96191588D01*
X144905051Y-96002184D01*
X144905049Y-96002181D01*
X144905048Y-96002179D01*
X144780109Y-95830213D01*
X144629786Y-95679890D01*
X144457820Y-95554951D01*
X144457115Y-95554591D01*
X144449054Y-95550485D01*
X144398259Y-95502512D01*
X144381463Y-95434692D01*
X144403999Y-95368556D01*
X144449054Y-95329515D01*
X144457816Y-95325051D01*
X144558110Y-95252184D01*
X144629786Y-95200109D01*
X144629788Y-95200106D01*
X144629792Y-95200104D01*
X144780104Y-95049792D01*
X144780106Y-95049788D01*
X144780109Y-95049786D01*
X144905048Y-94877820D01*
X144905047Y-94877820D01*
X144905051Y-94877816D01*
X145001557Y-94688412D01*
X145067246Y-94486243D01*
X145100500Y-94276287D01*
X145100500Y-94063713D01*
X145067246Y-93853757D01*
X145001557Y-93651588D01*
X144905051Y-93462184D01*
X144905049Y-93462181D01*
X144905048Y-93462179D01*
X144780109Y-93290213D01*
X144629786Y-93139890D01*
X144457820Y-93014951D01*
X144457115Y-93014591D01*
X144449054Y-93010485D01*
X144398259Y-92962512D01*
X144381463Y-92894692D01*
X144403999Y-92828556D01*
X144449054Y-92789515D01*
X144457816Y-92785051D01*
X144544285Y-92722228D01*
X144629786Y-92660109D01*
X144629788Y-92660106D01*
X144629792Y-92660104D01*
X144780104Y-92509792D01*
X144780106Y-92509788D01*
X144780109Y-92509786D01*
X144905048Y-92337820D01*
X144905047Y-92337820D01*
X144905051Y-92337816D01*
X145001557Y-92148412D01*
X145067246Y-91946243D01*
X145100500Y-91736287D01*
X145100500Y-91523713D01*
X145067246Y-91313757D01*
X145001557Y-91111588D01*
X144905051Y-90922184D01*
X144905049Y-90922181D01*
X144905048Y-90922179D01*
X144780109Y-90750213D01*
X144629786Y-90599890D01*
X144457820Y-90474951D01*
X144457115Y-90474591D01*
X144449054Y-90470485D01*
X144398259Y-90422512D01*
X144381463Y-90354692D01*
X144403999Y-90288556D01*
X144449054Y-90249515D01*
X144457816Y-90245051D01*
X144558110Y-90172184D01*
X144629786Y-90120109D01*
X144629788Y-90120106D01*
X144629792Y-90120104D01*
X144767761Y-89982135D01*
X150335350Y-89982135D01*
X150335350Y-91777870D01*
X150335351Y-91777876D01*
X150341758Y-91837483D01*
X150392052Y-91972328D01*
X150392056Y-91972335D01*
X150478302Y-92087544D01*
X150478305Y-92087547D01*
X150593514Y-92173793D01*
X150593521Y-92173797D01*
X150728367Y-92224091D01*
X150728366Y-92224091D01*
X150735294Y-92224835D01*
X150787977Y-92230500D01*
X152583722Y-92230499D01*
X152643333Y-92224091D01*
X152778181Y-92173796D01*
X152893396Y-92087546D01*
X152979646Y-91972331D01*
X153028660Y-91840916D01*
X153070531Y-91784984D01*
X153135995Y-91760566D01*
X153204268Y-91775417D01*
X153232523Y-91796569D01*
X153346063Y-91910109D01*
X153518032Y-92035050D01*
X153526796Y-92039516D01*
X153577592Y-92087491D01*
X153594386Y-92155312D01*
X153571848Y-92221447D01*
X153526796Y-92260484D01*
X153518032Y-92264949D01*
X153346063Y-92389890D01*
X153195740Y-92540213D01*
X153070801Y-92712179D01*
X152974294Y-92901585D01*
X152974293Y-92901587D01*
X152974293Y-92901588D01*
X152953745Y-92964829D01*
X152908603Y-93103760D01*
X152883811Y-93260292D01*
X152875350Y-93313713D01*
X152875350Y-93526287D01*
X152908604Y-93736243D01*
X152965747Y-93912111D01*
X152974294Y-93938414D01*
X153070801Y-94127820D01*
X153195740Y-94299786D01*
X153346063Y-94450109D01*
X153518032Y-94575050D01*
X153526796Y-94579516D01*
X153577592Y-94627491D01*
X153594386Y-94695312D01*
X153571848Y-94761447D01*
X153526796Y-94800484D01*
X153518032Y-94804949D01*
X153346063Y-94929890D01*
X153195740Y-95080213D01*
X153070801Y-95252179D01*
X152974294Y-95441585D01*
X152974293Y-95441587D01*
X152974293Y-95441588D01*
X152951594Y-95511447D01*
X152908603Y-95643760D01*
X152875350Y-95853713D01*
X152875350Y-96066286D01*
X152908528Y-96275768D01*
X152908604Y-96276243D01*
X152958700Y-96430423D01*
X152974294Y-96478414D01*
X153070801Y-96667820D01*
X153195740Y-96839786D01*
X153346063Y-96990109D01*
X153518032Y-97115050D01*
X153526796Y-97119516D01*
X153577592Y-97167491D01*
X153594386Y-97235312D01*
X153571848Y-97301447D01*
X153526796Y-97340484D01*
X153518032Y-97344949D01*
X153346063Y-97469890D01*
X153195740Y-97620213D01*
X153070799Y-97792182D01*
X153066334Y-97800946D01*
X153018359Y-97851742D01*
X152950538Y-97868536D01*
X152884403Y-97845998D01*
X152845366Y-97800946D01*
X152840900Y-97792182D01*
X152715959Y-97620213D01*
X152565636Y-97469890D01*
X152393670Y-97344951D01*
X152204264Y-97248444D01*
X152204263Y-97248443D01*
X152204262Y-97248443D01*
X152002093Y-97182754D01*
X152002091Y-97182753D01*
X152002090Y-97182753D01*
X151840807Y-97157208D01*
X151792137Y-97149500D01*
X151579563Y-97149500D01*
X151530892Y-97157208D01*
X151369610Y-97182753D01*
X151369607Y-97182754D01*
X151237714Y-97225609D01*
X151167435Y-97248444D01*
X150978029Y-97344951D01*
X150806063Y-97469890D01*
X150655740Y-97620213D01*
X150530801Y-97792179D01*
X150434294Y-97981585D01*
X150434293Y-97981587D01*
X150434293Y-97981588D01*
X150413887Y-98044390D01*
X150368603Y-98183760D01*
X150348917Y-98308053D01*
X150335350Y-98393713D01*
X150335350Y-98606287D01*
X150339148Y-98630264D01*
X150362580Y-98778213D01*
X150368604Y-98816243D01*
X150424967Y-98989711D01*
X150434294Y-99018414D01*
X150530801Y-99207820D01*
X150655740Y-99379786D01*
X150806063Y-99530109D01*
X150978032Y-99655050D01*
X150986796Y-99659516D01*
X151037592Y-99707491D01*
X151054386Y-99775312D01*
X151031848Y-99841447D01*
X150986796Y-99880484D01*
X150978032Y-99884949D01*
X150806063Y-100009890D01*
X150655740Y-100160213D01*
X150530801Y-100332179D01*
X150434294Y-100521585D01*
X150368603Y-100723760D01*
X150335350Y-100933713D01*
X150335350Y-101146286D01*
X150366869Y-101345292D01*
X150368604Y-101356243D01*
X150429739Y-101544397D01*
X150434294Y-101558414D01*
X150530801Y-101747820D01*
X150655740Y-101919786D01*
X150806063Y-102070109D01*
X150978029Y-102195048D01*
X150978031Y-102195049D01*
X150978034Y-102195051D01*
X151167438Y-102291557D01*
X151369607Y-102357246D01*
X151579563Y-102390500D01*
X151579564Y-102390500D01*
X151792136Y-102390500D01*
X151792137Y-102390500D01*
X152002093Y-102357246D01*
X152204262Y-102291557D01*
X152393666Y-102195051D01*
X152429765Y-102168824D01*
X152565636Y-102070109D01*
X152565638Y-102070106D01*
X152565642Y-102070104D01*
X152715954Y-101919792D01*
X152715956Y-101919788D01*
X152715959Y-101919786D01*
X152840898Y-101747820D01*
X152840897Y-101747820D01*
X152840901Y-101747816D01*
X152845364Y-101739054D01*
X152893338Y-101688259D01*
X152961158Y-101671463D01*
X153027294Y-101693999D01*
X153066336Y-101739056D01*
X153070801Y-101747820D01*
X153195740Y-101919786D01*
X153346063Y-102070109D01*
X153518029Y-102195048D01*
X153518031Y-102195049D01*
X153518034Y-102195051D01*
X153707438Y-102291557D01*
X153909607Y-102357246D01*
X154119563Y-102390500D01*
X154119564Y-102390500D01*
X154332136Y-102390500D01*
X154332137Y-102390500D01*
X154542093Y-102357246D01*
X154744262Y-102291557D01*
X154933666Y-102195051D01*
X154969765Y-102168824D01*
X155105636Y-102070109D01*
X155105638Y-102070106D01*
X155105642Y-102070104D01*
X155255954Y-101919792D01*
X155255956Y-101919788D01*
X155255959Y-101919786D01*
X155380898Y-101747820D01*
X155380897Y-101747820D01*
X155380901Y-101747816D01*
X155477407Y-101558412D01*
X155543096Y-101356243D01*
X155576350Y-101146287D01*
X155576350Y-100933713D01*
X155543096Y-100723757D01*
X155477407Y-100521588D01*
X155380901Y-100332184D01*
X155380899Y-100332181D01*
X155380898Y-100332179D01*
X155255959Y-100160213D01*
X155105636Y-100009890D01*
X154933670Y-99884951D01*
X154932965Y-99884591D01*
X154924904Y-99880485D01*
X154874109Y-99832512D01*
X154857313Y-99764692D01*
X154879849Y-99698556D01*
X154924904Y-99659515D01*
X154933666Y-99655051D01*
X155038557Y-99578844D01*
X155105636Y-99530109D01*
X155105638Y-99530106D01*
X155105642Y-99530104D01*
X155255954Y-99379792D01*
X155255956Y-99379788D01*
X155255959Y-99379786D01*
X155380898Y-99207820D01*
X155380897Y-99207820D01*
X155380901Y-99207816D01*
X155477407Y-99018412D01*
X155543096Y-98816243D01*
X155576350Y-98606287D01*
X155576350Y-98393713D01*
X155543096Y-98183757D01*
X155477407Y-97981588D01*
X155380901Y-97792184D01*
X155380899Y-97792181D01*
X155380898Y-97792179D01*
X155255959Y-97620213D01*
X155105636Y-97469890D01*
X154933670Y-97344951D01*
X154932965Y-97344591D01*
X154924904Y-97340485D01*
X154874109Y-97292512D01*
X154857313Y-97224692D01*
X154879849Y-97158556D01*
X154924904Y-97119515D01*
X154933666Y-97115051D01*
X155055901Y-97026243D01*
X155105636Y-96990109D01*
X155105638Y-96990106D01*
X155105642Y-96990104D01*
X155255954Y-96839792D01*
X155255956Y-96839788D01*
X155255959Y-96839786D01*
X155365128Y-96689526D01*
X155380901Y-96667816D01*
X155477407Y-96478412D01*
X155543096Y-96276243D01*
X155576350Y-96066287D01*
X155576350Y-95853713D01*
X155543096Y-95643757D01*
X155477407Y-95441588D01*
X155380901Y-95252184D01*
X155380899Y-95252181D01*
X155380898Y-95252179D01*
X155255959Y-95080213D01*
X155105636Y-94929890D01*
X154933670Y-94804951D01*
X154932965Y-94804591D01*
X154924904Y-94800485D01*
X154874109Y-94752512D01*
X154857313Y-94684692D01*
X154879849Y-94618556D01*
X154924904Y-94579515D01*
X154933666Y-94575051D01*
X154989480Y-94534500D01*
X155105636Y-94450109D01*
X155105638Y-94450106D01*
X155105642Y-94450104D01*
X155255954Y-94299792D01*
X155255956Y-94299788D01*
X155255959Y-94299786D01*
X155380898Y-94127820D01*
X155380897Y-94127820D01*
X155380901Y-94127816D01*
X155477407Y-93938412D01*
X155543096Y-93736243D01*
X155576350Y-93526287D01*
X155576350Y-93313713D01*
X155543096Y-93103757D01*
X155477407Y-92901588D01*
X155380901Y-92712184D01*
X155380899Y-92712181D01*
X155380898Y-92712179D01*
X155255959Y-92540213D01*
X155105642Y-92389896D01*
X155090891Y-92379179D01*
X154933666Y-92264949D01*
X154917187Y-92256552D01*
X154916617Y-92256153D01*
X158335349Y-92256153D01*
X158335349Y-92413846D01*
X158366110Y-92568489D01*
X158366113Y-92568501D01*
X158426451Y-92714172D01*
X158426458Y-92714185D01*
X158514059Y-92845288D01*
X158514062Y-92845292D01*
X158625556Y-92956786D01*
X158625560Y-92956789D01*
X158756663Y-93044390D01*
X158756676Y-93044397D01*
X158899986Y-93103757D01*
X158902352Y-93104737D01*
X159025260Y-93129185D01*
X159057002Y-93135499D01*
X159057005Y-93135500D01*
X159057007Y-93135500D01*
X159214693Y-93135500D01*
X159214694Y-93135499D01*
X159369346Y-93104737D01*
X159515028Y-93044394D01*
X159646138Y-92956789D01*
X159757638Y-92845289D01*
X159845243Y-92714179D01*
X159846072Y-92712179D01*
X159873683Y-92645519D01*
X159905586Y-92568497D01*
X159936349Y-92413842D01*
X159936349Y-92256158D01*
X159936349Y-92256155D01*
X159926292Y-92205598D01*
X159926292Y-92205597D01*
X159922691Y-92187493D01*
X161361349Y-92187493D01*
X161361349Y-92345186D01*
X161392110Y-92499829D01*
X161392113Y-92499841D01*
X161452451Y-92645512D01*
X161452458Y-92645525D01*
X161540059Y-92776628D01*
X161540062Y-92776632D01*
X161651556Y-92888126D01*
X161651560Y-92888129D01*
X161782663Y-92975730D01*
X161782676Y-92975737D01*
X161928347Y-93036075D01*
X161928352Y-93036077D01*
X162083002Y-93066839D01*
X162083005Y-93066840D01*
X162083007Y-93066840D01*
X162240693Y-93066840D01*
X162240694Y-93066839D01*
X162395346Y-93036077D01*
X162541028Y-92975734D01*
X162672138Y-92888129D01*
X162783638Y-92776629D01*
X162871243Y-92645519D01*
X162931586Y-92499837D01*
X162962349Y-92345182D01*
X162962349Y-92264196D01*
X165492306Y-92264196D01*
X165492306Y-92421889D01*
X165523067Y-92576532D01*
X165523070Y-92576544D01*
X165583408Y-92722215D01*
X165583415Y-92722228D01*
X165671016Y-92853331D01*
X165671019Y-92853335D01*
X165782513Y-92964829D01*
X165782517Y-92964832D01*
X165913620Y-93052433D01*
X165913633Y-93052440D01*
X166059304Y-93112778D01*
X166059309Y-93112780D01*
X166213959Y-93143542D01*
X166213962Y-93143543D01*
X166213964Y-93143543D01*
X166371650Y-93143543D01*
X166371651Y-93143542D01*
X166526303Y-93112780D01*
X166671985Y-93052437D01*
X166803095Y-92964832D01*
X166914595Y-92853332D01*
X167002200Y-92722222D01*
X167005532Y-92714179D01*
X167030366Y-92654223D01*
X167062543Y-92576540D01*
X167093306Y-92421885D01*
X167093306Y-92264201D01*
X167093306Y-92264198D01*
X167093305Y-92264196D01*
X167087199Y-92233501D01*
X167062543Y-92109546D01*
X167060144Y-92103755D01*
X167002203Y-91963870D01*
X167002196Y-91963857D01*
X166914595Y-91832754D01*
X166914592Y-91832750D01*
X166803098Y-91721256D01*
X166803094Y-91721253D01*
X166671991Y-91633652D01*
X166671978Y-91633645D01*
X166526307Y-91573307D01*
X166526295Y-91573304D01*
X166371651Y-91542543D01*
X166371648Y-91542543D01*
X166213964Y-91542543D01*
X166213961Y-91542543D01*
X166059316Y-91573304D01*
X166059304Y-91573307D01*
X165913633Y-91633645D01*
X165913620Y-91633652D01*
X165782517Y-91721253D01*
X165782513Y-91721256D01*
X165671019Y-91832750D01*
X165671016Y-91832754D01*
X165583415Y-91963857D01*
X165583408Y-91963870D01*
X165523070Y-92109541D01*
X165523067Y-92109553D01*
X165492306Y-92264196D01*
X162962349Y-92264196D01*
X162962349Y-92187498D01*
X162962349Y-92187495D01*
X162962348Y-92187493D01*
X162952168Y-92136316D01*
X162931586Y-92032843D01*
X162922244Y-92010289D01*
X162871246Y-91887167D01*
X162871239Y-91887154D01*
X162783638Y-91756051D01*
X162783635Y-91756047D01*
X162672141Y-91644553D01*
X162672137Y-91644550D01*
X162541034Y-91556949D01*
X162541021Y-91556942D01*
X162395350Y-91496604D01*
X162395338Y-91496601D01*
X162240694Y-91465840D01*
X162240691Y-91465840D01*
X162083007Y-91465840D01*
X162083004Y-91465840D01*
X161928359Y-91496601D01*
X161928347Y-91496604D01*
X161782676Y-91556942D01*
X161782663Y-91556949D01*
X161651560Y-91644550D01*
X161651556Y-91644553D01*
X161540062Y-91756047D01*
X161540059Y-91756051D01*
X161452458Y-91887154D01*
X161452451Y-91887167D01*
X161392113Y-92032838D01*
X161392110Y-92032850D01*
X161361349Y-92187493D01*
X159922691Y-92187493D01*
X159910899Y-92128213D01*
X159905586Y-92101503D01*
X159896201Y-92078846D01*
X159845246Y-91955827D01*
X159845239Y-91955814D01*
X159757638Y-91824711D01*
X159757635Y-91824707D01*
X159646141Y-91713213D01*
X159646137Y-91713210D01*
X159515034Y-91625609D01*
X159515021Y-91625602D01*
X159369350Y-91565264D01*
X159369338Y-91565261D01*
X159214694Y-91534500D01*
X159214691Y-91534500D01*
X159057007Y-91534500D01*
X159057004Y-91534500D01*
X158902359Y-91565261D01*
X158902347Y-91565264D01*
X158756676Y-91625602D01*
X158756663Y-91625609D01*
X158625560Y-91713210D01*
X158625556Y-91713213D01*
X158514062Y-91824707D01*
X158514059Y-91824711D01*
X158426458Y-91955814D01*
X158426451Y-91955827D01*
X158366113Y-92101498D01*
X158366110Y-92101510D01*
X158335349Y-92256153D01*
X154916617Y-92256153D01*
X154910088Y-92251583D01*
X154893464Y-92230791D01*
X154874109Y-92212512D01*
X154871981Y-92203923D01*
X154866456Y-92197012D01*
X154863712Y-92170531D01*
X154857313Y-92144692D01*
X154860167Y-92136316D01*
X154859255Y-92127514D01*
X154871262Y-92103755D01*
X154879849Y-92078556D01*
X154887230Y-92072160D01*
X154890770Y-92065156D01*
X154904912Y-92056838D01*
X154924904Y-92039515D01*
X154933666Y-92035051D01*
X155019988Y-91972335D01*
X155105636Y-91910109D01*
X155105638Y-91910106D01*
X155105642Y-91910104D01*
X155255954Y-91759792D01*
X155255956Y-91759788D01*
X155255959Y-91759786D01*
X155380898Y-91587820D01*
X155380897Y-91587820D01*
X155380901Y-91587816D01*
X155477407Y-91398412D01*
X155543096Y-91196243D01*
X155576350Y-90986287D01*
X155576350Y-90773713D01*
X155543096Y-90563757D01*
X155477407Y-90361588D01*
X155380901Y-90172184D01*
X155380899Y-90172181D01*
X155380898Y-90172179D01*
X155255959Y-90000213D01*
X155105636Y-89849890D01*
X154933670Y-89724951D01*
X154744264Y-89628444D01*
X154744263Y-89628443D01*
X154744262Y-89628443D01*
X154542093Y-89562754D01*
X154542091Y-89562753D01*
X154542090Y-89562753D01*
X154380807Y-89537208D01*
X154332137Y-89529500D01*
X154119563Y-89529500D01*
X154070892Y-89537208D01*
X153909610Y-89562753D01*
X153707435Y-89628444D01*
X153518029Y-89724951D01*
X153346065Y-89849889D01*
X153232523Y-89963431D01*
X153171200Y-89996915D01*
X153101508Y-89991931D01*
X153045575Y-89950059D01*
X153028660Y-89919082D01*
X152979647Y-89787671D01*
X152979643Y-89787664D01*
X152893397Y-89672455D01*
X152893394Y-89672452D01*
X152778185Y-89586206D01*
X152778178Y-89586202D01*
X152643332Y-89535908D01*
X152643333Y-89535908D01*
X152583733Y-89529501D01*
X152583731Y-89529500D01*
X152583723Y-89529500D01*
X152583714Y-89529500D01*
X150787979Y-89529500D01*
X150787973Y-89529501D01*
X150728366Y-89535908D01*
X150593521Y-89586202D01*
X150593514Y-89586206D01*
X150478305Y-89672452D01*
X150478302Y-89672455D01*
X150392056Y-89787664D01*
X150392052Y-89787671D01*
X150341758Y-89922517D01*
X150335351Y-89982116D01*
X150335350Y-89982135D01*
X144767761Y-89982135D01*
X144780104Y-89969792D01*
X144814256Y-89922786D01*
X144826507Y-89905924D01*
X144826509Y-89905921D01*
X144867218Y-89849889D01*
X144905051Y-89797816D01*
X145001557Y-89608412D01*
X145067246Y-89406243D01*
X145100500Y-89196287D01*
X145100500Y-88983713D01*
X145067246Y-88773757D01*
X145001557Y-88571588D01*
X144905051Y-88382184D01*
X144905049Y-88382181D01*
X144905048Y-88382179D01*
X144780109Y-88210213D01*
X144629786Y-88059890D01*
X144457820Y-87934951D01*
X144268414Y-87838444D01*
X144268413Y-87838443D01*
X144268412Y-87838443D01*
X144066243Y-87772754D01*
X144066241Y-87772753D01*
X144066240Y-87772753D01*
X143889838Y-87744814D01*
X143856287Y-87739500D01*
X143643713Y-87739500D01*
X143610162Y-87744814D01*
X143433760Y-87772753D01*
X143231585Y-87838444D01*
X143042179Y-87934951D01*
X142870213Y-88059890D01*
X142719890Y-88210213D01*
X142594951Y-88382179D01*
X142498444Y-88571585D01*
X142432753Y-88773760D01*
X142399500Y-88983713D01*
X96846135Y-88983713D01*
X96869737Y-88926732D01*
X96900500Y-88772077D01*
X96900500Y-88614393D01*
X96900500Y-88614390D01*
X96900499Y-88614388D01*
X96878378Y-88503179D01*
X96869737Y-88459738D01*
X96842105Y-88393028D01*
X96809397Y-88314062D01*
X96809390Y-88314049D01*
X96721789Y-88182946D01*
X96721786Y-88182942D01*
X96610292Y-88071448D01*
X96610288Y-88071445D01*
X96479185Y-87983844D01*
X96479172Y-87983837D01*
X96333501Y-87923499D01*
X96333489Y-87923496D01*
X96178845Y-87892735D01*
X96178842Y-87892735D01*
X96021158Y-87892735D01*
X96021155Y-87892735D01*
X95866510Y-87923496D01*
X95866498Y-87923499D01*
X95720827Y-87983837D01*
X95720814Y-87983844D01*
X95589711Y-88071445D01*
X95589707Y-88071448D01*
X95478213Y-88182942D01*
X95478210Y-88182946D01*
X95390609Y-88314049D01*
X95390602Y-88314062D01*
X95330264Y-88459733D01*
X95330261Y-88459745D01*
X95299500Y-88614388D01*
X94434822Y-88614388D01*
X94463422Y-88571585D01*
X94484921Y-88539410D01*
X94509125Y-88503185D01*
X94509125Y-88503184D01*
X94509129Y-88503179D01*
X94569472Y-88357497D01*
X94600235Y-88202842D01*
X94600235Y-88045158D01*
X94600235Y-88045155D01*
X94600234Y-88045153D01*
X94576035Y-87923498D01*
X94569472Y-87890503D01*
X94564784Y-87879185D01*
X94509132Y-87744827D01*
X94509125Y-87744814D01*
X94421524Y-87613711D01*
X94421521Y-87613707D01*
X94310027Y-87502213D01*
X94310023Y-87502210D01*
X94258851Y-87468018D01*
X94214046Y-87414406D01*
X94205339Y-87345081D01*
X94235493Y-87282054D01*
X94280290Y-87250355D01*
X94379172Y-87209397D01*
X94379172Y-87209396D01*
X94379179Y-87209394D01*
X94510289Y-87121789D01*
X94621789Y-87010289D01*
X94709394Y-86879179D01*
X94760353Y-86756153D01*
X106797850Y-86756153D01*
X106797850Y-86913846D01*
X106828611Y-87068489D01*
X106828614Y-87068501D01*
X106888952Y-87214172D01*
X106888959Y-87214185D01*
X106976560Y-87345288D01*
X106976563Y-87345292D01*
X107088057Y-87456786D01*
X107088061Y-87456789D01*
X107219164Y-87544390D01*
X107219177Y-87544397D01*
X107364848Y-87604735D01*
X107364853Y-87604737D01*
X107519503Y-87635499D01*
X107519506Y-87635500D01*
X107519508Y-87635500D01*
X107677194Y-87635500D01*
X107677195Y-87635499D01*
X107831847Y-87604737D01*
X107977529Y-87544394D01*
X108108639Y-87456789D01*
X108220139Y-87345289D01*
X108307744Y-87214179D01*
X108368087Y-87068497D01*
X108398850Y-86913842D01*
X108398850Y-86756158D01*
X108398850Y-86756155D01*
X108398849Y-86756153D01*
X108393699Y-86730261D01*
X108368087Y-86601503D01*
X108358702Y-86578846D01*
X108307747Y-86455827D01*
X108307740Y-86455814D01*
X108220139Y-86324711D01*
X108220136Y-86324707D01*
X108108642Y-86213213D01*
X108108638Y-86213210D01*
X107977535Y-86125609D01*
X107977522Y-86125602D01*
X107831851Y-86065264D01*
X107831839Y-86065261D01*
X107677195Y-86034500D01*
X107677192Y-86034500D01*
X107519508Y-86034500D01*
X107519505Y-86034500D01*
X107364860Y-86065261D01*
X107364848Y-86065264D01*
X107219177Y-86125602D01*
X107219164Y-86125609D01*
X107088061Y-86213210D01*
X107088057Y-86213213D01*
X106976563Y-86324707D01*
X106976560Y-86324711D01*
X106888959Y-86455814D01*
X106888952Y-86455827D01*
X106828614Y-86601498D01*
X106828611Y-86601510D01*
X106797850Y-86756153D01*
X94760353Y-86756153D01*
X94769737Y-86733497D01*
X94772186Y-86721188D01*
X94800499Y-86578846D01*
X94800500Y-86578844D01*
X94800500Y-86421155D01*
X94800499Y-86421153D01*
X94781315Y-86324711D01*
X94769737Y-86266503D01*
X94769735Y-86266498D01*
X94709397Y-86120827D01*
X94709390Y-86120814D01*
X94621789Y-85989711D01*
X94621786Y-85989707D01*
X94510292Y-85878213D01*
X94510288Y-85878210D01*
X94379185Y-85790609D01*
X94379172Y-85790602D01*
X94233501Y-85730264D01*
X94233489Y-85730261D01*
X94078845Y-85699500D01*
X94078842Y-85699500D01*
X93921158Y-85699500D01*
X93921153Y-85699500D01*
X93774596Y-85728652D01*
X93705004Y-85722425D01*
X93649827Y-85679562D01*
X93626583Y-85613672D01*
X93642651Y-85545675D01*
X93662723Y-85519354D01*
X93671789Y-85510289D01*
X93759394Y-85379179D01*
X93819737Y-85233497D01*
X93850500Y-85078842D01*
X93850500Y-84921158D01*
X93850500Y-84921155D01*
X93850499Y-84921153D01*
X93821280Y-84774257D01*
X93819738Y-84766508D01*
X93819737Y-84766507D01*
X93819737Y-84766503D01*
X93815450Y-84756153D01*
X119160349Y-84756153D01*
X119160349Y-84913846D01*
X119191110Y-85068489D01*
X119191113Y-85068501D01*
X119251451Y-85214172D01*
X119251458Y-85214185D01*
X119339059Y-85345288D01*
X119339062Y-85345292D01*
X119450556Y-85456786D01*
X119450560Y-85456789D01*
X119581663Y-85544390D01*
X119581676Y-85544397D01*
X119727347Y-85604735D01*
X119727352Y-85604737D01*
X119819337Y-85623034D01*
X119882002Y-85635499D01*
X119882005Y-85635500D01*
X119882007Y-85635500D01*
X120039693Y-85635500D01*
X120039694Y-85635499D01*
X120194346Y-85604737D01*
X120307015Y-85558067D01*
X120340021Y-85544397D01*
X120340021Y-85544396D01*
X120340028Y-85544394D01*
X120471138Y-85456789D01*
X120582638Y-85345289D01*
X120670243Y-85214179D01*
X120730586Y-85068497D01*
X120761349Y-84913842D01*
X120761349Y-84756158D01*
X120761349Y-84756155D01*
X120761348Y-84756153D01*
X120756300Y-84730776D01*
X120730586Y-84601503D01*
X120701446Y-84531153D01*
X135550350Y-84531153D01*
X135550350Y-84688846D01*
X135581111Y-84843489D01*
X135581114Y-84843501D01*
X135641452Y-84989172D01*
X135641459Y-84989185D01*
X135729060Y-85120288D01*
X135729063Y-85120292D01*
X135840557Y-85231786D01*
X135840561Y-85231789D01*
X135971664Y-85319390D01*
X135971677Y-85319397D01*
X136115989Y-85379172D01*
X136117353Y-85379737D01*
X136268388Y-85409780D01*
X136272003Y-85410499D01*
X136272006Y-85410500D01*
X136272008Y-85410500D01*
X136429694Y-85410500D01*
X136429695Y-85410499D01*
X136584347Y-85379737D01*
X136730029Y-85319394D01*
X136861139Y-85231789D01*
X136972639Y-85120289D01*
X137060244Y-84989179D01*
X137120587Y-84843497D01*
X137151350Y-84688842D01*
X137151350Y-84531158D01*
X137151350Y-84531155D01*
X137151349Y-84531153D01*
X137143105Y-84489707D01*
X137120587Y-84376503D01*
X137063232Y-84238034D01*
X137060247Y-84230827D01*
X137060240Y-84230814D01*
X136972639Y-84099711D01*
X136972636Y-84099707D01*
X136861142Y-83988213D01*
X136861138Y-83988210D01*
X136760781Y-83921153D01*
X137660350Y-83921153D01*
X137660350Y-84078846D01*
X137691111Y-84233489D01*
X137691114Y-84233501D01*
X137751452Y-84379172D01*
X137751459Y-84379185D01*
X137839060Y-84510288D01*
X137839063Y-84510292D01*
X137950557Y-84621786D01*
X137950561Y-84621789D01*
X138081664Y-84709390D01*
X138081677Y-84709397D01*
X138194570Y-84756158D01*
X138227353Y-84769737D01*
X138382003Y-84800499D01*
X138382006Y-84800500D01*
X138382008Y-84800500D01*
X138539694Y-84800500D01*
X138539695Y-84800499D01*
X138694347Y-84769737D01*
X138840029Y-84709394D01*
X138971139Y-84621789D01*
X139082639Y-84510289D01*
X139170244Y-84379179D01*
X139171353Y-84376503D01*
X139192807Y-84324707D01*
X139230587Y-84233497D01*
X139261350Y-84078842D01*
X139261350Y-83921158D01*
X139261350Y-83921155D01*
X139261349Y-83921153D01*
X139230587Y-83766503D01*
X139220706Y-83742648D01*
X139170247Y-83620827D01*
X139170240Y-83620814D01*
X139082639Y-83489711D01*
X139082636Y-83489707D01*
X138971142Y-83378213D01*
X138971138Y-83378210D01*
X138840035Y-83290609D01*
X138840022Y-83290602D01*
X138694351Y-83230264D01*
X138694339Y-83230261D01*
X138539695Y-83199500D01*
X138539692Y-83199500D01*
X138382008Y-83199500D01*
X138382005Y-83199500D01*
X138227360Y-83230261D01*
X138227348Y-83230264D01*
X138081677Y-83290602D01*
X138081664Y-83290609D01*
X137950561Y-83378210D01*
X137950557Y-83378213D01*
X137839063Y-83489707D01*
X137839060Y-83489711D01*
X137751459Y-83620814D01*
X137751452Y-83620827D01*
X137691114Y-83766498D01*
X137691111Y-83766510D01*
X137660350Y-83921153D01*
X136760781Y-83921153D01*
X136730035Y-83900609D01*
X136730022Y-83900602D01*
X136584351Y-83840264D01*
X136584339Y-83840261D01*
X136429695Y-83809500D01*
X136429692Y-83809500D01*
X136272008Y-83809500D01*
X136272005Y-83809500D01*
X136117360Y-83840261D01*
X136117348Y-83840264D01*
X135971677Y-83900602D01*
X135971664Y-83900609D01*
X135840561Y-83988210D01*
X135840557Y-83988213D01*
X135729063Y-84099707D01*
X135729060Y-84099711D01*
X135641459Y-84230814D01*
X135641452Y-84230827D01*
X135581114Y-84376498D01*
X135581111Y-84376510D01*
X135550350Y-84531153D01*
X120701446Y-84531153D01*
X120684279Y-84489707D01*
X120670246Y-84455827D01*
X120670239Y-84455814D01*
X120582638Y-84324711D01*
X120582635Y-84324707D01*
X120471141Y-84213213D01*
X120471137Y-84213210D01*
X120340034Y-84125609D01*
X120340021Y-84125602D01*
X120194350Y-84065264D01*
X120194338Y-84065261D01*
X120039694Y-84034500D01*
X120039691Y-84034500D01*
X119882007Y-84034500D01*
X119882004Y-84034500D01*
X119727359Y-84065261D01*
X119727347Y-84065264D01*
X119581676Y-84125602D01*
X119581663Y-84125609D01*
X119450560Y-84213210D01*
X119450556Y-84213213D01*
X119339062Y-84324707D01*
X119339059Y-84324711D01*
X119251458Y-84455814D01*
X119251451Y-84455827D01*
X119191113Y-84601498D01*
X119191110Y-84601510D01*
X119160349Y-84756153D01*
X93815450Y-84756153D01*
X93788968Y-84692219D01*
X93759397Y-84620827D01*
X93759390Y-84620814D01*
X93671789Y-84489711D01*
X93671786Y-84489707D01*
X93560292Y-84378213D01*
X93560288Y-84378210D01*
X93429185Y-84290609D01*
X93429172Y-84290602D01*
X93283501Y-84230264D01*
X93283489Y-84230261D01*
X93128845Y-84199500D01*
X93128842Y-84199500D01*
X92971158Y-84199500D01*
X92971155Y-84199500D01*
X92816510Y-84230261D01*
X92816498Y-84230264D01*
X92670827Y-84290602D01*
X92670814Y-84290609D01*
X92539711Y-84378210D01*
X92539707Y-84378213D01*
X92428213Y-84489707D01*
X92428210Y-84489711D01*
X92340609Y-84620814D01*
X92340602Y-84620827D01*
X92280264Y-84766498D01*
X92280261Y-84766510D01*
X92249500Y-84921153D01*
X90300499Y-84921153D01*
X90285052Y-84843497D01*
X90269737Y-84766503D01*
X90238968Y-84692219D01*
X90209397Y-84620827D01*
X90209390Y-84620814D01*
X90121789Y-84489711D01*
X90121786Y-84489707D01*
X90010292Y-84378213D01*
X90010288Y-84378210D01*
X89879185Y-84290609D01*
X89879172Y-84290602D01*
X89733501Y-84230264D01*
X89733489Y-84230261D01*
X89578845Y-84199500D01*
X89578842Y-84199500D01*
X89421158Y-84199500D01*
X89421155Y-84199500D01*
X89266510Y-84230261D01*
X89266498Y-84230264D01*
X89120827Y-84290602D01*
X89120814Y-84290609D01*
X88989711Y-84378210D01*
X88989707Y-84378213D01*
X88878213Y-84489707D01*
X88878210Y-84489711D01*
X88790609Y-84620814D01*
X88790602Y-84620827D01*
X88730264Y-84766498D01*
X88730261Y-84766510D01*
X88699500Y-84921153D01*
X77607076Y-84921153D01*
X77545220Y-84730781D01*
X77545218Y-84730778D01*
X77545218Y-84730776D01*
X77511503Y-84664607D01*
X77452287Y-84548390D01*
X77436463Y-84526610D01*
X77331971Y-84382786D01*
X77187213Y-84238028D01*
X77021613Y-84117715D01*
X77021612Y-84117714D01*
X77021610Y-84117713D01*
X76964653Y-84088691D01*
X76839223Y-84024781D01*
X76644534Y-83961522D01*
X76469995Y-83933878D01*
X76442352Y-83929500D01*
X76237648Y-83929500D01*
X76213329Y-83933351D01*
X76035465Y-83961522D01*
X75840776Y-84024781D01*
X75658386Y-84117715D01*
X75492786Y-84238028D01*
X75348028Y-84382786D01*
X75227715Y-84548386D01*
X75134781Y-84730776D01*
X75071522Y-84925465D01*
X75039500Y-85127648D01*
X73779633Y-85127648D01*
X73783154Y-85123812D01*
X73808868Y-85112069D01*
X73851508Y-85098213D01*
X73999219Y-85050220D01*
X74181610Y-84957287D01*
X74274590Y-84889732D01*
X74347213Y-84836971D01*
X74347215Y-84836968D01*
X74347219Y-84836966D01*
X74491966Y-84692219D01*
X74491968Y-84692215D01*
X74491971Y-84692213D01*
X74578932Y-84572519D01*
X74612287Y-84526610D01*
X74705220Y-84344219D01*
X74768477Y-84149534D01*
X74800500Y-83947352D01*
X74800500Y-83742648D01*
X74768477Y-83540466D01*
X74751984Y-83489707D01*
X74705218Y-83345776D01*
X74666474Y-83269737D01*
X74612287Y-83163390D01*
X74604556Y-83152749D01*
X74491971Y-82997786D01*
X74347213Y-82853028D01*
X74181613Y-82732715D01*
X74181612Y-82732714D01*
X74181610Y-82732713D01*
X74124653Y-82703691D01*
X73999223Y-82639781D01*
X73804534Y-82576522D01*
X73629995Y-82548878D01*
X73602352Y-82544500D01*
X73397648Y-82544500D01*
X73373329Y-82548351D01*
X73195465Y-82576522D01*
X73000776Y-82639781D01*
X72818386Y-82732715D01*
X72652786Y-82853028D01*
X72508028Y-82997786D01*
X72387715Y-83163386D01*
X72294781Y-83345776D01*
X72231522Y-83540465D01*
X72199500Y-83742648D01*
X69000500Y-83742648D01*
X69000500Y-82421153D01*
X82287000Y-82421153D01*
X82287000Y-82578846D01*
X82317761Y-82733489D01*
X82317764Y-82733501D01*
X82378102Y-82879172D01*
X82378109Y-82879185D01*
X82465710Y-83010288D01*
X82465713Y-83010292D01*
X82577207Y-83121786D01*
X82577211Y-83121789D01*
X82708314Y-83209390D01*
X82708327Y-83209397D01*
X82853998Y-83269735D01*
X82854003Y-83269737D01*
X83008653Y-83300499D01*
X83008656Y-83300500D01*
X83008658Y-83300500D01*
X83166344Y-83300500D01*
X83166345Y-83300499D01*
X83320997Y-83269737D01*
X83466679Y-83209394D01*
X83597789Y-83121789D01*
X83709289Y-83010289D01*
X83796894Y-82879179D01*
X83857237Y-82733497D01*
X83888000Y-82578842D01*
X83888000Y-82421158D01*
X83888000Y-82421155D01*
X83887999Y-82421153D01*
X83857238Y-82266510D01*
X83857237Y-82266503D01*
X83843562Y-82233489D01*
X83796897Y-82120827D01*
X83796890Y-82120814D01*
X83709290Y-81989712D01*
X83709284Y-81989705D01*
X83640732Y-81921153D01*
X102699500Y-81921153D01*
X102699500Y-82078846D01*
X102730261Y-82233489D01*
X102730264Y-82233501D01*
X102790602Y-82379172D01*
X102790609Y-82379185D01*
X102878210Y-82510288D01*
X102878213Y-82510292D01*
X102989707Y-82621786D01*
X102989711Y-82621789D01*
X103120814Y-82709390D01*
X103120827Y-82709397D01*
X103266498Y-82769735D01*
X103266503Y-82769737D01*
X103421153Y-82800499D01*
X103421156Y-82800500D01*
X103421158Y-82800500D01*
X103578844Y-82800500D01*
X103578845Y-82800499D01*
X103733497Y-82769737D01*
X103879179Y-82709394D01*
X104010289Y-82621789D01*
X104121789Y-82510289D01*
X104209394Y-82379179D01*
X104269737Y-82233497D01*
X104300500Y-82078842D01*
X104300500Y-81921158D01*
X104300500Y-81921155D01*
X104300499Y-81921153D01*
X104274531Y-81790606D01*
X104269737Y-81766503D01*
X104266091Y-81757701D01*
X104209397Y-81620827D01*
X104209390Y-81620814D01*
X104121789Y-81489711D01*
X104121786Y-81489707D01*
X104045468Y-81413389D01*
X143385349Y-81413389D01*
X143385349Y-81586611D01*
X143412447Y-81757701D01*
X143465976Y-81922445D01*
X143544617Y-82076788D01*
X143646435Y-82216928D01*
X143768921Y-82339414D01*
X143909061Y-82441232D01*
X144063404Y-82519873D01*
X144228148Y-82573402D01*
X144399238Y-82600500D01*
X144399239Y-82600500D01*
X144572459Y-82600500D01*
X144572460Y-82600500D01*
X144743550Y-82573402D01*
X144908294Y-82519873D01*
X145062637Y-82441232D01*
X145202777Y-82339414D01*
X145325263Y-82216928D01*
X145385531Y-82133975D01*
X145440861Y-82091311D01*
X145510475Y-82085332D01*
X145572270Y-82117938D01*
X145586164Y-82133973D01*
X145646435Y-82216928D01*
X145768921Y-82339414D01*
X145909061Y-82441232D01*
X146063404Y-82519873D01*
X146228148Y-82573402D01*
X146399238Y-82600500D01*
X146399239Y-82600500D01*
X146572459Y-82600500D01*
X146572460Y-82600500D01*
X146743550Y-82573402D01*
X146908294Y-82519873D01*
X147062637Y-82441232D01*
X147202777Y-82339414D01*
X147325263Y-82216928D01*
X147427081Y-82076788D01*
X147505722Y-81922445D01*
X147559251Y-81757701D01*
X147586349Y-81586611D01*
X147586349Y-81413389D01*
X147559251Y-81242299D01*
X147505722Y-81077555D01*
X147427081Y-80923212D01*
X147325263Y-80783072D01*
X147202777Y-80660586D01*
X147062637Y-80558768D01*
X146908294Y-80480127D01*
X146743550Y-80426598D01*
X146743548Y-80426597D01*
X146743547Y-80426597D01*
X146612120Y-80405781D01*
X146572460Y-80399500D01*
X146399238Y-80399500D01*
X146359577Y-80405781D01*
X146228151Y-80426597D01*
X146063401Y-80480128D01*
X145909060Y-80558768D01*
X145829105Y-80616859D01*
X145768921Y-80660586D01*
X145768919Y-80660588D01*
X145768918Y-80660588D01*
X145646437Y-80783069D01*
X145646430Y-80783078D01*
X145586166Y-80866023D01*
X145530836Y-80908689D01*
X145461223Y-80914667D01*
X145399428Y-80882061D01*
X145385532Y-80866023D01*
X145325267Y-80783078D01*
X145325263Y-80783072D01*
X145202777Y-80660586D01*
X145062637Y-80558768D01*
X144908294Y-80480127D01*
X144743550Y-80426598D01*
X144743548Y-80426597D01*
X144743547Y-80426597D01*
X144612120Y-80405781D01*
X144572460Y-80399500D01*
X144399238Y-80399500D01*
X144359577Y-80405781D01*
X144228151Y-80426597D01*
X144063401Y-80480128D01*
X143909060Y-80558768D01*
X143829105Y-80616859D01*
X143768921Y-80660586D01*
X143768919Y-80660588D01*
X143768918Y-80660588D01*
X143646437Y-80783069D01*
X143646437Y-80783070D01*
X143646435Y-80783072D01*
X143646431Y-80783078D01*
X143544617Y-80923211D01*
X143465977Y-81077552D01*
X143465976Y-81077554D01*
X143465976Y-81077555D01*
X143457145Y-81104735D01*
X143412446Y-81242302D01*
X143404796Y-81290606D01*
X143385349Y-81413389D01*
X104045468Y-81413389D01*
X104010292Y-81378213D01*
X104010288Y-81378210D01*
X103879185Y-81290609D01*
X103879172Y-81290602D01*
X103733501Y-81230264D01*
X103733489Y-81230261D01*
X103578845Y-81199500D01*
X103578842Y-81199500D01*
X103421158Y-81199500D01*
X103421155Y-81199500D01*
X103266510Y-81230261D01*
X103266498Y-81230264D01*
X103120827Y-81290602D01*
X103120814Y-81290609D01*
X102989711Y-81378210D01*
X102989707Y-81378213D01*
X102878213Y-81489707D01*
X102878210Y-81489711D01*
X102790609Y-81620814D01*
X102790602Y-81620827D01*
X102730264Y-81766498D01*
X102730261Y-81766510D01*
X102699500Y-81921153D01*
X83640732Y-81921153D01*
X83597792Y-81878213D01*
X83597788Y-81878210D01*
X83466685Y-81790609D01*
X83466672Y-81790602D01*
X83321001Y-81730264D01*
X83320989Y-81730261D01*
X83166345Y-81699500D01*
X83166342Y-81699500D01*
X83008658Y-81699500D01*
X83008655Y-81699500D01*
X82854010Y-81730261D01*
X82853998Y-81730264D01*
X82708327Y-81790602D01*
X82708314Y-81790609D01*
X82577211Y-81878210D01*
X82577207Y-81878213D01*
X82465713Y-81989707D01*
X82465710Y-81989711D01*
X82378109Y-82120814D01*
X82378102Y-82120827D01*
X82317764Y-82266498D01*
X82317761Y-82266510D01*
X82287000Y-82421153D01*
X69000500Y-82421153D01*
X69000500Y-80256153D01*
X124160349Y-80256153D01*
X124160349Y-80413846D01*
X124191110Y-80568489D01*
X124191113Y-80568501D01*
X124251451Y-80714172D01*
X124251458Y-80714185D01*
X124339059Y-80845288D01*
X124339062Y-80845292D01*
X124450556Y-80956786D01*
X124450560Y-80956789D01*
X124581663Y-81044390D01*
X124581676Y-81044397D01*
X124680909Y-81085500D01*
X124727352Y-81104737D01*
X124882002Y-81135499D01*
X124882005Y-81135500D01*
X124882007Y-81135500D01*
X125039693Y-81135500D01*
X125039694Y-81135499D01*
X125194346Y-81104737D01*
X125340028Y-81044394D01*
X125471138Y-80956789D01*
X125582638Y-80845289D01*
X125670243Y-80714179D01*
X125730586Y-80568497D01*
X125761349Y-80413842D01*
X125761349Y-80256158D01*
X125761349Y-80256155D01*
X125755004Y-80224258D01*
X125755004Y-80224257D01*
X125751403Y-80206153D01*
X127060349Y-80206153D01*
X127060349Y-80363846D01*
X127091110Y-80518489D01*
X127091113Y-80518501D01*
X127151451Y-80664172D01*
X127151458Y-80664185D01*
X127239059Y-80795288D01*
X127239062Y-80795292D01*
X127350556Y-80906786D01*
X127350560Y-80906789D01*
X127481663Y-80994390D01*
X127481676Y-80994397D01*
X127627347Y-81054735D01*
X127627352Y-81054737D01*
X127782002Y-81085499D01*
X127782005Y-81085500D01*
X127782007Y-81085500D01*
X127939693Y-81085500D01*
X127939694Y-81085499D01*
X128094346Y-81054737D01*
X128240028Y-80994394D01*
X128371138Y-80906789D01*
X128373161Y-80904766D01*
X128374483Y-80904043D01*
X128375848Y-80902924D01*
X128376060Y-80903182D01*
X128434481Y-80871276D01*
X128504173Y-80876255D01*
X128545788Y-80902999D01*
X128545850Y-80902924D01*
X128546497Y-80903454D01*
X128548537Y-80904766D01*
X128550560Y-80906789D01*
X128681663Y-80994390D01*
X128681676Y-80994397D01*
X128827347Y-81054735D01*
X128827352Y-81054737D01*
X128982002Y-81085499D01*
X128982005Y-81085500D01*
X128982007Y-81085500D01*
X129139693Y-81085500D01*
X129139694Y-81085499D01*
X129294346Y-81054737D01*
X129440028Y-80994394D01*
X129571138Y-80906789D01*
X129682638Y-80795289D01*
X129770243Y-80664179D01*
X129771731Y-80660588D01*
X129830584Y-80518501D01*
X129830586Y-80518497D01*
X129861349Y-80363842D01*
X129861349Y-80206158D01*
X129861349Y-80206155D01*
X129861348Y-80206153D01*
X129840533Y-80101510D01*
X129830586Y-80051503D01*
X129790951Y-79955814D01*
X129770246Y-79905827D01*
X129770239Y-79905814D01*
X129682638Y-79774711D01*
X129682635Y-79774707D01*
X129571141Y-79663213D01*
X129571137Y-79663210D01*
X129440034Y-79575609D01*
X129440021Y-79575602D01*
X129294350Y-79515264D01*
X129294338Y-79515261D01*
X129139694Y-79484500D01*
X129139691Y-79484500D01*
X128982007Y-79484500D01*
X128982004Y-79484500D01*
X128827359Y-79515261D01*
X128827347Y-79515264D01*
X128681676Y-79575602D01*
X128681663Y-79575609D01*
X128550560Y-79663210D01*
X128550556Y-79663213D01*
X128548530Y-79665240D01*
X128547206Y-79665962D01*
X128545850Y-79667076D01*
X128545638Y-79666818D01*
X128487207Y-79698725D01*
X128417515Y-79693741D01*
X128375909Y-79667001D01*
X128375848Y-79667076D01*
X128375209Y-79666552D01*
X128373168Y-79665240D01*
X128371141Y-79663213D01*
X128371137Y-79663210D01*
X128240034Y-79575609D01*
X128240021Y-79575602D01*
X128094350Y-79515264D01*
X128094338Y-79515261D01*
X127939694Y-79484500D01*
X127939691Y-79484500D01*
X127782007Y-79484500D01*
X127782004Y-79484500D01*
X127627359Y-79515261D01*
X127627347Y-79515264D01*
X127481676Y-79575602D01*
X127481663Y-79575609D01*
X127350560Y-79663210D01*
X127350556Y-79663213D01*
X127239062Y-79774707D01*
X127239059Y-79774711D01*
X127151458Y-79905814D01*
X127151451Y-79905827D01*
X127091113Y-80051498D01*
X127091110Y-80051510D01*
X127060349Y-80206153D01*
X125751403Y-80206153D01*
X125730587Y-80101510D01*
X125730586Y-80101503D01*
X125730584Y-80101498D01*
X125670246Y-79955827D01*
X125670239Y-79955814D01*
X125582638Y-79824711D01*
X125582635Y-79824707D01*
X125471141Y-79713213D01*
X125471137Y-79713210D01*
X125340034Y-79625609D01*
X125340021Y-79625602D01*
X125194350Y-79565264D01*
X125194338Y-79565261D01*
X125039694Y-79534500D01*
X125039691Y-79534500D01*
X124882007Y-79534500D01*
X124882004Y-79534500D01*
X124727359Y-79565261D01*
X124727347Y-79565264D01*
X124581676Y-79625602D01*
X124581663Y-79625609D01*
X124450560Y-79713210D01*
X124450556Y-79713213D01*
X124339062Y-79824707D01*
X124339059Y-79824711D01*
X124251458Y-79955814D01*
X124251451Y-79955827D01*
X124191113Y-80101498D01*
X124191110Y-80101510D01*
X124160349Y-80256153D01*
X69000500Y-80256153D01*
X69000500Y-75359568D01*
X70999500Y-75359568D01*
X70999500Y-75640431D01*
X71030942Y-75919494D01*
X71030945Y-75919512D01*
X71093439Y-76193317D01*
X71093443Y-76193329D01*
X71186200Y-76458411D01*
X71308053Y-76711442D01*
X71308055Y-76711445D01*
X71457477Y-76949248D01*
X71632584Y-77168825D01*
X71831175Y-77367416D01*
X72050752Y-77542523D01*
X72288555Y-77691945D01*
X72541592Y-77813801D01*
X72740680Y-77883465D01*
X72806670Y-77906556D01*
X72806682Y-77906560D01*
X73080491Y-77969055D01*
X73080497Y-77969055D01*
X73080505Y-77969057D01*
X73266547Y-77990018D01*
X73359569Y-78000499D01*
X73359572Y-78000500D01*
X73359575Y-78000500D01*
X73640428Y-78000500D01*
X73640429Y-78000499D01*
X73783055Y-77984429D01*
X73919494Y-77969057D01*
X73919499Y-77969056D01*
X73919509Y-77969055D01*
X74193318Y-77906560D01*
X74458408Y-77813801D01*
X74711445Y-77691945D01*
X74949248Y-77542523D01*
X75168825Y-77367416D01*
X75367416Y-77168825D01*
X75542523Y-76949248D01*
X75691945Y-76711445D01*
X75813801Y-76458408D01*
X75906560Y-76193318D01*
X75969055Y-75919509D01*
X76000500Y-75640425D01*
X76000500Y-75359575D01*
X75993901Y-75301007D01*
X75989726Y-75263950D01*
X75989726Y-75263949D01*
X75988848Y-75256153D01*
X148572849Y-75256153D01*
X148572849Y-75413846D01*
X148603610Y-75568489D01*
X148603613Y-75568501D01*
X148663951Y-75714172D01*
X148663958Y-75714185D01*
X148751559Y-75845288D01*
X148751562Y-75845292D01*
X148863056Y-75956786D01*
X148863060Y-75956789D01*
X148994163Y-76044390D01*
X148994176Y-76044397D01*
X149139847Y-76104735D01*
X149139852Y-76104737D01*
X149294502Y-76135499D01*
X149294505Y-76135500D01*
X149294507Y-76135500D01*
X149452193Y-76135500D01*
X149452194Y-76135499D01*
X149606846Y-76104737D01*
X149752528Y-76044394D01*
X149883638Y-75956789D01*
X149885661Y-75954766D01*
X149886983Y-75954043D01*
X149888348Y-75952924D01*
X149888560Y-75953182D01*
X149946981Y-75921276D01*
X150016673Y-75926255D01*
X150058288Y-75952999D01*
X150058350Y-75952924D01*
X150058997Y-75953454D01*
X150061037Y-75954766D01*
X150063060Y-75956789D01*
X150194163Y-76044390D01*
X150194176Y-76044397D01*
X150339847Y-76104735D01*
X150339852Y-76104737D01*
X150494502Y-76135499D01*
X150494505Y-76135500D01*
X150494507Y-76135500D01*
X150652193Y-76135500D01*
X150652194Y-76135499D01*
X150806846Y-76104737D01*
X150952528Y-76044394D01*
X151083638Y-75956789D01*
X151119274Y-75921153D01*
X152835349Y-75921153D01*
X152835349Y-76078846D01*
X152866110Y-76233489D01*
X152866113Y-76233501D01*
X152926451Y-76379172D01*
X152926458Y-76379185D01*
X153014059Y-76510288D01*
X153014062Y-76510292D01*
X153125556Y-76621786D01*
X153125560Y-76621789D01*
X153256663Y-76709390D01*
X153256676Y-76709397D01*
X153402347Y-76769735D01*
X153402352Y-76769737D01*
X153557002Y-76800499D01*
X153557005Y-76800500D01*
X153557007Y-76800500D01*
X153714693Y-76800500D01*
X153714694Y-76800499D01*
X153869346Y-76769737D01*
X153982015Y-76723067D01*
X154015021Y-76709397D01*
X154015021Y-76709396D01*
X154015028Y-76709394D01*
X154146138Y-76621789D01*
X154257638Y-76510289D01*
X154345243Y-76379179D01*
X154405586Y-76233497D01*
X154436349Y-76078842D01*
X154436349Y-75921158D01*
X154436349Y-75921155D01*
X154436348Y-75921153D01*
X154421258Y-75845291D01*
X154405586Y-75766503D01*
X154405584Y-75766498D01*
X154345246Y-75620827D01*
X154345239Y-75620814D01*
X154257638Y-75489711D01*
X154257635Y-75489707D01*
X154146141Y-75378213D01*
X154146137Y-75378210D01*
X154108659Y-75353168D01*
X154015034Y-75290609D01*
X154015021Y-75290602D01*
X153931853Y-75256153D01*
X157160349Y-75256153D01*
X157160349Y-75413846D01*
X157191110Y-75568489D01*
X157191113Y-75568501D01*
X157251451Y-75714172D01*
X157251458Y-75714185D01*
X157339059Y-75845288D01*
X157339062Y-75845292D01*
X157450556Y-75956786D01*
X157450560Y-75956789D01*
X157581663Y-76044390D01*
X157581676Y-76044397D01*
X157727347Y-76104735D01*
X157727352Y-76104737D01*
X157882002Y-76135499D01*
X157882005Y-76135500D01*
X157882007Y-76135500D01*
X158039693Y-76135500D01*
X158039694Y-76135499D01*
X158194346Y-76104737D01*
X158340028Y-76044394D01*
X158471138Y-75956789D01*
X158582638Y-75845289D01*
X158670243Y-75714179D01*
X158730586Y-75568497D01*
X158761349Y-75413842D01*
X158761349Y-75256158D01*
X158761349Y-75256155D01*
X158761348Y-75256153D01*
X158730587Y-75101510D01*
X158730586Y-75101503D01*
X158730584Y-75101498D01*
X158670246Y-74955827D01*
X158670239Y-74955814D01*
X158582638Y-74824711D01*
X158582635Y-74824707D01*
X158471141Y-74713213D01*
X158471137Y-74713210D01*
X158340034Y-74625609D01*
X158340021Y-74625602D01*
X158194350Y-74565264D01*
X158194338Y-74565261D01*
X158039694Y-74534500D01*
X158039691Y-74534500D01*
X157882007Y-74534500D01*
X157882004Y-74534500D01*
X157727359Y-74565261D01*
X157727347Y-74565264D01*
X157581676Y-74625602D01*
X157581663Y-74625609D01*
X157450560Y-74713210D01*
X157450556Y-74713213D01*
X157339062Y-74824707D01*
X157339059Y-74824711D01*
X157251458Y-74955814D01*
X157251451Y-74955827D01*
X157191113Y-75101498D01*
X157191110Y-75101510D01*
X157160349Y-75256153D01*
X153931853Y-75256153D01*
X153869350Y-75230264D01*
X153869338Y-75230261D01*
X153714694Y-75199500D01*
X153714691Y-75199500D01*
X153557007Y-75199500D01*
X153557004Y-75199500D01*
X153402359Y-75230261D01*
X153402347Y-75230264D01*
X153256676Y-75290602D01*
X153256663Y-75290609D01*
X153125560Y-75378210D01*
X153125556Y-75378213D01*
X153014062Y-75489707D01*
X153014059Y-75489711D01*
X152926458Y-75620814D01*
X152926451Y-75620827D01*
X152866113Y-75766498D01*
X152866110Y-75766510D01*
X152835349Y-75921153D01*
X151119274Y-75921153D01*
X151195138Y-75845289D01*
X151282743Y-75714179D01*
X151343086Y-75568497D01*
X151373849Y-75413842D01*
X151373849Y-75256158D01*
X151373849Y-75256155D01*
X151373848Y-75256153D01*
X151343087Y-75101510D01*
X151343086Y-75101503D01*
X151343084Y-75101498D01*
X151282746Y-74955827D01*
X151282739Y-74955814D01*
X151195138Y-74824711D01*
X151195135Y-74824707D01*
X151083641Y-74713213D01*
X151083637Y-74713210D01*
X150952534Y-74625609D01*
X150952521Y-74625602D01*
X150806850Y-74565264D01*
X150806838Y-74565261D01*
X150652194Y-74534500D01*
X150652191Y-74534500D01*
X150494507Y-74534500D01*
X150494504Y-74534500D01*
X150339859Y-74565261D01*
X150339847Y-74565264D01*
X150194176Y-74625602D01*
X150194163Y-74625609D01*
X150063060Y-74713210D01*
X150063056Y-74713213D01*
X150061030Y-74715240D01*
X150059706Y-74715962D01*
X150058350Y-74717076D01*
X150058138Y-74716818D01*
X149999707Y-74748725D01*
X149930015Y-74743741D01*
X149888409Y-74717001D01*
X149888348Y-74717076D01*
X149887709Y-74716552D01*
X149885668Y-74715240D01*
X149883641Y-74713213D01*
X149883637Y-74713210D01*
X149752534Y-74625609D01*
X149752521Y-74625602D01*
X149606850Y-74565264D01*
X149606838Y-74565261D01*
X149452194Y-74534500D01*
X149452191Y-74534500D01*
X149294507Y-74534500D01*
X149294504Y-74534500D01*
X149139859Y-74565261D01*
X149139847Y-74565264D01*
X148994176Y-74625602D01*
X148994163Y-74625609D01*
X148863060Y-74713210D01*
X148863056Y-74713213D01*
X148751562Y-74824707D01*
X148751559Y-74824711D01*
X148663958Y-74955814D01*
X148663951Y-74955827D01*
X148603613Y-75101498D01*
X148603610Y-75101510D01*
X148572849Y-75256153D01*
X75988848Y-75256153D01*
X75969057Y-75080505D01*
X75969054Y-75080487D01*
X75906560Y-74806682D01*
X75906556Y-74806670D01*
X75883465Y-74740680D01*
X75813801Y-74541592D01*
X75691945Y-74288555D01*
X75542523Y-74050752D01*
X75367416Y-73831175D01*
X75168825Y-73632584D01*
X74949248Y-73457477D01*
X74711445Y-73308055D01*
X74711442Y-73308053D01*
X74458411Y-73186200D01*
X74193329Y-73093443D01*
X74193317Y-73093439D01*
X73919512Y-73030945D01*
X73919494Y-73030942D01*
X73640431Y-72999500D01*
X73640425Y-72999500D01*
X73359575Y-72999500D01*
X73359568Y-72999500D01*
X73080505Y-73030942D01*
X73080487Y-73030945D01*
X72806682Y-73093439D01*
X72806670Y-73093443D01*
X72541588Y-73186200D01*
X72288557Y-73308053D01*
X72050753Y-73457476D01*
X71831175Y-73632583D01*
X71632583Y-73831175D01*
X71457476Y-74050753D01*
X71308053Y-74288557D01*
X71186200Y-74541588D01*
X71093443Y-74806670D01*
X71093439Y-74806682D01*
X71030945Y-75080487D01*
X71030942Y-75080505D01*
X70999500Y-75359568D01*
X69000500Y-75359568D01*
X69000500Y-66128711D01*
X70649500Y-66128711D01*
X70649500Y-66371288D01*
X70681161Y-66611785D01*
X70743947Y-66846104D01*
X70836773Y-67070205D01*
X70836776Y-67070212D01*
X70958064Y-67280289D01*
X70958066Y-67280292D01*
X70958067Y-67280293D01*
X71105733Y-67472736D01*
X71105739Y-67472743D01*
X71277256Y-67644260D01*
X71277263Y-67644266D01*
X71331771Y-67686091D01*
X71469711Y-67791936D01*
X71679788Y-67913224D01*
X71903900Y-68006054D01*
X72138211Y-68068838D01*
X72318586Y-68092584D01*
X72378711Y-68100500D01*
X72378712Y-68100500D01*
X72621289Y-68100500D01*
X72669388Y-68094167D01*
X72861789Y-68068838D01*
X73096100Y-68006054D01*
X73320212Y-67913224D01*
X73530289Y-67791936D01*
X73722738Y-67644265D01*
X73894265Y-67472738D01*
X74041936Y-67280289D01*
X74163224Y-67070212D01*
X74256054Y-66846100D01*
X74318838Y-66611789D01*
X74346853Y-66398992D01*
X164999500Y-66398992D01*
X164999500Y-66801007D01*
X165038907Y-66999119D01*
X165038909Y-66999127D01*
X165116212Y-67185752D01*
X165116217Y-67185762D01*
X165228441Y-67353718D01*
X165371281Y-67496558D01*
X165539237Y-67608782D01*
X165539241Y-67608784D01*
X165539244Y-67608786D01*
X165725873Y-67686091D01*
X165923992Y-67725499D01*
X165923996Y-67725500D01*
X165923997Y-67725500D01*
X166126004Y-67725500D01*
X166126005Y-67725499D01*
X166324127Y-67686091D01*
X166510756Y-67608786D01*
X166678718Y-67496558D01*
X166821558Y-67353718D01*
X166933786Y-67185756D01*
X167011091Y-66999127D01*
X167050500Y-66801003D01*
X167050500Y-66398997D01*
X167050499Y-66398992D01*
X169449500Y-66398992D01*
X169449500Y-66801007D01*
X169488907Y-66999119D01*
X169488909Y-66999127D01*
X169566212Y-67185752D01*
X169566217Y-67185762D01*
X169678441Y-67353718D01*
X169821281Y-67496558D01*
X169989237Y-67608782D01*
X169989241Y-67608784D01*
X169989244Y-67608786D01*
X170175873Y-67686091D01*
X170373992Y-67725499D01*
X170373996Y-67725500D01*
X170373997Y-67725500D01*
X170576004Y-67725500D01*
X170576005Y-67725499D01*
X170774127Y-67686091D01*
X170960756Y-67608786D01*
X171128718Y-67496558D01*
X171271558Y-67353718D01*
X171383786Y-67185756D01*
X171461091Y-66999127D01*
X171500500Y-66801003D01*
X171500500Y-66398997D01*
X171461091Y-66200873D01*
X171431200Y-66128711D01*
X175899500Y-66128711D01*
X175899500Y-66371288D01*
X175931161Y-66611785D01*
X175993947Y-66846104D01*
X176086773Y-67070205D01*
X176086776Y-67070212D01*
X176208064Y-67280289D01*
X176208066Y-67280292D01*
X176208067Y-67280293D01*
X176355733Y-67472736D01*
X176355739Y-67472743D01*
X176527256Y-67644260D01*
X176527263Y-67644266D01*
X176581771Y-67686091D01*
X176719711Y-67791936D01*
X176929788Y-67913224D01*
X177153900Y-68006054D01*
X177388211Y-68068838D01*
X177568586Y-68092584D01*
X177628711Y-68100500D01*
X177628712Y-68100500D01*
X177871289Y-68100500D01*
X177919388Y-68094167D01*
X178111789Y-68068838D01*
X178346100Y-68006054D01*
X178570212Y-67913224D01*
X178780289Y-67791936D01*
X178972738Y-67644265D01*
X179144265Y-67472738D01*
X179291936Y-67280289D01*
X179413224Y-67070212D01*
X179506054Y-66846100D01*
X179568838Y-66611789D01*
X179600500Y-66371288D01*
X179600500Y-66128712D01*
X179568838Y-65888211D01*
X179506054Y-65653900D01*
X179413224Y-65429788D01*
X179291936Y-65219711D01*
X179144265Y-65027262D01*
X179144260Y-65027256D01*
X178972743Y-64855739D01*
X178972736Y-64855733D01*
X178780293Y-64708067D01*
X178780292Y-64708066D01*
X178780289Y-64708064D01*
X178570212Y-64586776D01*
X178570205Y-64586773D01*
X178346104Y-64493947D01*
X178111785Y-64431161D01*
X177871289Y-64399500D01*
X177871288Y-64399500D01*
X177628712Y-64399500D01*
X177628711Y-64399500D01*
X177388214Y-64431161D01*
X177153895Y-64493947D01*
X176929794Y-64586773D01*
X176929785Y-64586777D01*
X176719706Y-64708067D01*
X176527263Y-64855733D01*
X176527256Y-64855739D01*
X176355739Y-65027256D01*
X176355733Y-65027263D01*
X176208067Y-65219706D01*
X176086777Y-65429785D01*
X176086773Y-65429794D01*
X175993947Y-65653895D01*
X175931161Y-65888214D01*
X175899500Y-66128711D01*
X171431200Y-66128711D01*
X171383786Y-66014244D01*
X171383784Y-66014241D01*
X171383782Y-66014237D01*
X171271558Y-65846281D01*
X171128718Y-65703441D01*
X170960762Y-65591217D01*
X170960752Y-65591212D01*
X170774127Y-65513909D01*
X170774119Y-65513907D01*
X170576007Y-65474500D01*
X170576003Y-65474500D01*
X170373997Y-65474500D01*
X170373992Y-65474500D01*
X170175880Y-65513907D01*
X170175872Y-65513909D01*
X169989247Y-65591212D01*
X169989237Y-65591217D01*
X169821281Y-65703441D01*
X169678441Y-65846281D01*
X169566217Y-66014237D01*
X169566212Y-66014247D01*
X169488909Y-66200872D01*
X169488907Y-66200880D01*
X169449500Y-66398992D01*
X167050499Y-66398992D01*
X167011091Y-66200873D01*
X166933786Y-66014244D01*
X166933784Y-66014241D01*
X166933782Y-66014237D01*
X166821558Y-65846281D01*
X166678718Y-65703441D01*
X166510762Y-65591217D01*
X166510752Y-65591212D01*
X166324127Y-65513909D01*
X166324119Y-65513907D01*
X166126007Y-65474500D01*
X166126003Y-65474500D01*
X165923997Y-65474500D01*
X165923992Y-65474500D01*
X165725880Y-65513907D01*
X165725872Y-65513909D01*
X165539247Y-65591212D01*
X165539237Y-65591217D01*
X165371281Y-65703441D01*
X165228441Y-65846281D01*
X165116217Y-66014237D01*
X165116212Y-66014247D01*
X165038909Y-66200872D01*
X165038907Y-66200880D01*
X164999500Y-66398992D01*
X74346853Y-66398992D01*
X74350500Y-66371288D01*
X74350500Y-66128712D01*
X74318838Y-65888211D01*
X74256054Y-65653900D01*
X74163224Y-65429788D01*
X74041936Y-65219711D01*
X73894265Y-65027262D01*
X73894260Y-65027256D01*
X73722743Y-64855739D01*
X73722736Y-64855733D01*
X73530293Y-64708067D01*
X73530292Y-64708066D01*
X73530289Y-64708064D01*
X73320212Y-64586776D01*
X73320205Y-64586773D01*
X73096104Y-64493947D01*
X72861785Y-64431161D01*
X72621289Y-64399500D01*
X72621288Y-64399500D01*
X72378712Y-64399500D01*
X72378711Y-64399500D01*
X72138214Y-64431161D01*
X71903895Y-64493947D01*
X71679794Y-64586773D01*
X71679785Y-64586777D01*
X71469706Y-64708067D01*
X71277263Y-64855733D01*
X71277256Y-64855739D01*
X71105739Y-65027256D01*
X71105733Y-65027263D01*
X70958067Y-65219706D01*
X70836777Y-65429785D01*
X70836773Y-65429794D01*
X70743947Y-65653895D01*
X70681161Y-65888214D01*
X70649500Y-66128711D01*
X69000500Y-66128711D01*
X69000500Y-62624500D01*
X69020185Y-62557461D01*
X69072989Y-62511706D01*
X69124500Y-62500500D01*
X163075519Y-62500500D01*
X163142558Y-62520185D01*
G37*
%TD.AperFunction*%
%TD*%
M02*
