M48
; DRILL file {KiCad 9.0.6} date 2026-02-12T21:43:08-0500
; FORMAT={-:-/ absolute / metric / decimal}
; #@! TF.CreationDate,2026-02-12T21:43:08-05:00
; #@! TF.GenerationSoftware,Kicad,Pcbnew,9.0.6
; #@! TF.FileFunction,MixedPlating,1,4
FMAT,2
METRIC
; #@! TA.AperFunction,Plated,PTH,ViaDrill
T1C0.300
; #@! TA.AperFunction,Plated,PTH,ComponentDrill
T2C0.600
; #@! TA.AperFunction,Plated,PTH,ComponentDrill
T3C0.650
; #@! TA.AperFunction,Plated,PTH,ComponentDrill
T4C0.800
; #@! TA.AperFunction,Plated,PTH,ComponentDrill
T5C1.000
; #@! TA.AperFunction,Plated,PTH,ComponentDrill
T6C1.320
; #@! TA.AperFunction,Plated,PTH,ComponentDrill
T7C3.200
; #@! TA.AperFunction,NonPlated,NPTH,ComponentDrill
T8C2.390
; #@! TA.AperFunction,NonPlated,NPTH,ComponentDrill
T9C3.200
; #@! TA.AperFunction,NonPlated,NPTH,ComponentDrill
T10C3.550
%
G90
G05
T1
X81.5Y-87.5
X81.5Y-91.5
X81.75Y-92.75
X82.45Y-95.55
X83.087Y-82.5
X85.5Y-88.0
X89.5Y-85.0
X89.5Y-87.5
X91.5Y-90.5
X92.775Y-94.975
X93.05Y-85.0
X93.5Y-89.5
X93.598Y-97.335
X93.8Y-88.124
X94.0Y-86.5
X96.1Y-88.693
X98.598Y-99.335
X100.961Y-99.5
X102.873Y-99.4
X103.102Y-93.735
X103.5Y-82.0
X104.598Y-95.335
X104.598Y-100.835
X107.461Y-85.0
X107.598Y-86.835
X107.598Y-94.835
X107.773Y-96.5
X109.098Y-97.935
X109.204Y-89.894
X111.598Y-90.9
X111.823Y-97.459
X112.598Y-92.102
X112.773Y-96.509
X113.598Y-92.0
X114.5Y-93.302
X119.961Y-82.835
X119.961Y-84.835
X122.961Y-79.5
X124.961Y-80.335
X126.0Y-74.0
X126.361Y-85.335
X127.461Y-103.5
X127.861Y-80.285
X129.061Y-80.285
X130.461Y-102.835
X131.461Y-76.835
X131.636Y-84.0
X131.775Y-106.0
X136.351Y-84.61
X136.461Y-82.835
X137.094Y-94.702
X137.461Y-99.335
X138.136Y-97.5
X138.461Y-84.0
X139.961Y-91.835
X139.961Y-96.835
X140.967Y-93.533
X141.961Y-74.335
X149.373Y-75.335
X150.573Y-75.335
X151.961Y-71.835
X153.636Y-76.0
X153.636Y-78.335
X155.961Y-75.335
X157.75Y-63.75
X157.961Y-75.335
X159.136Y-92.335
X159.961Y-86.835
X161.961Y-91.0
X162.162Y-92.266
X163.461Y-83.335
X163.961Y-99.0
X164.961Y-83.335
X166.293Y-92.343
X170.0Y-68.75
X170.461Y-88.335
X170.961Y-90.835
X173.461Y-85.835
T4
X144.486Y-81.5
X146.486Y-81.5
X148.486Y-81.5
T5
X73.5Y-83.845
X73.5Y-86.615
X73.5Y-89.385
X73.5Y-92.155
X76.34Y-82.46
X76.34Y-85.23
X76.34Y-88.0
X76.34Y-90.77
X76.34Y-93.54
X143.75Y-89.09
X143.75Y-91.63
X143.75Y-94.17
X143.75Y-96.71
X143.75Y-99.25
X143.75Y-101.79
X151.686Y-90.88
X151.686Y-93.42
X151.686Y-95.96
X151.686Y-98.5
X151.686Y-101.04
X154.226Y-90.88
X154.226Y-93.42
X154.226Y-95.96
X154.226Y-98.5
X154.226Y-101.04
T6
X87.455Y-117.5
X159.675Y-117.5
T7
X73.5Y-75.5
X73.5Y-100.5
T8
X159.675Y-125.5
T9
X72.5Y-66.25
X72.5Y-126.0
X177.75Y-66.25
X177.75Y-126.0
T10
X96.275Y-125.5
X151.475Y-109.5
T2
G00X164.075Y-63.95
M15
G01X164.075Y-63.25
M16
G05
G00X172.425Y-63.95
M15
G01X172.425Y-63.25
M16
G05
T3
G00X166.025Y-66.7
M15
G01X166.025Y-66.5
M16
G05
G00X170.475Y-66.7
M15
G01X170.475Y-66.5
M16
G05
T4
G00X142.336Y-81.7
M15
G01X142.336Y-81.3
M16
G05
G00X150.636Y-81.7
M15
G01X150.636Y-81.3
M16
G05
M30
