%TF.GenerationSoftware,KiCad,Pcbnew,9.0.6*%
%TF.CreationDate,2026-03-06T18:04:39-05:00*%
%TF.ProjectId,EKG_AQUISITION_MSP430,454b475f-4151-4554-9953-4954494f4e5f,rev?*%
%TF.SameCoordinates,Original*%
%TF.FileFunction,Copper,L1,Top*%
%TF.FilePolarity,Positive*%
%FSLAX46Y46*%
G04 Gerber Fmt 4.6, Leading zero omitted, Abs format (unit mm)*
G04 Created by KiCad (PCBNEW 9.0.6) date 2026-03-06 18:04:39*
%MOMM*%
%LPD*%
G01*
G04 APERTURE LIST*
G04 Aperture macros list*
%AMRoundRect*
0 Rectangle with rounded corners*
0 $1 Rounding radius*
0 $2 $3 $4 $5 $6 $7 $8 $9 X,Y pos of 4 corners*
0 Add a 4 corners polygon primitive as box body*
4,1,4,$2,$3,$4,$5,$6,$7,$8,$9,$2,$3,0*
0 Add four circle primitives for the rounded corners*
1,1,$1+$1,$2,$3*
1,1,$1+$1,$4,$5*
1,1,$1+$1,$6,$7*
1,1,$1+$1,$8,$9*
0 Add four rect primitives between the rounded corners*
20,1,$1+$1,$2,$3,$4,$5,0*
20,1,$1+$1,$4,$5,$6,$7,0*
20,1,$1+$1,$6,$7,$8,$9,0*
20,1,$1+$1,$8,$9,$2,$3,0*%
G04 Aperture macros list end*
%TA.AperFunction,SMDPad,CuDef*%
%ADD10RoundRect,0.250000X-0.475000X0.250000X-0.475000X-0.250000X0.475000X-0.250000X0.475000X0.250000X0*%
%TD*%
%TA.AperFunction,SMDPad,CuDef*%
%ADD11RoundRect,0.225000X-0.225000X-0.250000X0.225000X-0.250000X0.225000X0.250000X-0.225000X0.250000X0*%
%TD*%
%TA.AperFunction,SMDPad,CuDef*%
%ADD12R,1.524000X0.228600*%
%TD*%
%TA.AperFunction,SMDPad,CuDef*%
%ADD13R,0.228600X1.524000*%
%TD*%
%TA.AperFunction,SMDPad,CuDef*%
%ADD14RoundRect,0.200000X-0.275000X0.200000X-0.275000X-0.200000X0.275000X-0.200000X0.275000X0.200000X0*%
%TD*%
%TA.AperFunction,SMDPad,CuDef*%
%ADD15RoundRect,0.200000X-0.200000X-0.275000X0.200000X-0.275000X0.200000X0.275000X-0.200000X0.275000X0*%
%TD*%
%TA.AperFunction,SMDPad,CuDef*%
%ADD16RoundRect,0.200000X0.200000X0.275000X-0.200000X0.275000X-0.200000X-0.275000X0.200000X-0.275000X0*%
%TD*%
%TA.AperFunction,SMDPad,CuDef*%
%ADD17RoundRect,0.225000X-0.250000X0.225000X-0.250000X-0.225000X0.250000X-0.225000X0.250000X0.225000X0*%
%TD*%
%TA.AperFunction,SMDPad,CuDef*%
%ADD18RoundRect,0.150000X-0.587500X-0.150000X0.587500X-0.150000X0.587500X0.150000X-0.587500X0.150000X0*%
%TD*%
%TA.AperFunction,SMDPad,CuDef*%
%ADD19RoundRect,0.250000X-0.250000X-0.475000X0.250000X-0.475000X0.250000X0.475000X-0.250000X0.475000X0*%
%TD*%
%TA.AperFunction,SMDPad,CuDef*%
%ADD20RoundRect,0.225000X0.250000X-0.225000X0.250000X0.225000X-0.250000X0.225000X-0.250000X-0.225000X0*%
%TD*%
%TA.AperFunction,SMDPad,CuDef*%
%ADD21RoundRect,0.225000X0.225000X0.250000X-0.225000X0.250000X-0.225000X-0.250000X0.225000X-0.250000X0*%
%TD*%
%TA.AperFunction,SMDPad,CuDef*%
%ADD22C,2.000000*%
%TD*%
%TA.AperFunction,ComponentPad*%
%ADD23C,1.600000*%
%TD*%
%TA.AperFunction,ComponentPad*%
%ADD24R,1.600000X1.600000*%
%TD*%
%TA.AperFunction,ComponentPad*%
%ADD25C,4.000000*%
%TD*%
%TA.AperFunction,SMDPad,CuDef*%
%ADD26RoundRect,0.200000X0.275000X-0.200000X0.275000X0.200000X-0.275000X0.200000X-0.275000X-0.200000X0*%
%TD*%
%TA.AperFunction,SMDPad,CuDef*%
%ADD27RoundRect,0.243750X-0.243750X-0.456250X0.243750X-0.456250X0.243750X0.456250X-0.243750X0.456250X0*%
%TD*%
%TA.AperFunction,SMDPad,CuDef*%
%ADD28RoundRect,0.250000X0.250000X0.475000X-0.250000X0.475000X-0.250000X-0.475000X0.250000X-0.475000X0*%
%TD*%
%TA.AperFunction,SMDPad,CuDef*%
%ADD29R,0.279400X1.676400*%
%TD*%
%TA.AperFunction,SMDPad,CuDef*%
%ADD30R,1.676400X0.279400*%
%TD*%
%TA.AperFunction,SMDPad,CuDef*%
%ADD31RoundRect,0.317500X-0.317500X0.609600X-0.317500X-0.609600X0.317500X-0.609600X0.317500X0.609600X0*%
%TD*%
%TA.AperFunction,ComponentPad*%
%ADD32R,1.700000X1.700000*%
%TD*%
%TA.AperFunction,ComponentPad*%
%ADD33C,1.700000*%
%TD*%
%TA.AperFunction,SMDPad,CuDef*%
%ADD34R,0.660400X1.422400*%
%TD*%
%TA.AperFunction,SMDPad,CuDef*%
%ADD35R,3.000000X0.900000*%
%TD*%
%TA.AperFunction,ComponentPad*%
%ADD36C,1.980000*%
%TD*%
%TA.AperFunction,SMDPad,CuDef*%
%ADD37RoundRect,0.062500X-0.375000X-0.062500X0.375000X-0.062500X0.375000X0.062500X-0.375000X0.062500X0*%
%TD*%
%TA.AperFunction,SMDPad,CuDef*%
%ADD38RoundRect,0.062500X-0.062500X-0.375000X0.062500X-0.375000X0.062500X0.375000X-0.062500X0.375000X0*%
%TD*%
%TA.AperFunction,HeatsinkPad*%
%ADD39R,1.600000X1.600000*%
%TD*%
%TA.AperFunction,SMDPad,CuDef*%
%ADD40RoundRect,0.100000X0.100000X0.575000X-0.100000X0.575000X-0.100000X-0.575000X0.100000X-0.575000X0*%
%TD*%
%TA.AperFunction,HeatsinkPad*%
%ADD41O,1.000000X1.900000*%
%TD*%
%TA.AperFunction,SMDPad,CuDef*%
%ADD42R,0.875000X1.900000*%
%TD*%
%TA.AperFunction,HeatsinkPad*%
%ADD43O,1.050000X1.250000*%
%TD*%
%TA.AperFunction,SMDPad,CuDef*%
%ADD44RoundRect,0.250000X1.200000X0.700000X-1.200000X0.700000X-1.200000X-0.700000X1.200000X-0.700000X0*%
%TD*%
%TA.AperFunction,SMDPad,CuDef*%
%ADD45RoundRect,0.062500X-0.350000X-0.062500X0.350000X-0.062500X0.350000X0.062500X-0.350000X0.062500X0*%
%TD*%
%TA.AperFunction,HeatsinkPad*%
%ADD46R,1.200000X2.000000*%
%TD*%
%TA.AperFunction,ComponentPad*%
%ADD47C,1.200000*%
%TD*%
%TA.AperFunction,ComponentPad*%
%ADD48RoundRect,0.180000X0.420000X-0.720000X0.420000X0.720000X-0.420000X0.720000X-0.420000X-0.720000X0*%
%TD*%
%TA.AperFunction,ViaPad*%
%ADD49C,0.600000*%
%TD*%
%TA.AperFunction,Conductor*%
%ADD50C,0.300000*%
%TD*%
%TA.AperFunction,Conductor*%
%ADD51C,0.200000*%
%TD*%
%TA.AperFunction,Conductor*%
%ADD52C,0.400000*%
%TD*%
G04 APERTURE END LIST*
D10*
%TO.P,C9,1*%
%TO.N,Net-(U3-VREFP)*%
X102298350Y-94333300D03*
%TO.P,C9,2*%
%TO.N,GNDA*%
X102298350Y-96233300D03*
%TD*%
D11*
%TO.P,C1,1*%
%TO.N,/LF_IN*%
X95700000Y-85998300D03*
%TO.P,C1,2*%
%TO.N,GNDA*%
X97250000Y-85998300D03*
%TD*%
%TO.P,C4,1*%
%TO.N,/RLD*%
X106150000Y-83498300D03*
%TO.P,C4,2*%
%TO.N,GNDA*%
X107700000Y-83498300D03*
%TD*%
D12*
%TO.P,U3,1,PGA1N*%
%TO.N,unconnected-(U3-PGA1N-Pad1)*%
X102999150Y-87333301D03*
%TO.P,U3,2,PGA1P*%
%TO.N,unconnected-(U3-PGA1P-Pad2)*%
X102999150Y-87833300D03*
%TO.P,U3,3,IN1N*%
%TO.N,/RF_IN*%
X102999150Y-88333299D03*
%TO.P,U3,4,IN1P*%
%TO.N,/LF_IN*%
X102999150Y-88833300D03*
%TO.P,U3,5,IN2N*%
%TO.N,/RF_IN*%
X102999150Y-89333300D03*
%TO.P,U3,6,IN2P*%
%TO.N,/HB_IN*%
X102999150Y-89833301D03*
%TO.P,U3,7,PGA2N*%
%TO.N,unconnected-(U3-PGA2N-Pad7)*%
X102999150Y-90333300D03*
%TO.P,U3,8,PGA2P*%
%TO.N,unconnected-(U3-PGA2P-Pad8)*%
X102999150Y-90833299D03*
D13*
%TO.P,U3,9,VREFP*%
%TO.N,Net-(U3-VREFP)*%
X104398751Y-92232900D03*
%TO.P,U3,10,VREFN*%
%TO.N,GNDA*%
X104898750Y-92232900D03*
%TO.P,U3,11,VCAP1*%
%TO.N,Net-(U3-VCAP1)*%
X105398749Y-92232900D03*
%TO.P,U3,12,AVDD*%
%TO.N,+3V3*%
X105898750Y-92232900D03*
%TO.P,U3,13,AVSS*%
%TO.N,GNDA*%
X106398750Y-92232900D03*
%TO.P,U3,14,CLKSEL*%
%TO.N,Net-(R11-Pad1)*%
X106898751Y-92232900D03*
%TO.P,U3,15,\u002APWDN/\u002ARESET*%
%TO.N,MCU_RESET_N*%
X107398750Y-92232900D03*
%TO.P,U3,16,START*%
%TO.N,MCU_START*%
X107898749Y-92232900D03*
D12*
%TO.P,U3,17,CLKSEL*%
%TO.N,unconnected-(U3-CLKSEL-Pad17)*%
X109298350Y-90833299D03*
%TO.P,U3,18,\u002ACS*%
%TO.N,MCU_CS*%
X109298350Y-90333300D03*
%TO.P,U3,19,DIN*%
%TO.N,MCU_MOSI*%
X109298350Y-89833301D03*
%TO.P,U3,20,SCLK*%
%TO.N,MCU_SCLK*%
X109298350Y-89333300D03*
%TO.P,U3,21,DOUT*%
%TO.N,MCU_MISO*%
X109298350Y-88833300D03*
%TO.P,U3,22,\u002ADRDY*%
%TO.N,MCU_DRDY*%
X109298350Y-88333299D03*
%TO.P,U3,23,DVDD*%
%TO.N,+3V3*%
X109298350Y-87833300D03*
%TO.P,U3,24,DGND*%
%TO.N,GND*%
X109298350Y-87333301D03*
D13*
%TO.P,U3,25,GPIO2/RCLK2*%
%TO.N,unconnected-(U3-GPIO2{slash}RCLK2-Pad25)*%
X107898749Y-85933700D03*
%TO.P,U3,26,GPIO1/RCLK1*%
%TO.N,unconnected-(U3-GPIO1{slash}RCLK1-Pad26)*%
X107398750Y-85933700D03*
%TO.P,U3,27,VCAP2*%
%TO.N,Net-(U3-VCAP2)*%
X106898751Y-85933700D03*
%TO.P,U3,28,RLDINV*%
%TO.N,unconnected-(U3-RLDINV-Pad28)*%
X106398750Y-85933700D03*
%TO.P,U3,29,RLDIN/RLDREF*%
%TO.N,/RLD*%
X105898750Y-85933700D03*
%TO.P,U3,30,RLDOUT*%
%TO.N,unconnected-(U3-RLDOUT-Pad30)*%
X105398749Y-85933700D03*
%TO.P,U3,31,RESP_MODP/IN3P*%
%TO.N,unconnected-(U3-RESP_MODP{slash}IN3P-Pad31)*%
X104898750Y-85933700D03*
%TO.P,U3,32,RESP_MODN/IN3N*%
%TO.N,unconnected-(U3-RESP_MODN{slash}IN3N-Pad32)*%
X104398751Y-85933700D03*
%TD*%
D11*
%TO.P,C3,1*%
%TO.N,/HB_IN*%
X96425000Y-93498300D03*
%TO.P,C3,2*%
%TO.N,GNDA*%
X97975000Y-93498300D03*
%TD*%
D14*
%TO.P,R10,1*%
%TO.N,MCU_START*%
X115298350Y-94508300D03*
%TO.P,R10,2*%
%TO.N,GND*%
X115298350Y-96158300D03*
%TD*%
D15*
%TO.P,R6,1*%
%TO.N,/HB_IN*%
X100700000Y-82498300D03*
%TO.P,R6,2*%
%TO.N,/RLD*%
X102350000Y-82498300D03*
%TD*%
D16*
%TO.P,R4,1*%
%TO.N,/RLD*%
X95525000Y-82498300D03*
%TO.P,R4,2*%
%TO.N,/LF_IN*%
X93875000Y-82498300D03*
%TD*%
D17*
%TO.P,C10,1*%
%TO.N,Net-(U3-VCAP1)*%
X104473350Y-96673300D03*
%TO.P,C10,2*%
%TO.N,GND*%
X104473350Y-98223300D03*
%TD*%
D15*
%TO.P,R2,1*%
%TO.N,/RF*%
X92200000Y-89498300D03*
%TO.P,R2,2*%
%TO.N,/RF_IN*%
X93850000Y-89498300D03*
%TD*%
D14*
%TO.P,R9,1*%
%TO.N,MCU_RESET_N*%
X111298350Y-98333300D03*
%TO.P,R9,2*%
%TO.N,+3V3*%
X111298350Y-99983300D03*
%TD*%
D11*
%TO.P,C6,1*%
%TO.N,+3V3*%
X106523350Y-97833300D03*
%TO.P,C6,2*%
%TO.N,GNDA*%
X108073350Y-97833300D03*
%TD*%
D18*
%TO.P,D2,1,A*%
%TO.N,GNDA*%
X88762500Y-92548300D03*
%TO.P,D2,2,K*%
%TO.N,+3V3*%
X88762500Y-94448300D03*
%TO.P,D2,3,COM*%
%TO.N,/HB*%
X90637500Y-93498300D03*
%TD*%
D16*
%TO.P,R3,1*%
%TO.N,/LF_IN*%
X93700000Y-85998300D03*
%TO.P,R3,2*%
%TO.N,/LF*%
X92050000Y-85998300D03*
%TD*%
D19*
%TO.P,C5,1*%
%TO.N,+3V3*%
X106348350Y-95833300D03*
%TO.P,C5,2*%
%TO.N,GNDA*%
X108248350Y-95833300D03*
%TD*%
D20*
%TO.P,C7,1*%
%TO.N,+3V3*%
X111298350Y-86883300D03*
%TO.P,C7,2*%
%TO.N,GND*%
X111298350Y-85333300D03*
%TD*%
%TO.P,C8,1*%
%TO.N,GNDA*%
X100298350Y-96883300D03*
%TO.P,C8,2*%
%TO.N,Net-(U3-VREFP)*%
X100298350Y-95333300D03*
%TD*%
D18*
%TO.P,D1,1,A*%
%TO.N,GNDA*%
X88200000Y-84498300D03*
%TO.P,D1,2,K*%
%TO.N,+3V3*%
X88200000Y-86398300D03*
%TO.P,D1,3,COM*%
%TO.N,/LF*%
X90075000Y-85448300D03*
%TD*%
D15*
%TO.P,R5,1*%
%TO.N,/RF_IN*%
X97200000Y-82498300D03*
%TO.P,R5,2*%
%TO.N,/RLD*%
X98850000Y-82498300D03*
%TD*%
D21*
%TO.P,C2,1*%
%TO.N,GNDA*%
X97250000Y-89498300D03*
%TO.P,C2,2*%
%TO.N,/RF_IN*%
X95700000Y-89498300D03*
%TD*%
D18*
%TO.P,D3,1,A*%
%TO.N,GNDA*%
X88200000Y-88498300D03*
%TO.P,D3,2,K*%
%TO.N,+3V3*%
X88200000Y-90398300D03*
%TO.P,D3,3,COM*%
%TO.N,/RF*%
X90075000Y-89448300D03*
%TD*%
D15*
%TO.P,R11,1*%
%TO.N,Net-(R11-Pad1)*%
X109798350Y-93333300D03*
%TO.P,R11,2*%
%TO.N,+3V3*%
X111448350Y-93333300D03*
%TD*%
%TO.P,R1,1*%
%TO.N,/HB*%
X92700000Y-93498300D03*
%TO.P,R1,2*%
%TO.N,/HB_IN*%
X94350000Y-93498300D03*
%TD*%
D11*
%TO.P,C31,1*%
%TO.N,Net-(U3-VCAP2)*%
X110425000Y-81998300D03*
%TO.P,C31,2*%
%TO.N,GND*%
X111975000Y-81998300D03*
%TD*%
D22*
%TO.P,TP1,1,1*%
%TO.N,/RF_IN*%
X96950000Y-77748300D03*
%TD*%
%TO.P,TP2,1,1*%
%TO.N,/LF_IN*%
X93700000Y-77748300D03*
%TD*%
%TO.P,TP3,1,1*%
%TO.N,/HB_IN*%
X100200000Y-77748300D03*
%TD*%
D23*
%TO.P,J6,9,9*%
%TO.N,unconnected-(J6-Pad9)*%
X81160000Y-83845000D03*
%TO.P,J6,8,8*%
%TO.N,unconnected-(J6-Pad8)*%
X81160000Y-86615000D03*
%TO.P,J6,7,7*%
%TO.N,unconnected-(J6-Pad7)*%
X81160000Y-89385000D03*
%TO.P,J6,6,6*%
%TO.N,unconnected-(J6-Pad6)*%
X81160000Y-92155000D03*
%TO.P,J6,5,5*%
%TO.N,GND*%
X84000000Y-82460000D03*
%TO.P,J6,4,4*%
%TO.N,unconnected-(J6-Pad4)*%
X84000000Y-85230000D03*
%TO.P,J6,3,3*%
%TO.N,/LF*%
X84000000Y-88000000D03*
%TO.P,J6,2,2*%
%TO.N,/RF*%
X84000000Y-90770000D03*
D24*
%TO.P,J6,1,1*%
%TO.N,/HB*%
X84000000Y-93540000D03*
D25*
%TO.P,J6,0*%
%TO.N,N/C*%
X81160000Y-100500000D03*
X81160000Y-75500000D03*
%TD*%
D22*
%TO.P,TP4,1,1*%
%TO.N,+3V3*%
X150250000Y-67750000D03*
%TD*%
D17*
%TO.P,C28,1*%
%TO.N,GND*%
X134960850Y-83060000D03*
%TO.P,C28,2*%
%TO.N,+3V3*%
X134960850Y-84610000D03*
%TD*%
D20*
%TO.P,C30,1*%
%TO.N,Net-(U1-P5.2{slash}XT2IN)*%
X144500000Y-95000000D03*
%TO.P,C30,2*%
%TO.N,GND*%
X144500000Y-93450000D03*
%TD*%
D11*
%TO.P,C19,1*%
%TO.N,GND*%
X143910849Y-76310000D03*
%TO.P,C19,2*%
%TO.N,VSYS*%
X145460849Y-76310000D03*
%TD*%
D26*
%TO.P,R15,1*%
%TO.N,Net-(U4-ISET)*%
X163460849Y-86335000D03*
%TO.P,R15,2*%
%TO.N,GND*%
X163460849Y-84685000D03*
%TD*%
D27*
%TO.P,D5,1,K*%
%TO.N,Net-(D5-K)*%
X164985849Y-94000000D03*
%TO.P,D5,2,A*%
%TO.N,Net-(D5-A)*%
X166860849Y-94000000D03*
%TD*%
D28*
%TO.P,C24,1*%
%TO.N,GND*%
X169360849Y-90835000D03*
%TO.P,C24,2*%
%TO.N,VSYS*%
X167460849Y-90835000D03*
%TD*%
D19*
%TO.P,C20,1*%
%TO.N,GND*%
X152060849Y-73835000D03*
%TO.P,C20,2*%
%TO.N,+3V3*%
X153960849Y-73835000D03*
%TD*%
%TO.P,C21,1*%
%TO.N,GND*%
X143510849Y-74310000D03*
%TO.P,C21,2*%
%TO.N,VSYS*%
X145410849Y-74310000D03*
%TD*%
%TO.P,C27,1*%
%TO.N,GND*%
X122960849Y-81835000D03*
%TO.P,C27,2*%
%TO.N,+3V3*%
X124860849Y-81835000D03*
%TD*%
D11*
%TO.P,C12,1*%
%TO.N,GND*%
X123250000Y-83835000D03*
%TO.P,C12,2*%
%TO.N,+3V3*%
X124800000Y-83835000D03*
%TD*%
%TO.P,C26,1*%
%TO.N,GND*%
X153475000Y-63335000D03*
%TO.P,C26,2*%
%TO.N,Net-(J1-Shield)*%
X155025000Y-63335000D03*
%TD*%
D14*
%TO.P,R14,1*%
%TO.N,Net-(U1-P4.3{slash}PM_UCB1CLK{slash}PM_UCA1STE)*%
X125960849Y-103010000D03*
%TO.P,R14,2*%
%TO.N,MCU_SCLK*%
X125960849Y-104660000D03*
%TD*%
%TO.P,R13,1*%
%TO.N,+3V3*%
X137250000Y-86100000D03*
%TO.P,R13,2*%
%TO.N,/MCU/SBWDTIO*%
X137250000Y-87750000D03*
%TD*%
D15*
%TO.P,R22,1*%
%TO.N,Net-(D5-A)*%
X168485849Y-94000000D03*
%TO.P,R22,2*%
%TO.N,VSYS*%
X170135849Y-94000000D03*
%TD*%
D29*
%TO.P,U1,1,P6.4/CB4/A4*%
%TO.N,unconnected-(U1-P6.4{slash}CB4{slash}A4-Pad1)*%
X132960850Y-86835000D03*
%TO.P,U1,2,P6.5/CB5/A5*%
%TO.N,unconnected-(U1-P6.5{slash}CB5{slash}A5-Pad2)*%
X132460848Y-86835000D03*
%TO.P,U1,3,P6.6/CB6/A6*%
%TO.N,unconnected-(U1-P6.6{slash}CB6{slash}A6-Pad3)*%
X131960849Y-86835000D03*
%TO.P,U1,4,P6.7/CB7/A7*%
%TO.N,unconnected-(U1-P6.7{slash}CB7{slash}A7-Pad4)*%
X131460850Y-86835000D03*
%TO.P,U1,5,P7.0/CB8/A12*%
%TO.N,unconnected-(U1-P7.0{slash}CB8{slash}A12-Pad5)*%
X130960849Y-86835000D03*
%TO.P,U1,6,P7.1/CB9/A13*%
%TO.N,unconnected-(U1-P7.1{slash}CB9{slash}A13-Pad6)*%
X130460850Y-86835000D03*
%TO.P,U1,7,P7.2/CB10/A14*%
%TO.N,unconnected-(U1-P7.2{slash}CB10{slash}A14-Pad7)*%
X129960848Y-86835000D03*
%TO.P,U1,8,P7.3/CB11/A15*%
%TO.N,unconnected-(U1-P7.3{slash}CB11{slash}A15-Pad8)*%
X129460849Y-86835000D03*
%TO.P,U1,9,P5.0/A8/VREF+/VeREF+*%
%TO.N,unconnected-(U1-P5.0{slash}A8{slash}VREF+{slash}VeREF+-Pad9)*%
X128960850Y-86835000D03*
%TO.P,U1,10,P5.1/A9/VREF-/VeREF-*%
%TO.N,unconnected-(U1-P5.1{slash}A9{slash}VREF-{slash}VeREF--Pad10)*%
X128460849Y-86835000D03*
%TO.P,U1,11,AVCC1*%
%TO.N,+3V3*%
X127960849Y-86835000D03*
%TO.P,U1,12,P5.4/XIN*%
%TO.N,Net-(U1-P5.4{slash}XIN)*%
X127460851Y-86835000D03*
%TO.P,U1,13,P5.5/XOUT*%
%TO.N,Net-(U1-P5.5{slash}XOUT)*%
X126960849Y-86835000D03*
%TO.P,U1,14,AVSS1*%
%TO.N,GND*%
X126460850Y-86835000D03*
%TO.P,U1,15,P8.0*%
%TO.N,unconnected-(U1-P8.0-Pad15)*%
X125960848Y-86835000D03*
%TO.P,U1,16,P8.1*%
%TO.N,unconnected-(U1-P8.1-Pad16)*%
X125460849Y-86835000D03*
%TO.P,U1,17,P8.2*%
%TO.N,unconnected-(U1-P8.2-Pad17)*%
X124960850Y-86835000D03*
%TO.P,U1,18,DVCC1*%
%TO.N,+3V3*%
X124460849Y-86835000D03*
%TO.P,U1,19,DVSS1*%
%TO.N,GND*%
X123960850Y-86835000D03*
%TO.P,U1,20,VCORE*%
%TO.N,+3V3*%
X123460848Y-86835000D03*
D30*
%TO.P,U1,21,P1.0/TA0CLK/ACLK*%
%TO.N,unconnected-(U1-P1.0{slash}TA0CLK{slash}ACLK-Pad21)*%
X121594149Y-88701699D03*
%TO.P,U1,22,P1.1/TA0.0*%
%TO.N,unconnected-(U1-P1.1{slash}TA0.0-Pad22)*%
X121594149Y-89201701D03*
%TO.P,U1,23,P1.2/TA0.1*%
%TO.N,unconnected-(U1-P1.2{slash}TA0.1-Pad23)*%
X121594149Y-89701700D03*
%TO.P,U1,24,P1.3/TA0.2*%
%TO.N,unconnected-(U1-P1.3{slash}TA0.2-Pad24)*%
X121594149Y-90201699D03*
%TO.P,U1,25,P1.4/TA0.3*%
%TO.N,unconnected-(U1-P1.4{slash}TA0.3-Pad25)*%
X121594149Y-90701700D03*
%TO.P,U1,26,P1.5/TA0.4*%
%TO.N,unconnected-(U1-P1.5{slash}TA0.4-Pad26)*%
X121594149Y-91201699D03*
%TO.P,U1,27,P1.6/TA1CLK/CBOUT*%
%TO.N,unconnected-(U1-P1.6{slash}TA1CLK{slash}CBOUT-Pad27)*%
X121594149Y-91701701D03*
%TO.P,U1,28,P1.7/TA1.0*%
%TO.N,unconnected-(U1-P1.7{slash}TA1.0-Pad28)*%
X121594149Y-92201700D03*
%TO.P,U1,29,P2.0/TA1.1*%
%TO.N,MCU_CS*%
X121594149Y-92701699D03*
%TO.P,U1,30,P2.1/TA1.2*%
%TO.N,MCU_DRDY*%
X121594149Y-93201700D03*
%TO.P,U1,31,P2.2/TA2CLK/SMCLK*%
%TO.N,MCU_START*%
X121594149Y-93701700D03*
%TO.P,U1,32,P2.3/TA2.0*%
%TO.N,MCU_RESET_N*%
X121594149Y-94201701D03*
%TO.P,U1,33,P2.4/TA2.1*%
%TO.N,unconnected-(U1-P2.4{slash}TA2.1-Pad33)*%
X121594149Y-94701700D03*
%TO.P,U1,34,P2.5/TA2.2*%
%TO.N,unconnected-(U1-P2.5{slash}TA2.2-Pad34)*%
X121594149Y-95201699D03*
%TO.P,U1,35,P2.6/RTCCLK/DMAE0*%
%TO.N,unconnected-(U1-P2.6{slash}RTCCLK{slash}DMAE0-Pad35)*%
X121594149Y-95701701D03*
%TO.P,U1,36,P2.7/UCB0STE/UCA0CLK*%
%TO.N,unconnected-(U1-P2.7{slash}UCB0STE{slash}UCA0CLK-Pad36)*%
X121594149Y-96201700D03*
%TO.P,U1,37,P3.0/UCB0SIMO/UCB0SDA*%
%TO.N,unconnected-(U1-P3.0{slash}UCB0SIMO{slash}UCB0SDA-Pad37)*%
X121594149Y-96701701D03*
%TO.P,U1,38,P3.1/UCB0SOMI/UCB0SCL*%
%TO.N,unconnected-(U1-P3.1{slash}UCB0SOMI{slash}UCB0SCL-Pad38)*%
X121594149Y-97201700D03*
%TO.P,U1,39,P3.2/UCB0CLK/UCA0STE*%
%TO.N,unconnected-(U1-P3.2{slash}UCB0CLK{slash}UCA0STE-Pad39)*%
X121594149Y-97701699D03*
%TO.P,U1,40,P3.3/UCA0TXD/UCA0SIMO*%
%TO.N,unconnected-(U1-P3.3{slash}UCA0TXD{slash}UCA0SIMO-Pad40)*%
X121594149Y-98201701D03*
D29*
%TO.P,U1,41,P3.4/UCA0RXD/UCA0SOMI*%
%TO.N,unconnected-(U1-P3.4{slash}UCA0RXD{slash}UCA0SOMI-Pad41)*%
X123460848Y-100068400D03*
%TO.P,U1,42,P3.5/TB0.5*%
%TO.N,unconnected-(U1-P3.5{slash}TB0.5-Pad42)*%
X123960850Y-100068400D03*
%TO.P,U1,43,P3.6/TB0.6*%
%TO.N,unconnected-(U1-P3.6{slash}TB0.6-Pad43)*%
X124460849Y-100068400D03*
%TO.P,U1,44,P3.7/TB0OUTH/SVMOUT*%
%TO.N,unconnected-(U1-P3.7{slash}TB0OUTH{slash}SVMOUT-Pad44)*%
X124960848Y-100068400D03*
%TO.P,U1,45,P4.0/PM_UCB1STE/PM_UCA1CLK*%
%TO.N,unconnected-(U1-P4.0{slash}PM_UCB1STE{slash}PM_UCA1CLK-Pad45)*%
X125460849Y-100068400D03*
%TO.P,U1,46,P4.1/PM_UCB1SIMO/PM_UCB1SDA*%
%TO.N,MCU_MOSI*%
X125960848Y-100068400D03*
%TO.P,U1,47,P4.2/PM_UCB1SOMI/PM_UCB1SCL*%
%TO.N,MCU_MISO*%
X126460850Y-100068400D03*
%TO.P,U1,48,P4.3/PM_UCB1CLK/PM_UCA1STE*%
%TO.N,Net-(U1-P4.3{slash}PM_UCB1CLK{slash}PM_UCA1STE)*%
X126960849Y-100068400D03*
%TO.P,U1,49,DVSS2*%
%TO.N,GND*%
X127460848Y-100068400D03*
%TO.P,U1,50,DVCC2*%
%TO.N,+3V3*%
X127960849Y-100068400D03*
%TO.P,U1,51,P4.4/PM_UCA1TXD/PM_UCA1SIMO*%
%TO.N,/MCU/MCU_TX*%
X128460849Y-100068400D03*
%TO.P,U1,52,P4.5/PM_UCA1RXD/PM_UCA1SOMI*%
%TO.N,/MCU/MCU_RX*%
X128960850Y-100068400D03*
%TO.P,U1,53,P4.6/PM_NONE*%
%TO.N,unconnected-(U1-P4.6{slash}PM_NONE-Pad53)*%
X129460849Y-100068400D03*
%TO.P,U1,54,P4.7/PM_NONE*%
%TO.N,unconnected-(U1-P4.7{slash}PM_NONE-Pad54)*%
X129960848Y-100068400D03*
%TO.P,U1,55,P5.6/TB0.0*%
%TO.N,unconnected-(U1-P5.6{slash}TB0.0-Pad55)*%
X130460850Y-100068400D03*
%TO.P,U1,56,P5.7/TB0.1*%
%TO.N,unconnected-(U1-P5.7{slash}TB0.1-Pad56)*%
X130960849Y-100068400D03*
%TO.P,U1,57,P7.4/TB0.2*%
%TO.N,unconnected-(U1-P7.4{slash}TB0.2-Pad57)*%
X131460850Y-100068400D03*
%TO.P,U1,58,P7.5/TB0.3*%
%TO.N,unconnected-(U1-P7.5{slash}TB0.3-Pad58)*%
X131960849Y-100068400D03*
%TO.P,U1,59,P7.6/TB0.4*%
%TO.N,unconnected-(U1-P7.6{slash}TB0.4-Pad59)*%
X132460848Y-100068400D03*
%TO.P,U1,60,P7.7/TB0CLK/MCLK*%
%TO.N,unconnected-(U1-P7.7{slash}TB0CLK{slash}MCLK-Pad60)*%
X132960850Y-100068400D03*
D30*
%TO.P,U1,61,VSSU*%
%TO.N,GND*%
X134827549Y-98201701D03*
%TO.P,U1,62,PU.0/DP*%
%TO.N,unconnected-(U1-PU.0{slash}DP-Pad62)*%
X134827549Y-97701699D03*
%TO.P,U1,63,PUR*%
%TO.N,unconnected-(U1-PUR-Pad63)*%
X134827549Y-97201700D03*
%TO.P,U1,64,PU.1/DM*%
%TO.N,unconnected-(U1-PU.1{slash}DM-Pad64)*%
X134827549Y-96701701D03*
%TO.P,U1,65,VBUS*%
%TO.N,unconnected-(U1-VBUS-Pad65)*%
X134827549Y-96201700D03*
%TO.P,U1,66,VUSB*%
%TO.N,unconnected-(U1-VUSB-Pad66)*%
X134827549Y-95701701D03*
%TO.P,U1,67,V18*%
%TO.N,unconnected-(U1-V18-Pad67)*%
X134827549Y-95201699D03*
%TO.P,U1,68,AVSS2*%
%TO.N,GND*%
X134827549Y-94701700D03*
%TO.P,U1,69,P5.2/XT2IN*%
%TO.N,Net-(U1-P5.2{slash}XT2IN)*%
X134827549Y-94201701D03*
%TO.P,U1,70,P5.3/XT2OUT*%
%TO.N,Net-(U1-P5.3{slash}XT2OUT)*%
X134827549Y-93701700D03*
%TO.P,U1,71,TEST/SBWTCK*%
%TO.N,/MCU/SBWTCK*%
X134827549Y-93201700D03*
%TO.P,U1,72,PJ.0/TDO*%
%TO.N,unconnected-(U1-PJ.0{slash}TDO-Pad72)*%
X134827549Y-92701699D03*
%TO.P,U1,73,PJ.1/TDI/TCLK*%
%TO.N,unconnected-(U1-PJ.1{slash}TDI{slash}TCLK-Pad73)*%
X134827549Y-92201700D03*
%TO.P,U1,74,PJ.2/TMS*%
%TO.N,unconnected-(U1-PJ.2{slash}TMS-Pad74)*%
X134827549Y-91701701D03*
%TO.P,U1,75,PJ.3/TCK*%
%TO.N,unconnected-(U1-PJ.3{slash}TCK-Pad75)*%
X134827549Y-91201699D03*
%TO.P,U1,76,\u002ARST/NMI/SBWTDIO*%
%TO.N,/MCU/SBWDTIO*%
X134827549Y-90701700D03*
%TO.P,U1,77,P6.0/CB0/A0*%
%TO.N,unconnected-(U1-P6.0{slash}CB0{slash}A0-Pad77)*%
X134827549Y-90201699D03*
%TO.P,U1,78,P6.1/CB1/A1*%
%TO.N,unconnected-(U1-P6.1{slash}CB1{slash}A1-Pad78)*%
X134827549Y-89701700D03*
%TO.P,U1,79,P6.2/CB2/A2*%
%TO.N,unconnected-(U1-P6.2{slash}CB2{slash}A2-Pad79)*%
X134827549Y-89201701D03*
%TO.P,U1,80,P6.3/CB3/A3*%
%TO.N,unconnected-(U1-P6.3{slash}CB3{slash}A3-Pad80)*%
X134827549Y-88701699D03*
%TD*%
D27*
%TO.P,D6,1,K*%
%TO.N,Net-(D6-K)*%
X155000000Y-69500000D03*
%TO.P,D6,2,A*%
%TO.N,+3V3*%
X156875000Y-69500000D03*
%TD*%
D31*
%TO.P,Y2,1,1*%
%TO.N,Net-(U1-P5.3{slash}XT2OUT)*%
X138556200Y-89718000D03*
%TO.P,Y2,2,2*%
%TO.N,GND*%
X138556200Y-93782000D03*
%TO.P,Y2,3,3*%
%TO.N,Net-(U1-P5.2{slash}XT2IN)*%
X140943800Y-93782000D03*
%TO.P,Y2,4,4*%
%TO.N,GND*%
X140943800Y-89718000D03*
%TD*%
D32*
%TO.P,J4,1,Pin_1*%
%TO.N,GND*%
X149250000Y-101700000D03*
D33*
%TO.P,J4,2,Pin_2*%
%TO.N,unconnected-(J4-Pin_2-Pad2)*%
X149250000Y-99160000D03*
%TO.P,J4,3,Pin_3*%
%TO.N,unconnected-(J4-Pin_3-Pad3)*%
X149250000Y-96620000D03*
%TO.P,J4,4,Pin_4*%
%TO.N,/MCU/MCU_TX*%
X149250000Y-94080000D03*
%TO.P,J4,5,Pin_5*%
%TO.N,/MCU/MCU_RX*%
X149250000Y-91540000D03*
%TO.P,J4,6,Pin_6*%
%TO.N,unconnected-(J4-Pin_6-Pad6)*%
X149250000Y-89000000D03*
%TD*%
D32*
%TO.P,J2,1,Pin_1*%
%TO.N,+3V3*%
X153750000Y-90960000D03*
D33*
%TO.P,J2,2,Pin_2*%
%TO.N,unconnected-(J2-Pin_2-Pad2)*%
X156290000Y-90960000D03*
%TO.P,J2,3,Pin_3*%
%TO.N,GND*%
X153750000Y-93500000D03*
%TO.P,J2,4,Pin_4*%
%TO.N,/MCU/SBWTCK*%
X156290000Y-93500000D03*
%TO.P,J2,5,Pin_5*%
%TO.N,GND*%
X153750000Y-96040000D03*
%TO.P,J2,6,Pin_6*%
%TO.N,unconnected-(J2-Pin_6-Pad6)*%
X156290000Y-96040000D03*
%TO.P,J2,7,Pin_7*%
%TO.N,unconnected-(J2-Pin_7-Pad7)*%
X153750000Y-98580000D03*
%TO.P,J2,8,Pin_8*%
%TO.N,unconnected-(J2-Pin_8-Pad8)*%
X156290000Y-98580000D03*
%TO.P,J2,9,Pin_9*%
%TO.N,/MCU/SBWDTIO*%
X153750000Y-101120000D03*
%TO.P,J2,10,Pin_10*%
%TO.N,unconnected-(J2-Pin_10-Pad10)*%
X156290000Y-101120000D03*
%TD*%
D20*
%TO.P,C14,1*%
%TO.N,+3V3*%
X121250000Y-84335000D03*
%TO.P,C14,2*%
%TO.N,GND*%
X121250000Y-82785000D03*
%TD*%
D34*
%TO.P,Y1,1,1*%
%TO.N,Net-(U1-P5.5{slash}XOUT)*%
X126612400Y-83500000D03*
%TO.P,Y1,2,2*%
%TO.N,Net-(U1-P5.4{slash}XIN)*%
X129000000Y-83500000D03*
%TD*%
D19*
%TO.P,C22,1*%
%TO.N,GND*%
X156060849Y-73835000D03*
%TO.P,C22,2*%
%TO.N,+3V3*%
X157960849Y-73835000D03*
%TD*%
D35*
%TO.P,L1,1*%
%TO.N,Net-(U2-L2)*%
X144250000Y-70450000D03*
%TO.P,L1,2*%
%TO.N,Net-(U2-L1)*%
X144250000Y-72550000D03*
%TD*%
D27*
%TO.P,D4,1,K*%
%TO.N,Net-(D4-K)*%
X164910849Y-96500000D03*
%TO.P,D4,2,A*%
%TO.N,Net-(D4-A)*%
X166785849Y-96500000D03*
%TD*%
D36*
%TO.P,BT1,N*%
%TO.N,GND*%
X90730000Y-117250000D03*
%TO.P,BT1,P*%
%TO.N,Net-(BT1-PadP)*%
X162950000Y-117250000D03*
%TD*%
D17*
%TO.P,C11,1*%
%TO.N,GND*%
X132960849Y-83060000D03*
%TO.P,C11,2*%
%TO.N,+3V3*%
X132960849Y-84610000D03*
%TD*%
D11*
%TO.P,C29,1*%
%TO.N,Net-(U1-P5.3{slash}XT2OUT)*%
X142750000Y-88750000D03*
%TO.P,C29,2*%
%TO.N,GND*%
X144300000Y-88750000D03*
%TD*%
D15*
%TO.P,R7,1*%
%TO.N,Net-(D6-K)*%
X155000000Y-67000000D03*
%TO.P,R7,2*%
%TO.N,GND*%
X156650000Y-67000000D03*
%TD*%
D16*
%TO.P,R17,1*%
%TO.N,GND*%
X169110849Y-88335000D03*
%TO.P,R17,2*%
%TO.N,Net-(U4-ILIM)*%
X167460849Y-88335000D03*
%TD*%
D37*
%TO.P,U4,1,TS*%
%TO.N,Net-(U4-TS)*%
X163023349Y-88585000D03*
%TO.P,U4,2,BAT*%
%TO.N,Net-(BT1-PadP)*%
X163023349Y-89085000D03*
%TO.P,U4,3,BAT*%
X163023349Y-89585000D03*
%TO.P,U4,4,~{CE}*%
%TO.N,GND*%
X163023349Y-90085000D03*
D38*
%TO.P,U4,5,EN2*%
X163710849Y-90772500D03*
%TO.P,U4,6,EN1*%
%TO.N,VSYS*%
X164210849Y-90772500D03*
%TO.P,U4,7,~{PGOOD}*%
%TO.N,Net-(D4-K)*%
X164710849Y-90772500D03*
%TO.P,U4,8,VSS*%
%TO.N,GND*%
X165210849Y-90772500D03*
D37*
%TO.P,U4,9,~{CHG}*%
%TO.N,Net-(D5-K)*%
X165898349Y-90085000D03*
%TO.P,U4,10,OUT*%
%TO.N,VSYS*%
X165898349Y-89585000D03*
%TO.P,U4,11,OUT*%
X165898349Y-89085000D03*
%TO.P,U4,12,ILIM*%
%TO.N,Net-(U4-ILIM)*%
X165898349Y-88585000D03*
D38*
%TO.P,U4,13,IN*%
%TO.N,Net-(J1-VBUS)*%
X165210849Y-87897500D03*
%TO.P,U4,14,TMR*%
%TO.N,Net-(U4-TMR)*%
X164710849Y-87897500D03*
%TO.P,U4,15,ITERM*%
%TO.N,unconnected-(U4-ITERM-Pad15)*%
X164210849Y-87897500D03*
%TO.P,U4,16,ISET*%
%TO.N,Net-(U4-ISET)*%
X163710849Y-87897500D03*
D39*
%TO.P,U4,17,VSS*%
%TO.N,GND*%
X164460849Y-89335000D03*
%TD*%
D40*
%TO.P,J1,1,VBUS*%
%TO.N,Net-(J1-VBUS)*%
X161700000Y-66275000D03*
%TO.P,J1,2,D-*%
%TO.N,unconnected-(J1-D--Pad2)*%
X162350000Y-66275000D03*
%TO.P,J1,3,D+*%
%TO.N,unconnected-(J1-D+-Pad3)*%
X163000000Y-66275000D03*
%TO.P,J1,4,ID*%
%TO.N,unconnected-(J1-ID-Pad4)*%
X163650000Y-66275000D03*
%TO.P,J1,5,GND*%
%TO.N,GND*%
X164300000Y-66275000D03*
D41*
%TO.P,J1,6,Shield*%
%TO.N,Net-(J1-Shield)*%
X167175000Y-63600000D03*
D42*
X166737500Y-63600000D03*
D43*
X165225000Y-66600000D03*
D44*
X163000000Y-63600000D03*
D43*
X160775000Y-66600000D03*
D42*
X159262500Y-63600000D03*
D41*
X158825000Y-63600000D03*
%TD*%
D45*
%TO.P,U2,1,VOUT*%
%TO.N,+3V3*%
X147535849Y-71835000D03*
%TO.P,U2,2,L2*%
%TO.N,Net-(U2-L2)*%
X147535849Y-72335000D03*
%TO.P,U2,3,PGND*%
%TO.N,GND*%
X147535849Y-72835000D03*
%TO.P,U2,4,L1*%
%TO.N,Net-(U2-L1)*%
X147535849Y-73335000D03*
%TO.P,U2,5,VIN*%
%TO.N,VSYS*%
X147535849Y-73835000D03*
%TO.P,U2,6,EN*%
%TO.N,Net-(U2-EN)*%
X149960849Y-73835000D03*
%TO.P,U2,7,PS/SYNC*%
%TO.N,VSYS*%
X149960849Y-73335000D03*
%TO.P,U2,8,VINA*%
%TO.N,unconnected-(U2-VINA-Pad8)*%
X149960849Y-72835000D03*
%TO.P,U2,9,GND*%
%TO.N,GND*%
X149960849Y-72335000D03*
%TO.P,U2,10,FB*%
%TO.N,+3V3*%
X149960849Y-71835000D03*
D46*
%TO.P,U2,11,PGND*%
%TO.N,GND*%
X148748349Y-72835000D03*
%TD*%
D26*
%TO.P,R18,1*%
%TO.N,Net-(U4-TMR)*%
X164960849Y-86485000D03*
%TO.P,R18,2*%
%TO.N,GND*%
X164960849Y-84835000D03*
%TD*%
D17*
%TO.P,C17,1*%
%TO.N,GND*%
X129500000Y-79250000D03*
%TO.P,C17,2*%
%TO.N,Net-(U1-P5.4{slash}XIN)*%
X129500000Y-80800000D03*
%TD*%
D11*
%TO.P,C25,1*%
%TO.N,Net-(J1-VBUS)*%
X166500000Y-86000000D03*
%TO.P,C25,2*%
%TO.N,GND*%
X168050000Y-86000000D03*
%TD*%
D17*
%TO.P,C18,1*%
%TO.N,GND*%
X127000000Y-79450000D03*
%TO.P,C18,2*%
%TO.N,Net-(U1-P5.5{slash}XOUT)*%
X127000000Y-81000000D03*
%TD*%
D15*
%TO.P,R21,1*%
%TO.N,Net-(D4-A)*%
X168460849Y-96500000D03*
%TO.P,R21,2*%
%TO.N,VSYS*%
X170110849Y-96500000D03*
%TD*%
D21*
%TO.P,C16,1*%
%TO.N,GND*%
X140550000Y-87500000D03*
%TO.P,C16,2*%
%TO.N,/MCU/SBWDTIO*%
X139000000Y-87500000D03*
%TD*%
D16*
%TO.P,R16,1*%
%TO.N,Net-(U4-TS)*%
X161460849Y-88335000D03*
%TO.P,R16,2*%
%TO.N,GND*%
X159810849Y-88335000D03*
%TD*%
D20*
%TO.P,C13,1*%
%TO.N,GND*%
X128960849Y-104385000D03*
%TO.P,C13,2*%
%TO.N,+3V3*%
X128960849Y-102835000D03*
%TD*%
D21*
%TO.P,C23,1*%
%TO.N,GND*%
X162235850Y-99000000D03*
%TO.P,C23,2*%
%TO.N,Net-(BT1-PadP)*%
X160685850Y-99000000D03*
%TD*%
D47*
%TO.P,U5,1*%
%TO.N,VSYS*%
X144485849Y-81500000D03*
%TO.P,U5,2*%
%TO.N,Net-(U2-EN)*%
X146485849Y-81500000D03*
%TO.P,U5,3*%
%TO.N,GND*%
X148485849Y-81500000D03*
D48*
%TO.P,U5,4*%
X142335849Y-81500000D03*
%TO.P,U5,5*%
X150635849Y-81500000D03*
%TD*%
D49*
%TO.N,/RF_IN*%
X94700000Y-87498300D03*
X94700000Y-84998300D03*
%TO.N,MCU_SCLK*%
X114298350Y-97933300D03*
%TO.N,GND*%
X112973350Y-96498300D03*
%TO.N,/HB_IN*%
X98700000Y-89498300D03*
%TO.N,+3V3*%
X112798350Y-94833300D03*
X109798350Y-100833300D03*
%TO.N,/LF_IN*%
X98999735Y-88122300D03*
X101300000Y-88691535D03*
%TO.N,/HB_IN*%
X99200000Y-86498300D03*
%TO.N,+3V3*%
X112798350Y-86833300D03*
X86700000Y-91498300D03*
X86700000Y-87498300D03*
X87650000Y-95548300D03*
X106160850Y-99498300D03*
%TO.N,MCU_RESET_N*%
X109798350Y-95333300D03*
X108301972Y-93733300D03*
%TO.N,MCU_SCLK*%
X114403865Y-89892785D03*
%TO.N,MCU_DRDY*%
X119700000Y-93299999D03*
%TO.N,MCU_MOSI*%
X117972615Y-96507565D03*
%TO.N,MCU_DRDY*%
X118798350Y-91998300D03*
%TO.N,GNDA*%
X86950000Y-92748300D03*
X98250000Y-84998300D03*
%TO.N,MCU_MISO*%
X116798350Y-90898300D03*
%TO.N,GNDA*%
X90700000Y-87998300D03*
X96700000Y-90498300D03*
%TO.N,MCU_MISO*%
X117022615Y-97457565D03*
%TO.N,GNDA*%
X108073350Y-99398300D03*
X98798350Y-97333300D03*
X108700000Y-81998300D03*
X97975000Y-94973300D03*
X88287500Y-82498300D03*
%TO.N,MCU_MOSI*%
X117798350Y-92099999D03*
%TO.N,GND*%
X112700000Y-83248300D03*
X112660850Y-84998300D03*
X103798350Y-99333300D03*
%TO.N,/RF_IN*%
X97700000Y-79748300D03*
%TO.N,/HB_IN*%
X99950000Y-79748300D03*
%TO.N,GND*%
X130250000Y-78000000D03*
X169500000Y-86000000D03*
X163460849Y-83335000D03*
X144750000Y-92250000D03*
X159960849Y-86835000D03*
X131635849Y-84000000D03*
X170460849Y-88335000D03*
X158250000Y-67000000D03*
X136500000Y-99000000D03*
X127000000Y-78250000D03*
X170500000Y-90835000D03*
X141750000Y-87500000D03*
%TO.N,+3V3*%
X130460849Y-102835000D03*
%TO.N,GND*%
X122960849Y-80250000D03*
X163960850Y-99000000D03*
X137299265Y-93549265D03*
X136460850Y-82835000D03*
X145625000Y-89625000D03*
X155960849Y-75335000D03*
X142250000Y-92000000D03*
X119960849Y-82835000D03*
X136750000Y-95000000D03*
X141960849Y-74335000D03*
X127460849Y-103500000D03*
X164960849Y-83335000D03*
X164750000Y-68750000D03*
X151960849Y-71835000D03*
X126360849Y-85335000D03*
X151925000Y-63750000D03*
X161960850Y-91000000D03*
%TO.N,+3V3*%
X157960849Y-75335000D03*
X136350850Y-84610000D03*
%TO.N,GND*%
X131775000Y-106000000D03*
%TO.N,+3V3*%
X137605425Y-84855425D03*
X153635849Y-76000000D03*
X119960849Y-84835000D03*
X124960849Y-80335000D03*
%TO.N,VSYS*%
X159135849Y-92335000D03*
X162161849Y-92266340D03*
X150573349Y-75335000D03*
X149000000Y-75335000D03*
X166292806Y-92343043D03*
%TO.N,/MCU/SBWTCK*%
X133250000Y-93250000D03*
%TD*%
D50*
%TO.N,Net-(J1-VBUS)*%
X161700000Y-68200000D02*
X161700000Y-66275000D01*
X166500000Y-73000000D02*
X161700000Y-68200000D01*
X166500000Y-86000000D02*
X166500000Y-73000000D01*
X166500000Y-86608349D02*
X166500000Y-86000000D01*
X165210849Y-87897500D02*
X166500000Y-86608349D01*
D51*
%TO.N,GND*%
X169360849Y-90835000D02*
X170500000Y-90835000D01*
X168050000Y-86000000D02*
X169500000Y-86000000D01*
%TO.N,Net-(J1-Shield)*%
X158500000Y-63500000D02*
X155190000Y-63500000D01*
D52*
%TO.N,Net-(BT1-PadP)*%
X160510850Y-99000000D02*
X162950000Y-101439150D01*
X160510850Y-90450000D02*
X160510850Y-99000000D01*
X163023349Y-89559000D02*
X161401850Y-89559000D01*
X163023349Y-89111000D02*
X163023349Y-89559000D01*
X161401850Y-89559000D02*
X160510850Y-90450000D01*
X162950000Y-101439150D02*
X162950000Y-117250000D01*
X162950000Y-117250000D02*
X163325000Y-116875000D01*
D51*
%TO.N,/HB*%
X84041700Y-93498300D02*
X84000000Y-93540000D01*
X90637500Y-93498300D02*
X84041700Y-93498300D01*
X90595800Y-93540000D02*
X90637500Y-93498300D01*
%TO.N,/LF*%
X86551700Y-85448300D02*
X84000000Y-88000000D01*
X90075000Y-85448300D02*
X86551700Y-85448300D01*
%TO.N,/RF*%
X85321700Y-89448300D02*
X84000000Y-90770000D01*
X90075000Y-89448300D02*
X85321700Y-89448300D01*
%TO.N,MCU_SCLK*%
X120322550Y-104660000D02*
X125960849Y-104660000D01*
X114298350Y-98635800D02*
X120322550Y-104660000D01*
X114298350Y-97933300D02*
X114298350Y-98635800D01*
%TO.N,MCU_MISO*%
X126460850Y-101509999D02*
X126460850Y-100068400D01*
X120398550Y-102236000D02*
X125734849Y-102236000D01*
X117160850Y-97595800D02*
X117160850Y-98998300D01*
X117160850Y-98998300D02*
X120398550Y-102236000D01*
X117022615Y-97457565D02*
X117160850Y-97595800D01*
X125734849Y-102236000D02*
X125735424Y-102235424D01*
X125735424Y-102235424D02*
X126460850Y-101509999D01*
%TO.N,MCU_MOSI*%
X125567049Y-101833300D02*
X125568749Y-101835000D01*
X121995850Y-101833300D02*
X125567049Y-101833300D01*
%TO.N,MCU_RESET_N*%
X120623048Y-94201701D02*
X121594149Y-94201701D01*
X120491449Y-94333300D02*
X120623048Y-94201701D01*
X119160849Y-94333300D02*
X120491449Y-94333300D01*
%TO.N,MCU_START*%
X120555949Y-93701700D02*
X121594149Y-93701700D01*
X120325349Y-93932300D02*
X120555949Y-93701700D01*
X115874350Y-93932300D02*
X120325349Y-93932300D01*
%TO.N,MCU_DRDY*%
X119798299Y-93201700D02*
X121594149Y-93201700D01*
X119700000Y-93299999D02*
X119798299Y-93201700D01*
%TO.N,MCU_CS*%
X121592449Y-92699999D02*
X121594149Y-92701699D01*
X115175049Y-92699999D02*
X121592449Y-92699999D01*
%TO.N,GND*%
X103798350Y-99073300D02*
X104473350Y-98398300D01*
X104473350Y-98398300D02*
X104463350Y-98398300D01*
X103798350Y-99333300D02*
X103798350Y-99073300D01*
X111975000Y-81998300D02*
X112700000Y-82723300D01*
%TO.N,Net-(U3-VCAP2)*%
X109200000Y-84498300D02*
X109925000Y-83773300D01*
%TO.N,GND*%
X112700000Y-82723300D02*
X112700000Y-83248300D01*
%TO.N,Net-(U3-VCAP2)*%
X106898751Y-84955399D02*
X107355850Y-84498300D01*
X109925000Y-82498300D02*
X110425000Y-81998300D01*
X107355850Y-84498300D02*
X109200000Y-84498300D01*
X109925000Y-83773300D02*
X109925000Y-82498300D01*
X106898751Y-85933700D02*
X106898751Y-84955399D01*
%TO.N,GND*%
X112973350Y-96498300D02*
X113633350Y-96498300D01*
X113633350Y-96498300D02*
X113973350Y-96158300D01*
X112660850Y-84998300D02*
X112325850Y-85333300D01*
X112325850Y-85333300D02*
X111298350Y-85333300D01*
X113973350Y-96158300D02*
X115298350Y-96158300D01*
X109298350Y-87333301D02*
X111298350Y-85333301D01*
%TO.N,/LF_IN*%
X95700000Y-85998300D02*
X93700000Y-85998300D01*
%TO.N,GND*%
X111298350Y-85333301D02*
X111298350Y-85333300D01*
%TO.N,/LF_IN*%
X93700000Y-85998300D02*
X93700000Y-82673300D01*
%TO.N,/HB_IN*%
X100700000Y-84998300D02*
X100700000Y-82498300D01*
X96425000Y-92698357D02*
X98948057Y-90175300D01*
X99200000Y-90175300D02*
X101523000Y-90175300D01*
X94350000Y-93498300D02*
X96425000Y-93498300D01*
X98948057Y-90175300D02*
X99200000Y-90175300D01*
%TO.N,/LF_IN*%
X95700000Y-85998300D02*
X97824000Y-88122300D01*
%TO.N,/HB_IN*%
X101523000Y-90175300D02*
X101864999Y-89833301D01*
%TO.N,/LF_IN*%
X101300000Y-88691535D02*
X101441765Y-88833300D01*
X93700000Y-82673300D02*
X93875000Y-82498300D01*
%TO.N,/RF_IN*%
X94350000Y-88998300D02*
X95200000Y-88998300D01*
X101692925Y-88005375D02*
X100692925Y-88005375D01*
%TO.N,/HB_IN*%
X96425000Y-93498300D02*
X96425000Y-92698357D01*
X94350000Y-93498300D02*
X94700000Y-93498300D01*
%TO.N,/RF_IN*%
X95200000Y-88998300D02*
X95700000Y-89498300D01*
X93850000Y-89498300D02*
X94350000Y-88998300D01*
X93850000Y-88348300D02*
X93850000Y-89498300D01*
X96476000Y-88722300D02*
X99424000Y-88722300D01*
X95700000Y-89498300D02*
X96476000Y-88722300D01*
X99424000Y-88722300D02*
X99476000Y-88722300D01*
%TO.N,/HB_IN*%
X99200000Y-86498300D02*
X100700000Y-84998300D01*
%TO.N,/RF_IN*%
X99424000Y-88722300D02*
X100035000Y-89333300D01*
%TO.N,/HB_IN*%
X94700000Y-93498300D02*
X98700000Y-89498300D01*
%TO.N,/RF_IN*%
X102020849Y-88333299D02*
X101692925Y-88005375D01*
X99476000Y-88722300D02*
X100200000Y-87998300D01*
X100692925Y-88005375D02*
X100685850Y-87998300D01*
%TO.N,/LF_IN*%
X97824000Y-88122300D02*
X98999735Y-88122300D01*
%TO.N,/HB_IN*%
X101864999Y-89833301D02*
X102999150Y-89833301D01*
%TO.N,/LF_IN*%
X101441765Y-88833300D02*
X102999150Y-88833300D01*
%TO.N,/RF_IN*%
X94700000Y-87498300D02*
X93850000Y-88348300D01*
X100035000Y-89333300D02*
X102999150Y-89333300D01*
X102999150Y-88333299D02*
X102020849Y-88333299D01*
X94700000Y-84998300D02*
X97200000Y-82498300D01*
X100685850Y-87998300D02*
X100200000Y-87998300D01*
D50*
%TO.N,+3V3*%
X110648350Y-99983300D02*
X109798350Y-100833300D01*
X105898750Y-92232900D02*
X105898750Y-95383700D01*
X112798350Y-86833300D02*
X111348350Y-86833300D01*
X106523350Y-99135800D02*
X106160850Y-99498300D01*
X87875000Y-90398300D02*
X86775000Y-91498300D01*
X87750000Y-86448300D02*
X86650000Y-87548300D01*
D51*
X106160850Y-99310800D02*
X106160850Y-99498300D01*
D50*
X111298350Y-86883300D02*
X110348350Y-87833300D01*
X105898750Y-95383700D02*
X106523350Y-96008300D01*
X106523350Y-96008300D02*
X106523350Y-99135800D01*
X111298350Y-99983300D02*
X110648350Y-99983300D01*
X88200000Y-90398300D02*
X87875000Y-90398300D01*
X110348350Y-87833300D02*
X109298350Y-87833300D01*
X112798350Y-94833300D02*
X111448350Y-93483300D01*
X88750000Y-94448300D02*
X87650000Y-95548300D01*
D51*
%TO.N,Net-(U3-VREFP)*%
X101298351Y-95333300D02*
X104398751Y-92232900D01*
%TO.N,Net-(U3-VCAP1)*%
X105398749Y-92232900D02*
X105398749Y-94142050D01*
X105398749Y-94142050D02*
X104298350Y-95242449D01*
D50*
%TO.N,+3V3*%
X86775000Y-91498300D02*
X86700000Y-91498300D01*
D51*
%TO.N,Net-(U3-VCAP1)*%
X104298350Y-95242449D02*
X104298350Y-96323300D01*
%TO.N,+3V3*%
X111448350Y-93483300D02*
X111448350Y-93333300D01*
%TO.N,Net-(U3-VREFP)*%
X100298350Y-95333300D02*
X101298351Y-95333300D01*
%TO.N,Net-(U3-VCAP1)*%
X104298350Y-96323300D02*
X104473350Y-96498300D01*
%TO.N,MCU_RESET_N*%
X107782550Y-93733300D02*
X107898350Y-93733300D01*
X109798350Y-95333300D02*
X111798350Y-97333300D01*
X107430400Y-93381150D02*
X107782550Y-93733300D01*
X116160849Y-97333300D02*
X119160849Y-94333300D01*
X111798350Y-97333300D02*
X111798350Y-97833300D01*
X107398750Y-92232900D02*
X107430400Y-92264550D01*
%TO.N,/LF*%
X92050000Y-85998300D02*
X90625000Y-85998300D01*
%TO.N,MCU_RESET_N*%
X107430400Y-92264550D02*
X107430400Y-93381150D01*
X111798350Y-97833300D02*
X111298350Y-98333300D01*
%TO.N,/LF*%
X90625000Y-85998300D02*
X90075000Y-85448300D01*
%TO.N,/HB*%
X90637500Y-93498300D02*
X92700000Y-93498300D01*
%TO.N,/RF*%
X92150000Y-89448300D02*
X92200000Y-89498300D01*
%TO.N,MCU_RESET_N*%
X111798350Y-97333300D02*
X116160849Y-97333300D01*
%TO.N,/RF*%
X90075000Y-89448300D02*
X92150000Y-89448300D01*
%TO.N,MCU_DRDY*%
X118399350Y-87833300D02*
X111638350Y-87833300D01*
X111638350Y-87833300D02*
X111140350Y-88331300D01*
%TO.N,MCU_SCLK*%
X114213649Y-89418001D02*
X109383051Y-89418001D01*
%TO.N,MCU_MOSI*%
X113495851Y-89833301D02*
X111731249Y-89833301D01*
%TO.N,MCU_START*%
X109298350Y-91833300D02*
X109023460Y-92108190D01*
%TO.N,MCU_MOSI*%
X115160850Y-91498300D02*
X113495851Y-89833301D01*
%TO.N,MCU_MISO*%
X116798350Y-89056300D02*
X116240350Y-88498300D01*
%TO.N,MCU_DRDY*%
X118798350Y-91998300D02*
X118798350Y-88232300D01*
X119700000Y-93299999D02*
X119799999Y-93200000D01*
X118798350Y-88232300D02*
X118399350Y-87833300D01*
%TO.N,MCU_MOSI*%
X117972615Y-96507565D02*
X117798350Y-96681830D01*
%TO.N,MCU_MISO*%
X109383050Y-88918000D02*
X109298350Y-88833300D01*
X116240350Y-88498300D02*
X111633350Y-88498300D01*
%TO.N,MCU_START*%
X108023459Y-92108190D02*
X107898749Y-92232900D01*
%TO.N,MCU_MOSI*%
X111731249Y-89833301D02*
X109298350Y-89833301D01*
X117798350Y-92099999D02*
X117196651Y-91498300D01*
%TO.N,MCU_START*%
X112623350Y-91833300D02*
X109298350Y-91833300D01*
X115298350Y-94508300D02*
X115874350Y-93932300D01*
X109023460Y-92108190D02*
X108023459Y-92108190D01*
%TO.N,MCU_SCLK*%
X114403865Y-89892785D02*
X114403865Y-89608217D01*
%TO.N,MCU_MOSI*%
X117196651Y-91498300D02*
X115160850Y-91498300D01*
X117798350Y-96681830D02*
X117798350Y-97635800D01*
%TO.N,MCU_CS*%
X115175049Y-92699999D02*
X112808350Y-90333300D01*
%TO.N,MCU_SCLK*%
X109383051Y-89418001D02*
X109298350Y-89333300D01*
%TO.N,MCU_DRDY*%
X111138350Y-88333299D02*
X109298350Y-88333299D01*
%TO.N,MCU_MOSI*%
X117798350Y-97635800D02*
X121995850Y-101833300D01*
%TO.N,MCU_MISO*%
X116798350Y-90898300D02*
X116798350Y-89056300D01*
X111213650Y-88918000D02*
X109383050Y-88918000D01*
X111633350Y-88498300D02*
X111213650Y-88918000D01*
%TO.N,MCU_RESET_N*%
X107898350Y-93733300D02*
X108301972Y-93733300D01*
%TO.N,MCU_CS*%
X112808350Y-90333300D02*
X109298350Y-90333300D01*
%TO.N,MCU_START*%
X115298350Y-94508300D02*
X112623350Y-91833300D01*
%TO.N,MCU_SCLK*%
X114403865Y-89608217D02*
X114213649Y-89418001D01*
%TO.N,Net-(R11-Pad1)*%
X109473350Y-94158300D02*
X109298350Y-94333300D01*
%TO.N,GNDA*%
X97975000Y-94973300D02*
X97975000Y-93498300D01*
X88412500Y-82623300D02*
X88287500Y-82498300D01*
X97950000Y-94998300D02*
X97975000Y-94973300D01*
X88262500Y-92548300D02*
X88762500Y-92548300D01*
X106398750Y-92232900D02*
X106398750Y-93983700D01*
X108248350Y-95833300D02*
X108248350Y-97658300D01*
X88200000Y-88498300D02*
X90200000Y-88498300D01*
X100298350Y-96883300D02*
X99248350Y-96883300D01*
X86950000Y-92748300D02*
X88062500Y-92748300D01*
X100798350Y-96883300D02*
X100298350Y-96883300D01*
X106398750Y-93983700D02*
X108248350Y-95833300D01*
%TO.N,Net-(R11-Pad1)*%
X109473350Y-93333300D02*
X109473350Y-94158300D01*
X109298350Y-94333300D02*
X107365450Y-94333300D01*
%TO.N,GNDA*%
X104898750Y-94074949D02*
X102740399Y-96233300D01*
X104898750Y-92232900D02*
X104898750Y-94074949D01*
X102798350Y-96233300D02*
X101448350Y-96233300D01*
X90200000Y-88498300D02*
X90700000Y-87998300D01*
X107700000Y-83498300D02*
X107700000Y-82998300D01*
X99248350Y-96883300D02*
X98798350Y-97333300D01*
X97250000Y-89498300D02*
X97250000Y-89948300D01*
X88062500Y-92748300D02*
X88262500Y-92548300D01*
X107973350Y-99498300D02*
X108073350Y-99398300D01*
X108248350Y-97658300D02*
X108073350Y-97833300D01*
X97250000Y-89948300D02*
X96700000Y-90498300D01*
X107700000Y-82998300D02*
X108700000Y-81998300D01*
X98250000Y-84998300D02*
X97250000Y-85998300D01*
X108073350Y-97833300D02*
X108073350Y-99398300D01*
X88200000Y-84498300D02*
X88412500Y-84285800D01*
X101448350Y-96233300D02*
X100798350Y-96883300D01*
X102740399Y-96233300D02*
X102298350Y-96233300D01*
X88412500Y-84285800D02*
X88412500Y-82623300D01*
%TO.N,Net-(R11-Pad1)*%
X107365450Y-94333300D02*
X106898751Y-93866601D01*
X106898751Y-93866601D02*
X106898751Y-92232900D01*
%TO.N,/RLD*%
X102350000Y-82498300D02*
X105150000Y-82498300D01*
X105150000Y-82498300D02*
X106150000Y-83498300D01*
X99626000Y-81722300D02*
X101574000Y-81722300D01*
X98850000Y-82498300D02*
X99626000Y-81722300D01*
X95525000Y-82498300D02*
X96301000Y-81722300D01*
X105898750Y-83749550D02*
X105898750Y-85933700D01*
X101574000Y-81722300D02*
X102350000Y-82498300D01*
X106150000Y-83498300D02*
X105898750Y-83749550D01*
X96301000Y-81722300D02*
X98074000Y-81722300D01*
X98074000Y-81722300D02*
X98850000Y-82498300D01*
%TO.N,/LF_IN*%
X93875000Y-77923300D02*
X93700000Y-77748300D01*
%TO.N,/RF_IN*%
X96950000Y-78998300D02*
X96950000Y-77748300D01*
%TO.N,/LF_IN*%
X93875000Y-82498300D02*
X93875000Y-77923300D01*
%TO.N,/RF_IN*%
X97700000Y-79748300D02*
X96950000Y-78998300D01*
%TO.N,/HB_IN*%
X100200000Y-79498300D02*
X100200000Y-77748300D01*
X99950000Y-79748300D02*
X100200000Y-79498300D01*
%TO.N,GND*%
X127000000Y-79450000D02*
X127000000Y-78250000D01*
X130000000Y-78250000D02*
X130250000Y-78000000D01*
X129500000Y-79250000D02*
X129500000Y-78750000D01*
X129500000Y-78750000D02*
X130000000Y-78250000D01*
%TO.N,Net-(U1-P5.4{slash}XIN)*%
X129500000Y-82250000D02*
X129500000Y-80800000D01*
X129000000Y-82750000D02*
X129500000Y-82250000D01*
X127460851Y-85289149D02*
X129000000Y-83750000D01*
X127460851Y-86835000D02*
X127460851Y-85289149D01*
X129000000Y-83750000D02*
X129000000Y-82750000D01*
%TO.N,Net-(U1-P5.5{slash}XOUT)*%
X126500000Y-84500000D02*
X127000000Y-85000000D01*
X126500000Y-81500000D02*
X126500000Y-84500000D01*
X127000000Y-85000000D02*
X127000000Y-86795849D01*
X127000000Y-81000000D02*
X126500000Y-81500000D01*
X127000000Y-86795849D02*
X126960849Y-86835000D01*
%TO.N,GND*%
X144750000Y-92250000D02*
X144750000Y-93000000D01*
%TO.N,Net-(U1-P5.2{slash}XT2IN)*%
X143250000Y-95000000D02*
X144500000Y-95000000D01*
X144550000Y-95000000D02*
X144750000Y-94800000D01*
X142032000Y-93782000D02*
X143250000Y-95000000D01*
X140943800Y-93782000D02*
X142032000Y-93782000D01*
%TO.N,GND*%
X144300000Y-88750000D02*
X144750000Y-88750000D01*
X144750000Y-88750000D02*
X145625000Y-89625000D01*
X145550000Y-89700000D02*
X145625000Y-89625000D01*
%TO.N,Net-(U1-P5.3{slash}XT2OUT)*%
X138556200Y-89718000D02*
X139784300Y-88489900D01*
X139784300Y-88489900D02*
X142489900Y-88489900D01*
X142489900Y-88489900D02*
X142750000Y-88750000D01*
X138282000Y-89718000D02*
X138556200Y-89718000D01*
X137250000Y-92750000D02*
X137250000Y-90750000D01*
X137250000Y-90750000D02*
X138282000Y-89718000D01*
X136298300Y-93701700D02*
X137250000Y-92750000D01*
X134827549Y-93701700D02*
X136298300Y-93701700D01*
X138524200Y-89750000D02*
X138556200Y-89718000D01*
%TO.N,Net-(U1-P5.2{slash}XT2IN)*%
X136801644Y-94201701D02*
X134827549Y-94201701D01*
X139475800Y-95250000D02*
X137849943Y-95250000D01*
X137849943Y-95250000D02*
X136801644Y-94201701D01*
X140943800Y-93782000D02*
X139475800Y-95250000D01*
D50*
%TO.N,Net-(U2-EN)*%
X149750000Y-74045849D02*
X149960849Y-73835000D01*
X149750000Y-75808292D02*
X149750000Y-74045849D01*
X146485849Y-81500000D02*
X146485849Y-79072443D01*
X146485849Y-79072443D02*
X149750000Y-75808292D01*
%TO.N,VSYS*%
X147548349Y-74922500D02*
X147548349Y-73847500D01*
X149000000Y-75335000D02*
X147960849Y-75335000D01*
X147960849Y-75335000D02*
X147548349Y-74922500D01*
%TO.N,+3V3*%
X150250000Y-70385849D02*
X150135849Y-70500000D01*
X150250000Y-67750000D02*
X150250000Y-70385849D01*
D51*
%TO.N,GND*%
X140943800Y-90693800D02*
X140943800Y-89718000D01*
D50*
%TO.N,+3V3*%
X128960849Y-102835000D02*
X128361849Y-102236000D01*
D51*
%TO.N,GND*%
X123250000Y-83835000D02*
X123960850Y-84545850D01*
X156650000Y-67000000D02*
X158250000Y-67000000D01*
X152340000Y-63335000D02*
X151925000Y-63750000D01*
X159810849Y-87485000D02*
X159960849Y-87335000D01*
X123135849Y-80660000D02*
X123135849Y-81835000D01*
X159960849Y-87335000D02*
X159960849Y-86835000D01*
X136327550Y-98201701D02*
X134827549Y-98201701D01*
X123960850Y-84545850D02*
X123960850Y-86835000D01*
X149973349Y-72335000D02*
X151660849Y-72335000D01*
X163710849Y-90772500D02*
X163710849Y-90085000D01*
X120010849Y-82785000D02*
X119960849Y-82835000D01*
X132960849Y-83060000D02*
X134460849Y-83060000D01*
X121460849Y-82785000D02*
X120010849Y-82785000D01*
X131635849Y-84000000D02*
X132300849Y-83335000D01*
X164960849Y-84835000D02*
X164960849Y-83335000D01*
X132685849Y-83335000D02*
X132960849Y-83060000D01*
X142250000Y-92000000D02*
X140943800Y-90693800D01*
X147548349Y-72835000D02*
X148760849Y-72835000D01*
X136750000Y-95000000D02*
X136451700Y-94701700D01*
X127460848Y-100068400D02*
X127460848Y-103499999D01*
X149973349Y-72335000D02*
X149260849Y-72335000D01*
X143510849Y-75910000D02*
X143910849Y-76310000D01*
X163710849Y-90085000D02*
X164460849Y-89335000D01*
X138556200Y-93782000D02*
X137532000Y-93782000D01*
X165159849Y-90721500D02*
X165159849Y-90034000D01*
X162875850Y-90085000D02*
X163023349Y-90085000D01*
X127460848Y-103499999D02*
X127460849Y-103500000D01*
X169110849Y-90585000D02*
X169360849Y-90835000D01*
X143510849Y-74310000D02*
X141985849Y-74310000D01*
D52*
X164300000Y-66275000D02*
X164300000Y-68300000D01*
D51*
X136460850Y-82835000D02*
X135460849Y-82835000D01*
X132300849Y-83335000D02*
X132685849Y-83335000D01*
X123135849Y-81835000D02*
X123250000Y-81949151D01*
X168860849Y-88335000D02*
X170460849Y-88335000D01*
X136500000Y-98374151D02*
X136327550Y-98201701D01*
D50*
%TO.N,+3V3*%
X128960849Y-102835000D02*
X130460849Y-102835000D01*
D51*
%TO.N,GND*%
X135235849Y-83060000D02*
X134460849Y-83060000D01*
X165210849Y-90772500D02*
X165159849Y-90721500D01*
X137532000Y-93782000D02*
X137299265Y-93549265D01*
X163460849Y-84685000D02*
X163460849Y-83335000D01*
%TO.N,+3V3*%
X128361849Y-102236000D02*
X128294749Y-102236000D01*
%TO.N,GND*%
X122960849Y-80250000D02*
X122960849Y-80485000D01*
X165159849Y-90034000D02*
X164460849Y-89335000D01*
X126460850Y-85435001D02*
X126460850Y-86835000D01*
X163710849Y-90085000D02*
X163023349Y-90085000D01*
X140550000Y-87500000D02*
X141750000Y-87500000D01*
D52*
X164300000Y-68300000D02*
X164750000Y-68750000D01*
D51*
X156060849Y-73835000D02*
X156060849Y-75235000D01*
X151960849Y-71835000D02*
X152060849Y-71935000D01*
D50*
%TO.N,+3V3*%
X128294749Y-102236000D02*
X127960849Y-101902100D01*
D51*
%TO.N,GND*%
X161960850Y-91000000D02*
X162875850Y-90085000D01*
X153475000Y-63335000D02*
X152340000Y-63335000D01*
X122960849Y-80485000D02*
X123135849Y-80660000D01*
X162410850Y-99000000D02*
X163960850Y-99000000D01*
X136500000Y-99000000D02*
X136500000Y-98374151D01*
X126360849Y-85335000D02*
X126460850Y-85435001D01*
X136451700Y-94701700D02*
X134827549Y-94701700D01*
X135460849Y-82835000D02*
X135235849Y-83060000D01*
D50*
%TO.N,+3V3*%
X127960849Y-101902100D02*
X127960849Y-100068400D01*
D51*
%TO.N,GND*%
X151960849Y-72035000D02*
X151960849Y-71835000D01*
X123960849Y-86834999D02*
X123960850Y-86835000D01*
X141985849Y-74310000D02*
X141960849Y-74335000D01*
X143510849Y-74310000D02*
X143510849Y-75910000D01*
X152060849Y-71935000D02*
X152060849Y-73835000D01*
X151660849Y-72335000D02*
X151960849Y-72035000D01*
X123250000Y-81949151D02*
X123250000Y-83835000D01*
X152060849Y-73835000D02*
X151960849Y-73835000D01*
X159810849Y-88335000D02*
X159810849Y-87485000D01*
X156060849Y-75235000D02*
X155960849Y-75335000D01*
D50*
%TO.N,+3V3*%
X127960849Y-86835000D02*
X127970149Y-86825700D01*
X124860849Y-81835000D02*
X124800000Y-81895849D01*
X153960849Y-71825000D02*
X156750000Y-71825000D01*
X132134849Y-85436000D02*
X132960849Y-84610000D01*
X121970849Y-84335000D02*
X121460849Y-84335000D01*
X152635849Y-70500000D02*
X153960849Y-71825000D01*
X124860849Y-81835000D02*
X124860849Y-80435000D01*
D51*
%TO.N,GND*%
X129010849Y-104335000D02*
X128960849Y-104385000D01*
D50*
%TO.N,+3V3*%
X124800000Y-81895849D02*
X124800000Y-83835000D01*
X150135849Y-71660000D02*
X149960849Y-71835000D01*
X128179949Y-85436000D02*
X132134849Y-85436000D01*
X150135849Y-70500000D02*
X152635849Y-70500000D01*
X153960849Y-71825000D02*
X153960849Y-73835000D01*
X124860849Y-80435000D02*
X124960849Y-80335000D01*
X157960849Y-72325000D02*
X157960849Y-73835000D01*
X137250000Y-85210850D02*
X137250000Y-86100000D01*
X121460849Y-84335000D02*
X120460849Y-84335000D01*
X124460849Y-84174151D02*
X124800000Y-83835000D01*
X120460849Y-84335000D02*
X119960849Y-84835000D01*
X157960849Y-73835000D02*
X157960849Y-75335000D01*
X123460848Y-86835000D02*
X123460848Y-85824999D01*
X137605425Y-84855425D02*
X137250000Y-85210850D01*
X127960849Y-85655100D02*
X128179949Y-85436000D01*
X150135849Y-70500000D02*
X150135849Y-71660000D01*
%TO.N,GND*%
X131775000Y-106000000D02*
X130160000Y-104385000D01*
%TO.N,+3V3*%
X147548349Y-71587500D02*
X148635849Y-70500000D01*
X153960849Y-75675000D02*
X153635849Y-76000000D01*
X157460849Y-71825000D02*
X157960849Y-72325000D01*
X156750000Y-71825000D02*
X157460849Y-71825000D01*
X153960849Y-73835000D02*
X153960849Y-75675000D01*
X136350850Y-84610000D02*
X132960849Y-84610000D01*
X123460848Y-85824999D02*
X121970849Y-84335000D01*
X124460849Y-86835000D02*
X124460849Y-84174151D01*
X127960849Y-86835000D02*
X127960849Y-85655100D01*
X156750000Y-71825000D02*
X156875000Y-71700000D01*
X124800000Y-83835000D02*
X124960849Y-83674151D01*
X156875000Y-71700000D02*
X156875000Y-69500000D01*
X147548349Y-71835000D02*
X147548349Y-71587500D01*
%TO.N,GND*%
X130160000Y-104385000D02*
X128960849Y-104385000D01*
%TO.N,+3V3*%
X148635849Y-70500000D02*
X150135849Y-70500000D01*
D51*
%TO.N,VSYS*%
X166292806Y-92343043D02*
X166292806Y-92003043D01*
X170135849Y-94000000D02*
X170135849Y-93510000D01*
D50*
X158970849Y-92335000D02*
X158750000Y-92114151D01*
D51*
X150460849Y-75335000D02*
X150573349Y-75335000D01*
X167460849Y-90694202D02*
X167460849Y-90835000D01*
X165898349Y-89085000D02*
X165898349Y-89585000D01*
X145885849Y-73835000D02*
X145410849Y-74310000D01*
X166292806Y-92003043D02*
X167460849Y-90835000D01*
D50*
X164000000Y-92000000D02*
X164210849Y-91789151D01*
D51*
X170110849Y-96500000D02*
X170110849Y-94025000D01*
D50*
X145460849Y-76310000D02*
X145460849Y-74360000D01*
D51*
X150686849Y-75109000D02*
X150460849Y-75335000D01*
D50*
X157085000Y-85335000D02*
X155112319Y-85335000D01*
D51*
X165898349Y-89585000D02*
X166351647Y-89585000D01*
D50*
X162161849Y-92266340D02*
X163170307Y-92266340D01*
X145470849Y-85335000D02*
X155009379Y-85335000D01*
D51*
X170110849Y-94025000D02*
X170135849Y-94000000D01*
D50*
X158750000Y-91385849D02*
X158500000Y-91135849D01*
D51*
X147548349Y-73847500D02*
X147535849Y-73835000D01*
D50*
X144485849Y-84350000D02*
X145470849Y-85335000D01*
D51*
X150686849Y-73620202D02*
X150686849Y-75109000D01*
X149973349Y-73335000D02*
X150401647Y-73335000D01*
X166351647Y-89585000D02*
X167460849Y-90694202D01*
D50*
X144485849Y-78310000D02*
X144485849Y-84350000D01*
X158500000Y-86750000D02*
X157085000Y-85335000D01*
D51*
X150401647Y-73335000D02*
X150686849Y-73620202D01*
X159135849Y-92335000D02*
X158970849Y-92335000D01*
X145460849Y-74360000D02*
X145410849Y-74310000D01*
D50*
X163170307Y-92266340D02*
X163436647Y-92000000D01*
X158750000Y-92114151D02*
X158750000Y-91385849D01*
X145460849Y-77335000D02*
X144485849Y-78310000D01*
X164210849Y-91789151D02*
X164210849Y-90772500D01*
X145460849Y-76310000D02*
X145460849Y-77335000D01*
X147535849Y-73835000D02*
X145885849Y-73835000D01*
X158500000Y-91135849D02*
X158500000Y-86750000D01*
X163436647Y-92000000D02*
X164000000Y-92000000D01*
D51*
X155112319Y-85335000D02*
X154960849Y-85335000D01*
X170135849Y-93510000D02*
X167460849Y-90835000D01*
%TO.N,/MCU/MCU_RX*%
X146750000Y-97500000D02*
X146750000Y-93500000D01*
X142816000Y-101434000D02*
X146750000Y-97500000D01*
X128960850Y-101148301D02*
X129246549Y-101434000D01*
X146750000Y-93500000D02*
X148710000Y-91540000D01*
X129246549Y-101434000D02*
X142816000Y-101434000D01*
X128960850Y-100068400D02*
X128960850Y-101148301D01*
X148710000Y-91540000D02*
X149250000Y-91540000D01*
%TO.N,/MCU/MCU_TX*%
X147250000Y-98000000D02*
X147250000Y-96080000D01*
X128460849Y-101325000D02*
X128970849Y-101835000D01*
X143415000Y-101835000D02*
X147250000Y-98000000D01*
X128970849Y-101835000D02*
X143415000Y-101835000D01*
X128460849Y-100068400D02*
X128460849Y-101325000D01*
X147250000Y-96080000D02*
X149250000Y-94080000D01*
%TO.N,Net-(U1-P4.3{slash}PM_UCB1CLK{slash}PM_UCA1STE)*%
X126960849Y-100068400D02*
X126960849Y-102835000D01*
X126960849Y-102835000D02*
X126785849Y-103010000D01*
X126785849Y-103010000D02*
X125960849Y-103010000D01*
%TO.N,MCU_SCLK*%
X125800849Y-104500000D02*
X125960849Y-104660000D01*
%TO.N,MCU_MOSI*%
X125960848Y-101442901D02*
X125960848Y-100068400D01*
X125568749Y-101835000D02*
X125960848Y-101442901D01*
D50*
%TO.N,Net-(U2-L1)*%
X145612009Y-73000000D02*
X145162009Y-72550000D01*
X146500000Y-73000000D02*
X145612009Y-73000000D01*
X146835000Y-73335000D02*
X147535849Y-73335000D01*
X146500000Y-73000000D02*
X146835000Y-73335000D01*
%TO.N,Net-(U2-L2)*%
X147535849Y-72335000D02*
X146998546Y-72335000D01*
X146998546Y-72335000D02*
X145113546Y-70450000D01*
X145113546Y-70450000D02*
X144250000Y-70450000D01*
D51*
%TO.N,Net-(U4-ISET)*%
X163710849Y-87897500D02*
X163710849Y-86585000D01*
X163710849Y-86585000D02*
X163460849Y-86335000D01*
%TO.N,Net-(U4-TS)*%
X163023349Y-88585000D02*
X161710849Y-88585000D01*
X161710849Y-88585000D02*
X161460849Y-88335000D01*
%TO.N,Net-(U4-ILIM)*%
X167210849Y-88585000D02*
X167460849Y-88335000D01*
X165898349Y-88585000D02*
X167210849Y-88585000D01*
%TO.N,Net-(U4-TMR)*%
X164960849Y-86485000D02*
X164710849Y-86735000D01*
X164710849Y-86735000D02*
X164710849Y-87897500D01*
%TO.N,Net-(D4-K)*%
X164135849Y-96500000D02*
X165060849Y-96500000D01*
X163635849Y-93364151D02*
X163635849Y-96000000D01*
X164710849Y-92289151D02*
X163635849Y-93364151D01*
X164710849Y-90772500D02*
X164710849Y-92289151D01*
X163635849Y-96000000D02*
X164135849Y-96500000D01*
%TO.N,Net-(D4-A)*%
X166635849Y-96500000D02*
X168460849Y-96500000D01*
%TO.N,Net-(D5-K)*%
X165135849Y-92033982D02*
X165135849Y-94000000D01*
X165738337Y-91708982D02*
X165898349Y-91548970D01*
X165460849Y-91708982D02*
X165738337Y-91708982D01*
X165898349Y-91548970D02*
X165898349Y-90085000D01*
X165460849Y-91708982D02*
X165135849Y-92033982D01*
%TO.N,Net-(D5-A)*%
X166710849Y-94000000D02*
X168485849Y-94000000D01*
%TO.N,/MCU/SBWDTIO*%
X151500000Y-98870000D02*
X153750000Y-101120000D01*
X150750000Y-86500000D02*
X151500000Y-87250000D01*
X134827549Y-90701700D02*
X135907448Y-90701700D01*
X137250000Y-87750000D02*
X138750000Y-87750000D01*
X140000000Y-86500000D02*
X150750000Y-86500000D01*
X135907448Y-90701700D02*
X137250000Y-89359148D01*
X151500000Y-87250000D02*
X151500000Y-98870000D01*
X138750000Y-87750000D02*
X139000000Y-87500000D01*
X137250000Y-89359148D02*
X137250000Y-87750000D01*
X139000000Y-87500000D02*
X140000000Y-86500000D01*
%TO.N,/MCU/SBWTCK*%
X133298300Y-93201700D02*
X134827549Y-93201700D01*
X133250000Y-93250000D02*
X133298300Y-93201700D01*
%TO.N,Net-(J1-Shield)*%
X155190000Y-63500000D02*
X155025000Y-63335000D01*
D50*
%TO.N,Net-(D6-K)*%
X155000000Y-69500000D02*
X155000000Y-67000000D01*
%TD*%
%TA.AperFunction,Conductor*%
%TO.N,Net-(J1-Shield)*%
G36*
X167985648Y-62514852D02*
G01*
X168000000Y-62549500D01*
X168000000Y-67701000D01*
X167985648Y-67735648D01*
X167951000Y-67750000D01*
X164799500Y-67750000D01*
X164764852Y-67735648D01*
X164750500Y-67701000D01*
X164750500Y-65666738D01*
X164747606Y-65646884D01*
X164740573Y-65598607D01*
X164689198Y-65493517D01*
X164606483Y-65410802D01*
X164553938Y-65385114D01*
X164501396Y-65359428D01*
X164501394Y-65359427D01*
X164433262Y-65349500D01*
X164433260Y-65349500D01*
X164166740Y-65349500D01*
X164166738Y-65349500D01*
X164098605Y-65359427D01*
X164098603Y-65359428D01*
X163996521Y-65409333D01*
X163959090Y-65411657D01*
X163953479Y-65409333D01*
X163851396Y-65359428D01*
X163851394Y-65359427D01*
X163783262Y-65349500D01*
X163783260Y-65349500D01*
X163516740Y-65349500D01*
X163516738Y-65349500D01*
X163448605Y-65359427D01*
X163448603Y-65359428D01*
X163346521Y-65409333D01*
X163309090Y-65411657D01*
X163303479Y-65409333D01*
X163201396Y-65359428D01*
X163201394Y-65359427D01*
X163133262Y-65349500D01*
X163133260Y-65349500D01*
X162866740Y-65349500D01*
X162866738Y-65349500D01*
X162798605Y-65359427D01*
X162798603Y-65359428D01*
X162696521Y-65409333D01*
X162659090Y-65411657D01*
X162653479Y-65409333D01*
X162551396Y-65359428D01*
X162551394Y-65359427D01*
X162483262Y-65349500D01*
X162483260Y-65349500D01*
X162216740Y-65349500D01*
X162216738Y-65349500D01*
X162148605Y-65359427D01*
X162148603Y-65359428D01*
X162046521Y-65409333D01*
X162009090Y-65411657D01*
X162003479Y-65409333D01*
X161901396Y-65359428D01*
X161901394Y-65359427D01*
X161833262Y-65349500D01*
X161833260Y-65349500D01*
X161566740Y-65349500D01*
X161566738Y-65349500D01*
X161498605Y-65359427D01*
X161498603Y-65359428D01*
X161393519Y-65410801D01*
X161393515Y-65410803D01*
X161310803Y-65493515D01*
X161310801Y-65493519D01*
X161259428Y-65598603D01*
X161259427Y-65598605D01*
X161249500Y-65666738D01*
X161249500Y-66883261D01*
X161259427Y-66951392D01*
X161259428Y-66951396D01*
X161294521Y-67023180D01*
X161299500Y-67044700D01*
X161299500Y-67701000D01*
X161285148Y-67735648D01*
X161250500Y-67750000D01*
X158049000Y-67750000D01*
X158014352Y-67735648D01*
X158000000Y-67701000D01*
X158000000Y-67566790D01*
X158014352Y-67532142D01*
X158049000Y-67517790D01*
X158061682Y-67519460D01*
X158177522Y-67550500D01*
X158177525Y-67550500D01*
X158322477Y-67550500D01*
X158392480Y-67531742D01*
X158462485Y-67512984D01*
X158588015Y-67440509D01*
X158690509Y-67338015D01*
X158762984Y-67212485D01*
X158787583Y-67120681D01*
X158800500Y-67072477D01*
X158800500Y-66927522D01*
X158762984Y-66787516D01*
X158762983Y-66787512D01*
X158690508Y-66661984D01*
X158588015Y-66559491D01*
X158462487Y-66487016D01*
X158462483Y-66487015D01*
X158322478Y-66449500D01*
X158322475Y-66449500D01*
X158177525Y-66449500D01*
X158177522Y-66449500D01*
X158061682Y-66480540D01*
X158024500Y-66475645D01*
X158001670Y-66445892D01*
X158000000Y-66433210D01*
X158000000Y-62549500D01*
X158014352Y-62514852D01*
X158049000Y-62500500D01*
X167951000Y-62500500D01*
X167985648Y-62514852D01*
G37*
%TD.AperFunction*%
%TD*%
M02*
