%TF.GenerationSoftware,KiCad,Pcbnew,9.0.6*%
%TF.CreationDate,2026-03-06T18:04:39-05:00*%
%TF.ProjectId,EKG_AQUISITION_MSP430,454b475f-4151-4554-9953-4954494f4e5f,rev?*%
%TF.SameCoordinates,Original*%
%TF.FileFunction,Paste,Top*%
%TF.FilePolarity,Positive*%
%FSLAX46Y46*%
G04 Gerber Fmt 4.6, Leading zero omitted, Abs format (unit mm)*
G04 Created by KiCad (PCBNEW 9.0.6) date 2026-03-06 18:04:39*
%MOMM*%
%LPD*%
G01*
G04 APERTURE LIST*
G04 Aperture macros list*
%AMRoundRect*
0 Rectangle with rounded corners*
0 $1 Rounding radius*
0 $2 $3 $4 $5 $6 $7 $8 $9 X,Y pos of 4 corners*
0 Add a 4 corners polygon primitive as box body*
4,1,4,$2,$3,$4,$5,$6,$7,$8,$9,$2,$3,0*
0 Add four circle primitives for the rounded corners*
1,1,$1+$1,$2,$3*
1,1,$1+$1,$4,$5*
1,1,$1+$1,$6,$7*
1,1,$1+$1,$8,$9*
0 Add four rect primitives between the rounded corners*
20,1,$1+$1,$2,$3,$4,$5,0*
20,1,$1+$1,$4,$5,$6,$7,0*
20,1,$1+$1,$6,$7,$8,$9,0*
20,1,$1+$1,$8,$9,$2,$3,0*%
G04 Aperture macros list end*
%ADD10RoundRect,0.250000X-0.475000X0.250000X-0.475000X-0.250000X0.475000X-0.250000X0.475000X0.250000X0*%
%ADD11RoundRect,0.225000X-0.225000X-0.250000X0.225000X-0.250000X0.225000X0.250000X-0.225000X0.250000X0*%
%ADD12R,1.524000X0.228600*%
%ADD13R,0.228600X1.524000*%
%ADD14RoundRect,0.200000X-0.275000X0.200000X-0.275000X-0.200000X0.275000X-0.200000X0.275000X0.200000X0*%
%ADD15RoundRect,0.200000X-0.200000X-0.275000X0.200000X-0.275000X0.200000X0.275000X-0.200000X0.275000X0*%
%ADD16RoundRect,0.200000X0.200000X0.275000X-0.200000X0.275000X-0.200000X-0.275000X0.200000X-0.275000X0*%
%ADD17RoundRect,0.225000X-0.250000X0.225000X-0.250000X-0.225000X0.250000X-0.225000X0.250000X0.225000X0*%
%ADD18RoundRect,0.150000X-0.587500X-0.150000X0.587500X-0.150000X0.587500X0.150000X-0.587500X0.150000X0*%
%ADD19RoundRect,0.250000X-0.250000X-0.475000X0.250000X-0.475000X0.250000X0.475000X-0.250000X0.475000X0*%
%ADD20RoundRect,0.225000X0.250000X-0.225000X0.250000X0.225000X-0.250000X0.225000X-0.250000X-0.225000X0*%
%ADD21RoundRect,0.225000X0.225000X0.250000X-0.225000X0.250000X-0.225000X-0.250000X0.225000X-0.250000X0*%
%ADD22RoundRect,0.200000X0.275000X-0.200000X0.275000X0.200000X-0.275000X0.200000X-0.275000X-0.200000X0*%
%ADD23RoundRect,0.243750X-0.243750X-0.456250X0.243750X-0.456250X0.243750X0.456250X-0.243750X0.456250X0*%
%ADD24RoundRect,0.250000X0.250000X0.475000X-0.250000X0.475000X-0.250000X-0.475000X0.250000X-0.475000X0*%
%ADD25R,0.279400X1.676400*%
%ADD26R,1.676400X0.279400*%
%ADD27RoundRect,0.317500X-0.317500X0.609600X-0.317500X-0.609600X0.317500X-0.609600X0.317500X0.609600X0*%
%ADD28R,0.660400X1.422400*%
%ADD29R,3.000000X0.900000*%
%ADD30RoundRect,0.160000X-0.160000X-0.160000X0.160000X-0.160000X0.160000X0.160000X-0.160000X0.160000X0*%
%ADD31RoundRect,0.062500X-0.375000X-0.062500X0.375000X-0.062500X0.375000X0.062500X-0.375000X0.062500X0*%
%ADD32RoundRect,0.062500X-0.062500X-0.375000X0.062500X-0.375000X0.062500X0.375000X-0.062500X0.375000X0*%
%ADD33R,0.300000X0.850000*%
%ADD34RoundRect,0.100000X0.100000X0.575000X-0.100000X0.575000X-0.100000X-0.575000X0.100000X-0.575000X0*%
%ADD35RoundRect,0.250000X1.200000X0.700000X-1.200000X0.700000X-1.200000X-0.700000X1.200000X-0.700000X0*%
%ADD36RoundRect,0.120000X-0.120000X-0.285000X0.120000X-0.285000X0.120000X0.285000X-0.120000X0.285000X0*%
%ADD37RoundRect,0.062500X-0.350000X-0.062500X0.350000X-0.062500X0.350000X0.062500X-0.350000X0.062500X0*%
G04 APERTURE END LIST*
D10*
%TO.C,C9*%
X102298350Y-94333300D03*
X102298350Y-96233300D03*
%TD*%
D11*
%TO.C,C1*%
X95700000Y-85998300D03*
X97250000Y-85998300D03*
%TD*%
%TO.C,C4*%
X106150000Y-83498300D03*
X107700000Y-83498300D03*
%TD*%
D12*
%TO.C,U3*%
X102999150Y-87333301D03*
X102999150Y-87833300D03*
X102999150Y-88333299D03*
X102999150Y-88833300D03*
X102999150Y-89333300D03*
X102999150Y-89833301D03*
X102999150Y-90333300D03*
X102999150Y-90833299D03*
D13*
X104398751Y-92232900D03*
X104898750Y-92232900D03*
X105398749Y-92232900D03*
X105898750Y-92232900D03*
X106398750Y-92232900D03*
X106898751Y-92232900D03*
X107398750Y-92232900D03*
X107898749Y-92232900D03*
D12*
X109298350Y-90833299D03*
X109298350Y-90333300D03*
X109298350Y-89833301D03*
X109298350Y-89333300D03*
X109298350Y-88833300D03*
X109298350Y-88333299D03*
X109298350Y-87833300D03*
X109298350Y-87333301D03*
D13*
X107898749Y-85933700D03*
X107398750Y-85933700D03*
X106898751Y-85933700D03*
X106398750Y-85933700D03*
X105898750Y-85933700D03*
X105398749Y-85933700D03*
X104898750Y-85933700D03*
X104398751Y-85933700D03*
%TD*%
D11*
%TO.C,C3*%
X96425000Y-93498300D03*
X97975000Y-93498300D03*
%TD*%
D14*
%TO.C,R10*%
X115298350Y-94508300D03*
X115298350Y-96158300D03*
%TD*%
D15*
%TO.C,R6*%
X100700000Y-82498300D03*
X102350000Y-82498300D03*
%TD*%
D16*
%TO.C,R4*%
X95525000Y-82498300D03*
X93875000Y-82498300D03*
%TD*%
D17*
%TO.C,C10*%
X104473350Y-96673300D03*
X104473350Y-98223300D03*
%TD*%
D15*
%TO.C,R2*%
X92200000Y-89498300D03*
X93850000Y-89498300D03*
%TD*%
D14*
%TO.C,R9*%
X111298350Y-98333300D03*
X111298350Y-99983300D03*
%TD*%
D11*
%TO.C,C6*%
X106523350Y-97833300D03*
X108073350Y-97833300D03*
%TD*%
D18*
%TO.C,D2*%
X88762500Y-92548300D03*
X88762500Y-94448300D03*
X90637500Y-93498300D03*
%TD*%
D16*
%TO.C,R3*%
X93700000Y-85998300D03*
X92050000Y-85998300D03*
%TD*%
D19*
%TO.C,C5*%
X106348350Y-95833300D03*
X108248350Y-95833300D03*
%TD*%
D20*
%TO.C,C7*%
X111298350Y-86883300D03*
X111298350Y-85333300D03*
%TD*%
%TO.C,C8*%
X100298350Y-96883300D03*
X100298350Y-95333300D03*
%TD*%
D18*
%TO.C,D1*%
X88200000Y-84498300D03*
X88200000Y-86398300D03*
X90075000Y-85448300D03*
%TD*%
D15*
%TO.C,R5*%
X97200000Y-82498300D03*
X98850000Y-82498300D03*
%TD*%
D21*
%TO.C,C2*%
X97250000Y-89498300D03*
X95700000Y-89498300D03*
%TD*%
D18*
%TO.C,D3*%
X88200000Y-88498300D03*
X88200000Y-90398300D03*
X90075000Y-89448300D03*
%TD*%
D15*
%TO.C,R11*%
X109798350Y-93333300D03*
X111448350Y-93333300D03*
%TD*%
%TO.C,R1*%
X92700000Y-93498300D03*
X94350000Y-93498300D03*
%TD*%
D11*
%TO.C,C31*%
X110425000Y-81998300D03*
X111975000Y-81998300D03*
%TD*%
D17*
%TO.C,C28*%
X134960850Y-83060000D03*
X134960850Y-84610000D03*
%TD*%
D20*
%TO.C,C30*%
X144500000Y-95000000D03*
X144500000Y-93450000D03*
%TD*%
D11*
%TO.C,C19*%
X143910849Y-76310000D03*
X145460849Y-76310000D03*
%TD*%
D22*
%TO.C,R15*%
X163460849Y-86335000D03*
X163460849Y-84685000D03*
%TD*%
D23*
%TO.C,D5*%
X164985849Y-94000000D03*
X166860849Y-94000000D03*
%TD*%
D24*
%TO.C,C24*%
X169360849Y-90835000D03*
X167460849Y-90835000D03*
%TD*%
D19*
%TO.C,C20*%
X152060849Y-73835000D03*
X153960849Y-73835000D03*
%TD*%
%TO.C,C21*%
X143510849Y-74310000D03*
X145410849Y-74310000D03*
%TD*%
%TO.C,C27*%
X122960849Y-81835000D03*
X124860849Y-81835000D03*
%TD*%
D11*
%TO.C,C12*%
X123250000Y-83835000D03*
X124800000Y-83835000D03*
%TD*%
%TO.C,C26*%
X153475000Y-63335000D03*
X155025000Y-63335000D03*
%TD*%
D14*
%TO.C,R14*%
X125960849Y-103010000D03*
X125960849Y-104660000D03*
%TD*%
%TO.C,R13*%
X137250000Y-86100000D03*
X137250000Y-87750000D03*
%TD*%
D15*
%TO.C,R22*%
X168485849Y-94000000D03*
X170135849Y-94000000D03*
%TD*%
D25*
%TO.C,U1*%
X132960850Y-86835000D03*
X132460848Y-86835000D03*
X131960849Y-86835000D03*
X131460850Y-86835000D03*
X130960849Y-86835000D03*
X130460850Y-86835000D03*
X129960848Y-86835000D03*
X129460849Y-86835000D03*
X128960850Y-86835000D03*
X128460849Y-86835000D03*
X127960849Y-86835000D03*
X127460851Y-86835000D03*
X126960849Y-86835000D03*
X126460850Y-86835000D03*
X125960848Y-86835000D03*
X125460849Y-86835000D03*
X124960850Y-86835000D03*
X124460849Y-86835000D03*
X123960850Y-86835000D03*
X123460848Y-86835000D03*
D26*
X121594149Y-88701699D03*
X121594149Y-89201701D03*
X121594149Y-89701700D03*
X121594149Y-90201699D03*
X121594149Y-90701700D03*
X121594149Y-91201699D03*
X121594149Y-91701701D03*
X121594149Y-92201700D03*
X121594149Y-92701699D03*
X121594149Y-93201700D03*
X121594149Y-93701700D03*
X121594149Y-94201701D03*
X121594149Y-94701700D03*
X121594149Y-95201699D03*
X121594149Y-95701701D03*
X121594149Y-96201700D03*
X121594149Y-96701701D03*
X121594149Y-97201700D03*
X121594149Y-97701699D03*
X121594149Y-98201701D03*
D25*
X123460848Y-100068400D03*
X123960850Y-100068400D03*
X124460849Y-100068400D03*
X124960848Y-100068400D03*
X125460849Y-100068400D03*
X125960848Y-100068400D03*
X126460850Y-100068400D03*
X126960849Y-100068400D03*
X127460848Y-100068400D03*
X127960849Y-100068400D03*
X128460849Y-100068400D03*
X128960850Y-100068400D03*
X129460849Y-100068400D03*
X129960848Y-100068400D03*
X130460850Y-100068400D03*
X130960849Y-100068400D03*
X131460850Y-100068400D03*
X131960849Y-100068400D03*
X132460848Y-100068400D03*
X132960850Y-100068400D03*
D26*
X134827549Y-98201701D03*
X134827549Y-97701699D03*
X134827549Y-97201700D03*
X134827549Y-96701701D03*
X134827549Y-96201700D03*
X134827549Y-95701701D03*
X134827549Y-95201699D03*
X134827549Y-94701700D03*
X134827549Y-94201701D03*
X134827549Y-93701700D03*
X134827549Y-93201700D03*
X134827549Y-92701699D03*
X134827549Y-92201700D03*
X134827549Y-91701701D03*
X134827549Y-91201699D03*
X134827549Y-90701700D03*
X134827549Y-90201699D03*
X134827549Y-89701700D03*
X134827549Y-89201701D03*
X134827549Y-88701699D03*
%TD*%
D23*
%TO.C,D6*%
X155000000Y-69500000D03*
X156875000Y-69500000D03*
%TD*%
D27*
%TO.C,Y2*%
X138556200Y-89718000D03*
X138556200Y-93782000D03*
X140943800Y-93782000D03*
X140943800Y-89718000D03*
%TD*%
D20*
%TO.C,C14*%
X121250000Y-84335000D03*
X121250000Y-82785000D03*
%TD*%
D28*
%TO.C,Y1*%
X126612400Y-83500000D03*
X129000000Y-83500000D03*
%TD*%
D19*
%TO.C,C22*%
X156060849Y-73835000D03*
X157960849Y-73835000D03*
%TD*%
D29*
%TO.C,L1*%
X144250000Y-70450000D03*
X144250000Y-72550000D03*
%TD*%
D23*
%TO.C,D4*%
X164910849Y-96500000D03*
X166785849Y-96500000D03*
%TD*%
D17*
%TO.C,C11*%
X132960849Y-83060000D03*
X132960849Y-84610000D03*
%TD*%
D11*
%TO.C,C29*%
X142750000Y-88750000D03*
X144300000Y-88750000D03*
%TD*%
D15*
%TO.C,R7*%
X155000000Y-67000000D03*
X156650000Y-67000000D03*
%TD*%
D16*
%TO.C,R17*%
X169110849Y-88335000D03*
X167460849Y-88335000D03*
%TD*%
D30*
%TO.C,U4*%
X164060849Y-88935000D03*
X164060849Y-89735000D03*
X164860849Y-88935000D03*
X164860849Y-89735000D03*
D31*
X163023349Y-88585000D03*
X163023349Y-89085000D03*
X163023349Y-89585000D03*
X163023349Y-90085000D03*
D32*
X163710849Y-90772500D03*
X164210849Y-90772500D03*
X164710849Y-90772500D03*
X165210849Y-90772500D03*
D31*
X165898349Y-90085000D03*
X165898349Y-89585000D03*
X165898349Y-89085000D03*
X165898349Y-88585000D03*
D32*
X165210849Y-87897500D03*
X164710849Y-87897500D03*
X164210849Y-87897500D03*
X163710849Y-87897500D03*
%TD*%
D33*
%TO.C,J1*%
X166500000Y-63600000D03*
X159500000Y-63600000D03*
D34*
X161700000Y-66275000D03*
X162350000Y-66275000D03*
X163000000Y-66275000D03*
X163650000Y-66275000D03*
X164300000Y-66275000D03*
D35*
X163000000Y-63600000D03*
%TD*%
D36*
%TO.C,U2*%
X148448349Y-72335000D03*
X148448349Y-73335000D03*
X149048349Y-72335000D03*
X149048349Y-73335000D03*
D37*
X147535849Y-71835000D03*
X147535849Y-72335000D03*
X147535849Y-72835000D03*
X147535849Y-73335000D03*
X147535849Y-73835000D03*
X149960849Y-73835000D03*
X149960849Y-73335000D03*
X149960849Y-72835000D03*
X149960849Y-72335000D03*
X149960849Y-71835000D03*
%TD*%
D22*
%TO.C,R18*%
X164960849Y-86485000D03*
X164960849Y-84835000D03*
%TD*%
D17*
%TO.C,C17*%
X129500000Y-79250000D03*
X129500000Y-80800000D03*
%TD*%
D11*
%TO.C,C25*%
X166500000Y-86000000D03*
X168050000Y-86000000D03*
%TD*%
D17*
%TO.C,C18*%
X127000000Y-79450000D03*
X127000000Y-81000000D03*
%TD*%
D15*
%TO.C,R21*%
X168460849Y-96500000D03*
X170110849Y-96500000D03*
%TD*%
D21*
%TO.C,C16*%
X140550000Y-87500000D03*
X139000000Y-87500000D03*
%TD*%
D16*
%TO.C,R16*%
X161460849Y-88335000D03*
X159810849Y-88335000D03*
%TD*%
D20*
%TO.C,C13*%
X128960849Y-104385000D03*
X128960849Y-102835000D03*
%TD*%
D21*
%TO.C,C23*%
X162235850Y-99000000D03*
X160685850Y-99000000D03*
%TD*%
M02*
