M48
; DRILL file {KiCad 9.0.6} date 2026-03-06T18:04:36-0500
; FORMAT={-:-/ absolute / metric / decimal}
; #@! TF.CreationDate,2026-03-06T18:04:36-05:00
; #@! TF.GenerationSoftware,Kicad,Pcbnew,9.0.6
; #@! TF.FileFunction,MixedPlating,1,4
FMAT,2
METRIC
; #@! TA.AperFunction,Plated,PTH,ViaDrill
T1C0.300
; #@! TA.AperFunction,Plated,PTH,ComponentDrill
T2C0.600
; #@! TA.AperFunction,Plated,PTH,ComponentDrill
T3C0.650
; #@! TA.AperFunction,Plated,PTH,ComponentDrill
T4C0.800
; #@! TA.AperFunction,Plated,PTH,ComponentDrill
T5C1.000
; #@! TA.AperFunction,Plated,PTH,ComponentDrill
T6C1.320
; #@! TA.AperFunction,Plated,PTH,ComponentDrill
T7C3.200
; #@! TA.AperFunction,NonPlated,NPTH,ComponentDrill
T8C2.390
; #@! TA.AperFunction,NonPlated,NPTH,ComponentDrill
T9C3.200
; #@! TA.AperFunction,NonPlated,NPTH,ComponentDrill
T10C3.550
%
G90
G05
T1
X86.7Y-87.498
X86.7Y-91.498
X86.95Y-92.748
X87.65Y-95.548
X88.287Y-82.498
X90.7Y-87.998
X94.7Y-84.998
X94.7Y-87.498
X96.7Y-90.498
X97.7Y-79.748
X97.975Y-94.973
X98.25Y-84.998
X98.7Y-89.498
X98.798Y-97.333
X99.0Y-88.122
X99.2Y-86.498
X99.95Y-79.748
X101.3Y-88.692
X103.798Y-99.333
X106.161Y-99.498
X108.073Y-99.398
X108.302Y-93.733
X108.7Y-81.998
X109.798Y-95.333
X109.798Y-100.833
X112.661Y-84.998
X112.7Y-83.248
X112.798Y-86.833
X112.798Y-94.833
X112.973Y-96.498
X114.298Y-97.933
X114.404Y-89.893
X116.798Y-90.898
X117.023Y-97.458
X117.798Y-92.1
X117.973Y-96.508
X118.798Y-91.998
X119.7Y-93.3
X119.961Y-82.835
X119.961Y-84.835
X122.961Y-80.25
X124.961Y-80.335
X126.361Y-85.335
X127.0Y-78.25
X127.461Y-103.5
X130.25Y-78.0
X130.461Y-102.835
X131.636Y-84.0
X131.775Y-106.0
X133.25Y-93.25
X136.351Y-84.61
X136.461Y-82.835
X136.5Y-99.0
X136.75Y-95.0
X137.299Y-93.549
X137.605Y-84.855
X141.75Y-87.5
X141.961Y-74.335
X142.25Y-92.0
X144.75Y-92.25
X145.625Y-89.625
X149.0Y-75.335
X150.573Y-75.335
X151.925Y-63.75
X151.961Y-71.835
X153.636Y-76.0
X155.961Y-75.335
X157.961Y-75.335
X158.25Y-67.0
X159.136Y-92.335
X159.961Y-86.835
X161.961Y-91.0
X162.162Y-92.266
X163.461Y-83.335
X163.961Y-99.0
X164.75Y-68.75
X164.961Y-83.335
X166.293Y-92.343
X169.5Y-86.0
X170.461Y-88.335
X170.5Y-90.835
T4
X144.486Y-81.5
X146.486Y-81.5
X148.486Y-81.5
T5
X81.16Y-83.845
X81.16Y-86.615
X81.16Y-89.385
X81.16Y-92.155
X84.0Y-82.46
X84.0Y-85.23
X84.0Y-88.0
X84.0Y-90.77
X84.0Y-93.54
X149.25Y-89.0
X149.25Y-91.54
X149.25Y-94.08
X149.25Y-96.62
X149.25Y-99.16
X149.25Y-101.7
X153.75Y-90.96
X153.75Y-93.5
X153.75Y-96.04
X153.75Y-98.58
X153.75Y-101.12
X156.29Y-90.96
X156.29Y-93.5
X156.29Y-96.04
X156.29Y-98.58
X156.29Y-101.12
T6
X90.73Y-117.25
X162.95Y-117.25
T7
X81.16Y-75.5
X81.16Y-100.5
T8
X162.95Y-125.25
T9
X83.0Y-66.25
X83.0Y-126.0
X171.5Y-66.25
X171.5Y-126.0
T10
X99.55Y-125.25
X154.75Y-109.25
T2
G00X158.825Y-63.95
M15
G01X158.825Y-63.25
M16
G05
G00X167.175Y-63.95
M15
G01X167.175Y-63.25
M16
G05
T3
G00X160.775Y-66.7
M15
G01X160.775Y-66.5
M16
G05
G00X165.225Y-66.7
M15
G01X165.225Y-66.5
M16
G05
T4
G00X142.336Y-81.7
M15
G01X142.336Y-81.3
M16
G05
G00X150.636Y-81.7
M15
G01X150.636Y-81.3
M16
G05
M30
