%TF.GenerationSoftware,KiCad,Pcbnew,9.0.6*%
%TF.CreationDate,2026-03-06T18:04:39-05:00*%
%TF.ProjectId,EKG_AQUISITION_MSP430,454b475f-4151-4554-9953-4954494f4e5f,rev?*%
%TF.SameCoordinates,Original*%
%TF.FileFunction,Soldermask,Bot*%
%TF.FilePolarity,Negative*%
%FSLAX46Y46*%
G04 Gerber Fmt 4.6, Leading zero omitted, Abs format (unit mm)*
G04 Created by KiCad (PCBNEW 9.0.6) date 2026-03-06 18:04:39*
%MOMM*%
%LPD*%
G01*
G04 APERTURE LIST*
G04 Aperture macros list*
%AMRoundRect*
0 Rectangle with rounded corners*
0 $1 Rounding radius*
0 $2 $3 $4 $5 $6 $7 $8 $9 X,Y pos of 4 corners*
0 Add a 4 corners polygon primitive as box body*
4,1,4,$2,$3,$4,$5,$6,$7,$8,$9,$2,$3,0*
0 Add four circle primitives for the rounded corners*
1,1,$1+$1,$2,$3*
1,1,$1+$1,$4,$5*
1,1,$1+$1,$6,$7*
1,1,$1+$1,$8,$9*
0 Add four rect primitives between the rounded corners*
20,1,$1+$1,$2,$3,$4,$5,0*
20,1,$1+$1,$4,$5,$6,$7,0*
20,1,$1+$1,$6,$7,$8,$9,0*
20,1,$1+$1,$8,$9,$2,$3,0*%
G04 Aperture macros list end*
%ADD10C,1.600000*%
%ADD11R,1.600000X1.600000*%
%ADD12C,4.000000*%
%ADD13C,3.200000*%
%ADD14R,1.700000X1.700000*%
%ADD15C,1.700000*%
%ADD16C,3.550000*%
%ADD17C,2.390000*%
%ADD18C,2.184000*%
%ADD19O,1.000000X1.900000*%
%ADD20O,1.050000X1.250000*%
%ADD21C,1.200000*%
%ADD22RoundRect,0.180000X0.420000X-0.720000X0.420000X0.720000X-0.420000X0.720000X-0.420000X-0.720000X0*%
G04 APERTURE END LIST*
D10*
%TO.C,J6*%
X81160000Y-83845000D03*
X81160000Y-86615000D03*
X81160000Y-89385000D03*
X81160000Y-92155000D03*
X84000000Y-82460000D03*
X84000000Y-85230000D03*
X84000000Y-88000000D03*
X84000000Y-90770000D03*
D11*
X84000000Y-93540000D03*
D12*
X81160000Y-100500000D03*
X81160000Y-75500000D03*
%TD*%
D13*
%TO.C,H2*%
X171500000Y-126000000D03*
%TD*%
D14*
%TO.C,J4*%
X149250000Y-101700000D03*
D15*
X149250000Y-99160000D03*
X149250000Y-96620000D03*
X149250000Y-94080000D03*
X149250000Y-91540000D03*
X149250000Y-89000000D03*
%TD*%
D14*
%TO.C,J2*%
X153750000Y-90960000D03*
D15*
X156290000Y-90960000D03*
X153750000Y-93500000D03*
X156290000Y-93500000D03*
X153750000Y-96040000D03*
X156290000Y-96040000D03*
X153750000Y-98580000D03*
X156290000Y-98580000D03*
X153750000Y-101120000D03*
X156290000Y-101120000D03*
%TD*%
D13*
%TO.C,H3*%
X171500000Y-66250000D03*
%TD*%
D16*
%TO.C,BT1*%
X99550000Y-125250000D03*
X154750000Y-109250000D03*
D17*
X162950000Y-125250000D03*
D18*
X90730000Y-117250000D03*
X162950000Y-117250000D03*
%TD*%
D19*
%TO.C,J1*%
X167175000Y-63600000D03*
D20*
X165225000Y-66600000D03*
X160775000Y-66600000D03*
D19*
X158825000Y-63600000D03*
%TD*%
D13*
%TO.C,H4*%
X83000000Y-66250000D03*
%TD*%
%TO.C,H1*%
X83000000Y-126000000D03*
%TD*%
D21*
%TO.C,U5*%
X144485849Y-81500000D03*
X146485849Y-81500000D03*
X148485849Y-81500000D03*
D22*
X142335849Y-81500000D03*
X150635849Y-81500000D03*
%TD*%
M02*
