%TF.GenerationSoftware,KiCad,Pcbnew,9.0.6*%
%TF.CreationDate,2026-03-06T18:04:39-05:00*%
%TF.ProjectId,EKG_AQUISITION_MSP430,454b475f-4151-4554-9953-4954494f4e5f,rev?*%
%TF.SameCoordinates,Original*%
%TF.FileFunction,Copper,L3,Inr*%
%TF.FilePolarity,Positive*%
%FSLAX46Y46*%
G04 Gerber Fmt 4.6, Leading zero omitted, Abs format (unit mm)*
G04 Created by KiCad (PCBNEW 9.0.6) date 2026-03-06 18:04:39*
%MOMM*%
%LPD*%
G01*
G04 APERTURE LIST*
G04 Aperture macros list*
%AMRoundRect*
0 Rectangle with rounded corners*
0 $1 Rounding radius*
0 $2 $3 $4 $5 $6 $7 $8 $9 X,Y pos of 4 corners*
0 Add a 4 corners polygon primitive as box body*
4,1,4,$2,$3,$4,$5,$6,$7,$8,$9,$2,$3,0*
0 Add four circle primitives for the rounded corners*
1,1,$1+$1,$2,$3*
1,1,$1+$1,$4,$5*
1,1,$1+$1,$6,$7*
1,1,$1+$1,$8,$9*
0 Add four rect primitives between the rounded corners*
20,1,$1+$1,$2,$3,$4,$5,0*
20,1,$1+$1,$4,$5,$6,$7,0*
20,1,$1+$1,$6,$7,$8,$9,0*
20,1,$1+$1,$8,$9,$2,$3,0*%
G04 Aperture macros list end*
%TA.AperFunction,ComponentPad*%
%ADD10C,1.600000*%
%TD*%
%TA.AperFunction,ComponentPad*%
%ADD11R,1.600000X1.600000*%
%TD*%
%TA.AperFunction,ComponentPad*%
%ADD12C,4.000000*%
%TD*%
%TA.AperFunction,ComponentPad*%
%ADD13R,1.700000X1.700000*%
%TD*%
%TA.AperFunction,ComponentPad*%
%ADD14C,1.700000*%
%TD*%
%TA.AperFunction,ComponentPad*%
%ADD15C,1.980000*%
%TD*%
%TA.AperFunction,HeatsinkPad*%
%ADD16O,1.000000X1.900000*%
%TD*%
%TA.AperFunction,HeatsinkPad*%
%ADD17O,1.050000X1.250000*%
%TD*%
%TA.AperFunction,ComponentPad*%
%ADD18C,1.200000*%
%TD*%
%TA.AperFunction,ComponentPad*%
%ADD19RoundRect,0.180000X0.420000X-0.720000X0.420000X0.720000X-0.420000X0.720000X-0.420000X-0.720000X0*%
%TD*%
%TA.AperFunction,ViaPad*%
%ADD20C,0.600000*%
%TD*%
G04 APERTURE END LIST*
D10*
%TO.N,unconnected-(J6-Pad9)*%
%TO.C,J6*%
X81160000Y-83845000D03*
%TO.N,unconnected-(J6-Pad8)*%
X81160000Y-86615000D03*
%TO.N,unconnected-(J6-Pad7)*%
X81160000Y-89385000D03*
%TO.N,unconnected-(J6-Pad6)*%
X81160000Y-92155000D03*
%TO.N,GND*%
X84000000Y-82460000D03*
%TO.N,unconnected-(J6-Pad4)*%
X84000000Y-85230000D03*
%TO.N,/LF*%
X84000000Y-88000000D03*
%TO.N,/RF*%
X84000000Y-90770000D03*
D11*
%TO.N,/HB*%
X84000000Y-93540000D03*
D12*
%TO.N,N/C*%
X81160000Y-100500000D03*
X81160000Y-75500000D03*
%TD*%
D13*
%TO.N,GND*%
%TO.C,J4*%
X149250000Y-101700000D03*
D14*
%TO.N,unconnected-(J4-Pin_2-Pad2)*%
X149250000Y-99160000D03*
%TO.N,unconnected-(J4-Pin_3-Pad3)*%
X149250000Y-96620000D03*
%TO.N,/MCU/MCU_TX*%
X149250000Y-94080000D03*
%TO.N,/MCU/MCU_RX*%
X149250000Y-91540000D03*
%TO.N,unconnected-(J4-Pin_6-Pad6)*%
X149250000Y-89000000D03*
%TD*%
D13*
%TO.N,+3V3*%
%TO.C,J2*%
X153750000Y-90960000D03*
D14*
%TO.N,unconnected-(J2-Pin_2-Pad2)*%
X156290000Y-90960000D03*
%TO.N,GND*%
X153750000Y-93500000D03*
%TO.N,/MCU/SBWTCK*%
X156290000Y-93500000D03*
%TO.N,GND*%
X153750000Y-96040000D03*
%TO.N,unconnected-(J2-Pin_6-Pad6)*%
X156290000Y-96040000D03*
%TO.N,unconnected-(J2-Pin_7-Pad7)*%
X153750000Y-98580000D03*
%TO.N,unconnected-(J2-Pin_8-Pad8)*%
X156290000Y-98580000D03*
%TO.N,/MCU/SBWDTIO*%
X153750000Y-101120000D03*
%TO.N,unconnected-(J2-Pin_10-Pad10)*%
X156290000Y-101120000D03*
%TD*%
D15*
%TO.N,GND*%
%TO.C,BT1*%
X90730000Y-117250000D03*
%TO.N,Net-(BT1-PadP)*%
X162950000Y-117250000D03*
%TD*%
D16*
%TO.N,Net-(J1-Shield)*%
%TO.C,J1*%
X167175000Y-63600000D03*
D17*
X165225000Y-66600000D03*
X160775000Y-66600000D03*
D16*
X158825000Y-63600000D03*
%TD*%
D18*
%TO.N,VSYS*%
%TO.C,U5*%
X144485849Y-81500000D03*
%TO.N,Net-(U2-EN)*%
X146485849Y-81500000D03*
%TO.N,GND*%
X148485849Y-81500000D03*
D19*
X142335849Y-81500000D03*
X150635849Y-81500000D03*
%TD*%
D20*
%TO.N,/RF_IN*%
X94700000Y-87498300D03*
X94700000Y-84998300D03*
%TO.N,MCU_SCLK*%
X114298350Y-97933300D03*
%TO.N,GND*%
X112973350Y-96498300D03*
%TO.N,/HB_IN*%
X98700000Y-89498300D03*
%TO.N,+3V3*%
X112798350Y-94833300D03*
X109798350Y-100833300D03*
%TO.N,/LF_IN*%
X98999735Y-88122300D03*
X101300000Y-88691535D03*
%TO.N,/HB_IN*%
X99200000Y-86498300D03*
%TO.N,+3V3*%
X112798350Y-86833300D03*
X86700000Y-91498300D03*
X86700000Y-87498300D03*
X87650000Y-95548300D03*
X106160850Y-99498300D03*
%TO.N,MCU_RESET_N*%
X109798350Y-95333300D03*
X108301972Y-93733300D03*
%TO.N,MCU_SCLK*%
X114403865Y-89892785D03*
%TO.N,MCU_DRDY*%
X119700000Y-93299999D03*
%TO.N,MCU_MOSI*%
X117972615Y-96507565D03*
%TO.N,MCU_DRDY*%
X118798350Y-91998300D03*
%TO.N,GNDA*%
X86950000Y-92748300D03*
X98250000Y-84998300D03*
%TO.N,MCU_MISO*%
X116798350Y-90898300D03*
%TO.N,GNDA*%
X90700000Y-87998300D03*
X96700000Y-90498300D03*
%TO.N,MCU_MISO*%
X117022615Y-97457565D03*
%TO.N,GNDA*%
X108073350Y-99398300D03*
X98798350Y-97333300D03*
X108700000Y-81998300D03*
X97975000Y-94973300D03*
X88287500Y-82498300D03*
%TO.N,MCU_MOSI*%
X117798350Y-92099999D03*
%TO.N,GND*%
X112700000Y-83248300D03*
X112660850Y-84998300D03*
X103798350Y-99333300D03*
%TO.N,/RF_IN*%
X97700000Y-79748300D03*
%TO.N,/HB_IN*%
X99950000Y-79748300D03*
%TO.N,GND*%
X130250000Y-78000000D03*
X169500000Y-86000000D03*
X163460849Y-83335000D03*
X144750000Y-92250000D03*
X159960849Y-86835000D03*
X131635849Y-84000000D03*
X170460849Y-88335000D03*
X158250000Y-67000000D03*
X136500000Y-99000000D03*
X127000000Y-78250000D03*
X170500000Y-90835000D03*
X141750000Y-87500000D03*
%TO.N,+3V3*%
X130460849Y-102835000D03*
%TO.N,GND*%
X122960849Y-80250000D03*
X163960850Y-99000000D03*
X137299265Y-93549265D03*
X136460850Y-82835000D03*
X145625000Y-89625000D03*
X155960849Y-75335000D03*
X142250000Y-92000000D03*
X119960849Y-82835000D03*
X136750000Y-95000000D03*
X141960849Y-74335000D03*
X127460849Y-103500000D03*
X164960849Y-83335000D03*
X164750000Y-68750000D03*
X151960849Y-71835000D03*
X126360849Y-85335000D03*
X151925000Y-63750000D03*
X161960850Y-91000000D03*
%TO.N,+3V3*%
X157960849Y-75335000D03*
X136350850Y-84610000D03*
%TO.N,GND*%
X131775000Y-106000000D03*
%TO.N,+3V3*%
X137605425Y-84855425D03*
X153635849Y-76000000D03*
X119960849Y-84835000D03*
X124960849Y-80335000D03*
%TO.N,VSYS*%
X159135849Y-92335000D03*
X162161849Y-92266340D03*
X150573349Y-75335000D03*
X149000000Y-75335000D03*
X166292806Y-92343043D03*
%TO.N,/MCU/SBWTCK*%
X133250000Y-93250000D03*
%TD*%
%TA.AperFunction,Conductor*%
%TO.N,GND*%
G36*
X157892558Y-62520185D02*
G01*
X157938313Y-62572989D01*
X157948257Y-62642147D01*
X157940080Y-62671952D01*
X157862950Y-62858160D01*
X157862947Y-62858170D01*
X157824500Y-63051456D01*
X157824500Y-63051459D01*
X157824500Y-64148541D01*
X157824500Y-64148543D01*
X157824499Y-64148543D01*
X157862947Y-64341829D01*
X157862950Y-64341839D01*
X157938364Y-64523907D01*
X157938371Y-64523920D01*
X158047860Y-64687781D01*
X158047863Y-64687785D01*
X158187214Y-64827136D01*
X158187218Y-64827139D01*
X158351079Y-64936628D01*
X158351092Y-64936635D01*
X158533160Y-65012049D01*
X158533165Y-65012051D01*
X158533169Y-65012051D01*
X158533170Y-65012052D01*
X158726456Y-65050500D01*
X158726459Y-65050500D01*
X158923543Y-65050500D01*
X159053582Y-65024632D01*
X159116835Y-65012051D01*
X159298914Y-64936632D01*
X159462782Y-64827139D01*
X159602139Y-64687782D01*
X159711632Y-64523914D01*
X159787051Y-64341835D01*
X159825500Y-64148541D01*
X159825500Y-63051459D01*
X159825500Y-63051456D01*
X159787052Y-62858170D01*
X159787051Y-62858169D01*
X159787051Y-62858165D01*
X159711632Y-62676086D01*
X159709920Y-62671952D01*
X159702451Y-62602483D01*
X159733726Y-62540004D01*
X159793815Y-62504352D01*
X159824481Y-62500500D01*
X166175519Y-62500500D01*
X166242558Y-62520185D01*
X166288313Y-62572989D01*
X166298257Y-62642147D01*
X166290080Y-62671952D01*
X166212950Y-62858160D01*
X166212947Y-62858170D01*
X166174500Y-63051456D01*
X166174500Y-63051459D01*
X166174500Y-64148541D01*
X166174500Y-64148543D01*
X166174499Y-64148543D01*
X166212947Y-64341829D01*
X166212950Y-64341839D01*
X166288364Y-64523907D01*
X166288371Y-64523920D01*
X166397860Y-64687781D01*
X166397863Y-64687785D01*
X166537214Y-64827136D01*
X166537218Y-64827139D01*
X166701079Y-64936628D01*
X166701092Y-64936635D01*
X166883160Y-65012049D01*
X166883165Y-65012051D01*
X166883169Y-65012051D01*
X166883170Y-65012052D01*
X167076456Y-65050500D01*
X167076459Y-65050500D01*
X167273543Y-65050500D01*
X167403582Y-65024632D01*
X167466835Y-65012051D01*
X167648914Y-64936632D01*
X167812782Y-64827139D01*
X167952139Y-64687782D01*
X168061632Y-64523914D01*
X168137051Y-64341835D01*
X168175500Y-64148541D01*
X168175500Y-63051459D01*
X168175500Y-63051456D01*
X168137052Y-62858170D01*
X168137051Y-62858169D01*
X168137051Y-62858165D01*
X168061632Y-62676086D01*
X168059920Y-62671952D01*
X168052451Y-62602483D01*
X168083726Y-62540004D01*
X168143815Y-62504352D01*
X168174481Y-62500500D01*
X174625500Y-62500500D01*
X174692539Y-62520185D01*
X174738294Y-62572989D01*
X174749500Y-62624500D01*
X174749500Y-129375500D01*
X174729815Y-129442539D01*
X174677011Y-129488294D01*
X174625500Y-129499500D01*
X76624500Y-129499500D01*
X76557461Y-129479815D01*
X76511706Y-129427011D01*
X76500500Y-129375500D01*
X76500500Y-125878711D01*
X81149500Y-125878711D01*
X81149500Y-126121288D01*
X81181161Y-126361785D01*
X81243947Y-126596104D01*
X81336773Y-126820205D01*
X81336776Y-126820212D01*
X81458064Y-127030289D01*
X81458066Y-127030292D01*
X81458067Y-127030293D01*
X81605733Y-127222736D01*
X81605739Y-127222743D01*
X81777256Y-127394260D01*
X81777262Y-127394265D01*
X81969711Y-127541936D01*
X82179788Y-127663224D01*
X82403900Y-127756054D01*
X82638211Y-127818838D01*
X82818586Y-127842584D01*
X82878711Y-127850500D01*
X82878712Y-127850500D01*
X83121289Y-127850500D01*
X83169388Y-127844167D01*
X83361789Y-127818838D01*
X83596100Y-127756054D01*
X83820212Y-127663224D01*
X84030289Y-127541936D01*
X84222738Y-127394265D01*
X84394265Y-127222738D01*
X84541936Y-127030289D01*
X84663224Y-126820212D01*
X84756054Y-126596100D01*
X84818838Y-126361789D01*
X84850500Y-126121288D01*
X84850500Y-125878712D01*
X84818838Y-125638211D01*
X84756054Y-125403900D01*
X84663224Y-125179788D01*
X84627117Y-125117248D01*
X97524500Y-125117248D01*
X97524500Y-125382751D01*
X97524501Y-125382767D01*
X97559156Y-125646001D01*
X97627879Y-125902478D01*
X97729481Y-126147768D01*
X97729489Y-126147785D01*
X97862240Y-126377714D01*
X97862251Y-126377730D01*
X98023879Y-126588368D01*
X98023885Y-126588375D01*
X98211624Y-126776114D01*
X98211631Y-126776120D01*
X98361633Y-126891221D01*
X98422278Y-126937755D01*
X98422285Y-126937759D01*
X98652214Y-127070510D01*
X98652219Y-127070512D01*
X98652222Y-127070514D01*
X98652226Y-127070515D01*
X98652231Y-127070518D01*
X98897522Y-127172120D01*
X98897520Y-127172120D01*
X98897526Y-127172121D01*
X98897527Y-127172122D01*
X99153997Y-127240843D01*
X99417242Y-127275500D01*
X99417249Y-127275500D01*
X99682751Y-127275500D01*
X99682758Y-127275500D01*
X99946003Y-127240843D01*
X100202473Y-127172122D01*
X100447778Y-127070514D01*
X100677722Y-126937755D01*
X100888370Y-126776119D01*
X101076119Y-126588370D01*
X101237755Y-126377722D01*
X101370514Y-126147778D01*
X101472122Y-125902473D01*
X101540843Y-125646003D01*
X101575500Y-125382758D01*
X101575500Y-125136231D01*
X161504500Y-125136231D01*
X161504500Y-125363768D01*
X161540093Y-125588490D01*
X161610400Y-125804876D01*
X161610401Y-125804879D01*
X161660131Y-125902478D01*
X161713697Y-126007607D01*
X161847434Y-126191680D01*
X162008320Y-126352566D01*
X162192393Y-126486303D01*
X162291825Y-126536966D01*
X162395120Y-126589598D01*
X162395123Y-126589599D01*
X162503316Y-126624752D01*
X162611511Y-126659907D01*
X162715591Y-126676391D01*
X162836232Y-126695500D01*
X162836237Y-126695500D01*
X163063768Y-126695500D01*
X163172710Y-126678244D01*
X163288489Y-126659907D01*
X163504879Y-126589598D01*
X163707607Y-126486303D01*
X163891680Y-126352566D01*
X164052566Y-126191680D01*
X164186303Y-126007607D01*
X164251979Y-125878711D01*
X169649500Y-125878711D01*
X169649500Y-126121288D01*
X169681161Y-126361785D01*
X169743947Y-126596104D01*
X169836773Y-126820205D01*
X169836776Y-126820212D01*
X169958064Y-127030289D01*
X169958066Y-127030292D01*
X169958067Y-127030293D01*
X170105733Y-127222736D01*
X170105739Y-127222743D01*
X170277256Y-127394260D01*
X170277262Y-127394265D01*
X170469711Y-127541936D01*
X170679788Y-127663224D01*
X170903900Y-127756054D01*
X171138211Y-127818838D01*
X171318586Y-127842584D01*
X171378711Y-127850500D01*
X171378712Y-127850500D01*
X171621289Y-127850500D01*
X171669388Y-127844167D01*
X171861789Y-127818838D01*
X172096100Y-127756054D01*
X172320212Y-127663224D01*
X172530289Y-127541936D01*
X172722738Y-127394265D01*
X172894265Y-127222738D01*
X173041936Y-127030289D01*
X173163224Y-126820212D01*
X173256054Y-126596100D01*
X173318838Y-126361789D01*
X173350500Y-126121288D01*
X173350500Y-125878712D01*
X173318838Y-125638211D01*
X173256054Y-125403900D01*
X173163224Y-125179788D01*
X173041936Y-124969711D01*
X172981018Y-124890321D01*
X172894266Y-124777263D01*
X172894260Y-124777256D01*
X172722743Y-124605739D01*
X172722736Y-124605733D01*
X172530293Y-124458067D01*
X172530292Y-124458066D01*
X172530289Y-124458064D01*
X172320212Y-124336776D01*
X172320205Y-124336773D01*
X172096104Y-124243947D01*
X171861785Y-124181161D01*
X171621289Y-124149500D01*
X171621288Y-124149500D01*
X171378712Y-124149500D01*
X171378711Y-124149500D01*
X171138214Y-124181161D01*
X170903895Y-124243947D01*
X170679794Y-124336773D01*
X170679785Y-124336777D01*
X170469706Y-124458067D01*
X170277263Y-124605733D01*
X170277256Y-124605739D01*
X170105739Y-124777256D01*
X170105733Y-124777263D01*
X169958067Y-124969706D01*
X169836777Y-125179785D01*
X169836773Y-125179794D01*
X169743947Y-125403895D01*
X169681161Y-125638214D01*
X169649500Y-125878711D01*
X164251979Y-125878711D01*
X164289598Y-125804879D01*
X164359907Y-125588489D01*
X164389144Y-125403895D01*
X164395500Y-125363768D01*
X164395500Y-125136231D01*
X164369124Y-124969706D01*
X164359907Y-124911511D01*
X164289598Y-124695121D01*
X164289598Y-124695120D01*
X164186302Y-124492392D01*
X164052566Y-124308320D01*
X163891680Y-124147434D01*
X163707607Y-124013697D01*
X163504879Y-123910401D01*
X163504876Y-123910400D01*
X163288490Y-123840093D01*
X163063768Y-123804500D01*
X163063763Y-123804500D01*
X162836237Y-123804500D01*
X162836232Y-123804500D01*
X162611509Y-123840093D01*
X162395123Y-123910400D01*
X162395120Y-123910401D01*
X162192392Y-124013697D01*
X162087372Y-124089998D01*
X162008320Y-124147434D01*
X162008318Y-124147436D01*
X162008317Y-124147436D01*
X161847436Y-124308317D01*
X161847436Y-124308318D01*
X161847434Y-124308320D01*
X161815531Y-124352231D01*
X161713697Y-124492392D01*
X161610401Y-124695120D01*
X161610400Y-124695123D01*
X161540093Y-124911509D01*
X161504500Y-125136231D01*
X101575500Y-125136231D01*
X101575500Y-125117242D01*
X101540843Y-124853997D01*
X101472122Y-124597527D01*
X101428574Y-124492393D01*
X101370518Y-124352231D01*
X101370510Y-124352214D01*
X101237759Y-124122285D01*
X101237755Y-124122278D01*
X101076119Y-123911630D01*
X101076114Y-123911624D01*
X100888375Y-123723885D01*
X100888368Y-123723879D01*
X100677730Y-123562251D01*
X100677728Y-123562249D01*
X100677722Y-123562245D01*
X100677717Y-123562242D01*
X100677714Y-123562240D01*
X100447785Y-123429489D01*
X100447768Y-123429481D01*
X100202477Y-123327879D01*
X100202479Y-123327879D01*
X99946001Y-123259156D01*
X99682767Y-123224501D01*
X99682764Y-123224500D01*
X99682758Y-123224500D01*
X99417242Y-123224500D01*
X99417236Y-123224500D01*
X99417232Y-123224501D01*
X99153998Y-123259156D01*
X98897521Y-123327879D01*
X98652231Y-123429481D01*
X98652214Y-123429489D01*
X98422285Y-123562240D01*
X98422269Y-123562251D01*
X98211631Y-123723879D01*
X98211624Y-123723885D01*
X98023885Y-123911624D01*
X98023879Y-123911631D01*
X97862251Y-124122269D01*
X97862240Y-124122285D01*
X97729489Y-124352214D01*
X97729481Y-124352231D01*
X97627879Y-124597521D01*
X97559156Y-124853998D01*
X97524501Y-125117232D01*
X97524500Y-125117248D01*
X84627117Y-125117248D01*
X84541936Y-124969711D01*
X84481018Y-124890321D01*
X84394266Y-124777263D01*
X84394260Y-124777256D01*
X84222743Y-124605739D01*
X84222736Y-124605733D01*
X84030293Y-124458067D01*
X84030292Y-124458066D01*
X84030289Y-124458064D01*
X83820212Y-124336776D01*
X83820205Y-124336773D01*
X83596104Y-124243947D01*
X83361785Y-124181161D01*
X83121289Y-124149500D01*
X83121288Y-124149500D01*
X82878712Y-124149500D01*
X82878711Y-124149500D01*
X82638214Y-124181161D01*
X82403895Y-124243947D01*
X82179794Y-124336773D01*
X82179785Y-124336777D01*
X81969706Y-124458067D01*
X81777263Y-124605733D01*
X81777256Y-124605739D01*
X81605739Y-124777256D01*
X81605733Y-124777263D01*
X81458067Y-124969706D01*
X81336777Y-125179785D01*
X81336773Y-125179794D01*
X81243947Y-125403895D01*
X81181161Y-125638214D01*
X81149500Y-125878711D01*
X76500500Y-125878711D01*
X76500500Y-117132695D01*
X161459500Y-117132695D01*
X161459500Y-117367304D01*
X161496201Y-117599027D01*
X161568697Y-117822150D01*
X161675212Y-118031195D01*
X161813104Y-118220989D01*
X161813108Y-118220994D01*
X161979005Y-118386891D01*
X161979010Y-118386895D01*
X162144558Y-118507171D01*
X162168808Y-118524790D01*
X162377847Y-118631301D01*
X162377849Y-118631302D01*
X162489410Y-118667550D01*
X162600974Y-118703799D01*
X162832695Y-118740500D01*
X162832696Y-118740500D01*
X163067304Y-118740500D01*
X163067305Y-118740500D01*
X163299026Y-118703799D01*
X163522153Y-118631301D01*
X163731192Y-118524790D01*
X163920996Y-118386890D01*
X164086890Y-118220996D01*
X164224790Y-118031192D01*
X164331301Y-117822153D01*
X164403799Y-117599026D01*
X164440500Y-117367305D01*
X164440500Y-117132695D01*
X164403799Y-116900974D01*
X164331301Y-116677847D01*
X164224790Y-116468808D01*
X164207171Y-116444558D01*
X164086895Y-116279010D01*
X164086891Y-116279005D01*
X163920994Y-116113108D01*
X163920989Y-116113104D01*
X163731195Y-115975212D01*
X163731194Y-115975211D01*
X163731192Y-115975210D01*
X163626672Y-115921954D01*
X163522150Y-115868697D01*
X163299027Y-115796201D01*
X163183165Y-115777850D01*
X163067305Y-115759500D01*
X162832695Y-115759500D01*
X162755454Y-115771733D01*
X162600972Y-115796201D01*
X162377849Y-115868697D01*
X162168804Y-115975212D01*
X161979010Y-116113104D01*
X161979005Y-116113108D01*
X161813108Y-116279005D01*
X161813104Y-116279010D01*
X161675212Y-116468804D01*
X161568697Y-116677849D01*
X161496201Y-116900972D01*
X161459500Y-117132695D01*
X76500500Y-117132695D01*
X76500500Y-109117248D01*
X152724500Y-109117248D01*
X152724500Y-109382751D01*
X152724501Y-109382767D01*
X152759156Y-109646001D01*
X152827879Y-109902478D01*
X152929481Y-110147768D01*
X152929489Y-110147785D01*
X153062240Y-110377714D01*
X153062251Y-110377730D01*
X153223879Y-110588368D01*
X153223885Y-110588375D01*
X153411624Y-110776114D01*
X153411630Y-110776119D01*
X153622278Y-110937755D01*
X153622285Y-110937759D01*
X153852214Y-111070510D01*
X153852219Y-111070512D01*
X153852222Y-111070514D01*
X153852226Y-111070515D01*
X153852231Y-111070518D01*
X154097522Y-111172120D01*
X154097520Y-111172120D01*
X154097526Y-111172121D01*
X154097527Y-111172122D01*
X154353997Y-111240843D01*
X154617242Y-111275500D01*
X154617249Y-111275500D01*
X154882751Y-111275500D01*
X154882758Y-111275500D01*
X155146003Y-111240843D01*
X155402473Y-111172122D01*
X155647778Y-111070514D01*
X155877722Y-110937755D01*
X156088370Y-110776119D01*
X156276119Y-110588370D01*
X156437755Y-110377722D01*
X156570514Y-110147778D01*
X156672122Y-109902473D01*
X156740843Y-109646003D01*
X156775500Y-109382758D01*
X156775500Y-109117242D01*
X156740843Y-108853997D01*
X156672122Y-108597527D01*
X156570514Y-108352222D01*
X156570512Y-108352219D01*
X156570510Y-108352214D01*
X156437759Y-108122285D01*
X156437755Y-108122278D01*
X156276119Y-107911630D01*
X156276114Y-107911624D01*
X156088375Y-107723885D01*
X156088368Y-107723879D01*
X155877730Y-107562251D01*
X155877728Y-107562249D01*
X155877722Y-107562245D01*
X155877717Y-107562242D01*
X155877714Y-107562240D01*
X155647785Y-107429489D01*
X155647768Y-107429481D01*
X155402477Y-107327879D01*
X155402479Y-107327879D01*
X155146001Y-107259156D01*
X154882767Y-107224501D01*
X154882764Y-107224500D01*
X154882758Y-107224500D01*
X154617242Y-107224500D01*
X154617236Y-107224500D01*
X154617232Y-107224501D01*
X154353998Y-107259156D01*
X154097521Y-107327879D01*
X153852231Y-107429481D01*
X153852214Y-107429489D01*
X153622285Y-107562240D01*
X153622269Y-107562251D01*
X153411631Y-107723879D01*
X153411624Y-107723885D01*
X153223885Y-107911624D01*
X153223879Y-107911631D01*
X153062251Y-108122269D01*
X153062240Y-108122285D01*
X152929489Y-108352214D01*
X152929481Y-108352231D01*
X152827879Y-108597521D01*
X152759156Y-108853998D01*
X152724501Y-109117232D01*
X152724500Y-109117248D01*
X76500500Y-109117248D01*
X76500500Y-100359568D01*
X78659500Y-100359568D01*
X78659500Y-100640431D01*
X78690942Y-100919494D01*
X78690945Y-100919512D01*
X78753439Y-101193317D01*
X78753443Y-101193329D01*
X78846200Y-101458411D01*
X78968053Y-101711442D01*
X78968055Y-101711445D01*
X79117477Y-101949248D01*
X79292584Y-102168825D01*
X79491175Y-102367416D01*
X79710752Y-102542523D01*
X79948555Y-102691945D01*
X80201592Y-102813801D01*
X80400680Y-102883465D01*
X80466670Y-102906556D01*
X80466682Y-102906560D01*
X80740491Y-102969055D01*
X80740497Y-102969055D01*
X80740505Y-102969057D01*
X80926547Y-102990018D01*
X81019569Y-103000499D01*
X81019572Y-103000500D01*
X81019575Y-103000500D01*
X81300428Y-103000500D01*
X81300429Y-103000499D01*
X81443055Y-102984429D01*
X81579494Y-102969057D01*
X81579499Y-102969056D01*
X81579509Y-102969055D01*
X81853318Y-102906560D01*
X82118408Y-102813801D01*
X82238115Y-102756153D01*
X129660349Y-102756153D01*
X129660349Y-102913846D01*
X129691110Y-103068489D01*
X129691113Y-103068501D01*
X129751451Y-103214172D01*
X129751458Y-103214185D01*
X129839059Y-103345288D01*
X129839062Y-103345292D01*
X129950556Y-103456786D01*
X129950560Y-103456789D01*
X130081663Y-103544390D01*
X130081676Y-103544397D01*
X130227347Y-103604735D01*
X130227352Y-103604737D01*
X130382002Y-103635499D01*
X130382005Y-103635500D01*
X130382007Y-103635500D01*
X130539693Y-103635500D01*
X130539694Y-103635499D01*
X130694346Y-103604737D01*
X130840028Y-103544394D01*
X130971138Y-103456789D01*
X131082638Y-103345289D01*
X131170243Y-103214179D01*
X131230586Y-103068497D01*
X131261349Y-102913842D01*
X131261349Y-102756158D01*
X131261349Y-102756155D01*
X131261348Y-102756153D01*
X131230587Y-102601510D01*
X131230586Y-102601503D01*
X131206156Y-102542523D01*
X131170246Y-102455827D01*
X131170239Y-102455814D01*
X131082638Y-102324711D01*
X131082635Y-102324707D01*
X130971141Y-102213213D01*
X130971137Y-102213210D01*
X130840034Y-102125609D01*
X130840021Y-102125602D01*
X130694350Y-102065264D01*
X130694338Y-102065261D01*
X130539694Y-102034500D01*
X130539691Y-102034500D01*
X130382007Y-102034500D01*
X130382004Y-102034500D01*
X130227359Y-102065261D01*
X130227347Y-102065264D01*
X130081676Y-102125602D01*
X130081663Y-102125609D01*
X129950560Y-102213210D01*
X129950556Y-102213213D01*
X129839062Y-102324707D01*
X129839059Y-102324711D01*
X129751458Y-102455814D01*
X129751451Y-102455827D01*
X129691113Y-102601498D01*
X129691110Y-102601510D01*
X129660349Y-102756153D01*
X82238115Y-102756153D01*
X82371445Y-102691945D01*
X82609248Y-102542523D01*
X82828825Y-102367416D01*
X83027416Y-102168825D01*
X83202523Y-101949248D01*
X83351945Y-101711445D01*
X83473801Y-101458408D01*
X83566560Y-101193318D01*
X83629055Y-100919509D01*
X83647652Y-100754455D01*
X83647652Y-100754453D01*
X108997850Y-100754453D01*
X108997850Y-100912146D01*
X109028611Y-101066789D01*
X109028614Y-101066801D01*
X109088952Y-101212472D01*
X109088959Y-101212485D01*
X109176560Y-101343588D01*
X109176563Y-101343592D01*
X109288057Y-101455086D01*
X109288061Y-101455089D01*
X109419164Y-101542690D01*
X109419177Y-101542697D01*
X109564848Y-101603035D01*
X109564853Y-101603037D01*
X109719503Y-101633799D01*
X109719506Y-101633800D01*
X109719508Y-101633800D01*
X109877194Y-101633800D01*
X109877195Y-101633799D01*
X110031847Y-101603037D01*
X110177529Y-101542694D01*
X110308639Y-101455089D01*
X110420139Y-101343589D01*
X110507744Y-101212479D01*
X110568087Y-101066797D01*
X110598850Y-100912142D01*
X110598850Y-100754458D01*
X110598850Y-100754455D01*
X110598849Y-100754453D01*
X110594876Y-100734481D01*
X110568087Y-100599803D01*
X110512664Y-100465998D01*
X110507747Y-100454127D01*
X110507740Y-100454114D01*
X110420139Y-100323011D01*
X110420136Y-100323007D01*
X110308642Y-100211513D01*
X110308638Y-100211510D01*
X110177535Y-100123909D01*
X110177522Y-100123902D01*
X110031851Y-100063564D01*
X110031839Y-100063561D01*
X109877195Y-100032800D01*
X109877192Y-100032800D01*
X109719508Y-100032800D01*
X109719505Y-100032800D01*
X109564860Y-100063561D01*
X109564848Y-100063564D01*
X109419177Y-100123902D01*
X109419164Y-100123909D01*
X109288061Y-100211510D01*
X109288057Y-100211513D01*
X109176563Y-100323007D01*
X109176560Y-100323011D01*
X109088959Y-100454114D01*
X109088952Y-100454127D01*
X109028614Y-100599798D01*
X109028611Y-100599810D01*
X108997850Y-100754453D01*
X83647652Y-100754453D01*
X83649903Y-100734482D01*
X83649903Y-100734481D01*
X83660499Y-100640431D01*
X83660500Y-100640427D01*
X83660500Y-100359572D01*
X83660499Y-100359568D01*
X83629057Y-100080505D01*
X83629054Y-100080487D01*
X83625191Y-100063564D01*
X83566560Y-99806682D01*
X83556341Y-99777479D01*
X83497774Y-99610104D01*
X83473801Y-99541592D01*
X83473798Y-99541587D01*
X83473796Y-99541580D01*
X83437961Y-99467167D01*
X83414983Y-99419453D01*
X105360350Y-99419453D01*
X105360350Y-99577146D01*
X105391111Y-99731789D01*
X105391114Y-99731801D01*
X105451452Y-99877472D01*
X105451459Y-99877485D01*
X105539060Y-100008588D01*
X105539063Y-100008592D01*
X105650557Y-100120086D01*
X105650561Y-100120089D01*
X105781664Y-100207690D01*
X105781677Y-100207697D01*
X105860167Y-100240208D01*
X105927353Y-100268037D01*
X106082003Y-100298799D01*
X106082006Y-100298800D01*
X106082008Y-100298800D01*
X106239694Y-100298800D01*
X106239695Y-100298799D01*
X106394347Y-100268037D01*
X106540029Y-100207694D01*
X106671139Y-100120089D01*
X106782639Y-100008589D01*
X106870244Y-99877479D01*
X106930587Y-99731797D01*
X106961350Y-99577142D01*
X106961350Y-99419458D01*
X106961350Y-99419455D01*
X106945059Y-99337558D01*
X106945059Y-99337557D01*
X106941458Y-99319453D01*
X107272850Y-99319453D01*
X107272850Y-99477146D01*
X107303611Y-99631789D01*
X107303614Y-99631801D01*
X107363952Y-99777472D01*
X107363959Y-99777485D01*
X107451560Y-99908588D01*
X107451563Y-99908592D01*
X107563057Y-100020086D01*
X107563061Y-100020089D01*
X107694164Y-100107690D01*
X107694177Y-100107697D01*
X107839848Y-100168035D01*
X107839853Y-100168037D01*
X107950791Y-100190104D01*
X107994503Y-100198799D01*
X107994506Y-100198800D01*
X107994508Y-100198800D01*
X108152194Y-100198800D01*
X108152195Y-100198799D01*
X108306847Y-100168037D01*
X108452529Y-100107694D01*
X108583639Y-100020089D01*
X108695139Y-99908589D01*
X108782744Y-99777479D01*
X108843087Y-99631797D01*
X108873850Y-99477142D01*
X108873850Y-99319458D01*
X108873850Y-99319455D01*
X108873849Y-99319453D01*
X108865813Y-99279056D01*
X108843087Y-99164803D01*
X108815587Y-99098412D01*
X108782747Y-99019127D01*
X108782740Y-99019114D01*
X108695139Y-98888011D01*
X108695136Y-98888007D01*
X108583642Y-98776513D01*
X108583638Y-98776510D01*
X108452535Y-98688909D01*
X108452522Y-98688902D01*
X108306851Y-98628564D01*
X108306839Y-98628561D01*
X108152195Y-98597800D01*
X108152192Y-98597800D01*
X107994508Y-98597800D01*
X107994505Y-98597800D01*
X107839860Y-98628561D01*
X107839848Y-98628564D01*
X107694177Y-98688902D01*
X107694164Y-98688909D01*
X107563061Y-98776510D01*
X107563057Y-98776513D01*
X107451563Y-98888007D01*
X107451560Y-98888011D01*
X107363959Y-99019114D01*
X107363952Y-99019127D01*
X107303614Y-99164798D01*
X107303611Y-99164810D01*
X107272850Y-99319453D01*
X106941458Y-99319453D01*
X106935312Y-99288557D01*
X106930587Y-99264803D01*
X106889164Y-99164798D01*
X106870247Y-99119127D01*
X106870240Y-99119114D01*
X106782639Y-98988011D01*
X106782636Y-98988007D01*
X106671142Y-98876513D01*
X106671138Y-98876510D01*
X106540035Y-98788909D01*
X106540022Y-98788902D01*
X106394351Y-98728564D01*
X106394339Y-98728561D01*
X106239695Y-98697800D01*
X106239692Y-98697800D01*
X106082008Y-98697800D01*
X106082005Y-98697800D01*
X105927360Y-98728561D01*
X105927348Y-98728564D01*
X105781677Y-98788902D01*
X105781664Y-98788909D01*
X105650561Y-98876510D01*
X105650557Y-98876513D01*
X105539063Y-98988007D01*
X105539060Y-98988011D01*
X105451459Y-99119114D01*
X105451452Y-99119127D01*
X105391114Y-99264798D01*
X105391111Y-99264810D01*
X105360350Y-99419453D01*
X83414983Y-99419453D01*
X83351946Y-99288557D01*
X83351483Y-99287820D01*
X83202523Y-99050752D01*
X83027416Y-98831175D01*
X82828825Y-98632584D01*
X82823780Y-98628561D01*
X82731649Y-98555089D01*
X82609248Y-98457477D01*
X82371445Y-98308055D01*
X82371442Y-98308053D01*
X82118411Y-98186200D01*
X81853329Y-98093443D01*
X81853317Y-98093439D01*
X81579512Y-98030945D01*
X81579494Y-98030942D01*
X81300431Y-97999500D01*
X81300425Y-97999500D01*
X81019575Y-97999500D01*
X81019568Y-97999500D01*
X80740505Y-98030942D01*
X80740487Y-98030945D01*
X80466682Y-98093439D01*
X80466670Y-98093443D01*
X80201588Y-98186200D01*
X79948557Y-98308053D01*
X79710753Y-98457476D01*
X79491175Y-98632583D01*
X79292583Y-98831175D01*
X79117476Y-99050753D01*
X78968053Y-99288557D01*
X78846200Y-99541588D01*
X78753443Y-99806670D01*
X78753439Y-99806682D01*
X78690945Y-100080487D01*
X78690942Y-100080505D01*
X78659500Y-100359568D01*
X76500500Y-100359568D01*
X76500500Y-97254453D01*
X97997850Y-97254453D01*
X97997850Y-97412146D01*
X98028611Y-97566789D01*
X98028614Y-97566801D01*
X98088952Y-97712472D01*
X98088959Y-97712485D01*
X98176560Y-97843588D01*
X98176563Y-97843592D01*
X98288057Y-97955086D01*
X98288061Y-97955089D01*
X98419164Y-98042690D01*
X98419177Y-98042697D01*
X98541691Y-98093443D01*
X98564853Y-98103037D01*
X98719503Y-98133799D01*
X98719506Y-98133800D01*
X98719508Y-98133800D01*
X98877194Y-98133800D01*
X98877195Y-98133799D01*
X99031847Y-98103037D01*
X99177529Y-98042694D01*
X99308639Y-97955089D01*
X99409275Y-97854453D01*
X113497850Y-97854453D01*
X113497850Y-98012146D01*
X113528611Y-98166789D01*
X113528614Y-98166801D01*
X113588952Y-98312472D01*
X113588959Y-98312485D01*
X113676560Y-98443588D01*
X113676563Y-98443592D01*
X113788057Y-98555086D01*
X113788061Y-98555089D01*
X113919164Y-98642690D01*
X113919177Y-98642697D01*
X114064848Y-98703035D01*
X114064853Y-98703037D01*
X114193170Y-98728561D01*
X114219503Y-98733799D01*
X114219506Y-98733800D01*
X114219508Y-98733800D01*
X114377194Y-98733800D01*
X114377195Y-98733799D01*
X114531847Y-98703037D01*
X114677529Y-98642694D01*
X114808639Y-98555089D01*
X114920139Y-98443589D01*
X115007744Y-98312479D01*
X115009577Y-98308055D01*
X115060050Y-98186199D01*
X115068087Y-98166797D01*
X115098850Y-98012142D01*
X115098850Y-97854458D01*
X115098850Y-97854455D01*
X115098849Y-97854453D01*
X115083943Y-97779516D01*
X115068087Y-97699803D01*
X115047501Y-97650104D01*
X115007747Y-97554127D01*
X115007740Y-97554114D01*
X114932508Y-97441522D01*
X114920139Y-97423011D01*
X114920136Y-97423007D01*
X114875847Y-97378718D01*
X116222115Y-97378718D01*
X116222115Y-97536411D01*
X116252876Y-97691054D01*
X116252879Y-97691066D01*
X116313217Y-97836737D01*
X116313224Y-97836750D01*
X116400825Y-97967853D01*
X116400828Y-97967857D01*
X116512322Y-98079351D01*
X116512326Y-98079354D01*
X116643429Y-98166955D01*
X116643442Y-98166962D01*
X116789113Y-98227300D01*
X116789118Y-98227302D01*
X116943768Y-98258064D01*
X116943771Y-98258065D01*
X116943773Y-98258065D01*
X117101459Y-98258065D01*
X117101460Y-98258064D01*
X117256112Y-98227302D01*
X117401794Y-98166959D01*
X117532904Y-98079354D01*
X117644404Y-97967854D01*
X117732009Y-97836744D01*
X117792352Y-97691062D01*
X117823115Y-97536407D01*
X117823115Y-97432065D01*
X117842800Y-97365026D01*
X117895604Y-97319271D01*
X117947115Y-97308065D01*
X118051459Y-97308065D01*
X118051460Y-97308064D01*
X118206112Y-97277302D01*
X118351794Y-97216959D01*
X118482904Y-97129354D01*
X118594404Y-97017854D01*
X118682009Y-96886744D01*
X118742352Y-96741062D01*
X118773115Y-96586407D01*
X118773115Y-96428723D01*
X118773115Y-96428720D01*
X118773114Y-96428718D01*
X118751098Y-96318037D01*
X118742352Y-96274068D01*
X118689424Y-96146287D01*
X118682012Y-96128392D01*
X118682005Y-96128379D01*
X118594404Y-95997276D01*
X118594401Y-95997272D01*
X118482907Y-95885778D01*
X118482903Y-95885775D01*
X118351800Y-95798174D01*
X118351787Y-95798167D01*
X118206116Y-95737829D01*
X118206104Y-95737826D01*
X118051460Y-95707065D01*
X118051457Y-95707065D01*
X117893773Y-95707065D01*
X117893770Y-95707065D01*
X117739125Y-95737826D01*
X117739113Y-95737829D01*
X117593442Y-95798167D01*
X117593429Y-95798174D01*
X117462326Y-95885775D01*
X117462322Y-95885778D01*
X117350828Y-95997272D01*
X117350825Y-95997276D01*
X117263224Y-96128379D01*
X117263217Y-96128392D01*
X117202879Y-96274063D01*
X117202876Y-96274075D01*
X117172115Y-96428718D01*
X117172115Y-96533065D01*
X117152430Y-96600104D01*
X117099626Y-96645859D01*
X117048115Y-96657065D01*
X116943770Y-96657065D01*
X116789125Y-96687826D01*
X116789113Y-96687829D01*
X116643442Y-96748167D01*
X116643429Y-96748174D01*
X116512326Y-96835775D01*
X116512322Y-96835778D01*
X116400828Y-96947272D01*
X116400825Y-96947276D01*
X116313224Y-97078379D01*
X116313217Y-97078392D01*
X116252879Y-97224063D01*
X116252876Y-97224075D01*
X116222115Y-97378718D01*
X114875847Y-97378718D01*
X114808642Y-97311513D01*
X114808638Y-97311510D01*
X114677535Y-97223909D01*
X114677522Y-97223902D01*
X114531851Y-97163564D01*
X114531839Y-97163561D01*
X114377195Y-97132800D01*
X114377192Y-97132800D01*
X114219508Y-97132800D01*
X114219505Y-97132800D01*
X114064860Y-97163561D01*
X114064848Y-97163564D01*
X113919177Y-97223902D01*
X113919164Y-97223909D01*
X113788061Y-97311510D01*
X113788057Y-97311513D01*
X113676563Y-97423007D01*
X113676560Y-97423011D01*
X113588959Y-97554114D01*
X113588952Y-97554127D01*
X113528614Y-97699798D01*
X113528611Y-97699810D01*
X113497850Y-97854453D01*
X99409275Y-97854453D01*
X99420139Y-97843589D01*
X99448349Y-97801368D01*
X99462979Y-97779475D01*
X99507740Y-97712485D01*
X99507740Y-97712484D01*
X99507744Y-97712479D01*
X99516614Y-97691066D01*
X99568085Y-97566801D01*
X99568087Y-97566797D01*
X99598850Y-97412142D01*
X99598850Y-97254458D01*
X99598850Y-97254455D01*
X99598849Y-97254453D01*
X99595687Y-97238556D01*
X99568087Y-97099803D01*
X99559213Y-97078379D01*
X99507747Y-96954127D01*
X99507740Y-96954114D01*
X99420139Y-96823011D01*
X99420136Y-96823007D01*
X99308642Y-96711513D01*
X99308638Y-96711510D01*
X99177535Y-96623909D01*
X99177522Y-96623902D01*
X99031851Y-96563564D01*
X99031839Y-96563561D01*
X98877195Y-96532800D01*
X98877192Y-96532800D01*
X98719508Y-96532800D01*
X98719505Y-96532800D01*
X98564860Y-96563561D01*
X98564848Y-96563564D01*
X98419177Y-96623902D01*
X98419164Y-96623909D01*
X98288061Y-96711510D01*
X98288057Y-96711513D01*
X98176563Y-96823007D01*
X98176560Y-96823011D01*
X98088959Y-96954114D01*
X98088952Y-96954127D01*
X98028614Y-97099798D01*
X98028611Y-97099810D01*
X97997850Y-97254453D01*
X76500500Y-97254453D01*
X76500500Y-95469453D01*
X86849500Y-95469453D01*
X86849500Y-95627146D01*
X86880261Y-95781789D01*
X86880264Y-95781801D01*
X86940602Y-95927472D01*
X86940609Y-95927485D01*
X87028210Y-96058588D01*
X87028213Y-96058592D01*
X87139707Y-96170086D01*
X87139711Y-96170089D01*
X87270814Y-96257690D01*
X87270827Y-96257697D01*
X87382035Y-96303760D01*
X87416503Y-96318037D01*
X87571153Y-96348799D01*
X87571156Y-96348800D01*
X87571158Y-96348800D01*
X87728844Y-96348800D01*
X87728845Y-96348799D01*
X87883497Y-96318037D01*
X88029179Y-96257694D01*
X88160289Y-96170089D01*
X88271789Y-96058589D01*
X88359394Y-95927479D01*
X88419737Y-95781797D01*
X88450500Y-95627142D01*
X88450500Y-95469458D01*
X88450500Y-95469455D01*
X88450499Y-95469453D01*
X88439099Y-95412142D01*
X88419737Y-95314803D01*
X88404723Y-95278556D01*
X88359397Y-95169127D01*
X88359390Y-95169114D01*
X88271789Y-95038011D01*
X88271786Y-95038007D01*
X88160292Y-94926513D01*
X88160288Y-94926510D01*
X88112312Y-94894453D01*
X97174500Y-94894453D01*
X97174500Y-95052146D01*
X97205261Y-95206789D01*
X97205264Y-95206801D01*
X97265602Y-95352472D01*
X97265609Y-95352485D01*
X97353210Y-95483588D01*
X97353213Y-95483592D01*
X97464707Y-95595086D01*
X97464711Y-95595089D01*
X97595814Y-95682690D01*
X97595827Y-95682697D01*
X97734673Y-95740208D01*
X97741503Y-95743037D01*
X97896153Y-95773799D01*
X97896156Y-95773800D01*
X97896158Y-95773800D01*
X98053844Y-95773800D01*
X98053845Y-95773799D01*
X98208497Y-95743037D01*
X98354179Y-95682694D01*
X98485289Y-95595089D01*
X98596789Y-95483589D01*
X98684394Y-95352479D01*
X98687620Y-95344692D01*
X98700002Y-95314798D01*
X98724997Y-95254453D01*
X108997850Y-95254453D01*
X108997850Y-95412146D01*
X109028611Y-95566789D01*
X109028614Y-95566801D01*
X109088952Y-95712472D01*
X109088959Y-95712485D01*
X109176560Y-95843588D01*
X109176563Y-95843592D01*
X109288057Y-95955086D01*
X109288061Y-95955089D01*
X109419164Y-96042690D01*
X109419177Y-96042697D01*
X109561355Y-96101588D01*
X109564853Y-96103037D01*
X109719503Y-96133799D01*
X109719506Y-96133800D01*
X109719508Y-96133800D01*
X109877194Y-96133800D01*
X109877195Y-96133799D01*
X110031847Y-96103037D01*
X110177529Y-96042694D01*
X110308639Y-95955089D01*
X110420139Y-95843589D01*
X110507744Y-95712479D01*
X110568087Y-95566797D01*
X110598850Y-95412142D01*
X110598850Y-95254458D01*
X110598850Y-95254455D01*
X110598849Y-95254453D01*
X110589370Y-95206800D01*
X110568087Y-95099803D01*
X110548346Y-95052144D01*
X110507747Y-94954127D01*
X110507740Y-94954114D01*
X110420140Y-94823012D01*
X110420134Y-94823005D01*
X110351582Y-94754453D01*
X111997850Y-94754453D01*
X111997850Y-94912146D01*
X112028611Y-95066789D01*
X112028614Y-95066801D01*
X112088952Y-95212472D01*
X112088957Y-95212481D01*
X112176560Y-95343588D01*
X112176563Y-95343592D01*
X112288057Y-95455086D01*
X112288061Y-95455089D01*
X112419164Y-95542690D01*
X112419177Y-95542697D01*
X112564848Y-95603035D01*
X112564853Y-95603037D01*
X112719503Y-95633799D01*
X112719506Y-95633800D01*
X112719508Y-95633800D01*
X112877194Y-95633800D01*
X112877195Y-95633799D01*
X113031847Y-95603037D01*
X113177529Y-95542694D01*
X113308639Y-95455089D01*
X113420139Y-95343589D01*
X113478409Y-95256380D01*
X113507743Y-95212481D01*
X113507747Y-95212472D01*
X113550149Y-95110104D01*
X113568087Y-95066797D01*
X113598850Y-94912142D01*
X113598850Y-94754458D01*
X113598850Y-94754455D01*
X113598849Y-94754453D01*
X113590307Y-94711510D01*
X113568087Y-94599803D01*
X113565736Y-94594127D01*
X113507747Y-94454127D01*
X113507740Y-94454114D01*
X113420139Y-94323011D01*
X113420136Y-94323007D01*
X113308642Y-94211513D01*
X113308638Y-94211510D01*
X113177535Y-94123909D01*
X113177522Y-94123902D01*
X113031851Y-94063564D01*
X113031839Y-94063561D01*
X112877195Y-94032800D01*
X112877192Y-94032800D01*
X112719508Y-94032800D01*
X112719505Y-94032800D01*
X112564860Y-94063561D01*
X112564848Y-94063564D01*
X112419177Y-94123902D01*
X112419164Y-94123909D01*
X112288061Y-94211510D01*
X112288057Y-94211513D01*
X112176563Y-94323007D01*
X112176560Y-94323011D01*
X112088959Y-94454114D01*
X112088952Y-94454127D01*
X112028614Y-94599798D01*
X112028611Y-94599810D01*
X111997850Y-94754453D01*
X110351582Y-94754453D01*
X110308642Y-94711513D01*
X110308638Y-94711510D01*
X110177535Y-94623909D01*
X110177522Y-94623902D01*
X110031851Y-94563564D01*
X110031839Y-94563561D01*
X109877195Y-94532800D01*
X109877192Y-94532800D01*
X109719508Y-94532800D01*
X109719505Y-94532800D01*
X109564860Y-94563561D01*
X109564848Y-94563564D01*
X109419177Y-94623902D01*
X109419164Y-94623909D01*
X109288061Y-94711510D01*
X109288057Y-94711513D01*
X109176563Y-94823007D01*
X109176560Y-94823011D01*
X109088959Y-94954114D01*
X109088952Y-94954127D01*
X109028614Y-95099798D01*
X109028611Y-95099810D01*
X108997850Y-95254453D01*
X98724997Y-95254453D01*
X98744737Y-95206797D01*
X98775500Y-95052142D01*
X98775500Y-94894458D01*
X98775500Y-94894455D01*
X98775499Y-94894453D01*
X98764767Y-94840499D01*
X98744737Y-94739803D01*
X98727233Y-94697544D01*
X98684397Y-94594127D01*
X98684390Y-94594114D01*
X98596789Y-94463011D01*
X98596786Y-94463007D01*
X98485292Y-94351513D01*
X98485288Y-94351510D01*
X98354185Y-94263909D01*
X98354172Y-94263902D01*
X98208501Y-94203564D01*
X98208489Y-94203561D01*
X98053845Y-94172800D01*
X98053842Y-94172800D01*
X97896158Y-94172800D01*
X97896155Y-94172800D01*
X97741510Y-94203561D01*
X97741498Y-94203564D01*
X97595827Y-94263902D01*
X97595814Y-94263909D01*
X97464711Y-94351510D01*
X97464707Y-94351513D01*
X97353213Y-94463007D01*
X97353210Y-94463011D01*
X97265609Y-94594114D01*
X97265602Y-94594127D01*
X97205264Y-94739798D01*
X97205261Y-94739810D01*
X97174500Y-94894453D01*
X88112312Y-94894453D01*
X88029185Y-94838909D01*
X88029172Y-94838902D01*
X87883501Y-94778564D01*
X87883489Y-94778561D01*
X87728845Y-94747800D01*
X87728842Y-94747800D01*
X87571158Y-94747800D01*
X87571155Y-94747800D01*
X87416510Y-94778561D01*
X87416498Y-94778564D01*
X87270827Y-94838902D01*
X87270814Y-94838909D01*
X87139711Y-94926510D01*
X87139707Y-94926513D01*
X87028213Y-95038007D01*
X87028210Y-95038011D01*
X86940609Y-95169114D01*
X86940602Y-95169127D01*
X86880264Y-95314798D01*
X86880261Y-95314810D01*
X86849500Y-95469453D01*
X76500500Y-95469453D01*
X76500500Y-83742648D01*
X79859500Y-83742648D01*
X79859500Y-83947351D01*
X79891522Y-84149534D01*
X79954781Y-84344223D01*
X80047715Y-84526613D01*
X80168028Y-84692213D01*
X80312786Y-84836971D01*
X80446705Y-84934267D01*
X80478390Y-84957287D01*
X80586341Y-85012291D01*
X80660776Y-85050218D01*
X80660778Y-85050218D01*
X80660781Y-85050220D01*
X80717032Y-85068497D01*
X80851131Y-85112069D01*
X80908806Y-85151507D01*
X80936004Y-85215866D01*
X80924089Y-85284712D01*
X80876845Y-85336188D01*
X80851131Y-85347931D01*
X80660776Y-85409781D01*
X80478386Y-85502715D01*
X80312786Y-85623028D01*
X80168028Y-85767786D01*
X80047715Y-85933386D01*
X79954781Y-86115776D01*
X79891522Y-86310465D01*
X79859500Y-86512648D01*
X79859500Y-86717351D01*
X79891522Y-86919534D01*
X79954781Y-87114223D01*
X80002406Y-87207690D01*
X80043789Y-87288909D01*
X80047715Y-87296613D01*
X80168028Y-87462213D01*
X80312786Y-87606971D01*
X80467749Y-87719556D01*
X80478390Y-87727287D01*
X80594607Y-87786503D01*
X80660776Y-87820218D01*
X80660778Y-87820218D01*
X80660781Y-87820220D01*
X80736889Y-87844949D01*
X80851131Y-87882069D01*
X80908806Y-87921507D01*
X80936004Y-87985866D01*
X80924089Y-88054712D01*
X80876845Y-88106188D01*
X80851131Y-88117931D01*
X80660776Y-88179781D01*
X80478386Y-88272715D01*
X80312786Y-88393028D01*
X80168028Y-88537786D01*
X80047715Y-88703386D01*
X79954781Y-88885776D01*
X79891522Y-89080465D01*
X79859500Y-89282648D01*
X79859500Y-89487351D01*
X79891522Y-89689534D01*
X79954781Y-89884223D01*
X80007663Y-89988007D01*
X80045429Y-90062128D01*
X80047715Y-90066613D01*
X80168028Y-90232213D01*
X80312786Y-90376971D01*
X80467749Y-90489556D01*
X80478390Y-90497287D01*
X80594607Y-90556503D01*
X80660776Y-90590218D01*
X80660778Y-90590218D01*
X80660781Y-90590220D01*
X80739956Y-90615945D01*
X80851131Y-90652069D01*
X80908806Y-90691507D01*
X80936004Y-90755866D01*
X80924089Y-90824712D01*
X80876845Y-90876188D01*
X80851131Y-90887931D01*
X80660776Y-90949781D01*
X80478386Y-91042715D01*
X80312786Y-91163028D01*
X80168028Y-91307786D01*
X80047715Y-91473386D01*
X79954781Y-91655776D01*
X79891522Y-91850465D01*
X79859500Y-92052648D01*
X79859500Y-92257351D01*
X79891522Y-92459534D01*
X79954781Y-92654223D01*
X80047715Y-92836613D01*
X80168028Y-93002213D01*
X80312786Y-93146971D01*
X80466417Y-93258588D01*
X80478390Y-93267287D01*
X80594607Y-93326503D01*
X80660776Y-93360218D01*
X80660778Y-93360218D01*
X80660781Y-93360220D01*
X80718091Y-93378841D01*
X80855465Y-93423477D01*
X80956557Y-93439488D01*
X81057648Y-93455500D01*
X81057649Y-93455500D01*
X81262351Y-93455500D01*
X81262352Y-93455500D01*
X81464534Y-93423477D01*
X81659219Y-93360220D01*
X81841610Y-93267287D01*
X81956580Y-93183757D01*
X82007213Y-93146971D01*
X82007215Y-93146968D01*
X82007219Y-93146966D01*
X82151966Y-93002219D01*
X82151968Y-93002215D01*
X82151971Y-93002213D01*
X82225870Y-92900498D01*
X82272287Y-92836610D01*
X82365220Y-92654219D01*
X82428477Y-92459534D01*
X82460500Y-92257352D01*
X82460500Y-92052648D01*
X82458323Y-92038906D01*
X82428477Y-91850465D01*
X82378345Y-91696177D01*
X82365220Y-91655781D01*
X82365218Y-91655778D01*
X82365218Y-91655776D01*
X82319099Y-91565263D01*
X82272287Y-91473390D01*
X82240205Y-91429232D01*
X82151971Y-91307786D01*
X82007213Y-91163028D01*
X81841613Y-91042715D01*
X81841612Y-91042714D01*
X81841610Y-91042713D01*
X81774636Y-91008588D01*
X81659223Y-90949781D01*
X81468868Y-90887931D01*
X81411193Y-90848493D01*
X81383995Y-90784134D01*
X81395910Y-90715288D01*
X81443154Y-90663812D01*
X81468868Y-90652069D01*
X81511508Y-90638213D01*
X81659219Y-90590220D01*
X81841610Y-90497287D01*
X81948733Y-90419458D01*
X82007213Y-90376971D01*
X82007215Y-90376968D01*
X82007219Y-90376966D01*
X82151966Y-90232219D01*
X82151968Y-90232215D01*
X82151971Y-90232213D01*
X82228939Y-90126274D01*
X82272287Y-90066610D01*
X82365220Y-89884219D01*
X82428477Y-89689534D01*
X82460500Y-89487352D01*
X82460500Y-89282648D01*
X82458654Y-89270995D01*
X82428477Y-89080465D01*
X82383619Y-88942408D01*
X82365220Y-88885781D01*
X82365218Y-88885778D01*
X82365218Y-88885776D01*
X82320900Y-88798799D01*
X82272287Y-88703390D01*
X82220850Y-88632592D01*
X82151971Y-88537786D01*
X82007213Y-88393028D01*
X81841613Y-88272715D01*
X81841612Y-88272714D01*
X81841610Y-88272713D01*
X81761308Y-88231797D01*
X81659223Y-88179781D01*
X81468868Y-88117931D01*
X81411193Y-88078493D01*
X81383995Y-88014134D01*
X81395910Y-87945288D01*
X81443154Y-87893812D01*
X81468868Y-87882069D01*
X81518590Y-87865913D01*
X81659219Y-87820220D01*
X81841610Y-87727287D01*
X81934590Y-87659732D01*
X82007213Y-87606971D01*
X82007215Y-87606968D01*
X82007219Y-87606966D01*
X82151966Y-87462219D01*
X82151968Y-87462215D01*
X82151971Y-87462213D01*
X82204732Y-87389590D01*
X82272287Y-87296610D01*
X82365220Y-87114219D01*
X82428477Y-86919534D01*
X82460500Y-86717352D01*
X82460500Y-86512648D01*
X82459892Y-86508812D01*
X82428477Y-86310465D01*
X82367860Y-86123906D01*
X82365220Y-86115781D01*
X82365218Y-86115778D01*
X82365218Y-86115776D01*
X82322939Y-86032800D01*
X82272287Y-85933390D01*
X82256463Y-85911610D01*
X82151971Y-85767786D01*
X82007213Y-85623028D01*
X81841613Y-85502715D01*
X81841612Y-85502714D01*
X81841610Y-85502713D01*
X81784653Y-85473691D01*
X81659223Y-85409781D01*
X81468868Y-85347931D01*
X81411193Y-85308493D01*
X81383995Y-85244134D01*
X81395910Y-85175288D01*
X81439633Y-85127648D01*
X82699500Y-85127648D01*
X82699500Y-85332351D01*
X82731522Y-85534534D01*
X82794781Y-85729223D01*
X82887715Y-85911613D01*
X83008028Y-86077213D01*
X83152786Y-86221971D01*
X83307749Y-86334556D01*
X83318390Y-86342287D01*
X83434607Y-86401503D01*
X83500776Y-86435218D01*
X83500778Y-86435218D01*
X83500781Y-86435220D01*
X83558971Y-86454127D01*
X83691131Y-86497069D01*
X83748806Y-86536507D01*
X83776004Y-86600866D01*
X83764089Y-86669712D01*
X83716845Y-86721188D01*
X83691131Y-86732931D01*
X83500776Y-86794781D01*
X83318386Y-86887715D01*
X83152786Y-87008028D01*
X83008028Y-87152786D01*
X82887715Y-87318386D01*
X82794781Y-87500776D01*
X82731522Y-87695465D01*
X82699500Y-87897648D01*
X82699500Y-88102351D01*
X82731522Y-88304534D01*
X82794781Y-88499223D01*
X82887715Y-88681613D01*
X83008028Y-88847213D01*
X83152786Y-88991971D01*
X83290859Y-89092285D01*
X83318390Y-89112287D01*
X83434607Y-89171503D01*
X83500776Y-89205218D01*
X83500778Y-89205218D01*
X83500781Y-89205220D01*
X83579956Y-89230945D01*
X83691131Y-89267069D01*
X83748806Y-89306507D01*
X83776004Y-89370866D01*
X83764089Y-89439712D01*
X83716845Y-89491188D01*
X83691131Y-89502931D01*
X83500776Y-89564781D01*
X83318386Y-89657715D01*
X83152786Y-89778028D01*
X83008028Y-89922786D01*
X82887715Y-90088386D01*
X82794781Y-90270776D01*
X82731522Y-90465465D01*
X82699500Y-90667648D01*
X82699500Y-90872351D01*
X82731522Y-91074534D01*
X82794781Y-91269223D01*
X82887715Y-91451613D01*
X83008028Y-91617213D01*
X83152786Y-91761971D01*
X83296673Y-91866509D01*
X83318390Y-91882287D01*
X83500781Y-91975220D01*
X83569567Y-91997570D01*
X83627241Y-92037006D01*
X83654440Y-92101365D01*
X83642526Y-92170211D01*
X83595282Y-92221687D01*
X83531248Y-92239500D01*
X83152130Y-92239500D01*
X83152123Y-92239501D01*
X83092516Y-92245908D01*
X82957671Y-92296202D01*
X82957664Y-92296206D01*
X82842455Y-92382452D01*
X82842452Y-92382455D01*
X82756206Y-92497664D01*
X82756202Y-92497671D01*
X82705908Y-92632517D01*
X82701937Y-92669458D01*
X82699501Y-92692123D01*
X82699500Y-92692135D01*
X82699500Y-94387870D01*
X82699501Y-94387876D01*
X82705908Y-94447483D01*
X82756202Y-94582328D01*
X82756206Y-94582335D01*
X82842452Y-94697544D01*
X82842455Y-94697547D01*
X82957664Y-94783793D01*
X82957671Y-94783797D01*
X83092517Y-94834091D01*
X83092516Y-94834091D01*
X83099444Y-94834835D01*
X83152127Y-94840500D01*
X84847872Y-94840499D01*
X84907483Y-94834091D01*
X85042331Y-94783796D01*
X85157546Y-94697546D01*
X85243796Y-94582331D01*
X85294091Y-94447483D01*
X85300500Y-94387873D01*
X85300500Y-93654453D01*
X107501472Y-93654453D01*
X107501472Y-93812146D01*
X107532233Y-93966789D01*
X107532236Y-93966801D01*
X107592574Y-94112472D01*
X107592581Y-94112485D01*
X107680182Y-94243588D01*
X107680185Y-94243592D01*
X107791679Y-94355086D01*
X107791683Y-94355089D01*
X107922786Y-94442690D01*
X107922799Y-94442697D01*
X108068470Y-94503035D01*
X108068475Y-94503037D01*
X108204549Y-94530104D01*
X108223125Y-94533799D01*
X108223128Y-94533800D01*
X108223130Y-94533800D01*
X108380816Y-94533800D01*
X108380817Y-94533799D01*
X108535469Y-94503037D01*
X108653564Y-94454121D01*
X108681144Y-94442697D01*
X108681144Y-94442696D01*
X108681151Y-94442694D01*
X108812261Y-94355089D01*
X108923761Y-94243589D01*
X109011366Y-94112479D01*
X109071709Y-93966797D01*
X109102472Y-93812142D01*
X109102472Y-93654458D01*
X109102472Y-93654455D01*
X109102471Y-93654453D01*
X109081455Y-93548799D01*
X109071709Y-93499803D01*
X109054267Y-93457694D01*
X109011369Y-93354127D01*
X109011362Y-93354114D01*
X108923761Y-93223011D01*
X108923758Y-93223007D01*
X108812264Y-93111513D01*
X108812260Y-93111510D01*
X108681157Y-93023909D01*
X108681144Y-93023902D01*
X108535473Y-92963564D01*
X108535461Y-92963561D01*
X108380817Y-92932800D01*
X108380814Y-92932800D01*
X108223130Y-92932800D01*
X108223127Y-92932800D01*
X108068482Y-92963561D01*
X108068470Y-92963564D01*
X107922799Y-93023902D01*
X107922786Y-93023909D01*
X107791683Y-93111510D01*
X107791679Y-93111513D01*
X107680185Y-93223007D01*
X107680182Y-93223011D01*
X107592581Y-93354114D01*
X107592574Y-93354127D01*
X107532236Y-93499798D01*
X107532233Y-93499810D01*
X107501472Y-93654453D01*
X85300500Y-93654453D01*
X85300499Y-92692128D01*
X85294091Y-92632517D01*
X85285801Y-92610291D01*
X85243797Y-92497671D01*
X85243793Y-92497664D01*
X85157547Y-92382455D01*
X85157544Y-92382452D01*
X85042335Y-92296206D01*
X85042328Y-92296202D01*
X84907482Y-92245908D01*
X84907483Y-92245908D01*
X84847883Y-92239501D01*
X84847881Y-92239500D01*
X84847873Y-92239500D01*
X84847865Y-92239500D01*
X84468753Y-92239500D01*
X84401714Y-92219815D01*
X84355959Y-92167011D01*
X84346015Y-92097853D01*
X84375040Y-92034297D01*
X84430434Y-91997569D01*
X84499219Y-91975220D01*
X84681610Y-91882287D01*
X84843305Y-91764810D01*
X84847213Y-91761971D01*
X84847215Y-91761968D01*
X84847219Y-91761966D01*
X84991966Y-91617219D01*
X84991968Y-91617215D01*
X84991971Y-91617213D01*
X85112284Y-91451614D01*
X85112285Y-91451613D01*
X85112287Y-91451610D01*
X85128672Y-91419453D01*
X85899500Y-91419453D01*
X85899500Y-91577146D01*
X85930261Y-91731789D01*
X85930264Y-91731801D01*
X85990602Y-91877472D01*
X85990609Y-91877485D01*
X86078210Y-92008588D01*
X86078213Y-92008592D01*
X86189708Y-92120087D01*
X86189711Y-92120089D01*
X86236832Y-92151574D01*
X86281636Y-92205185D01*
X86290344Y-92274510D01*
X86271044Y-92323566D01*
X86240608Y-92369116D01*
X86240602Y-92369127D01*
X86180264Y-92514798D01*
X86180261Y-92514810D01*
X86149500Y-92669453D01*
X86149500Y-92827146D01*
X86180261Y-92981789D01*
X86180264Y-92981801D01*
X86240602Y-93127472D01*
X86240609Y-93127485D01*
X86328210Y-93258588D01*
X86328213Y-93258592D01*
X86439707Y-93370086D01*
X86439711Y-93370089D01*
X86570814Y-93457690D01*
X86570827Y-93457697D01*
X86716498Y-93518035D01*
X86716503Y-93518037D01*
X86871153Y-93548799D01*
X86871156Y-93548800D01*
X86871158Y-93548800D01*
X87028844Y-93548800D01*
X87028845Y-93548799D01*
X87067574Y-93541095D01*
X87139696Y-93526750D01*
X87139701Y-93526749D01*
X87168589Y-93521002D01*
X87183497Y-93518037D01*
X87329179Y-93457694D01*
X87460289Y-93370089D01*
X87571789Y-93258589D01*
X87659394Y-93127479D01*
X87665483Y-93112780D01*
X87697253Y-93036078D01*
X87719737Y-92981797D01*
X87750500Y-92827142D01*
X87750500Y-92669458D01*
X87750500Y-92669455D01*
X87750499Y-92669453D01*
X87738730Y-92610287D01*
X87719737Y-92514803D01*
X87705430Y-92480263D01*
X87659397Y-92369127D01*
X87659390Y-92369114D01*
X87571789Y-92238011D01*
X87571786Y-92238007D01*
X87460292Y-92126513D01*
X87460284Y-92126507D01*
X87413168Y-92095025D01*
X87368362Y-92041413D01*
X87359655Y-91972088D01*
X87378957Y-91923031D01*
X87381344Y-91919458D01*
X87409394Y-91877479D01*
X87469737Y-91731797D01*
X87500500Y-91577142D01*
X87500500Y-91419458D01*
X87500500Y-91419455D01*
X87500499Y-91419453D01*
X87482758Y-91330263D01*
X87469737Y-91264803D01*
X87464859Y-91253027D01*
X87409397Y-91119127D01*
X87409390Y-91119114D01*
X87321789Y-90988011D01*
X87321786Y-90988007D01*
X87210292Y-90876513D01*
X87210288Y-90876510D01*
X87079185Y-90788909D01*
X87079172Y-90788902D01*
X86933501Y-90728564D01*
X86933489Y-90728561D01*
X86778845Y-90697800D01*
X86778842Y-90697800D01*
X86621158Y-90697800D01*
X86621155Y-90697800D01*
X86466510Y-90728561D01*
X86466498Y-90728564D01*
X86320827Y-90788902D01*
X86320814Y-90788909D01*
X86189711Y-90876510D01*
X86189707Y-90876513D01*
X86078213Y-90988007D01*
X86078210Y-90988011D01*
X85990609Y-91119114D01*
X85990602Y-91119127D01*
X85930264Y-91264798D01*
X85930261Y-91264810D01*
X85899500Y-91419453D01*
X85128672Y-91419453D01*
X85205220Y-91269219D01*
X85268477Y-91074534D01*
X85300500Y-90872352D01*
X85300500Y-90667648D01*
X85268477Y-90465466D01*
X85266974Y-90460840D01*
X85263999Y-90451682D01*
X85263998Y-90451681D01*
X85253526Y-90419453D01*
X95899500Y-90419453D01*
X95899500Y-90577146D01*
X95930261Y-90731789D01*
X95930264Y-90731801D01*
X95990602Y-90877472D01*
X95990609Y-90877485D01*
X96078210Y-91008588D01*
X96078213Y-91008592D01*
X96189707Y-91120086D01*
X96189711Y-91120089D01*
X96320814Y-91207690D01*
X96320827Y-91207697D01*
X96430265Y-91253027D01*
X96466503Y-91268037D01*
X96606539Y-91295892D01*
X96621153Y-91298799D01*
X96621156Y-91298800D01*
X96621158Y-91298800D01*
X96778844Y-91298800D01*
X96778845Y-91298799D01*
X96933497Y-91268037D01*
X97079179Y-91207694D01*
X97210289Y-91120089D01*
X97321789Y-91008589D01*
X97409394Y-90877479D01*
X97433429Y-90819453D01*
X115997850Y-90819453D01*
X115997850Y-90977146D01*
X116028611Y-91131789D01*
X116028614Y-91131801D01*
X116088952Y-91277472D01*
X116088959Y-91277485D01*
X116176560Y-91408588D01*
X116176563Y-91408592D01*
X116288057Y-91520086D01*
X116288061Y-91520089D01*
X116419164Y-91607690D01*
X116419177Y-91607697D01*
X116512343Y-91646287D01*
X116564853Y-91668037D01*
X116719503Y-91698799D01*
X116719506Y-91698800D01*
X116719508Y-91698800D01*
X116877192Y-91698800D01*
X116890378Y-91696177D01*
X116959969Y-91702403D01*
X117015147Y-91745265D01*
X117038393Y-91811154D01*
X117029940Y-91860541D01*
X117030381Y-91860675D01*
X117029318Y-91864177D01*
X117029138Y-91865232D01*
X117028616Y-91866491D01*
X117028611Y-91866509D01*
X116997850Y-92021152D01*
X116997850Y-92178845D01*
X117028611Y-92333488D01*
X117028614Y-92333500D01*
X117088952Y-92479171D01*
X117088959Y-92479184D01*
X117176560Y-92610287D01*
X117176563Y-92610291D01*
X117288057Y-92721785D01*
X117288061Y-92721788D01*
X117419164Y-92809389D01*
X117419177Y-92809396D01*
X117525257Y-92853335D01*
X117564853Y-92869736D01*
X117719503Y-92900498D01*
X117719506Y-92900499D01*
X117719508Y-92900499D01*
X117877194Y-92900499D01*
X117877195Y-92900498D01*
X118031847Y-92869736D01*
X118177529Y-92809393D01*
X118308639Y-92721788D01*
X118308641Y-92721785D01*
X118308849Y-92721647D01*
X118375526Y-92700769D01*
X118425191Y-92710187D01*
X118564853Y-92768037D01*
X118719503Y-92798799D01*
X118719506Y-92798800D01*
X118855569Y-92798800D01*
X118922608Y-92818485D01*
X118968363Y-92871289D01*
X118978307Y-92940447D01*
X118970130Y-92970252D01*
X118930264Y-93066497D01*
X118930261Y-93066509D01*
X118899500Y-93221152D01*
X118899500Y-93378845D01*
X118930261Y-93533488D01*
X118930264Y-93533500D01*
X118990602Y-93679171D01*
X118990609Y-93679184D01*
X119078210Y-93810287D01*
X119078213Y-93810291D01*
X119189707Y-93921785D01*
X119189711Y-93921788D01*
X119320814Y-94009389D01*
X119320827Y-94009396D01*
X119451595Y-94063561D01*
X119466503Y-94069736D01*
X119621153Y-94100498D01*
X119621156Y-94100499D01*
X119621158Y-94100499D01*
X119778844Y-94100499D01*
X119778845Y-94100498D01*
X119933497Y-94069736D01*
X120079179Y-94009393D01*
X120210289Y-93921788D01*
X120321789Y-93810288D01*
X120409394Y-93679178D01*
X120469737Y-93533496D01*
X120500500Y-93378841D01*
X120500500Y-93221157D01*
X120500500Y-93221154D01*
X120494155Y-93189258D01*
X120494155Y-93189257D01*
X120490554Y-93171153D01*
X132449500Y-93171153D01*
X132449500Y-93328846D01*
X132480261Y-93483489D01*
X132480264Y-93483501D01*
X132540602Y-93629172D01*
X132540609Y-93629185D01*
X132628210Y-93760288D01*
X132628213Y-93760292D01*
X132739707Y-93871786D01*
X132739711Y-93871789D01*
X132870814Y-93959390D01*
X132870827Y-93959397D01*
X132991530Y-94009393D01*
X133016503Y-94019737D01*
X133171153Y-94050499D01*
X133171156Y-94050500D01*
X133171158Y-94050500D01*
X133328844Y-94050500D01*
X133328845Y-94050499D01*
X133483497Y-94019737D01*
X133611297Y-93966801D01*
X133629172Y-93959397D01*
X133629172Y-93959396D01*
X133629179Y-93959394D01*
X133760289Y-93871789D01*
X133871789Y-93760289D01*
X133959394Y-93629179D01*
X134019737Y-93483497D01*
X134050500Y-93328842D01*
X134050500Y-93171158D01*
X134050500Y-93171155D01*
X134050499Y-93171153D01*
X134037288Y-93104737D01*
X134019737Y-93016503D01*
X134019735Y-93016498D01*
X133959397Y-92870827D01*
X133959390Y-92870814D01*
X133871789Y-92739711D01*
X133871786Y-92739707D01*
X133760292Y-92628213D01*
X133760288Y-92628210D01*
X133629185Y-92540609D01*
X133629172Y-92540602D01*
X133483501Y-92480264D01*
X133483489Y-92480261D01*
X133328845Y-92449500D01*
X133328842Y-92449500D01*
X133171158Y-92449500D01*
X133171155Y-92449500D01*
X133016510Y-92480261D01*
X133016498Y-92480264D01*
X132870827Y-92540602D01*
X132870814Y-92540609D01*
X132739711Y-92628210D01*
X132739707Y-92628213D01*
X132628213Y-92739707D01*
X132628210Y-92739711D01*
X132540609Y-92870814D01*
X132540602Y-92870827D01*
X132480264Y-93016498D01*
X132480261Y-93016510D01*
X132449500Y-93171153D01*
X120490554Y-93171153D01*
X120481865Y-93127472D01*
X120469737Y-93066502D01*
X120463911Y-93052437D01*
X120409397Y-92920826D01*
X120409390Y-92920813D01*
X120321789Y-92789710D01*
X120321786Y-92789706D01*
X120210292Y-92678212D01*
X120210288Y-92678209D01*
X120079185Y-92590608D01*
X120079172Y-92590601D01*
X119933501Y-92530263D01*
X119933489Y-92530260D01*
X119778845Y-92499499D01*
X119778842Y-92499499D01*
X119642781Y-92499499D01*
X119575742Y-92479814D01*
X119529987Y-92427010D01*
X119520043Y-92357852D01*
X119528220Y-92328047D01*
X119561452Y-92247816D01*
X119568087Y-92231797D01*
X119598850Y-92077142D01*
X119598850Y-91919458D01*
X119598850Y-91919455D01*
X119598849Y-91919453D01*
X119591456Y-91882287D01*
X119568087Y-91764803D01*
X119554412Y-91731789D01*
X119507747Y-91619127D01*
X119507740Y-91619114D01*
X119420139Y-91488011D01*
X119420136Y-91488007D01*
X119308642Y-91376513D01*
X119308638Y-91376510D01*
X119177535Y-91288909D01*
X119177522Y-91288902D01*
X119031851Y-91228564D01*
X119031839Y-91228561D01*
X118877195Y-91197800D01*
X118877192Y-91197800D01*
X118719508Y-91197800D01*
X118719505Y-91197800D01*
X118564860Y-91228561D01*
X118564848Y-91228564D01*
X118419177Y-91288902D01*
X118419164Y-91288909D01*
X118287850Y-91376651D01*
X118221172Y-91397529D01*
X118171507Y-91388110D01*
X118031851Y-91330263D01*
X118031839Y-91330260D01*
X117877195Y-91299499D01*
X117877192Y-91299499D01*
X117719508Y-91299499D01*
X117719503Y-91299499D01*
X117706315Y-91302122D01*
X117636723Y-91295892D01*
X117581548Y-91253027D01*
X117558305Y-91187136D01*
X117566761Y-91137758D01*
X117566319Y-91137624D01*
X117567389Y-91134096D01*
X117567568Y-91133048D01*
X117568087Y-91131797D01*
X117598850Y-90977142D01*
X117598850Y-90819458D01*
X117598850Y-90819455D01*
X117598849Y-90819453D01*
X117592772Y-90788902D01*
X117568087Y-90664803D01*
X117563396Y-90653477D01*
X117507747Y-90519127D01*
X117507740Y-90519114D01*
X117420139Y-90388011D01*
X117420136Y-90388007D01*
X117308642Y-90276513D01*
X117308638Y-90276510D01*
X117177535Y-90188909D01*
X117177522Y-90188902D01*
X117031851Y-90128564D01*
X117031839Y-90128561D01*
X116877195Y-90097800D01*
X116877192Y-90097800D01*
X116719508Y-90097800D01*
X116719505Y-90097800D01*
X116564860Y-90128561D01*
X116564848Y-90128564D01*
X116419177Y-90188902D01*
X116419164Y-90188909D01*
X116288061Y-90276510D01*
X116288057Y-90276513D01*
X116176563Y-90388007D01*
X116176560Y-90388011D01*
X116088959Y-90519114D01*
X116088952Y-90519127D01*
X116028614Y-90664798D01*
X116028611Y-90664810D01*
X115997850Y-90819453D01*
X97433429Y-90819453D01*
X97469737Y-90731797D01*
X97500500Y-90577142D01*
X97500500Y-90419458D01*
X97500500Y-90419455D01*
X97500499Y-90419453D01*
X97492748Y-90380486D01*
X97469737Y-90264803D01*
X97464250Y-90251557D01*
X97409397Y-90119127D01*
X97409390Y-90119114D01*
X97321789Y-89988011D01*
X97321786Y-89988007D01*
X97210292Y-89876513D01*
X97210288Y-89876510D01*
X97079185Y-89788909D01*
X97079172Y-89788902D01*
X96933501Y-89728564D01*
X96933489Y-89728561D01*
X96778845Y-89697800D01*
X96778842Y-89697800D01*
X96621158Y-89697800D01*
X96621155Y-89697800D01*
X96466510Y-89728561D01*
X96466498Y-89728564D01*
X96320827Y-89788902D01*
X96320814Y-89788909D01*
X96189711Y-89876510D01*
X96189707Y-89876513D01*
X96078213Y-89988007D01*
X96078210Y-89988011D01*
X95990609Y-90119114D01*
X95990602Y-90119127D01*
X95930264Y-90264798D01*
X95930261Y-90264810D01*
X95899500Y-90419453D01*
X85253526Y-90419453D01*
X85205220Y-90270781D01*
X85205218Y-90270778D01*
X85205218Y-90270776D01*
X85163504Y-90188909D01*
X85112287Y-90088390D01*
X85069941Y-90030105D01*
X84991971Y-89922786D01*
X84847213Y-89778028D01*
X84681613Y-89657715D01*
X84681612Y-89657714D01*
X84681610Y-89657713D01*
X84624653Y-89628691D01*
X84499223Y-89564781D01*
X84308868Y-89502931D01*
X84251193Y-89463493D01*
X84223995Y-89399134D01*
X84235910Y-89330288D01*
X84283154Y-89278812D01*
X84308868Y-89267069D01*
X84351508Y-89253213D01*
X84499219Y-89205220D01*
X84681610Y-89112287D01*
X84823657Y-89009085D01*
X84847213Y-88991971D01*
X84847215Y-88991968D01*
X84847219Y-88991966D01*
X84991966Y-88847219D01*
X84991968Y-88847215D01*
X84991971Y-88847213D01*
X85047793Y-88770379D01*
X85112287Y-88681610D01*
X85205220Y-88499219D01*
X85268477Y-88304534D01*
X85300500Y-88102352D01*
X85300500Y-87897648D01*
X85299098Y-87888798D01*
X85268477Y-87695465D01*
X85205217Y-87500773D01*
X85189365Y-87469662D01*
X85189364Y-87469661D01*
X85163781Y-87419453D01*
X85899500Y-87419453D01*
X85899500Y-87577146D01*
X85930261Y-87731789D01*
X85930264Y-87731801D01*
X85990602Y-87877472D01*
X85990609Y-87877485D01*
X86078210Y-88008588D01*
X86078213Y-88008592D01*
X86189707Y-88120086D01*
X86189711Y-88120089D01*
X86320814Y-88207690D01*
X86320827Y-88207697D01*
X86466498Y-88268035D01*
X86466503Y-88268037D01*
X86621153Y-88298799D01*
X86621156Y-88298800D01*
X86621158Y-88298800D01*
X86778844Y-88298800D01*
X86778845Y-88298799D01*
X86933497Y-88268037D01*
X87079179Y-88207694D01*
X87210289Y-88120089D01*
X87321789Y-88008589D01*
X87381348Y-87919453D01*
X89899500Y-87919453D01*
X89899500Y-88077146D01*
X89930261Y-88231789D01*
X89930264Y-88231801D01*
X89990602Y-88377472D01*
X89990609Y-88377485D01*
X90078210Y-88508588D01*
X90078213Y-88508592D01*
X90189707Y-88620086D01*
X90189711Y-88620089D01*
X90320814Y-88707690D01*
X90320827Y-88707697D01*
X90466498Y-88768035D01*
X90466503Y-88768037D01*
X90571418Y-88788906D01*
X90621153Y-88798799D01*
X90621156Y-88798800D01*
X90621158Y-88798800D01*
X90778844Y-88798800D01*
X90778845Y-88798799D01*
X90933497Y-88768037D01*
X91079179Y-88707694D01*
X91210289Y-88620089D01*
X91321789Y-88508589D01*
X91409394Y-88377479D01*
X91469737Y-88231797D01*
X91500500Y-88077142D01*
X91500500Y-87919458D01*
X91500500Y-87919455D01*
X91500499Y-87919453D01*
X91489849Y-87865911D01*
X91469737Y-87764803D01*
X91456062Y-87731789D01*
X91409397Y-87619127D01*
X91409390Y-87619114D01*
X91321790Y-87488012D01*
X91321784Y-87488005D01*
X91253232Y-87419453D01*
X93899500Y-87419453D01*
X93899500Y-87577146D01*
X93930261Y-87731789D01*
X93930264Y-87731801D01*
X93990602Y-87877472D01*
X93990609Y-87877485D01*
X94078210Y-88008588D01*
X94078213Y-88008592D01*
X94189707Y-88120086D01*
X94189711Y-88120089D01*
X94320814Y-88207690D01*
X94320827Y-88207697D01*
X94466498Y-88268035D01*
X94466503Y-88268037D01*
X94621153Y-88298799D01*
X94621156Y-88298800D01*
X94621158Y-88298800D01*
X94778844Y-88298800D01*
X94778845Y-88298799D01*
X94933497Y-88268037D01*
X95079179Y-88207694D01*
X95210289Y-88120089D01*
X95321789Y-88008589D01*
X95409394Y-87877479D01*
X95469737Y-87731797D01*
X95500500Y-87577142D01*
X95500500Y-87419458D01*
X95500500Y-87419455D01*
X95500499Y-87419453D01*
X95491049Y-87371944D01*
X95469737Y-87264803D01*
X95463048Y-87248655D01*
X95409397Y-87119127D01*
X95409390Y-87119114D01*
X95321789Y-86988011D01*
X95321786Y-86988007D01*
X95210292Y-86876513D01*
X95210288Y-86876510D01*
X95079185Y-86788909D01*
X95079172Y-86788902D01*
X94933501Y-86728564D01*
X94933489Y-86728561D01*
X94778845Y-86697800D01*
X94778842Y-86697800D01*
X94621158Y-86697800D01*
X94621155Y-86697800D01*
X94466510Y-86728561D01*
X94466498Y-86728564D01*
X94320827Y-86788902D01*
X94320814Y-86788909D01*
X94189711Y-86876510D01*
X94189707Y-86876513D01*
X94078213Y-86988007D01*
X94078210Y-86988011D01*
X93990609Y-87119114D01*
X93990602Y-87119127D01*
X93930264Y-87264798D01*
X93930261Y-87264810D01*
X93899500Y-87419453D01*
X91253232Y-87419453D01*
X91210292Y-87376513D01*
X91210288Y-87376510D01*
X91079185Y-87288909D01*
X91079172Y-87288902D01*
X90933501Y-87228564D01*
X90933489Y-87228561D01*
X90778845Y-87197800D01*
X90778842Y-87197800D01*
X90621158Y-87197800D01*
X90621155Y-87197800D01*
X90466510Y-87228561D01*
X90466498Y-87228564D01*
X90320827Y-87288902D01*
X90320814Y-87288909D01*
X90189711Y-87376510D01*
X90189707Y-87376513D01*
X90078213Y-87488007D01*
X90078210Y-87488011D01*
X89990609Y-87619114D01*
X89990602Y-87619127D01*
X89930264Y-87764798D01*
X89930261Y-87764810D01*
X89899500Y-87919453D01*
X87381348Y-87919453D01*
X87409394Y-87877479D01*
X87469737Y-87731797D01*
X87500500Y-87577142D01*
X87500500Y-87419458D01*
X87500500Y-87419455D01*
X87500499Y-87419453D01*
X87491049Y-87371944D01*
X87469737Y-87264803D01*
X87463048Y-87248655D01*
X87409397Y-87119127D01*
X87409390Y-87119114D01*
X87321789Y-86988011D01*
X87321786Y-86988007D01*
X87210292Y-86876513D01*
X87210288Y-86876510D01*
X87079185Y-86788909D01*
X87079172Y-86788902D01*
X86933501Y-86728564D01*
X86933489Y-86728561D01*
X86778845Y-86697800D01*
X86778842Y-86697800D01*
X86621158Y-86697800D01*
X86621155Y-86697800D01*
X86466510Y-86728561D01*
X86466498Y-86728564D01*
X86320827Y-86788902D01*
X86320814Y-86788909D01*
X86189711Y-86876510D01*
X86189707Y-86876513D01*
X86078213Y-86988007D01*
X86078210Y-86988011D01*
X85990609Y-87119114D01*
X85990602Y-87119127D01*
X85930264Y-87264798D01*
X85930261Y-87264810D01*
X85899500Y-87419453D01*
X85163781Y-87419453D01*
X85141901Y-87376511D01*
X85112287Y-87318390D01*
X85090863Y-87288902D01*
X84991971Y-87152786D01*
X84847213Y-87008028D01*
X84681613Y-86887715D01*
X84681612Y-86887714D01*
X84681610Y-86887713D01*
X84624653Y-86858691D01*
X84499223Y-86794781D01*
X84308868Y-86732931D01*
X84251193Y-86693493D01*
X84223995Y-86629134D01*
X84235910Y-86560288D01*
X84283154Y-86508812D01*
X84308868Y-86497069D01*
X84351508Y-86483213D01*
X84499219Y-86435220D01*
X84681610Y-86342287D01*
X84788249Y-86264810D01*
X84847213Y-86221971D01*
X84847215Y-86221968D01*
X84847219Y-86221966D01*
X84991966Y-86077219D01*
X84991968Y-86077215D01*
X84991971Y-86077213D01*
X85056779Y-85988011D01*
X85112287Y-85911610D01*
X85205220Y-85729219D01*
X85268477Y-85534534D01*
X85300500Y-85332352D01*
X85300500Y-85127648D01*
X85299334Y-85120288D01*
X85269633Y-84932764D01*
X85269496Y-84931900D01*
X85268477Y-84925466D01*
X85266523Y-84919453D01*
X93899500Y-84919453D01*
X93899500Y-85077146D01*
X93930261Y-85231789D01*
X93930264Y-85231801D01*
X93990602Y-85377472D01*
X93990609Y-85377485D01*
X94078210Y-85508588D01*
X94078213Y-85508592D01*
X94189707Y-85620086D01*
X94189711Y-85620089D01*
X94320814Y-85707690D01*
X94320827Y-85707697D01*
X94465885Y-85767781D01*
X94466503Y-85768037D01*
X94621153Y-85798799D01*
X94621156Y-85798800D01*
X94621158Y-85798800D01*
X94778844Y-85798800D01*
X94778845Y-85798799D01*
X94933497Y-85768037D01*
X95079179Y-85707694D01*
X95210289Y-85620089D01*
X95321789Y-85508589D01*
X95409394Y-85377479D01*
X95469737Y-85231797D01*
X95500500Y-85077142D01*
X95500500Y-84919458D01*
X95500500Y-84919455D01*
X95500499Y-84919453D01*
X97449500Y-84919453D01*
X97449500Y-85077146D01*
X97480261Y-85231789D01*
X97480264Y-85231801D01*
X97540602Y-85377472D01*
X97540609Y-85377485D01*
X97628210Y-85508588D01*
X97628213Y-85508592D01*
X97739707Y-85620086D01*
X97739711Y-85620089D01*
X97870814Y-85707690D01*
X97870827Y-85707697D01*
X98015885Y-85767781D01*
X98016503Y-85768037D01*
X98171153Y-85798799D01*
X98171156Y-85798800D01*
X98171158Y-85798800D01*
X98328844Y-85798800D01*
X98444098Y-85775874D01*
X98475402Y-85769647D01*
X98544994Y-85775874D01*
X98600171Y-85818737D01*
X98623416Y-85884626D01*
X98607348Y-85952623D01*
X98587279Y-85978942D01*
X98578210Y-85988010D01*
X98578210Y-85988011D01*
X98490609Y-86119114D01*
X98490602Y-86119127D01*
X98430264Y-86264798D01*
X98430261Y-86264810D01*
X98399500Y-86419453D01*
X98399500Y-86577146D01*
X98430261Y-86731789D01*
X98430264Y-86731801D01*
X98490602Y-86877472D01*
X98490609Y-86877485D01*
X98578210Y-87008588D01*
X98578213Y-87008592D01*
X98689708Y-87120087D01*
X98689711Y-87120089D01*
X98740882Y-87154280D01*
X98785688Y-87207893D01*
X98794395Y-87277217D01*
X98764241Y-87340245D01*
X98719445Y-87371944D01*
X98620559Y-87412904D01*
X98620549Y-87412909D01*
X98489446Y-87500510D01*
X98489442Y-87500513D01*
X98377948Y-87612007D01*
X98377945Y-87612011D01*
X98290344Y-87743114D01*
X98290337Y-87743127D01*
X98229999Y-87888798D01*
X98229996Y-87888810D01*
X98199235Y-88043453D01*
X98199235Y-88201146D01*
X98229996Y-88355789D01*
X98229999Y-88355801D01*
X98290337Y-88501472D01*
X98290344Y-88501485D01*
X98363864Y-88611514D01*
X98384742Y-88678191D01*
X98366258Y-88745571D01*
X98325056Y-88784279D01*
X98325886Y-88785521D01*
X98189711Y-88876510D01*
X98189707Y-88876513D01*
X98078213Y-88988007D01*
X98078210Y-88988011D01*
X97990609Y-89119114D01*
X97990602Y-89119127D01*
X97930264Y-89264798D01*
X97930261Y-89264810D01*
X97899500Y-89419453D01*
X97899500Y-89577146D01*
X97930261Y-89731789D01*
X97930264Y-89731801D01*
X97990602Y-89877472D01*
X97990609Y-89877485D01*
X98078210Y-90008588D01*
X98078213Y-90008592D01*
X98189707Y-90120086D01*
X98189711Y-90120089D01*
X98320814Y-90207690D01*
X98320827Y-90207697D01*
X98426716Y-90251557D01*
X98466503Y-90268037D01*
X98621153Y-90298799D01*
X98621156Y-90298800D01*
X98621158Y-90298800D01*
X98778844Y-90298800D01*
X98778845Y-90298799D01*
X98933497Y-90268037D01*
X99079179Y-90207694D01*
X99210289Y-90120089D01*
X99321789Y-90008589D01*
X99409394Y-89877479D01*
X99413457Y-89867671D01*
X99435714Y-89813938D01*
X113603365Y-89813938D01*
X113603365Y-89971631D01*
X113634126Y-90126274D01*
X113634129Y-90126286D01*
X113694467Y-90271957D01*
X113694474Y-90271970D01*
X113782075Y-90403073D01*
X113782078Y-90403077D01*
X113893572Y-90514571D01*
X113893576Y-90514574D01*
X114024679Y-90602175D01*
X114024692Y-90602182D01*
X114170363Y-90662520D01*
X114170368Y-90662522D01*
X114317296Y-90691748D01*
X114325018Y-90693284D01*
X114325021Y-90693285D01*
X114325023Y-90693285D01*
X114482709Y-90693285D01*
X114490431Y-90691749D01*
X114490431Y-90691748D01*
X114637362Y-90662522D01*
X114783044Y-90602179D01*
X114914154Y-90514574D01*
X115025654Y-90403074D01*
X115113259Y-90271964D01*
X115114887Y-90268035D01*
X115159837Y-90159514D01*
X115173602Y-90126282D01*
X115204365Y-89971627D01*
X115204365Y-89813943D01*
X115204365Y-89813940D01*
X115204364Y-89813938D01*
X115192134Y-89752454D01*
X115173602Y-89659288D01*
X115173600Y-89659283D01*
X115113262Y-89513612D01*
X115113255Y-89513599D01*
X115025654Y-89382496D01*
X115025651Y-89382492D01*
X114914157Y-89270998D01*
X114914153Y-89270995D01*
X114783050Y-89183394D01*
X114783037Y-89183387D01*
X114637366Y-89123049D01*
X114637354Y-89123046D01*
X114482710Y-89092285D01*
X114482707Y-89092285D01*
X114325023Y-89092285D01*
X114325020Y-89092285D01*
X114170375Y-89123046D01*
X114170363Y-89123049D01*
X114024692Y-89183387D01*
X114024679Y-89183394D01*
X113893576Y-89270995D01*
X113893572Y-89270998D01*
X113782078Y-89382492D01*
X113782075Y-89382496D01*
X113694474Y-89513599D01*
X113694467Y-89513612D01*
X113634129Y-89659283D01*
X113634126Y-89659295D01*
X113603365Y-89813938D01*
X99435714Y-89813938D01*
X99457890Y-89760399D01*
X99469735Y-89731801D01*
X99469737Y-89731797D01*
X99500500Y-89577142D01*
X99500500Y-89419458D01*
X99500500Y-89419455D01*
X99500499Y-89419453D01*
X99496814Y-89400929D01*
X99469737Y-89264803D01*
X99445057Y-89205220D01*
X99409397Y-89119127D01*
X99409395Y-89119123D01*
X99409394Y-89119121D01*
X99335869Y-89009084D01*
X99314992Y-88942408D01*
X99333476Y-88875028D01*
X99374682Y-88836326D01*
X99373849Y-88835079D01*
X99470681Y-88770377D01*
X99510024Y-88744089D01*
X99621524Y-88632589D01*
X99634821Y-88612688D01*
X100499500Y-88612688D01*
X100499500Y-88770381D01*
X100530261Y-88925024D01*
X100530264Y-88925036D01*
X100590602Y-89070707D01*
X100590609Y-89070720D01*
X100678210Y-89201823D01*
X100678213Y-89201827D01*
X100789707Y-89313321D01*
X100789711Y-89313324D01*
X100920814Y-89400925D01*
X100920827Y-89400932D01*
X101014452Y-89439712D01*
X101066503Y-89461272D01*
X101197610Y-89487351D01*
X101221153Y-89492034D01*
X101221156Y-89492035D01*
X101221158Y-89492035D01*
X101378844Y-89492035D01*
X101378845Y-89492034D01*
X101533497Y-89461272D01*
X101679179Y-89400929D01*
X101810289Y-89313324D01*
X101921789Y-89201824D01*
X102009394Y-89070714D01*
X102069737Y-88925032D01*
X102075967Y-88893713D01*
X147899500Y-88893713D01*
X147899500Y-89106287D01*
X147902155Y-89123048D01*
X147932291Y-89313324D01*
X147932754Y-89316243D01*
X147996883Y-89513612D01*
X147998444Y-89518414D01*
X148094951Y-89707820D01*
X148219890Y-89879786D01*
X148370213Y-90030109D01*
X148542182Y-90155050D01*
X148550946Y-90159516D01*
X148601742Y-90207491D01*
X148618536Y-90275312D01*
X148595998Y-90341447D01*
X148550946Y-90380484D01*
X148542182Y-90384949D01*
X148370213Y-90509890D01*
X148219890Y-90660213D01*
X148094951Y-90832179D01*
X147998444Y-91021585D01*
X147932753Y-91223760D01*
X147899500Y-91433713D01*
X147899500Y-91646286D01*
X147931838Y-91850465D01*
X147932754Y-91856243D01*
X147996570Y-92052648D01*
X147998444Y-92058414D01*
X148094951Y-92247820D01*
X148219890Y-92419786D01*
X148370213Y-92570109D01*
X148542182Y-92695050D01*
X148550946Y-92699516D01*
X148601742Y-92747491D01*
X148618536Y-92815312D01*
X148595998Y-92881447D01*
X148550946Y-92920484D01*
X148542182Y-92924949D01*
X148370213Y-93049890D01*
X148219890Y-93200213D01*
X148094951Y-93372179D01*
X147998444Y-93561585D01*
X147932753Y-93763760D01*
X147924441Y-93816243D01*
X147899500Y-93973713D01*
X147899500Y-94186287D01*
X147908576Y-94243588D01*
X147931428Y-94387876D01*
X147932754Y-94396243D01*
X147997046Y-94594114D01*
X147998444Y-94598414D01*
X148094951Y-94787820D01*
X148219890Y-94959786D01*
X148370213Y-95110109D01*
X148542182Y-95235050D01*
X148550946Y-95239516D01*
X148601742Y-95287491D01*
X148618536Y-95355312D01*
X148595998Y-95421447D01*
X148550946Y-95460484D01*
X148542182Y-95464949D01*
X148370213Y-95589890D01*
X148219890Y-95740213D01*
X148094951Y-95912179D01*
X147998444Y-96101585D01*
X147932753Y-96303760D01*
X147912961Y-96428723D01*
X147899500Y-96513713D01*
X147899500Y-96726287D01*
X147932754Y-96936243D01*
X147985900Y-97099810D01*
X147998444Y-97138414D01*
X148094951Y-97327820D01*
X148219890Y-97499786D01*
X148370213Y-97650109D01*
X148542182Y-97775050D01*
X148550946Y-97779516D01*
X148601742Y-97827491D01*
X148618536Y-97895312D01*
X148595998Y-97961447D01*
X148550946Y-98000484D01*
X148542182Y-98004949D01*
X148370213Y-98129890D01*
X148219890Y-98280213D01*
X148094951Y-98452179D01*
X147998444Y-98641585D01*
X147932753Y-98843760D01*
X147924441Y-98896243D01*
X147899500Y-99053713D01*
X147899500Y-99266287D01*
X147902910Y-99287816D01*
X147923759Y-99419455D01*
X147932754Y-99476243D01*
X147983294Y-99631789D01*
X147998444Y-99678414D01*
X148094951Y-99867820D01*
X148219890Y-100039786D01*
X148370213Y-100190109D01*
X148542179Y-100315048D01*
X148542181Y-100315049D01*
X148542184Y-100315051D01*
X148731588Y-100411557D01*
X148933757Y-100477246D01*
X149143713Y-100510500D01*
X149143714Y-100510500D01*
X149356286Y-100510500D01*
X149356287Y-100510500D01*
X149566243Y-100477246D01*
X149768412Y-100411557D01*
X149957816Y-100315051D01*
X149980185Y-100298799D01*
X150129786Y-100190109D01*
X150129788Y-100190106D01*
X150129792Y-100190104D01*
X150280104Y-100039792D01*
X150280106Y-100039788D01*
X150280109Y-100039786D01*
X150405048Y-99867820D01*
X150405047Y-99867820D01*
X150405051Y-99867816D01*
X150501557Y-99678412D01*
X150567246Y-99476243D01*
X150600500Y-99266287D01*
X150600500Y-99053713D01*
X150567246Y-98843757D01*
X150501557Y-98641588D01*
X150405051Y-98452184D01*
X150405049Y-98452181D01*
X150405048Y-98452179D01*
X150280109Y-98280213D01*
X150129786Y-98129890D01*
X149957820Y-98004951D01*
X149957115Y-98004591D01*
X149949054Y-98000485D01*
X149898259Y-97952512D01*
X149881463Y-97884692D01*
X149903999Y-97818556D01*
X149949054Y-97779515D01*
X149957816Y-97775051D01*
X149979789Y-97759086D01*
X150129786Y-97650109D01*
X150129788Y-97650106D01*
X150129792Y-97650104D01*
X150280104Y-97499792D01*
X150280106Y-97499788D01*
X150280109Y-97499786D01*
X150405048Y-97327820D01*
X150405047Y-97327820D01*
X150405051Y-97327816D01*
X150501557Y-97138412D01*
X150567246Y-96936243D01*
X150600500Y-96726287D01*
X150600500Y-96513713D01*
X150567246Y-96303757D01*
X150501557Y-96101588D01*
X150405051Y-95912184D01*
X150405049Y-95912181D01*
X150405048Y-95912179D01*
X150280109Y-95740213D01*
X150129786Y-95589890D01*
X149957820Y-95464951D01*
X149957115Y-95464591D01*
X149949054Y-95460485D01*
X149898259Y-95412512D01*
X149881463Y-95344692D01*
X149903999Y-95278556D01*
X149949054Y-95239515D01*
X149957816Y-95235051D01*
X149996699Y-95206801D01*
X150129786Y-95110109D01*
X150129788Y-95110106D01*
X150129792Y-95110104D01*
X150280104Y-94959792D01*
X150280106Y-94959788D01*
X150280109Y-94959786D01*
X150405048Y-94787820D01*
X150405047Y-94787820D01*
X150405051Y-94787816D01*
X150501557Y-94598412D01*
X150567246Y-94396243D01*
X150600500Y-94186287D01*
X150600500Y-93973713D01*
X150567246Y-93763757D01*
X150501557Y-93561588D01*
X150405051Y-93372184D01*
X150405049Y-93372181D01*
X150405048Y-93372179D01*
X150280109Y-93200213D01*
X150129786Y-93049890D01*
X149957820Y-92924951D01*
X149957115Y-92924591D01*
X149949054Y-92920485D01*
X149898259Y-92872512D01*
X149881463Y-92804692D01*
X149903999Y-92738556D01*
X149949054Y-92699515D01*
X149957816Y-92695051D01*
X149993582Y-92669066D01*
X150129786Y-92570109D01*
X150129788Y-92570106D01*
X150129792Y-92570104D01*
X150280104Y-92419792D01*
X150280106Y-92419788D01*
X150280109Y-92419786D01*
X150405048Y-92247820D01*
X150405047Y-92247820D01*
X150405051Y-92247816D01*
X150501557Y-92058412D01*
X150567246Y-91856243D01*
X150600500Y-91646287D01*
X150600500Y-91433713D01*
X150567246Y-91223757D01*
X150501557Y-91021588D01*
X150405051Y-90832184D01*
X150405049Y-90832181D01*
X150405048Y-90832179D01*
X150280109Y-90660213D01*
X150129786Y-90509890D01*
X149957820Y-90384951D01*
X149957115Y-90384591D01*
X149949054Y-90380485D01*
X149898259Y-90332512D01*
X149881463Y-90264692D01*
X149903999Y-90198556D01*
X149949054Y-90159515D01*
X149957816Y-90155051D01*
X149979789Y-90139086D01*
X150085705Y-90062135D01*
X152399500Y-90062135D01*
X152399500Y-91857870D01*
X152399501Y-91857876D01*
X152405908Y-91917483D01*
X152456202Y-92052328D01*
X152456206Y-92052335D01*
X152542452Y-92167544D01*
X152542455Y-92167547D01*
X152657664Y-92253793D01*
X152657671Y-92253797D01*
X152792517Y-92304091D01*
X152792516Y-92304091D01*
X152799444Y-92304835D01*
X152852127Y-92310500D01*
X154647872Y-92310499D01*
X154707483Y-92304091D01*
X154842331Y-92253796D01*
X154957546Y-92167546D01*
X155043796Y-92052331D01*
X155092810Y-91920916D01*
X155134681Y-91864984D01*
X155200145Y-91840566D01*
X155268418Y-91855417D01*
X155296673Y-91876569D01*
X155410213Y-91990109D01*
X155582182Y-92115050D01*
X155590946Y-92119516D01*
X155641742Y-92167491D01*
X155658536Y-92235312D01*
X155635998Y-92301447D01*
X155590946Y-92340484D01*
X155582182Y-92344949D01*
X155410213Y-92469890D01*
X155259890Y-92620213D01*
X155134951Y-92792179D01*
X155038444Y-92981585D01*
X155038443Y-92981587D01*
X155038443Y-92981588D01*
X155031740Y-93002219D01*
X154972753Y-93183760D01*
X154939500Y-93393713D01*
X154939500Y-93606286D01*
X154972104Y-93812144D01*
X154972754Y-93816243D01*
X155035511Y-94009389D01*
X155038444Y-94018414D01*
X155134951Y-94207820D01*
X155259890Y-94379786D01*
X155410213Y-94530109D01*
X155582182Y-94655050D01*
X155590946Y-94659516D01*
X155641742Y-94707491D01*
X155658536Y-94775312D01*
X155635998Y-94841447D01*
X155590946Y-94880484D01*
X155582182Y-94884949D01*
X155410213Y-95009890D01*
X155259890Y-95160213D01*
X155134951Y-95332179D01*
X155038444Y-95521585D01*
X154972753Y-95723760D01*
X154947092Y-95885778D01*
X154939500Y-95933713D01*
X154939500Y-96146287D01*
X154943270Y-96170089D01*
X154966702Y-96318037D01*
X154972754Y-96356243D01*
X155030207Y-96533065D01*
X155038444Y-96558414D01*
X155134951Y-96747820D01*
X155259890Y-96919786D01*
X155410213Y-97070109D01*
X155582182Y-97195050D01*
X155590946Y-97199516D01*
X155641742Y-97247491D01*
X155658536Y-97315312D01*
X155635998Y-97381447D01*
X155590946Y-97420484D01*
X155582182Y-97424949D01*
X155410213Y-97549890D01*
X155259890Y-97700213D01*
X155134949Y-97872182D01*
X155130484Y-97880946D01*
X155082509Y-97931742D01*
X155014688Y-97948536D01*
X154948553Y-97925998D01*
X154909516Y-97880946D01*
X154905050Y-97872182D01*
X154780109Y-97700213D01*
X154629786Y-97549890D01*
X154457820Y-97424951D01*
X154268414Y-97328444D01*
X154268413Y-97328443D01*
X154268412Y-97328443D01*
X154066243Y-97262754D01*
X154066241Y-97262753D01*
X154066240Y-97262753D01*
X153904957Y-97237208D01*
X153856287Y-97229500D01*
X153643713Y-97229500D01*
X153595042Y-97237208D01*
X153433760Y-97262753D01*
X153231585Y-97328444D01*
X153042179Y-97424951D01*
X152870213Y-97549890D01*
X152719890Y-97700213D01*
X152594951Y-97872179D01*
X152498444Y-98061585D01*
X152432753Y-98263760D01*
X152425038Y-98312472D01*
X152399500Y-98473713D01*
X152399500Y-98686287D01*
X152402153Y-98703035D01*
X152431449Y-98888007D01*
X152432754Y-98896243D01*
X152483919Y-99053713D01*
X152498444Y-99098414D01*
X152594951Y-99287820D01*
X152719890Y-99459786D01*
X152870213Y-99610109D01*
X153042182Y-99735050D01*
X153050946Y-99739516D01*
X153101742Y-99787491D01*
X153118536Y-99855312D01*
X153095998Y-99921447D01*
X153050946Y-99960484D01*
X153042182Y-99964949D01*
X152870213Y-100089890D01*
X152719890Y-100240213D01*
X152594951Y-100412179D01*
X152498444Y-100601585D01*
X152432753Y-100803760D01*
X152414420Y-100919512D01*
X152399500Y-101013713D01*
X152399500Y-101226287D01*
X152432754Y-101436243D01*
X152496944Y-101633800D01*
X152498444Y-101638414D01*
X152594951Y-101827820D01*
X152719890Y-101999786D01*
X152870213Y-102150109D01*
X153042179Y-102275048D01*
X153042181Y-102275049D01*
X153042184Y-102275051D01*
X153231588Y-102371557D01*
X153433757Y-102437246D01*
X153643713Y-102470500D01*
X153643714Y-102470500D01*
X153856286Y-102470500D01*
X153856287Y-102470500D01*
X154066243Y-102437246D01*
X154268412Y-102371557D01*
X154457816Y-102275051D01*
X154479789Y-102259086D01*
X154629786Y-102150109D01*
X154629788Y-102150106D01*
X154629792Y-102150104D01*
X154780104Y-101999792D01*
X154780106Y-101999788D01*
X154780109Y-101999786D01*
X154905048Y-101827820D01*
X154905047Y-101827820D01*
X154905051Y-101827816D01*
X154909514Y-101819054D01*
X154957488Y-101768259D01*
X155025308Y-101751463D01*
X155091444Y-101773999D01*
X155130486Y-101819056D01*
X155134951Y-101827820D01*
X155259890Y-101999786D01*
X155410213Y-102150109D01*
X155582179Y-102275048D01*
X155582181Y-102275049D01*
X155582184Y-102275051D01*
X155771588Y-102371557D01*
X155973757Y-102437246D01*
X156183713Y-102470500D01*
X156183714Y-102470500D01*
X156396286Y-102470500D01*
X156396287Y-102470500D01*
X156606243Y-102437246D01*
X156808412Y-102371557D01*
X156997816Y-102275051D01*
X157019789Y-102259086D01*
X157169786Y-102150109D01*
X157169788Y-102150106D01*
X157169792Y-102150104D01*
X157320104Y-101999792D01*
X157320106Y-101999788D01*
X157320109Y-101999786D01*
X157445048Y-101827820D01*
X157445047Y-101827820D01*
X157445051Y-101827816D01*
X157541557Y-101638412D01*
X157607246Y-101436243D01*
X157640500Y-101226287D01*
X157640500Y-101013713D01*
X157607246Y-100803757D01*
X157541557Y-100601588D01*
X157445051Y-100412184D01*
X157445049Y-100412181D01*
X157445048Y-100412179D01*
X157320109Y-100240213D01*
X157169786Y-100089890D01*
X156997820Y-99964951D01*
X156997115Y-99964591D01*
X156989054Y-99960485D01*
X156938259Y-99912512D01*
X156921463Y-99844692D01*
X156943999Y-99778556D01*
X156989054Y-99739515D01*
X156997816Y-99735051D01*
X157075771Y-99678414D01*
X157169786Y-99610109D01*
X157169788Y-99610106D01*
X157169792Y-99610104D01*
X157320104Y-99459792D01*
X157320106Y-99459788D01*
X157320109Y-99459786D01*
X157445048Y-99287820D01*
X157445047Y-99287820D01*
X157445051Y-99287816D01*
X157541557Y-99098412D01*
X157607246Y-98896243D01*
X157640500Y-98686287D01*
X157640500Y-98473713D01*
X157607246Y-98263757D01*
X157541557Y-98061588D01*
X157445051Y-97872184D01*
X157445049Y-97872181D01*
X157445048Y-97872179D01*
X157320109Y-97700213D01*
X157169786Y-97549890D01*
X156997820Y-97424951D01*
X156994012Y-97423011D01*
X156989054Y-97420485D01*
X156938259Y-97372512D01*
X156921463Y-97304692D01*
X156943999Y-97238556D01*
X156989054Y-97199515D01*
X156997816Y-97195051D01*
X157019789Y-97179086D01*
X157169786Y-97070109D01*
X157169788Y-97070106D01*
X157169792Y-97070104D01*
X157320104Y-96919792D01*
X157320106Y-96919788D01*
X157320109Y-96919786D01*
X157445048Y-96747820D01*
X157445047Y-96747820D01*
X157445051Y-96747816D01*
X157541557Y-96558412D01*
X157607246Y-96356243D01*
X157640500Y-96146287D01*
X157640500Y-95933713D01*
X157607246Y-95723757D01*
X157541557Y-95521588D01*
X157445051Y-95332184D01*
X157445049Y-95332181D01*
X157445048Y-95332179D01*
X157320109Y-95160213D01*
X157169786Y-95009890D01*
X156997820Y-94884951D01*
X156997115Y-94884591D01*
X156989054Y-94880485D01*
X156938259Y-94832512D01*
X156921463Y-94764692D01*
X156943999Y-94698556D01*
X156989054Y-94659515D01*
X156997816Y-94655051D01*
X157040689Y-94623902D01*
X157169786Y-94530109D01*
X157169788Y-94530106D01*
X157169792Y-94530104D01*
X157320104Y-94379792D01*
X157320106Y-94379788D01*
X157320109Y-94379786D01*
X157445048Y-94207820D01*
X157445047Y-94207820D01*
X157445051Y-94207816D01*
X157541557Y-94018412D01*
X157607246Y-93816243D01*
X157640500Y-93606287D01*
X157640500Y-93393713D01*
X157607246Y-93183757D01*
X157541557Y-92981588D01*
X157445051Y-92792184D01*
X157445049Y-92792181D01*
X157445048Y-92792179D01*
X157320109Y-92620213D01*
X157169790Y-92469894D01*
X157169785Y-92469890D01*
X157009306Y-92353296D01*
X157009298Y-92353291D01*
X156997816Y-92344949D01*
X156984774Y-92338304D01*
X156980687Y-92335806D01*
X156960308Y-92313335D01*
X156938259Y-92292512D01*
X156937070Y-92287713D01*
X156933749Y-92284051D01*
X156929091Y-92256153D01*
X158335349Y-92256153D01*
X158335349Y-92413846D01*
X158366110Y-92568489D01*
X158366113Y-92568501D01*
X158426451Y-92714172D01*
X158426458Y-92714185D01*
X158514059Y-92845288D01*
X158514062Y-92845292D01*
X158625556Y-92956786D01*
X158625560Y-92956789D01*
X158756663Y-93044390D01*
X158756676Y-93044397D01*
X158902347Y-93104735D01*
X158902352Y-93104737D01*
X159057002Y-93135499D01*
X159057005Y-93135500D01*
X159057007Y-93135500D01*
X159214693Y-93135500D01*
X159214694Y-93135499D01*
X159369346Y-93104737D01*
X159501745Y-93049896D01*
X159515021Y-93044397D01*
X159515021Y-93044396D01*
X159515028Y-93044394D01*
X159646138Y-92956789D01*
X159757638Y-92845289D01*
X159845243Y-92714179D01*
X159905586Y-92568497D01*
X159936349Y-92413842D01*
X159936349Y-92256158D01*
X159936349Y-92256155D01*
X159926292Y-92205598D01*
X159926292Y-92205597D01*
X159922691Y-92187493D01*
X161361349Y-92187493D01*
X161361349Y-92345186D01*
X161392110Y-92499829D01*
X161392113Y-92499841D01*
X161452451Y-92645512D01*
X161452458Y-92645525D01*
X161540059Y-92776628D01*
X161540062Y-92776632D01*
X161651556Y-92888126D01*
X161651560Y-92888129D01*
X161782663Y-92975730D01*
X161782676Y-92975737D01*
X161928347Y-93036075D01*
X161928352Y-93036077D01*
X162081283Y-93066497D01*
X162083002Y-93066839D01*
X162083005Y-93066840D01*
X162083007Y-93066840D01*
X162240693Y-93066840D01*
X162240694Y-93066839D01*
X162395346Y-93036077D01*
X162541028Y-92975734D01*
X162672138Y-92888129D01*
X162783638Y-92776629D01*
X162871243Y-92645519D01*
X162931586Y-92499837D01*
X162962349Y-92345182D01*
X162962349Y-92264196D01*
X165492306Y-92264196D01*
X165492306Y-92421889D01*
X165523067Y-92576532D01*
X165523070Y-92576544D01*
X165583408Y-92722215D01*
X165583415Y-92722228D01*
X165671016Y-92853331D01*
X165671019Y-92853335D01*
X165782513Y-92964829D01*
X165782517Y-92964832D01*
X165913620Y-93052433D01*
X165913633Y-93052440D01*
X166056243Y-93111510D01*
X166059309Y-93112780D01*
X166213959Y-93143542D01*
X166213962Y-93143543D01*
X166213964Y-93143543D01*
X166371650Y-93143543D01*
X166371651Y-93143542D01*
X166526303Y-93112780D01*
X166671985Y-93052437D01*
X166803095Y-92964832D01*
X166914595Y-92853332D01*
X167002200Y-92722222D01*
X167005532Y-92714179D01*
X167030366Y-92654223D01*
X167062543Y-92576540D01*
X167093306Y-92421885D01*
X167093306Y-92264201D01*
X167093306Y-92264198D01*
X167093305Y-92264196D01*
X167091303Y-92254129D01*
X167062543Y-92109546D01*
X167062541Y-92109541D01*
X167002203Y-91963870D01*
X167002196Y-91963857D01*
X166914595Y-91832754D01*
X166914592Y-91832750D01*
X166803098Y-91721256D01*
X166803094Y-91721253D01*
X166671991Y-91633652D01*
X166671978Y-91633645D01*
X166526307Y-91573307D01*
X166526295Y-91573304D01*
X166371651Y-91542543D01*
X166371648Y-91542543D01*
X166213964Y-91542543D01*
X166213961Y-91542543D01*
X166059316Y-91573304D01*
X166059304Y-91573307D01*
X165913633Y-91633645D01*
X165913620Y-91633652D01*
X165782517Y-91721253D01*
X165782513Y-91721256D01*
X165671019Y-91832750D01*
X165671016Y-91832754D01*
X165583415Y-91963857D01*
X165583408Y-91963870D01*
X165523070Y-92109541D01*
X165523067Y-92109553D01*
X165492306Y-92264196D01*
X162962349Y-92264196D01*
X162962349Y-92187498D01*
X162962349Y-92187495D01*
X162962348Y-92187493D01*
X162955077Y-92150939D01*
X162931586Y-92032843D01*
X162926746Y-92021157D01*
X162871246Y-91887167D01*
X162871239Y-91887154D01*
X162783638Y-91756051D01*
X162783635Y-91756047D01*
X162672141Y-91644553D01*
X162672137Y-91644550D01*
X162541034Y-91556949D01*
X162541021Y-91556942D01*
X162395350Y-91496604D01*
X162395338Y-91496601D01*
X162240694Y-91465840D01*
X162240691Y-91465840D01*
X162083007Y-91465840D01*
X162083004Y-91465840D01*
X161928359Y-91496601D01*
X161928347Y-91496604D01*
X161782676Y-91556942D01*
X161782663Y-91556949D01*
X161651560Y-91644550D01*
X161651556Y-91644553D01*
X161540062Y-91756047D01*
X161540059Y-91756051D01*
X161452458Y-91887154D01*
X161452451Y-91887167D01*
X161392113Y-92032838D01*
X161392110Y-92032850D01*
X161361349Y-92187493D01*
X159922691Y-92187493D01*
X159910560Y-92126511D01*
X159905586Y-92101503D01*
X159895496Y-92077144D01*
X159845246Y-91955827D01*
X159845239Y-91955814D01*
X159757638Y-91824711D01*
X159757635Y-91824707D01*
X159646141Y-91713213D01*
X159646137Y-91713210D01*
X159515034Y-91625609D01*
X159515021Y-91625602D01*
X159369350Y-91565264D01*
X159369338Y-91565261D01*
X159214694Y-91534500D01*
X159214691Y-91534500D01*
X159057007Y-91534500D01*
X159057004Y-91534500D01*
X158902359Y-91565261D01*
X158902347Y-91565264D01*
X158756676Y-91625602D01*
X158756663Y-91625609D01*
X158625560Y-91713210D01*
X158625556Y-91713213D01*
X158514062Y-91824707D01*
X158514059Y-91824711D01*
X158426458Y-91955814D01*
X158426451Y-91955827D01*
X158366113Y-92101498D01*
X158366110Y-92101510D01*
X158335349Y-92256153D01*
X156929091Y-92256153D01*
X156928753Y-92254129D01*
X156921463Y-92224692D01*
X156923057Y-92220012D01*
X156922243Y-92215135D01*
X156934217Y-92187262D01*
X156943999Y-92158556D01*
X156948062Y-92155035D01*
X156949822Y-92150939D01*
X156963257Y-92141868D01*
X156989054Y-92119515D01*
X156997816Y-92115051D01*
X157075771Y-92058414D01*
X157169786Y-91990109D01*
X157169788Y-91990106D01*
X157169792Y-91990104D01*
X157320104Y-91839792D01*
X157320106Y-91839788D01*
X157320109Y-91839786D01*
X157445048Y-91667820D01*
X157445047Y-91667820D01*
X157445051Y-91667816D01*
X157541557Y-91478412D01*
X157607246Y-91276243D01*
X157640500Y-91066287D01*
X157640500Y-90853713D01*
X157607246Y-90643757D01*
X157541557Y-90441588D01*
X157445051Y-90252184D01*
X157445049Y-90252181D01*
X157445048Y-90252179D01*
X157320109Y-90080213D01*
X157169786Y-89929890D01*
X156997820Y-89804951D01*
X156808414Y-89708444D01*
X156808413Y-89708443D01*
X156808412Y-89708443D01*
X156606243Y-89642754D01*
X156606241Y-89642753D01*
X156606240Y-89642753D01*
X156444957Y-89617208D01*
X156396287Y-89609500D01*
X156183713Y-89609500D01*
X156135042Y-89617208D01*
X155973760Y-89642753D01*
X155771585Y-89708444D01*
X155582179Y-89804951D01*
X155410215Y-89929889D01*
X155296673Y-90043431D01*
X155235350Y-90076915D01*
X155165658Y-90071931D01*
X155109725Y-90030059D01*
X155092810Y-89999082D01*
X155043797Y-89867671D01*
X155043793Y-89867664D01*
X154957547Y-89752455D01*
X154957544Y-89752452D01*
X154842335Y-89666206D01*
X154842328Y-89666202D01*
X154707482Y-89615908D01*
X154707483Y-89615908D01*
X154647883Y-89609501D01*
X154647881Y-89609500D01*
X154647873Y-89609500D01*
X154647864Y-89609500D01*
X152852129Y-89609500D01*
X152852123Y-89609501D01*
X152792516Y-89615908D01*
X152657671Y-89666202D01*
X152657664Y-89666206D01*
X152542455Y-89752452D01*
X152542452Y-89752455D01*
X152456206Y-89867664D01*
X152456202Y-89867671D01*
X152405908Y-90002517D01*
X152399501Y-90062116D01*
X152399500Y-90062135D01*
X150085705Y-90062135D01*
X150129786Y-90030109D01*
X150129788Y-90030106D01*
X150129792Y-90030104D01*
X150280104Y-89879792D01*
X150280106Y-89879788D01*
X150280109Y-89879786D01*
X150405048Y-89707820D01*
X150405047Y-89707820D01*
X150405051Y-89707816D01*
X150501557Y-89518412D01*
X150567246Y-89316243D01*
X150600500Y-89106287D01*
X150600500Y-88893713D01*
X150567246Y-88683757D01*
X150501557Y-88481588D01*
X150405051Y-88292184D01*
X150405049Y-88292181D01*
X150405048Y-88292179D01*
X150280109Y-88120213D01*
X150129786Y-87969890D01*
X149957820Y-87844951D01*
X149768414Y-87748444D01*
X149768413Y-87748443D01*
X149768412Y-87748443D01*
X149566243Y-87682754D01*
X149566241Y-87682753D01*
X149566240Y-87682753D01*
X149404957Y-87657208D01*
X149356287Y-87649500D01*
X149143713Y-87649500D01*
X149095042Y-87657208D01*
X148933760Y-87682753D01*
X148933757Y-87682754D01*
X148782844Y-87731789D01*
X148731585Y-87748444D01*
X148542179Y-87844951D01*
X148370213Y-87969890D01*
X148219890Y-88120213D01*
X148094951Y-88292179D01*
X147998444Y-88481585D01*
X147932753Y-88683760D01*
X147916636Y-88785521D01*
X147899500Y-88893713D01*
X102075967Y-88893713D01*
X102079388Y-88876513D01*
X102081748Y-88864650D01*
X102081748Y-88864649D01*
X102100500Y-88770379D01*
X102100500Y-88612690D01*
X102100499Y-88612688D01*
X102078378Y-88501479D01*
X102069737Y-88458038D01*
X102036366Y-88377472D01*
X102009397Y-88312362D01*
X102009390Y-88312349D01*
X101921789Y-88181246D01*
X101921786Y-88181242D01*
X101810292Y-88069748D01*
X101810288Y-88069745D01*
X101679185Y-87982144D01*
X101679172Y-87982137D01*
X101533501Y-87921799D01*
X101533489Y-87921796D01*
X101378845Y-87891035D01*
X101378842Y-87891035D01*
X101221158Y-87891035D01*
X101221155Y-87891035D01*
X101066510Y-87921796D01*
X101066498Y-87921799D01*
X100920827Y-87982137D01*
X100920814Y-87982144D01*
X100789711Y-88069745D01*
X100789707Y-88069748D01*
X100678213Y-88181242D01*
X100678210Y-88181246D01*
X100590609Y-88312349D01*
X100590602Y-88312362D01*
X100530264Y-88458033D01*
X100530261Y-88458045D01*
X100499500Y-88612688D01*
X99634821Y-88612688D01*
X99650229Y-88589628D01*
X99684921Y-88537710D01*
X99709125Y-88501485D01*
X99709125Y-88501484D01*
X99709129Y-88501479D01*
X99710064Y-88499223D01*
X99754048Y-88393034D01*
X99769472Y-88355797D01*
X99800235Y-88201142D01*
X99800235Y-88043458D01*
X99800235Y-88043455D01*
X99800234Y-88043453D01*
X99788037Y-87982137D01*
X99769472Y-87888803D01*
X99764784Y-87877485D01*
X99709132Y-87743127D01*
X99709125Y-87743114D01*
X99621524Y-87612011D01*
X99621521Y-87612007D01*
X99510027Y-87500513D01*
X99510023Y-87500510D01*
X99458851Y-87466318D01*
X99414046Y-87412706D01*
X99405339Y-87343381D01*
X99435493Y-87280354D01*
X99480290Y-87248655D01*
X99579172Y-87207697D01*
X99579172Y-87207696D01*
X99579179Y-87207694D01*
X99710289Y-87120089D01*
X99821789Y-87008589D01*
X99909394Y-86877479D01*
X99960353Y-86754453D01*
X111997850Y-86754453D01*
X111997850Y-86912146D01*
X112028611Y-87066789D01*
X112028614Y-87066801D01*
X112088952Y-87212472D01*
X112088959Y-87212485D01*
X112176560Y-87343588D01*
X112176563Y-87343592D01*
X112288057Y-87455086D01*
X112288061Y-87455089D01*
X112419164Y-87542690D01*
X112419177Y-87542697D01*
X112564848Y-87603035D01*
X112564853Y-87603037D01*
X112719503Y-87633799D01*
X112719506Y-87633800D01*
X112719508Y-87633800D01*
X112877194Y-87633800D01*
X112877195Y-87633799D01*
X113031847Y-87603037D01*
X113177529Y-87542694D01*
X113308639Y-87455089D01*
X113420139Y-87343589D01*
X113507744Y-87212479D01*
X113568087Y-87066797D01*
X113598850Y-86912142D01*
X113598850Y-86754458D01*
X113598850Y-86754455D01*
X113598849Y-86754453D01*
X113593699Y-86728561D01*
X113568087Y-86599803D01*
X113558702Y-86577146D01*
X113507747Y-86454127D01*
X113507740Y-86454114D01*
X113420139Y-86323011D01*
X113420136Y-86323007D01*
X113308642Y-86211513D01*
X113308638Y-86211510D01*
X113177535Y-86123909D01*
X113177522Y-86123902D01*
X113031851Y-86063564D01*
X113031839Y-86063561D01*
X112877195Y-86032800D01*
X112877192Y-86032800D01*
X112719508Y-86032800D01*
X112719505Y-86032800D01*
X112564860Y-86063561D01*
X112564848Y-86063564D01*
X112419177Y-86123902D01*
X112419164Y-86123909D01*
X112288061Y-86211510D01*
X112288057Y-86211513D01*
X112176563Y-86323007D01*
X112176560Y-86323011D01*
X112088959Y-86454114D01*
X112088952Y-86454127D01*
X112028614Y-86599798D01*
X112028611Y-86599810D01*
X111997850Y-86754453D01*
X99960353Y-86754453D01*
X99969737Y-86731797D01*
X99971848Y-86721188D01*
X100000499Y-86577146D01*
X100000500Y-86577144D01*
X100000500Y-86419455D01*
X100000499Y-86419453D01*
X99969737Y-86264803D01*
X99951996Y-86221971D01*
X99909397Y-86119127D01*
X99909390Y-86119114D01*
X99821789Y-85988011D01*
X99821786Y-85988007D01*
X99710292Y-85876513D01*
X99710288Y-85876510D01*
X99579185Y-85788909D01*
X99579172Y-85788902D01*
X99433501Y-85728564D01*
X99433489Y-85728561D01*
X99278845Y-85697800D01*
X99278842Y-85697800D01*
X99121158Y-85697800D01*
X99121153Y-85697800D01*
X98974596Y-85726952D01*
X98905004Y-85720725D01*
X98849827Y-85677862D01*
X98826583Y-85611972D01*
X98842651Y-85543975D01*
X98862723Y-85517654D01*
X98871789Y-85508589D01*
X98959394Y-85377479D01*
X99019737Y-85231797D01*
X99050500Y-85077142D01*
X99050500Y-84919458D01*
X99050500Y-84919455D01*
X99021618Y-84774258D01*
X99021618Y-84774257D01*
X99019738Y-84764810D01*
X99019737Y-84764803D01*
X99016154Y-84756153D01*
X119160349Y-84756153D01*
X119160349Y-84913846D01*
X119191110Y-85068489D01*
X119191113Y-85068501D01*
X119251451Y-85214172D01*
X119251458Y-85214185D01*
X119339059Y-85345288D01*
X119339062Y-85345292D01*
X119450556Y-85456786D01*
X119450560Y-85456789D01*
X119581663Y-85544390D01*
X119581676Y-85544397D01*
X119727347Y-85604735D01*
X119727352Y-85604737D01*
X119819337Y-85623034D01*
X119882002Y-85635499D01*
X119882005Y-85635500D01*
X119882007Y-85635500D01*
X120039693Y-85635500D01*
X120039694Y-85635499D01*
X120194346Y-85604737D01*
X120340028Y-85544394D01*
X120471138Y-85456789D01*
X120582638Y-85345289D01*
X120670243Y-85214179D01*
X120730586Y-85068497D01*
X120761349Y-84913842D01*
X120761349Y-84756158D01*
X120761349Y-84756155D01*
X120761348Y-84756153D01*
X120756300Y-84730776D01*
X120730586Y-84601503D01*
X120701446Y-84531153D01*
X135550350Y-84531153D01*
X135550350Y-84688846D01*
X135581111Y-84843489D01*
X135581114Y-84843501D01*
X135641452Y-84989172D01*
X135641459Y-84989185D01*
X135729060Y-85120288D01*
X135729063Y-85120292D01*
X135840557Y-85231786D01*
X135840561Y-85231789D01*
X135971664Y-85319390D01*
X135971677Y-85319397D01*
X136111916Y-85377485D01*
X136117353Y-85379737D01*
X136268388Y-85409780D01*
X136272003Y-85410499D01*
X136272006Y-85410500D01*
X136272008Y-85410500D01*
X136429694Y-85410500D01*
X136429695Y-85410499D01*
X136584347Y-85379737D01*
X136698748Y-85332351D01*
X136730022Y-85319397D01*
X136730022Y-85319396D01*
X136730029Y-85319394D01*
X136780860Y-85285429D01*
X136847533Y-85264552D01*
X136914913Y-85283035D01*
X136952852Y-85319642D01*
X136983637Y-85365716D01*
X137095132Y-85477211D01*
X137095136Y-85477214D01*
X137226239Y-85564815D01*
X137226252Y-85564822D01*
X137371923Y-85625160D01*
X137371928Y-85625162D01*
X137526578Y-85655924D01*
X137526581Y-85655925D01*
X137526583Y-85655925D01*
X137684269Y-85655925D01*
X137684270Y-85655924D01*
X137838922Y-85625162D01*
X137984604Y-85564819D01*
X138115714Y-85477214D01*
X138227214Y-85365714D01*
X138314819Y-85234604D01*
X138322581Y-85215866D01*
X138339388Y-85175288D01*
X138375162Y-85088922D01*
X138405925Y-84934267D01*
X138405925Y-84776583D01*
X138405925Y-84776580D01*
X138405924Y-84776578D01*
X138389144Y-84692219D01*
X138375162Y-84621928D01*
X138354696Y-84572519D01*
X138314822Y-84476252D01*
X138314815Y-84476239D01*
X138227214Y-84345136D01*
X138227211Y-84345132D01*
X138115717Y-84233638D01*
X138115713Y-84233635D01*
X137984610Y-84146034D01*
X137984597Y-84146027D01*
X137838926Y-84085689D01*
X137838914Y-84085686D01*
X137684270Y-84054925D01*
X137684267Y-84054925D01*
X137526583Y-84054925D01*
X137526580Y-84054925D01*
X137371935Y-84085686D01*
X137371923Y-84085689D01*
X137226252Y-84146027D01*
X137226241Y-84146033D01*
X137175415Y-84179994D01*
X137108737Y-84200871D01*
X137041357Y-84182386D01*
X137003423Y-84145782D01*
X136972639Y-84099711D01*
X136972636Y-84099707D01*
X136861142Y-83988213D01*
X136861138Y-83988210D01*
X136730035Y-83900609D01*
X136730022Y-83900602D01*
X136584351Y-83840264D01*
X136584339Y-83840261D01*
X136429695Y-83809500D01*
X136429692Y-83809500D01*
X136272008Y-83809500D01*
X136272005Y-83809500D01*
X136117360Y-83840261D01*
X136117348Y-83840264D01*
X135971677Y-83900602D01*
X135971664Y-83900609D01*
X135840561Y-83988210D01*
X135840557Y-83988213D01*
X135729063Y-84099707D01*
X135729060Y-84099711D01*
X135641459Y-84230814D01*
X135641452Y-84230827D01*
X135581114Y-84376498D01*
X135581111Y-84376510D01*
X135550350Y-84531153D01*
X120701446Y-84531153D01*
X120690773Y-84505386D01*
X120670246Y-84455827D01*
X120670239Y-84455814D01*
X120582638Y-84324711D01*
X120582635Y-84324707D01*
X120471141Y-84213213D01*
X120471137Y-84213210D01*
X120340034Y-84125609D01*
X120340021Y-84125602D01*
X120194350Y-84065264D01*
X120194338Y-84065261D01*
X120039694Y-84034500D01*
X120039691Y-84034500D01*
X119882007Y-84034500D01*
X119882004Y-84034500D01*
X119727359Y-84065261D01*
X119727347Y-84065264D01*
X119581676Y-84125602D01*
X119581663Y-84125609D01*
X119450560Y-84213210D01*
X119450556Y-84213213D01*
X119339062Y-84324707D01*
X119339059Y-84324711D01*
X119251458Y-84455814D01*
X119251451Y-84455827D01*
X119191113Y-84601498D01*
X119191110Y-84601510D01*
X119160349Y-84756153D01*
X99016154Y-84756153D01*
X98989672Y-84692219D01*
X98959397Y-84619127D01*
X98959390Y-84619114D01*
X98871789Y-84488011D01*
X98871786Y-84488007D01*
X98760292Y-84376513D01*
X98760288Y-84376510D01*
X98629185Y-84288909D01*
X98629172Y-84288902D01*
X98483501Y-84228564D01*
X98483489Y-84228561D01*
X98328845Y-84197800D01*
X98328842Y-84197800D01*
X98171158Y-84197800D01*
X98171155Y-84197800D01*
X98016510Y-84228561D01*
X98016498Y-84228564D01*
X97870827Y-84288902D01*
X97870814Y-84288909D01*
X97739711Y-84376510D01*
X97739707Y-84376513D01*
X97628213Y-84488007D01*
X97628210Y-84488011D01*
X97540609Y-84619114D01*
X97540602Y-84619127D01*
X97480264Y-84764798D01*
X97480261Y-84764810D01*
X97449500Y-84919453D01*
X95500499Y-84919453D01*
X95472080Y-84776583D01*
X95469737Y-84764803D01*
X95439672Y-84692219D01*
X95409397Y-84619127D01*
X95409390Y-84619114D01*
X95321789Y-84488011D01*
X95321786Y-84488007D01*
X95210292Y-84376513D01*
X95210288Y-84376510D01*
X95079185Y-84288909D01*
X95079172Y-84288902D01*
X94933501Y-84228564D01*
X94933489Y-84228561D01*
X94778845Y-84197800D01*
X94778842Y-84197800D01*
X94621158Y-84197800D01*
X94621155Y-84197800D01*
X94466510Y-84228561D01*
X94466498Y-84228564D01*
X94320827Y-84288902D01*
X94320814Y-84288909D01*
X94189711Y-84376510D01*
X94189707Y-84376513D01*
X94078213Y-84488007D01*
X94078210Y-84488011D01*
X93990609Y-84619114D01*
X93990602Y-84619127D01*
X93930264Y-84764798D01*
X93930261Y-84764810D01*
X93899500Y-84919453D01*
X85266523Y-84919453D01*
X85205220Y-84730781D01*
X85205218Y-84730778D01*
X85205218Y-84730776D01*
X85149760Y-84621935D01*
X85112287Y-84548390D01*
X85096463Y-84526610D01*
X84991971Y-84382786D01*
X84847213Y-84238028D01*
X84681613Y-84117715D01*
X84681612Y-84117714D01*
X84681610Y-84117713D01*
X84624653Y-84088691D01*
X84499223Y-84024781D01*
X84304534Y-83961522D01*
X84129995Y-83933878D01*
X84102352Y-83929500D01*
X83897648Y-83929500D01*
X83873329Y-83933351D01*
X83695465Y-83961522D01*
X83500776Y-84024781D01*
X83318386Y-84117715D01*
X83152786Y-84238028D01*
X83008028Y-84382786D01*
X82887715Y-84548386D01*
X82794781Y-84730776D01*
X82731522Y-84925465D01*
X82699500Y-85127648D01*
X81439633Y-85127648D01*
X81443154Y-85123812D01*
X81468868Y-85112069D01*
X81540094Y-85088926D01*
X81659219Y-85050220D01*
X81841610Y-84957287D01*
X81934590Y-84889732D01*
X82007213Y-84836971D01*
X82007215Y-84836968D01*
X82007219Y-84836966D01*
X82151966Y-84692219D01*
X82151968Y-84692215D01*
X82151971Y-84692213D01*
X82238932Y-84572519D01*
X82272287Y-84526610D01*
X82365220Y-84344219D01*
X82428477Y-84149534D01*
X82460500Y-83947352D01*
X82460500Y-83742648D01*
X82428477Y-83540466D01*
X82365220Y-83345781D01*
X82365218Y-83345778D01*
X82365218Y-83345776D01*
X82325606Y-83268035D01*
X82272287Y-83163390D01*
X82264556Y-83152749D01*
X82151971Y-82997786D01*
X82007213Y-82853028D01*
X81841613Y-82732715D01*
X81841612Y-82732714D01*
X81841610Y-82732713D01*
X81784653Y-82703691D01*
X81659223Y-82639781D01*
X81464534Y-82576522D01*
X81289995Y-82548878D01*
X81262352Y-82544500D01*
X81057648Y-82544500D01*
X81033329Y-82548351D01*
X80855465Y-82576522D01*
X80660776Y-82639781D01*
X80478386Y-82732715D01*
X80312786Y-82853028D01*
X80168028Y-82997786D01*
X80047715Y-83163386D01*
X79954781Y-83345776D01*
X79891522Y-83540465D01*
X79859500Y-83742648D01*
X76500500Y-83742648D01*
X76500500Y-82419453D01*
X87487000Y-82419453D01*
X87487000Y-82577146D01*
X87517761Y-82731789D01*
X87517764Y-82731801D01*
X87578102Y-82877472D01*
X87578109Y-82877485D01*
X87665710Y-83008588D01*
X87665713Y-83008592D01*
X87777207Y-83120086D01*
X87777211Y-83120089D01*
X87908314Y-83207690D01*
X87908327Y-83207697D01*
X88053998Y-83268035D01*
X88054003Y-83268037D01*
X88208653Y-83298799D01*
X88208656Y-83298800D01*
X88208658Y-83298800D01*
X88366344Y-83298800D01*
X88366345Y-83298799D01*
X88520997Y-83268037D01*
X88666679Y-83207694D01*
X88797789Y-83120089D01*
X88909289Y-83008589D01*
X88996894Y-82877479D01*
X89057237Y-82731797D01*
X89088000Y-82577142D01*
X89088000Y-82419458D01*
X89088000Y-82419455D01*
X89087999Y-82419453D01*
X89072078Y-82339414D01*
X89057237Y-82264803D01*
X89037407Y-82216928D01*
X88996897Y-82119127D01*
X88996890Y-82119114D01*
X88909290Y-81988012D01*
X88909284Y-81988005D01*
X88840732Y-81919453D01*
X107899500Y-81919453D01*
X107899500Y-82077146D01*
X107930261Y-82231789D01*
X107930264Y-82231801D01*
X107990602Y-82377472D01*
X107990609Y-82377485D01*
X108078210Y-82508588D01*
X108078213Y-82508592D01*
X108189707Y-82620086D01*
X108189711Y-82620089D01*
X108320814Y-82707690D01*
X108320827Y-82707697D01*
X108381227Y-82732715D01*
X108466503Y-82768037D01*
X108621153Y-82798799D01*
X108621156Y-82798800D01*
X108621158Y-82798800D01*
X108778844Y-82798800D01*
X108778845Y-82798799D01*
X108933497Y-82768037D01*
X109079179Y-82707694D01*
X109210289Y-82620089D01*
X109321789Y-82508589D01*
X109409394Y-82377479D01*
X109469737Y-82231797D01*
X109500500Y-82077142D01*
X109500500Y-81919458D01*
X109500500Y-81919455D01*
X109500499Y-81919453D01*
X109474531Y-81788906D01*
X109469737Y-81764803D01*
X109466794Y-81757697D01*
X109409397Y-81619127D01*
X109409390Y-81619114D01*
X109321792Y-81488016D01*
X109321789Y-81488011D01*
X109321784Y-81488006D01*
X109321781Y-81488002D01*
X109247168Y-81413389D01*
X143385349Y-81413389D01*
X143385349Y-81586610D01*
X143407831Y-81728561D01*
X143412447Y-81757701D01*
X143465976Y-81922445D01*
X143544617Y-82076788D01*
X143646435Y-82216928D01*
X143768921Y-82339414D01*
X143909061Y-82441232D01*
X144063404Y-82519873D01*
X144228148Y-82573402D01*
X144399238Y-82600500D01*
X144399239Y-82600500D01*
X144572459Y-82600500D01*
X144572460Y-82600500D01*
X144743550Y-82573402D01*
X144908294Y-82519873D01*
X145062637Y-82441232D01*
X145202777Y-82339414D01*
X145325263Y-82216928D01*
X145385531Y-82133975D01*
X145440861Y-82091311D01*
X145510475Y-82085332D01*
X145572270Y-82117938D01*
X145586164Y-82133973D01*
X145646435Y-82216928D01*
X145768921Y-82339414D01*
X145909061Y-82441232D01*
X146063404Y-82519873D01*
X146228148Y-82573402D01*
X146399238Y-82600500D01*
X146399239Y-82600500D01*
X146572459Y-82600500D01*
X146572460Y-82600500D01*
X146743550Y-82573402D01*
X146908294Y-82519873D01*
X147062637Y-82441232D01*
X147202777Y-82339414D01*
X147325263Y-82216928D01*
X147427081Y-82076788D01*
X147505722Y-81922445D01*
X147559251Y-81757701D01*
X147586349Y-81586611D01*
X147586349Y-81413389D01*
X147559251Y-81242299D01*
X147505722Y-81077555D01*
X147427081Y-80923212D01*
X147325263Y-80783072D01*
X147202777Y-80660586D01*
X147062637Y-80558768D01*
X146908294Y-80480127D01*
X146743550Y-80426598D01*
X146743548Y-80426597D01*
X146743547Y-80426597D01*
X146612120Y-80405781D01*
X146572460Y-80399500D01*
X146399238Y-80399500D01*
X146359577Y-80405781D01*
X146228151Y-80426597D01*
X146063401Y-80480128D01*
X145909060Y-80558768D01*
X145829105Y-80616859D01*
X145768921Y-80660586D01*
X145768919Y-80660588D01*
X145768918Y-80660588D01*
X145646437Y-80783069D01*
X145646430Y-80783078D01*
X145586166Y-80866023D01*
X145530836Y-80908689D01*
X145461223Y-80914667D01*
X145399428Y-80882061D01*
X145385532Y-80866023D01*
X145325267Y-80783078D01*
X145325263Y-80783072D01*
X145202777Y-80660586D01*
X145062637Y-80558768D01*
X144908294Y-80480127D01*
X144743550Y-80426598D01*
X144743548Y-80426597D01*
X144743547Y-80426597D01*
X144612120Y-80405781D01*
X144572460Y-80399500D01*
X144399238Y-80399500D01*
X144359577Y-80405781D01*
X144228151Y-80426597D01*
X144063401Y-80480128D01*
X143909060Y-80558768D01*
X143829105Y-80616859D01*
X143768921Y-80660586D01*
X143768919Y-80660588D01*
X143768918Y-80660588D01*
X143646437Y-80783069D01*
X143646437Y-80783070D01*
X143646435Y-80783072D01*
X143646431Y-80783078D01*
X143544617Y-80923211D01*
X143465977Y-81077552D01*
X143412446Y-81242302D01*
X143385349Y-81413389D01*
X109247168Y-81413389D01*
X109210292Y-81376513D01*
X109210288Y-81376510D01*
X109079185Y-81288909D01*
X109079172Y-81288902D01*
X108933501Y-81228564D01*
X108933489Y-81228561D01*
X108778845Y-81197800D01*
X108778842Y-81197800D01*
X108621158Y-81197800D01*
X108621155Y-81197800D01*
X108466510Y-81228561D01*
X108466498Y-81228564D01*
X108320827Y-81288902D01*
X108320814Y-81288909D01*
X108189711Y-81376510D01*
X108189707Y-81376513D01*
X108078213Y-81488007D01*
X108078210Y-81488011D01*
X107990609Y-81619114D01*
X107990602Y-81619127D01*
X107930264Y-81764798D01*
X107930261Y-81764810D01*
X107899500Y-81919453D01*
X88840732Y-81919453D01*
X88797792Y-81876513D01*
X88797788Y-81876510D01*
X88666685Y-81788909D01*
X88666672Y-81788902D01*
X88521001Y-81728564D01*
X88520989Y-81728561D01*
X88366345Y-81697800D01*
X88366342Y-81697800D01*
X88208658Y-81697800D01*
X88208655Y-81697800D01*
X88054010Y-81728561D01*
X88053998Y-81728564D01*
X87908327Y-81788902D01*
X87908314Y-81788909D01*
X87777211Y-81876510D01*
X87777207Y-81876513D01*
X87665713Y-81988007D01*
X87665710Y-81988011D01*
X87578109Y-82119114D01*
X87578102Y-82119127D01*
X87517764Y-82264798D01*
X87517761Y-82264810D01*
X87487000Y-82419453D01*
X76500500Y-82419453D01*
X76500500Y-79669453D01*
X96899500Y-79669453D01*
X96899500Y-79827146D01*
X96930261Y-79981789D01*
X96930264Y-79981801D01*
X96990602Y-80127472D01*
X96990609Y-80127485D01*
X97078210Y-80258588D01*
X97078213Y-80258592D01*
X97189707Y-80370086D01*
X97189711Y-80370089D01*
X97320814Y-80457690D01*
X97320827Y-80457697D01*
X97466498Y-80518035D01*
X97466503Y-80518037D01*
X97621153Y-80548799D01*
X97621156Y-80548800D01*
X97621158Y-80548800D01*
X97778844Y-80548800D01*
X97778845Y-80548799D01*
X97933497Y-80518037D01*
X98079179Y-80457694D01*
X98210289Y-80370089D01*
X98321789Y-80258589D01*
X98409394Y-80127479D01*
X98469737Y-79981797D01*
X98500500Y-79827142D01*
X98500500Y-79669458D01*
X98500500Y-79669455D01*
X98500499Y-79669453D01*
X99149500Y-79669453D01*
X99149500Y-79827146D01*
X99180261Y-79981789D01*
X99180264Y-79981801D01*
X99240602Y-80127472D01*
X99240609Y-80127485D01*
X99328210Y-80258588D01*
X99328213Y-80258592D01*
X99439707Y-80370086D01*
X99439711Y-80370089D01*
X99570814Y-80457690D01*
X99570827Y-80457697D01*
X99716498Y-80518035D01*
X99716503Y-80518037D01*
X99871153Y-80548799D01*
X99871156Y-80548800D01*
X99871158Y-80548800D01*
X100028844Y-80548800D01*
X100028845Y-80548799D01*
X100183497Y-80518037D01*
X100329179Y-80457694D01*
X100460289Y-80370089D01*
X100571789Y-80258589D01*
X100573417Y-80256153D01*
X124160349Y-80256153D01*
X124160349Y-80413846D01*
X124191110Y-80568489D01*
X124191113Y-80568501D01*
X124251451Y-80714172D01*
X124251458Y-80714185D01*
X124339059Y-80845288D01*
X124339062Y-80845292D01*
X124450556Y-80956786D01*
X124450560Y-80956789D01*
X124581663Y-81044390D01*
X124581676Y-81044397D01*
X124661728Y-81077555D01*
X124727352Y-81104737D01*
X124882002Y-81135499D01*
X124882005Y-81135500D01*
X124882007Y-81135500D01*
X125039693Y-81135500D01*
X125039694Y-81135499D01*
X125194346Y-81104737D01*
X125340028Y-81044394D01*
X125471138Y-80956789D01*
X125582638Y-80845289D01*
X125670243Y-80714179D01*
X125730586Y-80568497D01*
X125761349Y-80413842D01*
X125761349Y-80256158D01*
X125761349Y-80256155D01*
X125761348Y-80256153D01*
X125735753Y-80127479D01*
X125730586Y-80101503D01*
X125730584Y-80101498D01*
X125670246Y-79955827D01*
X125670239Y-79955814D01*
X125582638Y-79824711D01*
X125582635Y-79824707D01*
X125471141Y-79713213D01*
X125471137Y-79713210D01*
X125340034Y-79625609D01*
X125340021Y-79625602D01*
X125194350Y-79565264D01*
X125194338Y-79565261D01*
X125039694Y-79534500D01*
X125039691Y-79534500D01*
X124882007Y-79534500D01*
X124882004Y-79534500D01*
X124727359Y-79565261D01*
X124727347Y-79565264D01*
X124581676Y-79625602D01*
X124581663Y-79625609D01*
X124450560Y-79713210D01*
X124450556Y-79713213D01*
X124339062Y-79824707D01*
X124339059Y-79824711D01*
X124251458Y-79955814D01*
X124251451Y-79955827D01*
X124191113Y-80101498D01*
X124191110Y-80101510D01*
X124160349Y-80256153D01*
X100573417Y-80256153D01*
X100599916Y-80216492D01*
X100623516Y-80181175D01*
X100659390Y-80127485D01*
X100659390Y-80127484D01*
X100659394Y-80127479D01*
X100719737Y-79981797D01*
X100750500Y-79827142D01*
X100750500Y-79669458D01*
X100750500Y-79669455D01*
X100750499Y-79669453D01*
X100719738Y-79514810D01*
X100719737Y-79514803D01*
X100719735Y-79514798D01*
X100659397Y-79369127D01*
X100659390Y-79369114D01*
X100571789Y-79238011D01*
X100571786Y-79238007D01*
X100460292Y-79126513D01*
X100460288Y-79126510D01*
X100329185Y-79038909D01*
X100329172Y-79038902D01*
X100183501Y-78978564D01*
X100183489Y-78978561D01*
X100028845Y-78947800D01*
X100028842Y-78947800D01*
X99871158Y-78947800D01*
X99871155Y-78947800D01*
X99716510Y-78978561D01*
X99716498Y-78978564D01*
X99570827Y-79038902D01*
X99570814Y-79038909D01*
X99439711Y-79126510D01*
X99439707Y-79126513D01*
X99328213Y-79238007D01*
X99328210Y-79238011D01*
X99240609Y-79369114D01*
X99240602Y-79369127D01*
X99180264Y-79514798D01*
X99180261Y-79514810D01*
X99149500Y-79669453D01*
X98500499Y-79669453D01*
X98469738Y-79514810D01*
X98469737Y-79514803D01*
X98469735Y-79514798D01*
X98409397Y-79369127D01*
X98409390Y-79369114D01*
X98321789Y-79238011D01*
X98321786Y-79238007D01*
X98210292Y-79126513D01*
X98210288Y-79126510D01*
X98079185Y-79038909D01*
X98079172Y-79038902D01*
X97933501Y-78978564D01*
X97933489Y-78978561D01*
X97778845Y-78947800D01*
X97778842Y-78947800D01*
X97621158Y-78947800D01*
X97621155Y-78947800D01*
X97466510Y-78978561D01*
X97466498Y-78978564D01*
X97320827Y-79038902D01*
X97320814Y-79038909D01*
X97189711Y-79126510D01*
X97189707Y-79126513D01*
X97078213Y-79238007D01*
X97078210Y-79238011D01*
X96990609Y-79369114D01*
X96990602Y-79369127D01*
X96930264Y-79514798D01*
X96930261Y-79514810D01*
X96899500Y-79669453D01*
X76500500Y-79669453D01*
X76500500Y-75359568D01*
X78659500Y-75359568D01*
X78659500Y-75640431D01*
X78690942Y-75919494D01*
X78690945Y-75919512D01*
X78753439Y-76193317D01*
X78753443Y-76193329D01*
X78846200Y-76458411D01*
X78968053Y-76711442D01*
X78968055Y-76711445D01*
X79117477Y-76949248D01*
X79292584Y-77168825D01*
X79491175Y-77367416D01*
X79710752Y-77542523D01*
X79948555Y-77691945D01*
X80201592Y-77813801D01*
X80400680Y-77883465D01*
X80466670Y-77906556D01*
X80466682Y-77906560D01*
X80740491Y-77969055D01*
X80740497Y-77969055D01*
X80740505Y-77969057D01*
X80926547Y-77990018D01*
X81019569Y-78000499D01*
X81019572Y-78000500D01*
X81019575Y-78000500D01*
X81300428Y-78000500D01*
X81300429Y-78000499D01*
X81443055Y-77984429D01*
X81579494Y-77969057D01*
X81579499Y-77969056D01*
X81579509Y-77969055D01*
X81853318Y-77906560D01*
X82118408Y-77813801D01*
X82371445Y-77691945D01*
X82609248Y-77542523D01*
X82828825Y-77367416D01*
X83027416Y-77168825D01*
X83202523Y-76949248D01*
X83351945Y-76711445D01*
X83473801Y-76458408D01*
X83566560Y-76193318D01*
X83629055Y-75919509D01*
X83660500Y-75640425D01*
X83660500Y-75359575D01*
X83653901Y-75301007D01*
X83649726Y-75263950D01*
X83649726Y-75263949D01*
X83648848Y-75256153D01*
X148199500Y-75256153D01*
X148199500Y-75413846D01*
X148230261Y-75568489D01*
X148230264Y-75568501D01*
X148290602Y-75714172D01*
X148290609Y-75714185D01*
X148378210Y-75845288D01*
X148378213Y-75845292D01*
X148489707Y-75956786D01*
X148489711Y-75956789D01*
X148620814Y-76044390D01*
X148620827Y-76044397D01*
X148766498Y-76104735D01*
X148766503Y-76104737D01*
X148921153Y-76135499D01*
X148921156Y-76135500D01*
X148921158Y-76135500D01*
X149078844Y-76135500D01*
X149078845Y-76135499D01*
X149233497Y-76104737D01*
X149379179Y-76044394D01*
X149510289Y-75956789D01*
X149621789Y-75845289D01*
X149674428Y-75766510D01*
X149683572Y-75752825D01*
X149737184Y-75708019D01*
X149806509Y-75699312D01*
X149869536Y-75729466D01*
X149889776Y-75752824D01*
X149951559Y-75845288D01*
X149951562Y-75845292D01*
X150063056Y-75956786D01*
X150063060Y-75956789D01*
X150194163Y-76044390D01*
X150194176Y-76044397D01*
X150339847Y-76104735D01*
X150339852Y-76104737D01*
X150494502Y-76135499D01*
X150494505Y-76135500D01*
X150494507Y-76135500D01*
X150652193Y-76135500D01*
X150652194Y-76135499D01*
X150806846Y-76104737D01*
X150952528Y-76044394D01*
X151083638Y-75956789D01*
X151119274Y-75921153D01*
X152835349Y-75921153D01*
X152835349Y-76078846D01*
X152866110Y-76233489D01*
X152866113Y-76233501D01*
X152926451Y-76379172D01*
X152926458Y-76379185D01*
X153014059Y-76510288D01*
X153014062Y-76510292D01*
X153125556Y-76621786D01*
X153125560Y-76621789D01*
X153256663Y-76709390D01*
X153256676Y-76709397D01*
X153402347Y-76769735D01*
X153402352Y-76769737D01*
X153557002Y-76800499D01*
X153557005Y-76800500D01*
X153557007Y-76800500D01*
X153714693Y-76800500D01*
X153714694Y-76800499D01*
X153869346Y-76769737D01*
X153982015Y-76723067D01*
X154015021Y-76709397D01*
X154015021Y-76709396D01*
X154015028Y-76709394D01*
X154146138Y-76621789D01*
X154257638Y-76510289D01*
X154345243Y-76379179D01*
X154405586Y-76233497D01*
X154436349Y-76078842D01*
X154436349Y-75921158D01*
X154436349Y-75921155D01*
X154436348Y-75921153D01*
X154421258Y-75845291D01*
X154405586Y-75766503D01*
X154405584Y-75766498D01*
X154345246Y-75620827D01*
X154345239Y-75620814D01*
X154257638Y-75489711D01*
X154257635Y-75489707D01*
X154146141Y-75378213D01*
X154146137Y-75378210D01*
X154108659Y-75353168D01*
X154015034Y-75290609D01*
X154015021Y-75290602D01*
X153931853Y-75256153D01*
X157160349Y-75256153D01*
X157160349Y-75413846D01*
X157191110Y-75568489D01*
X157191113Y-75568501D01*
X157251451Y-75714172D01*
X157251458Y-75714185D01*
X157339059Y-75845288D01*
X157339062Y-75845292D01*
X157450556Y-75956786D01*
X157450560Y-75956789D01*
X157581663Y-76044390D01*
X157581676Y-76044397D01*
X157727347Y-76104735D01*
X157727352Y-76104737D01*
X157882002Y-76135499D01*
X157882005Y-76135500D01*
X157882007Y-76135500D01*
X158039693Y-76135500D01*
X158039694Y-76135499D01*
X158194346Y-76104737D01*
X158340028Y-76044394D01*
X158471138Y-75956789D01*
X158582638Y-75845289D01*
X158670243Y-75714179D01*
X158730586Y-75568497D01*
X158761349Y-75413842D01*
X158761349Y-75256158D01*
X158761349Y-75256155D01*
X158761348Y-75256153D01*
X158730587Y-75101510D01*
X158730586Y-75101503D01*
X158730584Y-75101498D01*
X158670246Y-74955827D01*
X158670239Y-74955814D01*
X158582638Y-74824711D01*
X158582635Y-74824707D01*
X158471141Y-74713213D01*
X158471137Y-74713210D01*
X158340034Y-74625609D01*
X158340021Y-74625602D01*
X158194350Y-74565264D01*
X158194338Y-74565261D01*
X158039694Y-74534500D01*
X158039691Y-74534500D01*
X157882007Y-74534500D01*
X157882004Y-74534500D01*
X157727359Y-74565261D01*
X157727347Y-74565264D01*
X157581676Y-74625602D01*
X157581663Y-74625609D01*
X157450560Y-74713210D01*
X157450556Y-74713213D01*
X157339062Y-74824707D01*
X157339059Y-74824711D01*
X157251458Y-74955814D01*
X157251451Y-74955827D01*
X157191113Y-75101498D01*
X157191110Y-75101510D01*
X157160349Y-75256153D01*
X153931853Y-75256153D01*
X153869350Y-75230264D01*
X153869338Y-75230261D01*
X153714694Y-75199500D01*
X153714691Y-75199500D01*
X153557007Y-75199500D01*
X153557004Y-75199500D01*
X153402359Y-75230261D01*
X153402347Y-75230264D01*
X153256676Y-75290602D01*
X153256663Y-75290609D01*
X153125560Y-75378210D01*
X153125556Y-75378213D01*
X153014062Y-75489707D01*
X153014059Y-75489711D01*
X152926458Y-75620814D01*
X152926451Y-75620827D01*
X152866113Y-75766498D01*
X152866110Y-75766510D01*
X152835349Y-75921153D01*
X151119274Y-75921153D01*
X151195138Y-75845289D01*
X151282743Y-75714179D01*
X151343086Y-75568497D01*
X151373849Y-75413842D01*
X151373849Y-75256158D01*
X151373849Y-75256155D01*
X151373848Y-75256153D01*
X151343087Y-75101510D01*
X151343086Y-75101503D01*
X151343084Y-75101498D01*
X151282746Y-74955827D01*
X151282739Y-74955814D01*
X151195138Y-74824711D01*
X151195135Y-74824707D01*
X151083641Y-74713213D01*
X151083637Y-74713210D01*
X150952534Y-74625609D01*
X150952521Y-74625602D01*
X150806850Y-74565264D01*
X150806838Y-74565261D01*
X150652194Y-74534500D01*
X150652191Y-74534500D01*
X150494507Y-74534500D01*
X150494504Y-74534500D01*
X150339859Y-74565261D01*
X150339847Y-74565264D01*
X150194176Y-74625602D01*
X150194163Y-74625609D01*
X150063060Y-74713210D01*
X150063056Y-74713213D01*
X149951562Y-74824707D01*
X149889776Y-74917176D01*
X149836163Y-74961980D01*
X149766838Y-74970687D01*
X149703811Y-74940532D01*
X149683572Y-74917175D01*
X149621789Y-74824711D01*
X149621786Y-74824707D01*
X149510292Y-74713213D01*
X149510288Y-74713210D01*
X149379185Y-74625609D01*
X149379172Y-74625602D01*
X149233501Y-74565264D01*
X149233489Y-74565261D01*
X149078845Y-74534500D01*
X149078842Y-74534500D01*
X148921158Y-74534500D01*
X148921155Y-74534500D01*
X148766510Y-74565261D01*
X148766498Y-74565264D01*
X148620827Y-74625602D01*
X148620814Y-74625609D01*
X148489711Y-74713210D01*
X148489707Y-74713213D01*
X148378213Y-74824707D01*
X148378210Y-74824711D01*
X148290609Y-74955814D01*
X148290602Y-74955827D01*
X148230264Y-75101498D01*
X148230261Y-75101510D01*
X148199500Y-75256153D01*
X83648848Y-75256153D01*
X83629057Y-75080505D01*
X83629054Y-75080487D01*
X83566560Y-74806682D01*
X83566556Y-74806670D01*
X83533853Y-74713210D01*
X83473801Y-74541592D01*
X83351945Y-74288555D01*
X83202523Y-74050752D01*
X83027416Y-73831175D01*
X82828825Y-73632584D01*
X82609248Y-73457477D01*
X82371445Y-73308055D01*
X82371442Y-73308053D01*
X82118411Y-73186200D01*
X81853329Y-73093443D01*
X81853317Y-73093439D01*
X81579512Y-73030945D01*
X81579494Y-73030942D01*
X81300431Y-72999500D01*
X81300425Y-72999500D01*
X81019575Y-72999500D01*
X81019568Y-72999500D01*
X80740505Y-73030942D01*
X80740487Y-73030945D01*
X80466682Y-73093439D01*
X80466670Y-73093443D01*
X80201588Y-73186200D01*
X79948557Y-73308053D01*
X79710753Y-73457476D01*
X79491175Y-73632583D01*
X79292583Y-73831175D01*
X79117476Y-74050753D01*
X78968053Y-74288557D01*
X78846200Y-74541588D01*
X78753443Y-74806670D01*
X78753439Y-74806682D01*
X78690945Y-75080487D01*
X78690942Y-75080505D01*
X78659500Y-75359568D01*
X76500500Y-75359568D01*
X76500500Y-66128711D01*
X81149500Y-66128711D01*
X81149500Y-66371288D01*
X81181161Y-66611785D01*
X81243947Y-66846104D01*
X81336773Y-67070205D01*
X81336776Y-67070212D01*
X81458064Y-67280289D01*
X81458066Y-67280292D01*
X81458067Y-67280293D01*
X81605733Y-67472736D01*
X81605739Y-67472743D01*
X81777256Y-67644260D01*
X81777263Y-67644266D01*
X81831771Y-67686091D01*
X81969711Y-67791936D01*
X82179788Y-67913224D01*
X82403900Y-68006054D01*
X82638211Y-68068838D01*
X82818586Y-68092584D01*
X82878711Y-68100500D01*
X82878712Y-68100500D01*
X83121289Y-68100500D01*
X83169388Y-68094167D01*
X83361789Y-68068838D01*
X83596100Y-68006054D01*
X83820212Y-67913224D01*
X84030289Y-67791936D01*
X84222738Y-67644265D01*
X84394265Y-67472738D01*
X84541936Y-67280289D01*
X84663224Y-67070212D01*
X84756054Y-66846100D01*
X84818838Y-66611789D01*
X84846853Y-66398992D01*
X159749500Y-66398992D01*
X159749500Y-66801007D01*
X159788907Y-66999119D01*
X159788909Y-66999127D01*
X159866212Y-67185752D01*
X159866217Y-67185762D01*
X159978441Y-67353718D01*
X160121281Y-67496558D01*
X160289237Y-67608782D01*
X160289241Y-67608784D01*
X160289244Y-67608786D01*
X160475873Y-67686091D01*
X160673992Y-67725499D01*
X160673996Y-67725500D01*
X160673997Y-67725500D01*
X160876004Y-67725500D01*
X160876005Y-67725499D01*
X161074127Y-67686091D01*
X161260756Y-67608786D01*
X161428718Y-67496558D01*
X161571558Y-67353718D01*
X161683786Y-67185756D01*
X161761091Y-66999127D01*
X161800500Y-66801003D01*
X161800500Y-66398997D01*
X161800499Y-66398992D01*
X164199500Y-66398992D01*
X164199500Y-66801007D01*
X164238907Y-66999119D01*
X164238909Y-66999127D01*
X164316212Y-67185752D01*
X164316217Y-67185762D01*
X164428441Y-67353718D01*
X164571281Y-67496558D01*
X164739237Y-67608782D01*
X164739241Y-67608784D01*
X164739244Y-67608786D01*
X164925873Y-67686091D01*
X165123992Y-67725499D01*
X165123996Y-67725500D01*
X165123997Y-67725500D01*
X165326004Y-67725500D01*
X165326005Y-67725499D01*
X165524127Y-67686091D01*
X165710756Y-67608786D01*
X165878718Y-67496558D01*
X166021558Y-67353718D01*
X166133786Y-67185756D01*
X166211091Y-66999127D01*
X166250500Y-66801003D01*
X166250500Y-66398997D01*
X166211091Y-66200873D01*
X166181200Y-66128711D01*
X169649500Y-66128711D01*
X169649500Y-66371288D01*
X169681161Y-66611785D01*
X169743947Y-66846104D01*
X169836773Y-67070205D01*
X169836776Y-67070212D01*
X169958064Y-67280289D01*
X169958066Y-67280292D01*
X169958067Y-67280293D01*
X170105733Y-67472736D01*
X170105739Y-67472743D01*
X170277256Y-67644260D01*
X170277263Y-67644266D01*
X170331771Y-67686091D01*
X170469711Y-67791936D01*
X170679788Y-67913224D01*
X170903900Y-68006054D01*
X171138211Y-68068838D01*
X171318586Y-68092584D01*
X171378711Y-68100500D01*
X171378712Y-68100500D01*
X171621289Y-68100500D01*
X171669388Y-68094167D01*
X171861789Y-68068838D01*
X172096100Y-68006054D01*
X172320212Y-67913224D01*
X172530289Y-67791936D01*
X172722738Y-67644265D01*
X172894265Y-67472738D01*
X173041936Y-67280289D01*
X173163224Y-67070212D01*
X173256054Y-66846100D01*
X173318838Y-66611789D01*
X173350500Y-66371288D01*
X173350500Y-66128712D01*
X173318838Y-65888211D01*
X173256054Y-65653900D01*
X173163224Y-65429788D01*
X173041936Y-65219711D01*
X172894265Y-65027262D01*
X172894260Y-65027256D01*
X172722743Y-64855739D01*
X172722736Y-64855733D01*
X172530293Y-64708067D01*
X172530292Y-64708066D01*
X172530289Y-64708064D01*
X172320212Y-64586776D01*
X172320205Y-64586773D01*
X172096104Y-64493947D01*
X171861785Y-64431161D01*
X171621289Y-64399500D01*
X171621288Y-64399500D01*
X171378712Y-64399500D01*
X171378711Y-64399500D01*
X171138214Y-64431161D01*
X170903895Y-64493947D01*
X170679794Y-64586773D01*
X170679785Y-64586777D01*
X170469706Y-64708067D01*
X170277263Y-64855733D01*
X170277256Y-64855739D01*
X170105739Y-65027256D01*
X170105733Y-65027263D01*
X169958067Y-65219706D01*
X169836777Y-65429785D01*
X169836773Y-65429794D01*
X169743947Y-65653895D01*
X169681161Y-65888214D01*
X169649500Y-66128711D01*
X166181200Y-66128711D01*
X166133786Y-66014244D01*
X166133784Y-66014241D01*
X166133782Y-66014237D01*
X166021558Y-65846281D01*
X165878718Y-65703441D01*
X165710762Y-65591217D01*
X165710752Y-65591212D01*
X165524127Y-65513909D01*
X165524119Y-65513907D01*
X165326007Y-65474500D01*
X165326003Y-65474500D01*
X165123997Y-65474500D01*
X165123992Y-65474500D01*
X164925880Y-65513907D01*
X164925872Y-65513909D01*
X164739247Y-65591212D01*
X164739237Y-65591217D01*
X164571281Y-65703441D01*
X164428441Y-65846281D01*
X164316217Y-66014237D01*
X164316212Y-66014247D01*
X164238909Y-66200872D01*
X164238907Y-66200880D01*
X164199500Y-66398992D01*
X161800499Y-66398992D01*
X161761091Y-66200873D01*
X161683786Y-66014244D01*
X161683784Y-66014241D01*
X161683782Y-66014237D01*
X161571558Y-65846281D01*
X161428718Y-65703441D01*
X161260762Y-65591217D01*
X161260752Y-65591212D01*
X161074127Y-65513909D01*
X161074119Y-65513907D01*
X160876007Y-65474500D01*
X160876003Y-65474500D01*
X160673997Y-65474500D01*
X160673992Y-65474500D01*
X160475880Y-65513907D01*
X160475872Y-65513909D01*
X160289247Y-65591212D01*
X160289237Y-65591217D01*
X160121281Y-65703441D01*
X159978441Y-65846281D01*
X159866217Y-66014237D01*
X159866212Y-66014247D01*
X159788909Y-66200872D01*
X159788907Y-66200880D01*
X159749500Y-66398992D01*
X84846853Y-66398992D01*
X84850500Y-66371288D01*
X84850500Y-66128712D01*
X84818838Y-65888211D01*
X84756054Y-65653900D01*
X84663224Y-65429788D01*
X84541936Y-65219711D01*
X84394265Y-65027262D01*
X84394260Y-65027256D01*
X84222743Y-64855739D01*
X84222736Y-64855733D01*
X84030293Y-64708067D01*
X84030292Y-64708066D01*
X84030289Y-64708064D01*
X83820212Y-64586776D01*
X83820205Y-64586773D01*
X83596104Y-64493947D01*
X83361785Y-64431161D01*
X83121289Y-64399500D01*
X83121288Y-64399500D01*
X82878712Y-64399500D01*
X82878711Y-64399500D01*
X82638214Y-64431161D01*
X82403895Y-64493947D01*
X82179794Y-64586773D01*
X82179785Y-64586777D01*
X81969706Y-64708067D01*
X81777263Y-64855733D01*
X81777256Y-64855739D01*
X81605739Y-65027256D01*
X81605733Y-65027263D01*
X81458067Y-65219706D01*
X81336777Y-65429785D01*
X81336773Y-65429794D01*
X81243947Y-65653895D01*
X81181161Y-65888214D01*
X81149500Y-66128711D01*
X76500500Y-66128711D01*
X76500500Y-62624500D01*
X76520185Y-62557461D01*
X76572989Y-62511706D01*
X76624500Y-62500500D01*
X157825519Y-62500500D01*
X157892558Y-62520185D01*
G37*
%TD.AperFunction*%
%TD*%
M02*
